<?xml version="1.0" encoding="UTF-8"?>
<svg width="58px" height="58px" viewBox="0 0 58 58" version="1.1" xmlns="http://www.w3.org/2000/svg" xmlns:xlink="http://www.w3.org/1999/xlink">
    <!-- Generator: Sketch 43.2 (39069) - http://www.bohemiancoding.com/sketch -->
    <title>58 - Settings</title>
    <desc>Created with Sketch.</desc>
    <defs>
        <rect id="path-1" x="9" y="4" width="39.7246518" height="49.5622028"></rect>
    </defs>
    <g id="Page-1" stroke="none" stroke-width="1" fill="none" fill-rule="evenodd">
        <g id="58---Settings">
            <g id="Rectangle-2">
                <use fill="#2C6520" fill-rule="evenodd" xlink:href="#path-1"></use>
                <rect stroke="#FFFFFF" stroke-width="2" x="10" y="5" width="37.7246518" height="47.5622028"></rect>
            </g>
            <path d="M14.3183594,24.0029297 L18.9941406,24.0029297 C21.4902344,24.0029297 22.9755859,25.6816406 22.9755859,27.9228516 C22.9755859,30.1992188 21.4726562,31.8251953 18.9765625,31.8251953 L16.4453125,31.8251953 L16.4453125,36 L14.3183594,36 L14.3183594,24.0029297 Z M16.4453125,25.734375 L16.4453125,30.1113281 L17.9833984,30.1113281 C19.7587891,30.1113281 20.8134766,29.6542969 20.8134766,27.9228516 C20.8134766,26.5253906 20.0048828,25.734375 18.6425781,25.734375 L16.4453125,25.734375 Z M24.7158203,24.0029297 L28.9433594,24.0029297 C32.8105469,24.0029297 34.2783203,26.4638672 34.2783203,29.9794922 C34.2783203,33.4599609 32.8457031,36 28.9433594,36 L24.7158203,36 L24.7158203,24.0029297 Z M26.8427734,25.7783203 L26.8427734,34.2246094 L28.6884766,34.2246094 C30.9208984,34.2246094 32.0898438,32.9765625 32.0898438,30.0146484 C32.0898438,27.5185547 31.2460938,25.7783203 28.6884766,25.7783203 L26.8427734,25.7783203 Z M38.4179688,36 L38.4179688,31.1044922 L43.3134766,31.1044922 L43.3134766,29.3554688 L38.4179688,29.3554688 L38.4179688,25.7871094 L43.7792969,25.7871094 L43.7792969,24.0029297 L36.2910156,24.0029297 L36.2910156,36 L38.4179688,36 Z" id="PDF" fill="#FFFFFF"></path>
            <path d="M33.065918,5.36035156 L47.7583008,18.9799805" id="Path-5" stroke="#FFFFFF"></path>
        </g>
    </g>
</svg>