<?xml version="1.0" encoding="utf-8"?>
<!-- Generator: Adobe Illustrator 15.0.2, SVG Export Plug-In . SVG Version: 6.00 Build 0)  -->
<!DOCTYPE svg PUBLIC "-//W3C//DTD SVG 1.1//EN" "http://www.w3.org/Graphics/SVG/1.1/DTD/svg11.dtd">
<svg version="1.1" xmlns="http://www.w3.org/2000/svg" xmlns:xlink="http://www.w3.org/1999/xlink" x="0px" y="0px" width="156px"
	 height="42px" viewBox="0 0 156 42" enable-background="new 0 0 156 42" xml:space="preserve">
<g id="Layer_2">
</g>
<g id="Layer_3">
	<g>
		<path fill="#FFFFFF" d="M2.202,19.363c0.139-1.69,0.492-3.347,1.057-4.945C6.041,6.544,13.522,1.254,21.878,1.254V0.126
			c-4.403,0-8.613,1.355-12.177,3.918C7.985,5.279,6.472,6.759,5.199,8.448c-1.286,1.705-2.296,3.588-3.005,5.595
			c-0.607,1.717-0.982,3.501-1.125,5.32H1.068l-0.006,0.144c-0.032,0.45-0.052,0.901-0.054,1.354L1,21.063v1.685h41.75v-3.386
			L2.202,19.363L2.202,19.363z"/>
		<path fill="#FFFFFF" d="M42.333,25.736l-0.108,0.375c-0.077,0.225-0.773,2.156-0.857,2.375c-1.498,3.895-4.104,7.225-7.54,9.627
			c-3.513,2.461-7.646,3.76-11.949,3.76v-1.131c8.117,0,15.526-5.088,18.435-12.662c0.041-0.104,0.248-0.666,0.448-1.213H1.04
			v-1.131h40.029H42.333z"/>
		<g>
			<path fill="#FFFFFF" d="M56.406,15.97c-0.294-0.406-0.693-0.738-1.197-0.997c-0.504-0.259-1.071-0.389-1.701-0.389
				c-0.336,0-0.675,0.045-1.018,0.136c-0.343,0.091-0.655,0.238-0.935,0.441c-0.28,0.203-0.508,0.455-0.683,0.756
				C50.697,16.219,50.61,16.58,50.61,17c0,0.406,0.081,0.746,0.242,1.019c0.161,0.273,0.378,0.504,0.651,0.693
				s0.595,0.35,0.966,0.483c0.371,0.133,0.766,0.27,1.186,0.41c0.504,0.154,1.015,0.329,1.533,0.525
				c0.518,0.196,0.987,0.455,1.407,0.777c0.42,0.322,0.763,0.724,1.029,1.208c0.266,0.482,0.399,1.096,0.399,1.836
				c0,0.771-0.144,1.439-0.431,2.006c-0.287,0.568-0.668,1.037-1.144,1.408c-0.477,0.371-1.026,0.646-1.649,0.828
				s-1.263,0.273-1.921,0.273c-0.938,0-1.845-0.182-2.719-0.545c-0.875-0.365-1.6-0.904-2.174-1.617l1.617-1.365
				c0.35,0.518,0.819,0.938,1.407,1.26c0.588,0.322,1.225,0.482,1.911,0.482c0.35,0,0.7-0.049,1.05-0.146
				c0.35-0.098,0.668-0.252,0.955-0.463c0.287-0.209,0.521-0.471,0.704-0.787c0.182-0.314,0.273-0.695,0.273-1.145
				c0-0.447-0.094-0.822-0.283-1.123s-0.445-0.557-0.767-0.766c-0.322-0.211-0.697-0.389-1.124-0.537
				c-0.427-0.146-0.879-0.296-1.354-0.451c-0.476-0.14-0.945-0.311-1.407-0.514c-0.462-0.203-0.875-0.462-1.239-0.777
				c-0.364-0.315-0.658-0.703-0.882-1.166c-0.224-0.462-0.336-1.036-0.336-1.722c0-0.742,0.15-1.379,0.452-1.911
				c0.301-0.532,0.693-0.973,1.176-1.323c0.483-0.35,1.029-0.605,1.638-0.767c0.609-0.161,1.221-0.242,1.837-0.242
				c0.868,0,1.68,0.154,2.436,0.462c0.756,0.308,1.365,0.721,1.827,1.239L56.406,15.97z"/>
			<path fill="#FFFFFF" d="M61.95,22.459h0.063l4.18-4.326h2.646l-4.662,4.515l5.062,5.439h-2.73l-4.494-5.166H61.95v5.166h-1.974
				V12.211h1.974V22.459z"/>
			<path fill="#FFFFFF" d="M79.737,23.09c0,0.77-0.137,1.477-0.41,2.121c-0.273,0.643-0.65,1.199-1.135,1.668
				c-0.482,0.471-1.053,0.834-1.711,1.092c-0.658,0.26-1.365,0.389-2.121,0.389s-1.463-0.129-2.121-0.389
				c-0.658-0.258-1.225-0.621-1.701-1.092c-0.476-0.469-0.85-1.025-1.123-1.668c-0.273-0.645-0.41-1.352-0.41-2.121
				s0.137-1.475,0.41-2.111c0.273-0.637,0.647-1.187,1.123-1.648c0.477-0.462,1.043-0.822,1.701-1.082
				c0.658-0.259,1.365-0.389,2.121-0.389s1.463,0.13,2.121,0.389c0.658,0.259,1.229,0.619,1.711,1.082
				c0.484,0.462,0.861,1.011,1.135,1.648C79.601,21.615,79.737,22.32,79.737,23.09z M77.679,23.1c0-0.475-0.074-0.928-0.221-1.361
				c-0.148-0.432-0.362-0.812-0.643-1.14c-0.281-0.328-0.629-0.59-1.043-0.785c-0.414-0.196-0.889-0.293-1.422-0.293
				c-0.534,0-1.008,0.098-1.423,0.293c-0.414,0.195-0.762,0.457-1.042,0.785c-0.281,0.328-0.496,0.708-0.643,1.14
				c-0.148,0.434-0.222,0.887-0.222,1.361s0.073,0.928,0.222,1.361c0.146,0.432,0.361,0.816,0.643,1.152
				c0.28,0.334,0.628,0.6,1.042,0.795c0.415,0.195,0.889,0.293,1.423,0.293c0.533,0,1.008-0.098,1.422-0.293
				s0.762-0.461,1.043-0.795c0.28-0.336,0.494-0.721,0.643-1.152C77.604,24.027,77.679,23.574,77.679,23.1z M74.78,16.243h-1.617
				l2.101-3.024h2.373L74.78,16.243z"/>
			<path fill="#FFFFFF" d="M83.558,28.088h-1.974V12.211h1.974V28.088z"/>
			<path fill="#FFFFFF" d="M92.273,21.641c0-0.742-0.225-1.292-0.673-1.649c-0.448-0.357-1.043-0.535-1.784-0.535
				c-0.561,0-1.089,0.108-1.586,0.325c-0.497,0.217-0.913,0.494-1.25,0.83l-1.05-1.26c0.49-0.462,1.089-0.826,1.796-1.092
				c0.707-0.266,1.466-0.399,2.278-0.399c0.714,0,1.334,0.102,1.858,0.305c0.525,0.203,0.956,0.479,1.292,0.83
				s0.588,0.763,0.756,1.239c0.168,0.476,0.252,0.987,0.252,1.532v4.348c0,0.336,0.011,0.689,0.031,1.061
				c0.021,0.371,0.06,0.676,0.115,0.914h-1.784c-0.112-0.477-0.168-0.953-0.168-1.43h-0.063c-0.364,0.533-0.822,0.945-1.376,1.24
				c-0.553,0.293-1.207,0.441-1.963,0.441c-0.393,0-0.802-0.053-1.229-0.158c-0.428-0.105-0.815-0.275-1.166-0.514
				c-0.35-0.238-0.64-0.553-0.871-0.945s-0.347-0.875-0.347-1.449c0-0.756,0.203-1.355,0.609-1.795
				c0.405-0.441,0.938-0.777,1.596-1.01c0.658-0.23,1.399-0.381,2.227-0.451c0.825-0.068,1.658-0.104,2.499-0.104V21.641z
				 M91.79,23.342c-0.49,0-0.998,0.02-1.522,0.062c-0.525,0.041-1.001,0.125-1.428,0.252c-0.428,0.125-0.781,0.314-1.061,0.566
				c-0.28,0.252-0.42,0.588-0.42,1.008c0,0.295,0.059,0.539,0.178,0.736c0.119,0.195,0.276,0.355,0.473,0.482
				c0.196,0.125,0.413,0.213,0.651,0.262c0.237,0.051,0.482,0.074,0.734,0.074c0.925,0,1.635-0.275,2.132-0.83
				c0.497-0.553,0.746-1.248,0.746-2.09v-0.523H91.79z"/>
			<path fill="#FFFFFF" d="M101.219,28.088h-2.142l-4.053-9.955h2.184l2.919,7.833h0.042l2.94-7.833h2.1L101.219,28.088z"/>
			<path fill="#FFFFFF" d="M116.276,23.09c0,0.77-0.137,1.477-0.41,2.121c-0.272,0.643-0.65,1.199-1.134,1.668
				c-0.482,0.471-1.054,0.834-1.711,1.092c-0.658,0.26-1.365,0.389-2.121,0.389s-1.464-0.129-2.121-0.389
				c-0.658-0.258-1.226-0.621-1.701-1.092c-0.477-0.469-0.851-1.025-1.123-1.668c-0.273-0.645-0.41-1.352-0.41-2.121
				s0.137-1.475,0.41-2.111c0.272-0.637,0.646-1.187,1.123-1.648c0.476-0.462,1.043-0.822,1.701-1.082
				c0.657-0.259,1.365-0.389,2.121-0.389s1.463,0.13,2.121,0.389c0.657,0.259,1.229,0.619,1.711,1.082
				c0.483,0.462,0.861,1.011,1.134,1.648C116.14,21.615,116.276,22.32,116.276,23.09z M114.218,23.1
				c0-0.475-0.073-0.928-0.221-1.361c-0.147-0.432-0.361-0.812-0.643-1.14s-0.629-0.59-1.043-0.785
				c-0.414-0.196-0.889-0.293-1.422-0.293c-0.534,0-1.008,0.098-1.422,0.293c-0.415,0.195-0.762,0.457-1.043,0.785
				s-0.495,0.708-0.643,1.14c-0.147,0.434-0.221,0.887-0.221,1.361s0.073,0.928,0.221,1.361c0.147,0.432,0.361,0.816,0.643,1.152
				c0.281,0.334,0.628,0.6,1.043,0.795c0.414,0.195,0.888,0.293,1.422,0.293c0.533,0,1.008-0.098,1.422-0.293
				s0.762-0.461,1.043-0.795c0.281-0.336,0.495-0.721,0.643-1.152C114.145,24.027,114.218,23.574,114.218,23.1z"/>
			<path fill="#FFFFFF" d="M118.858,29.789c0.435,0.488,0.977,0.881,1.628,1.176c0.651,0.293,1.319,0.439,2.006,0.439
				c0.657,0,1.211-0.094,1.658-0.283c0.448-0.188,0.809-0.447,1.082-0.777c0.272-0.328,0.469-0.717,0.588-1.164
				c0.119-0.449,0.179-0.932,0.179-1.449v-1.281h-0.042c-0.364,0.561-0.861,0.986-1.491,1.281c-0.63,0.293-1.302,0.441-2.016,0.441
				c-0.756,0-1.446-0.133-2.068-0.4c-0.624-0.266-1.152-0.629-1.586-1.092c-0.435-0.461-0.771-1.004-1.008-1.627
				c-0.238-0.623-0.357-1.291-0.357-2.006c0-0.713,0.119-1.385,0.357-2.016c0.237-0.63,0.573-1.179,1.008-1.648
				c0.434-0.469,0.959-0.84,1.575-1.113c0.615-0.273,1.302-0.41,2.058-0.41c0.714,0,1.396,0.154,2.048,0.462
				c0.65,0.308,1.165,0.777,1.543,1.407h0.042v-1.596h1.911v9.451c0,0.727-0.091,1.424-0.272,2.088
				c-0.183,0.666-0.49,1.254-0.925,1.766c-0.434,0.51-1.001,0.92-1.7,1.229c-0.7,0.307-1.568,0.461-2.604,0.461
				c-0.868,0-1.739-0.158-2.614-0.473s-1.628-0.76-2.258-1.334L118.858,29.789z M119.447,23.006c0,0.461,0.073,0.902,0.221,1.322
				s0.365,0.791,0.653,1.113c0.287,0.322,0.635,0.58,1.042,0.777c0.407,0.195,0.871,0.293,1.391,0.293
				c0.506,0,0.97-0.09,1.391-0.273c0.422-0.182,0.779-0.43,1.074-0.744c0.295-0.316,0.523-0.686,0.685-1.113
				s0.242-0.885,0.242-1.375c0-0.477-0.081-0.924-0.242-1.344c-0.161-0.421-0.393-0.792-0.695-1.114
				c-0.302-0.322-0.66-0.578-1.074-0.767s-0.874-0.283-1.38-0.283c-0.52,0-0.983,0.094-1.391,0.283s-0.755,0.441-1.042,0.756
				c-0.288,0.315-0.506,0.686-0.653,1.112C119.521,22.078,119.447,22.529,119.447,23.006z"/>
			<path fill="#FFFFFF" d="M132.739,14.542c0,0.364-0.128,0.665-0.386,0.903c-0.257,0.238-0.565,0.357-0.927,0.357
				c-0.36,0-0.666-0.122-0.916-0.367s-0.375-0.542-0.375-0.893c0-0.364,0.125-0.668,0.375-0.914c0.25-0.245,0.556-0.368,0.916-0.368
				c0.361,0,0.67,0.123,0.927,0.368C132.611,13.874,132.739,14.179,132.739,14.542z M132.425,28.088h-1.975v-9.955h1.975V28.088z"/>
			<path fill="#FFFFFF" d="M136.729,18.133c0.027,0.252,0.049,0.536,0.062,0.851s0.021,0.578,0.021,0.788h0.062
				c0.126-0.266,0.298-0.515,0.515-0.746s0.465-0.434,0.745-0.609c0.28-0.175,0.589-0.312,0.925-0.41
				c0.336-0.098,0.686-0.147,1.05-0.147c0.644,0,1.197,0.109,1.659,0.326c0.462,0.217,0.847,0.507,1.154,0.872
				c0.309,0.364,0.536,0.791,0.683,1.281c0.147,0.49,0.221,1.015,0.221,1.576v6.174h-1.974v-5.523c0-0.406-0.032-0.791-0.095-1.155
				c-0.063-0.364-0.179-0.686-0.347-0.966c-0.168-0.28-0.399-0.504-0.693-0.672s-0.672-0.252-1.134-0.252
				c-0.784,0-1.425,0.297-1.921,0.893c-0.497,0.595-0.746,1.389-0.746,2.383v5.293h-1.974v-7.812c0-0.266-0.008-0.609-0.021-1.029
				c-0.014-0.42-0.035-0.791-0.062-1.113H136.729z"/>
		</g>
	</g>
</g>
</svg>
