<?xml version="1.0" encoding="utf-8"?>
<!-- Generator: Adobe Illustrator 16.2.1, SVG Export Plug-In . SVG Version: 6.00 Build 0)  -->
<!DOCTYPE svg PUBLIC "-//W3C//DTD SVG 1.1//EN" "http://www.w3.org/Graphics/SVG/1.1/DTD/svg11.dtd">
<svg version="1.1" id="Layer_1" xmlns="http://www.w3.org/2000/svg" xmlns:xlink="http://www.w3.org/1999/xlink" x="0px" y="0px"
	 width="1000px" height="180px" viewBox="0 0 1000 180" enable-background="new 0 0 1000 180" xml:space="preserve">
<g>
	<polygon fill="#E2E7E2" stroke="#B1B2B3" stroke-miterlimit="10" points="10.819,110.714 3,132.429 38.185,153 131.034,161 
		215.087,157.571 266.888,177 354.85,174.714 418.379,156.429 519.046,175.857 619.716,155.286 713.542,141.571 791.731,138.143 
		847.439,139.607 871.873,144.5 909.991,144.5 946.153,136.179 993.066,122.303 996.977,106.224 981.064,94.031 938.236,86.016 
		741.886,73.188 596.258,82.5 584.53,82.5 391.99,85.75 248.155,82.809 176.25,94.266 83.143,102.736 	"/>
	<g>
		<polygon fill="#3E6088" points="136.77,61.734 113.497,62.579 101.924,71.027 86.976,79.476 81.742,100.859 77.757,117.142 
			109.803,120.529 148.881,118.071 180.692,117.924 175.263,102.568 161.731,89.334 154.09,70.746 		"/>
		<polygon fill="#FFFFFF" points="147.793,82.221 141.299,79.475 133.586,77.574 123.573,84.264 117.958,79.053 100.706,87.08 
			89.745,93.627 91.775,84.967 106.794,76.379 115.996,70.746 135.48,68.775 148.741,75.533 152.8,83.7 		"/>
		<polygon fill="#92A3BF" points="62.297,82.731 53.609,86.732 45.508,97.498 33.016,123 54,125 101.584,123 85.506,109.967 
			74.114,89.139 		"/>
		<polygon fill="#FFFFFF" points="49.559,100.902 57.913,96.651 61.457,102.887 67.026,97.502 78.418,105.154 70.57,93.251 
			62.216,88.149 55.888,91.268 		"/>
	</g>
	<polygon fill="#7CA2A7" points="263.734,38.326 274.655,60.11 289.045,87.957 298.741,99.662 300.001,109.334 216.138,111.428 
		187.61,108.494 205.231,81.082 222.272,47.893 251.702,39.186 	"/>
	<polygon fill="#92A3BF" points="225.251,84.197 229.193,97.518 233.861,105.252 254.71,118.68 212.493,117.715 188.115,119.971 
		170.001,118 171.073,114.441 177.743,110.408 187.61,101.58 193.485,84.092 201.704,82.693 	"/>
	<polygon fill="#ABC88A" points="266.12,89.783 274.315,95.691 281.732,98.322 294.361,120.275 278.465,119.971 248.526,121.691 
		233.985,120.275 240.707,107.938 246.834,90.504 	"/>
	<polygon fill="#FFFFFF" points="226.392,54.01 218.794,68.078 227.032,60.927 237.662,62.007 242.565,58.254 256.209,61.455 
		258.981,53.396 268.362,59.909 261.246,46.275 252.946,46.061 	"/>
	<polygon fill="#FFFFFF" points="196,88.064 192.251,98.106 195.051,95.48 197.477,93.568 202.025,94.746 206.005,96.955 
		210.411,95.482 215.67,94.158 220.076,95.777 226.896,100.314 224.406,95.265 223.06,88.549 202.015,86.774 	"/>
	<polygon fill="#FFFFFF" points="250.665,95.478 247.834,102.973 253.262,99.612 260.497,105.477 265.394,101.277 274.108,106.436 
		279.294,101.922 271.618,100.204 265.291,95.047 	"/>
	<polygon fill="#83706A" points="296.667,109 299.506,97.595 305.237,65.523 311.203,55.546 336.656,50.277 359.003,48.418 
		390.303,55.683 397.403,59.109 398.995,78.945 402.548,96.17 412.021,106.148 351.034,117.55 	"/>
	<polygon fill="#FFFFFF" points="310.132,68.355 308.895,77.084 319.237,65.834 327.803,68.167 331.843,61.667 340.408,61.167 
		346.549,56.334 337.015,55.667 314.713,60.667 	"/>
	<polygon fill="#FFFFFF" points="360.932,62 363.037,66.785 363.521,72.785 373.219,67.535 377.824,73.285 384.611,70.285 
		385.981,75.834 395.192,88.167 392.769,77.667 391.637,63.834 385.546,61.367 362.871,57.167 	"/>
	<polygon fill="#D3D4D5" points="713.223,51.726 724.109,56.819 734.265,71.027 749.924,104 663.973,104 684.129,86.904 
		698.408,60.134 	"/>
	<polygon fill="#FFFFFF" points="729.187,74.862 718.717,69.449 714.274,77.389 707.293,70.533 693.012,80.275 702.849,65.119 
		713.322,58.624 721.254,62.594 	"/>
	<polygon fill="#92A3BF" points="648.394,35.589 660.64,37.395 672.504,51.828 681.306,72.035 695.464,94.048 698.527,107.038 
		665.232,104.512 617.779,108.481 597.878,106.315 605.149,90.801 618.544,74.922 635.765,48.219 	"/>
	<polygon fill="#FFFFFF" points="671.355,67.344 657.195,60.85 652.604,65.18 647.246,59.045 633.469,67.344 642.27,53.992 
		650.69,45.693 657.96,47.137 664.468,55.436 	"/>
	<polygon fill="#59BEEC" points="471.805,2.193 500.175,55.129 535.635,107.884 434.1,111.083 401.888,107.884 441.027,41.809 	"/>
	<polygon fill="#FFFFFF" points="490.035,47.209 468.204,29.9 448.311,45.176 458.256,27.769 471.535,15.237 479.571,30.256 	"/>
	<polygon fill="#9FD8F5" points="535.143,32.154 564.157,59.898 604.238,108.95 558.792,113.567 503.371,110.217 458.256,110.016 
		494.848,77.688 	"/>
	<polygon fill="#FFFFFF" points="559.207,69.819 539.048,57.91 510.479,69.004 526.574,55.217 536.895,43.951 549.556,55.148 	"/>
	<polygon fill="#3E6088" points="741.59,93.671 748.349,74.46 754.6,64.785 763.614,58.504 788.198,51.674 845.543,39.228 
		854.138,32.803 866.456,39.178 902.128,51.33 910.041,56.385 922.214,77.691 956.233,89.666 964.112,94.897 966.978,110.809 
		880.307,109.688 805.098,107.446 736.094,107.603 	"/>
	<polygon fill="#FFFFFF" points="759.518,69.156 753.78,77.624 767.984,68.61 775.905,70.795 781.71,64.034 788.471,67.518 
		791.202,62.328 802.947,62.328 791.476,56.865 768.258,62.874 	"/>
	<polygon fill="#FFFFFF" points="905.325,60.447 898.005,56.318 881.001,51 867.617,48.191 854.301,41.842 848.011,45.359 
		829.103,48.807 819.269,57.001 836.272,51.879 840.37,55.771 848.02,51.937 852.457,56.182 856.078,53.439 863.316,56.592 
		868.642,54.953 875.881,56.318 879.001,59.168 883.334,58.5 892.284,61.965 895.706,67.75 901.903,64.393 912.904,71.492 	"/>
	<polygon fill="#92A3BF" points="951.41,84.008 965.405,87.077 978.454,95.543 985.625,114.495 910.233,115.315 914.021,105.108 
		932.375,89.026 	"/>
	<polygon fill="#FFFFFF" points="971.93,98.768 958.473,95.507 952.765,100.291 943.792,96.159 925.439,102.03 938.083,92.897 
		951.541,88.982 961.737,91.375 	"/>
</g>
</svg>
