<?xml version="1.0" encoding="utf-8"?>
<!-- Generator: Adobe Illustrator 16.2.1, SVG Export Plug-In . SVG Version: 6.00 Build 0)  -->
<!DOCTYPE svg PUBLIC "-//W3C//DTD SVG 1.1//EN" "http://www.w3.org/Graphics/SVG/1.1/DTD/svg11.dtd">
<svg version="1.1" id="Layer_1" xmlns="http://www.w3.org/2000/svg" xmlns:xlink="http://www.w3.org/1999/xlink" x="0px" y="0px"
	 width="480px" height="162px" viewBox="0 0 480 162" enable-background="new 0 0 480 162" xml:space="preserve">
<text transform="matrix(1 0 0 1 179.104 117.0889)" fill="#414042" font-family="'AvenirNext-Bold'" font-size="136.6271" letter-spacing="-3">vísar</text>
<text transform="matrix(1 0 0 1 206.1558 154.2422)" fill="#414042" font-family="'AvenirNext-Regular'" font-size="30">við mælum með þér</text>
<g>
	<polygon fill="#005384" points="1,115.205 34.721,138.402 75.319,155.242 95.463,145.338 115.792,130.271 55.765,117.596 
		28.741,118.556 	"/>
	<polygon fill="#056EB0" points="121.45,140.635 146.64,130.751 182.991,115.764 141.22,120.227 89.244,117.357 54.172,117.357 
		94.349,128.197 	"/>
	<polygon fill="#59BEEC" points="63.78,20.964 89.244,68.477 121.072,115.828 29.937,118.701 1,115.205 36.155,56.521 	"/>
	<polygon fill="#FFFFFF" points="80.143,68.549 60.548,53.013 42.692,66.723 51.619,51.1 63.539,39.853 70.751,53.333 	"/>
	<polygon fill="#9FD8F5" points="120.63,47.856 146.673,72.758 182.624,115.806 141.856,120.93 92.113,117.923 51.762,117.99 
		84.462,88.725 	"/>
	<polygon fill="#FFFFFF" points="142.229,84.357 124.136,73.666 98.492,83.623 112.939,71.249 122.203,61.137 133.566,71.187 	"/>
</g>
</svg>
