<?xml version="1.0" encoding="utf-8"?>
<!-- Generator: Adobe Illustrator 16.2.1, SVG Export Plug-In . SVG Version: 6.00 Build 0)  -->
<!DOCTYPE svg PUBLIC "-//W3C//DTD SVG 1.1//EN" "http://www.w3.org/Graphics/SVG/1.1/DTD/svg11.dtd">
<svg version="1.1" id="Layer_1" xmlns="http://www.w3.org/2000/svg" xmlns:xlink="http://www.w3.org/1999/xlink" x="0px" y="0px"
	 width="270px" height="87px" viewBox="0 0 270 87" enable-background="new 0 0 270 87" xml:space="preserve">
<g>
	<polygon fill="#3D6088" points="105.77,23.734 82.496,24.579 70.924,33.027 55.977,41.476 50.742,62.859 46.758,79.142 
		78.803,82.529 117.881,80.071 149.691,79.924 144.263,64.568 130.73,51.334 123.09,32.746 	"/>
	<polygon fill="#FFFFFF" points="116.793,44.221 110.299,41.475 102.586,39.574 92.573,46.264 86.957,41.053 69.705,49.08 
		58.745,55.627 60.775,46.967 75.795,38.379 84.996,32.746 104.48,30.775 117.741,37.533 121.801,45.7 	"/>
	<polygon fill="#92A3BF" points="31.297,44.731 22.609,48.732 14.508,59.498 2.016,85 23,87 70.584,85 54.506,71.967 43.114,51.139 
			"/>
	<polygon fill="#FFFFFF" points="18.559,62.902 26.912,58.651 30.457,64.887 36.025,59.502 47.418,67.154 39.57,55.251 
		31.216,50.149 24.888,53.268 	"/>
	<polygon fill="#7BA2A7" points="232.734,0.326 243.655,22.11 258.045,49.957 267.74,61.662 269.001,71.334 185.139,73.428 
		156.609,70.494 174.231,43.082 191.272,9.893 220.702,1.186 	"/>
	<polygon fill="#92A3BF" points="194.252,46.197 198.193,59.518 202.861,67.252 223.711,80.68 181.492,79.715 157.115,81.971 
		139.001,80 140.073,76.441 146.743,72.408 156.609,63.58 162.484,46.092 170.704,44.693 	"/>
	<polygon fill="#ABC78A" points="235.12,51.783 243.314,57.691 250.732,60.322 263.361,82.275 247.465,81.971 217.525,83.691 
		202.984,82.275 209.707,69.938 215.834,52.504 	"/>
	<polygon fill="#FFFFFF" points="195.393,16.01 187.795,30.078 196.032,22.927 206.662,24.007 211.565,20.254 225.209,23.455 
		227.981,15.396 237.361,21.909 230.246,8.275 221.945,8.061 	"/>
	<polygon fill="#FFFFFF" points="165,50.064 161.252,60.106 164.051,57.48 166.477,55.568 171.025,56.746 175.005,58.955 
		179.41,57.482 184.67,56.158 189.076,57.777 195.896,62.314 193.406,57.265 192.06,50.549 171.016,48.774 	"/>
	<polygon fill="#FFFFFF" points="219.665,57.478 216.834,64.973 222.262,61.612 229.497,67.477 234.395,63.277 243.108,68.436 
		248.295,63.922 240.618,62.204 234.291,57.047 	"/>
</g>
</svg>
