<?xml version="1.0" encoding="utf-8"?>
<!-- Generator: Adobe Illustrator 16.2.1, SVG Export Plug-In . SVG Version: 6.00 Build 0)  -->
<!DOCTYPE svg PUBLIC "-//W3C//DTD SVG 1.1//EN" "http://www.w3.org/Graphics/SVG/1.1/DTD/svg11.dtd">
<svg version="1.1" id="Layer_1" xmlns="http://www.w3.org/2000/svg" xmlns:xlink="http://www.w3.org/1999/xlink" x="0px" y="0px" viewBox="0 0 155 42" enable-background="new 0 0 155 42" xml:space="preserve">
<g>
	<polygon fill="#005283" points="-0.139,29.255 10.122,36.314 22.476,41.438 28.605,38.425 34.791,33.841 16.525,29.983 
		8.303,30.275 	"/>
	<polygon fill="#006DAF" points="36.514,36.993 44.179,33.985 55.239,29.425 42.529,30.783 26.713,29.91 16.041,29.91 
		28.266,33.209 	"/>
	<polygon fill="#41C2FF" points="18.964,0.578 26.713,15.037 36.397,29.445 8.666,30.319 -0.132,29.445 10.558,11.398 	"/>
	<polygon fill="#FFFFFF" points="23.944,15.058 17.981,10.331 12.547,14.503 15.264,9.749 18.891,6.326 21.086,10.428 	"/>
	<polygon fill="#99D9FF" points="36.264,8.762 44.188,16.339 55.136,29.736 42.723,30.998 27.586,30.082 15.264,30.028 
		25.258,21.198 	"/>
	<polygon fill="#FFFFFF" points="42.836,19.868 37.331,16.615 29.527,19.646 33.923,15.88 36.742,12.803 40.2,15.861 	"/>
</g>
<g>
	<g>
		<path fill="#404041" d="M73.452,33.841h-7.887l-8.733-22.191h8.064l4.679,14.392h0.134l4.679-14.392h7.798L73.452,33.841z"/>
		<path fill="#404041" d="M83.967,33.841V11.649h7.308v22.191H83.967z M89.537,8.353h-5.525l4.634-6.417h7.397L89.537,8.353z"/>
		<path fill="#404041" d="M109.008,18.201c-0.594-0.564-1.291-1.04-2.094-1.426c-0.803-0.386-1.648-0.58-2.54-0.58
			c-0.684,0-1.314,0.134-1.894,0.401c-0.58,0.267-0.869,0.729-0.869,1.382c0,0.624,0.319,1.069,0.959,1.337
			c0.639,0.267,1.67,0.564,3.096,0.89c0.832,0.179,1.672,0.432,2.519,0.758c0.847,0.328,1.61,0.758,2.294,1.292
			s1.232,1.188,1.648,1.961s0.625,1.693,0.625,2.763c0,1.396-0.283,2.577-0.848,3.542c-0.564,0.966-1.3,1.745-2.205,2.339
			c-0.906,0.595-1.924,1.025-3.053,1.293s-2.258,0.4-3.386,0.4c-1.813,0-3.587-0.29-5.325-0.869
			c-1.737-0.578-3.186-1.432-4.345-2.562l4.1-4.323c0.653,0.714,1.456,1.309,2.406,1.783c0.95,0.476,1.96,0.713,3.03,0.713
			c0.594,0,1.18-0.141,1.76-0.424c0.579-0.281,0.869-0.779,0.869-1.492c0-0.683-0.356-1.188-1.069-1.516
			c-0.714-0.326-1.827-0.668-3.343-1.024c-0.771-0.178-1.545-0.415-2.316-0.712c-0.773-0.297-1.463-0.699-2.072-1.204
			c-0.609-0.504-1.107-1.129-1.492-1.871c-0.387-0.742-0.58-1.633-0.58-2.673c0-1.338,0.283-2.474,0.848-3.41
			c0.563-0.936,1.291-1.7,2.183-2.295c0.892-0.593,1.878-1.032,2.964-1.314c1.083-0.282,2.161-0.423,3.23-0.423
			c1.663,0,3.289,0.26,4.879,0.779c1.589,0.52,2.934,1.3,4.031,2.339L109.008,18.201z"/>
		<path fill="#404041" d="M115.558,14.68c1.308-1.248,2.83-2.183,4.567-2.808c1.738-0.623,3.512-0.935,5.324-0.935
			c1.872,0,3.454,0.231,4.746,0.69c1.293,0.461,2.34,1.174,3.141,2.139c0.803,0.966,1.389,2.183,1.762,3.653
			c0.371,1.471,0.557,3.217,0.557,5.236v11.185h-6.684v-2.362h-0.135c-0.564,0.921-1.418,1.635-2.562,2.139
			c-1.143,0.504-2.383,0.758-3.719,0.758c-0.893,0-1.813-0.119-2.764-0.356c-0.951-0.237-1.82-0.624-2.607-1.159
			c-0.786-0.534-1.433-1.247-1.938-2.139c-0.505-0.891-0.758-1.99-0.758-3.297c0-1.604,0.438-2.896,1.314-3.877
			c0.876-0.979,2.006-1.737,3.387-2.272s2.919-0.891,4.611-1.07c1.693-0.178,3.342-0.267,4.946-0.267v-0.356
			c0-1.099-0.386-1.908-1.158-2.428c-0.772-0.52-1.724-0.779-2.852-0.779c-1.041,0-2.044,0.222-3.008,0.667
			c-0.966,0.445-1.79,0.981-2.473,1.604L115.558,14.68z M128.971,24.171h-0.937c-0.802,0-1.612,0.038-2.428,0.111
			c-0.817,0.074-1.546,0.216-2.185,0.423c-0.639,0.209-1.166,0.513-1.581,0.913c-0.417,0.401-0.624,0.93-0.624,1.583
			c0,0.416,0.096,0.772,0.29,1.069c0.192,0.297,0.438,0.534,0.735,0.712c0.297,0.179,0.638,0.305,1.024,0.381
			c0.386,0.073,0.758,0.109,1.114,0.109c1.484,0,2.621-0.408,3.408-1.225s1.182-1.923,1.182-3.32V24.171z"/>
		<path fill="#404041" d="M154.367,17.666c-0.326-0.09-0.645-0.149-0.957-0.18c-0.312-0.028-0.617-0.043-0.914-0.043
			c-0.98,0-1.805,0.178-2.473,0.533c-0.668,0.355-1.203,0.785-1.604,1.289c-0.402,0.504-0.691,1.052-0.869,1.645
			c-0.178,0.592-0.268,1.11-0.268,1.555v11.377h-7.307V11.677h7.039v3.208h0.09c0.562-1.136,1.365-2.063,2.406-2.781
			c1.039-0.718,2.242-1.077,3.607-1.077c0.298,0,0.588,0.015,0.87,0.044s0.513,0.074,0.69,0.134L154.367,17.666z"/>
	</g>
</g>
</svg>
