<?xml version="1.0" encoding="utf-8"?>
<!-- Generator: Adobe Illustrator 15.0.2, SVG Export Plug-In . SVG Version: 6.00 Build 0)  -->
<!DOCTYPE svg PUBLIC "-//W3C//DTD SVG 1.1//EN" "http://www.w3.org/Graphics/SVG/1.1/DTD/svg11.dtd">
<svg version="1.1" id="Layer_1" xmlns="http://www.w3.org/2000/svg" xmlns:xlink="http://www.w3.org/1999/xlink" x="0px" y="0px"
	 width="57.519px" height="20.41px" viewBox="0 0 57.519 20.41" enable-background="new 0 0 57.519 20.41" xml:space="preserve">
<g>
	<path d="M20.184,219.217L20.13,219.4c-0.037,0.109-0.377,1.053-0.418,1.16c-0.732,1.901-2.005,3.527-3.682,4.7
		c-1.715,1.202-3.734,1.835-5.834,1.835v-0.552c3.963,0,7.581-2.485,9.001-6.183c0.021-0.05,0.121-0.326,0.219-0.592H0.02v-0.553
		h19.546L20.184,219.217L20.184,219.217z"/>
	<path fill="#465BA3" d="M0.587,216.104c0.068-0.825,0.241-1.633,0.517-2.414c1.358-3.844,5.011-6.428,9.091-6.428v-0.55
		c-2.149,0-4.206,0.662-5.945,1.914c-0.839,0.602-1.577,1.326-2.198,2.149c-0.629,0.832-1.122,1.752-1.468,2.732
		c-0.296,0.838-0.48,1.709-0.549,2.597h0l-0.003,0.069c-0.016,0.222-0.026,0.441-0.027,0.663L0,216.936v0.822h20.387v-1.653H0.587
		L0.587,216.104z"/>
	<path d="M27.328,214.42c-0.134-0.173-0.322-0.318-0.565-0.435c-0.244-0.116-0.489-0.175-0.735-0.175
		c-0.146,0-0.293,0.019-0.44,0.055s-0.28,0.093-0.4,0.17s-0.218,0.177-0.295,0.3c-0.077,0.124-0.115,0.272-0.115,0.445
		c0,0.16,0.033,0.297,0.1,0.41c0.066,0.113,0.158,0.21,0.275,0.29s0.258,0.15,0.425,0.21c0.167,0.06,0.35,0.12,0.55,0.18
		c0.227,0.073,0.461,0.157,0.705,0.25c0.243,0.093,0.466,0.217,0.67,0.37c0.203,0.153,0.37,0.347,0.5,0.58
		c0.13,0.233,0.195,0.523,0.195,0.87c0,0.38-0.07,0.712-0.21,0.995c-0.14,0.283-0.327,0.519-0.56,0.705
		c-0.234,0.187-0.507,0.327-0.82,0.42s-0.644,0.14-0.99,0.14c-0.46,0-0.91-0.085-1.35-0.255c-0.44-0.17-0.8-0.421-1.08-0.755
		l0.9-0.84c0.173,0.24,0.405,0.43,0.695,0.57c0.29,0.14,0.575,0.21,0.855,0.21c0.146,0,0.296-0.018,0.45-0.055
		s0.292-0.099,0.415-0.185c0.124-0.087,0.223-0.195,0.3-0.325c0.076-0.13,0.115-0.292,0.115-0.485c0-0.187-0.043-0.342-0.13-0.465
		c-0.087-0.124-0.204-0.23-0.35-0.32c-0.146-0.09-0.32-0.168-0.52-0.235c-0.2-0.066-0.41-0.137-0.63-0.21
		c-0.213-0.066-0.427-0.146-0.64-0.24c-0.213-0.093-0.405-0.216-0.575-0.37c-0.17-0.153-0.308-0.342-0.415-0.565
		c-0.107-0.223-0.16-0.501-0.16-0.835c0-0.36,0.075-0.67,0.225-0.93c0.15-0.26,0.346-0.475,0.59-0.645
		c0.243-0.17,0.52-0.297,0.83-0.38c0.31-0.083,0.625-0.125,0.945-0.125c0.36,0,0.725,0.063,1.095,0.19
		c0.37,0.126,0.691,0.316,0.965,0.57L27.328,214.42z"/>
	<path d="M28.947,212.46h1.2v4.78h0.03l1.82-2.02h1.54l-2.08,2.17l2.21,2.63h-1.59l-1.9-2.46h-0.03v2.46h-1.2V212.46z"/>
	<path d="M33.408,217.6c0-0.38,0.068-0.725,0.205-1.035s0.322-0.575,0.555-0.795c0.233-0.22,0.51-0.39,0.83-0.51
		c0.32-0.12,0.66-0.18,1.02-0.18c0.36,0,0.7,0.06,1.02,0.18c0.32,0.12,0.597,0.29,0.83,0.51s0.418,0.485,0.555,0.795
		s0.205,0.655,0.205,1.035s-0.068,0.727-0.205,1.04s-0.322,0.582-0.555,0.805c-0.233,0.224-0.51,0.398-0.83,0.525
		c-0.32,0.126-0.66,0.19-1.02,0.19c-0.36,0-0.7-0.063-1.02-0.19c-0.32-0.127-0.597-0.302-0.83-0.525
		c-0.233-0.223-0.418-0.491-0.555-0.805S33.408,217.98,33.408,217.6z M34.628,217.6c0,0.187,0.028,0.374,0.085,0.56
		s0.142,0.354,0.255,0.5s0.256,0.267,0.43,0.36c0.173,0.093,0.38,0.14,0.62,0.14c0.24,0,0.447-0.047,0.62-0.14
		s0.316-0.213,0.43-0.36c0.113-0.146,0.198-0.313,0.255-0.5s0.085-0.374,0.085-0.56s-0.028-0.372-0.085-0.555
		c-0.057-0.183-0.142-0.348-0.255-0.495c-0.114-0.146-0.257-0.265-0.43-0.355c-0.173-0.09-0.38-0.135-0.62-0.135
		c-0.24,0-0.446,0.045-0.62,0.135c-0.174,0.09-0.317,0.208-0.43,0.355c-0.113,0.147-0.198,0.312-0.255,0.495
		C34.656,217.229,34.628,217.414,34.628,217.6z M36.288,212.94h1.36l-1.41,1.44h-0.94L36.288,212.94z"/>
	<path d="M39.337,212.46h1.2v7.56h-1.2V212.46z"/>
	<path d="M44.507,219.41h-0.03c-0.12,0.213-0.313,0.388-0.58,0.525s-0.57,0.205-0.91,0.205c-0.194,0-0.395-0.025-0.605-0.075
		c-0.21-0.05-0.404-0.133-0.58-0.25c-0.177-0.117-0.324-0.27-0.44-0.46c-0.117-0.19-0.175-0.425-0.175-0.705
		c0-0.36,0.102-0.646,0.305-0.86c0.203-0.213,0.465-0.376,0.785-0.49c0.32-0.113,0.675-0.188,1.065-0.225
		c0.39-0.037,0.771-0.055,1.145-0.055v-0.12c0-0.3-0.108-0.521-0.325-0.665c-0.217-0.143-0.475-0.215-0.775-0.215
		c-0.253,0-0.497,0.053-0.73,0.16c-0.233,0.106-0.427,0.236-0.58,0.39l-0.62-0.73c0.273-0.253,0.588-0.443,0.945-0.57
		c0.356-0.126,0.718-0.19,1.085-0.19c0.426,0,0.778,0.06,1.055,0.18c0.277,0.12,0.495,0.276,0.655,0.47
		c0.16,0.193,0.271,0.41,0.335,0.65c0.063,0.24,0.095,0.48,0.095,0.72v2.92h-1.12V219.41z M44.487,217.83h-0.27
		c-0.193,0-0.397,0.008-0.61,0.025s-0.41,0.054-0.59,0.11c-0.18,0.057-0.33,0.137-0.45,0.24c-0.12,0.104-0.18,0.245-0.18,0.425
		c0,0.114,0.025,0.208,0.075,0.285c0.05,0.077,0.115,0.138,0.195,0.185s0.17,0.08,0.27,0.1s0.2,0.03,0.3,0.03
		c0.414,0,0.727-0.11,0.94-0.33c0.213-0.22,0.32-0.52,0.32-0.9V217.83z"/>
	<g>
		<path fill="#465BA3" d="M45.837,215.22h1.31l1.26,3.5h0.02l1.27-3.5h1.27l-1.91,4.8h-1.28L45.837,215.22z"/>
		<path fill="#465BA3" d="M50.937,217.6c0-0.38,0.068-0.725,0.205-1.035s0.322-0.575,0.555-0.795c0.233-0.22,0.51-0.39,0.83-0.51
			c0.32-0.12,0.66-0.18,1.02-0.18c0.36,0,0.7,0.06,1.02,0.18c0.32,0.12,0.597,0.29,0.83,0.51s0.418,0.485,0.555,0.795
			s0.205,0.655,0.205,1.035s-0.068,0.727-0.205,1.04s-0.322,0.582-0.555,0.805c-0.233,0.224-0.51,0.398-0.83,0.525
			c-0.32,0.126-0.66,0.19-1.02,0.19c-0.36,0-0.7-0.063-1.02-0.19c-0.32-0.127-0.597-0.302-0.83-0.525
			c-0.233-0.223-0.418-0.491-0.555-0.805S50.937,217.98,50.937,217.6z M52.157,217.6c0,0.187,0.028,0.374,0.085,0.56
			s0.142,0.354,0.255,0.5s0.256,0.267,0.43,0.36c0.173,0.093,0.38,0.14,0.62,0.14c0.24,0,0.447-0.047,0.62-0.14
			s0.316-0.213,0.43-0.36c0.113-0.146,0.198-0.313,0.255-0.5s0.085-0.374,0.085-0.56s-0.028-0.372-0.085-0.555
			c-0.057-0.183-0.142-0.348-0.255-0.495c-0.114-0.146-0.257-0.265-0.43-0.355c-0.173-0.09-0.38-0.135-0.62-0.135
			c-0.24,0-0.446,0.045-0.62,0.135c-0.174,0.09-0.317,0.208-0.43,0.355c-0.113,0.147-0.198,0.312-0.255,0.495
			C52.186,217.229,52.157,217.414,52.157,217.6z"/>
		<path fill="#465BA3" d="M61.727,215.22v4.37c0,0.434-0.054,0.825-0.16,1.175s-0.271,0.646-0.495,0.89
			c-0.223,0.244-0.505,0.432-0.845,0.565c-0.34,0.133-0.744,0.2-1.21,0.2c-0.193,0-0.398-0.017-0.615-0.05
			c-0.217-0.034-0.43-0.083-0.64-0.15c-0.21-0.067-0.412-0.15-0.605-0.25c-0.193-0.1-0.367-0.214-0.52-0.34l0.69-0.93
			c0.233,0.22,0.497,0.388,0.79,0.505c0.293,0.117,0.59,0.175,0.89,0.175c0.287,0,0.528-0.042,0.725-0.125
			c0.197-0.083,0.354-0.199,0.47-0.346c0.116-0.147,0.2-0.321,0.25-0.522c0.05-0.201,0.075-0.421,0.075-0.662v-0.352h-0.02
			c-0.173,0.236-0.395,0.416-0.665,0.541s-0.572,0.187-0.905,0.187c-0.36,0-0.687-0.067-0.98-0.2
			c-0.293-0.133-0.542-0.313-0.745-0.54c-0.204-0.227-0.362-0.491-0.475-0.795c-0.113-0.303-0.17-0.625-0.17-0.965
			c0-0.347,0.055-0.673,0.165-0.98s0.267-0.573,0.47-0.8c0.203-0.227,0.45-0.406,0.74-0.54c0.29-0.133,0.615-0.2,0.975-0.2
			c0.34,0,0.657,0.07,0.95,0.21c0.293,0.14,0.526,0.357,0.7,0.65h0.02v-0.72H61.727z M59.167,216.06c-0.22,0-0.415,0.04-0.585,0.12
			s-0.313,0.188-0.43,0.324s-0.207,0.297-0.27,0.483c-0.063,0.187-0.095,0.386-0.095,0.598c0,0.193,0.031,0.379,0.095,0.558
			c0.063,0.18,0.153,0.341,0.27,0.483c0.117,0.143,0.26,0.258,0.43,0.344s0.361,0.129,0.575,0.129c0.22,0,0.418-0.042,0.595-0.125
			s0.327-0.194,0.45-0.334c0.123-0.14,0.218-0.301,0.285-0.483c0.067-0.183,0.1-0.374,0.1-0.573c0-0.206-0.033-0.402-0.1-0.588
			c-0.066-0.186-0.162-0.349-0.285-0.488c-0.124-0.14-0.272-0.25-0.445-0.329S59.386,216.06,59.167,216.06z"/>
		<path fill="#465BA3" d="M62.546,213.59c0-0.193,0.072-0.361,0.215-0.505c0.143-0.143,0.325-0.215,0.545-0.215
			c0.22,0,0.405,0.068,0.555,0.205c0.15,0.137,0.225,0.308,0.225,0.515c0,0.207-0.075,0.378-0.225,0.515
			c-0.15,0.137-0.335,0.205-0.555,0.205c-0.22,0-0.402-0.072-0.545-0.215C62.618,213.952,62.546,213.784,62.546,213.59z
			 M62.717,215.22h1.2v4.8h-1.2V215.22z"/>
		<path fill="#465BA3" d="M64.906,215.22h1.14v0.77h0.02c0.106-0.24,0.292-0.452,0.555-0.635c0.263-0.183,0.575-0.275,0.935-0.275
			c0.313,0,0.582,0.055,0.805,0.165c0.224,0.11,0.407,0.255,0.55,0.435c0.143,0.18,0.248,0.387,0.315,0.62
			c0.066,0.234,0.1,0.474,0.1,0.72v3h-1.2v-2.66c0-0.14-0.01-0.287-0.03-0.44s-0.063-0.292-0.13-0.415
			c-0.066-0.123-0.158-0.225-0.275-0.305c-0.117-0.08-0.271-0.12-0.465-0.12s-0.36,0.039-0.5,0.115
			c-0.14,0.077-0.255,0.175-0.345,0.295c-0.09,0.12-0.158,0.258-0.205,0.415c-0.047,0.157-0.07,0.315-0.07,0.475v2.64h-1.2V215.22z"
			/>
	</g>
</g>
<g>
	<path d="M44.747,0.322h-1.583l-4.343,9.981h2.233c0,0,1.228-2.928,1.292-3.088h3.206c0.064,0.157,1.312,3.088,1.312,3.088h2.27
		l-4.299-9.981H44.747z M43.95,2.902c0.184,0.505,0.836,2.291,0.94,2.577l-1.94,0.009C43.062,5.197,43.756,3.404,43.95,2.902"/>
	<path d="M38.193,0.322h-2.699c0,0-2.292,5.955-2.525,6.557l-2.5-6.557h-2.862v9.981h1.918V2.798
		c0.402,1.099,2.742,7.505,2.742,7.505h1.396c0,0,2.343-6.406,2.743-7.505v7.505h1.918V0.322H38.193z"/>
	<path d="M16.197,5.292c0,2.917,2.353,5.29,5.242,5.29c2.89,0,5.243-2.373,5.243-5.29C26.682,2.374,24.329,0,21.439,0
		C18.55,0,16.197,2.373,16.197,5.292 M18.15,5.292c0-1.833,1.474-3.323,3.289-3.323s3.292,1.491,3.292,3.323
		c0,1.832-1.479,3.322-3.292,3.322S18.15,7.124,18.15,5.292"/>
	<path d="M8.869,3.191c0,2.045,1.563,2.552,2.818,2.959c1.001,0.325,1.79,0.582,1.79,1.416c0,0.775-0.805,1.194-1.564,1.194
		c-0.723,0.007-1.403-0.352-1.806-0.954l-0.09-0.137L8.505,9.134L8.585,9.23c0.95,1.129,2.311,1.365,3.286,1.365
		c2.24,0,3.688-1.271,3.688-3.235c0-2.072-1.601-2.589-2.889-3c-1.065-0.345-1.717-0.592-1.717-1.289c0-0.819,0.752-1.11,1.456-1.11
		c0.677,0,1.271,0.265,1.588,0.709l0.098,0.131l1.471-1.547l-0.101-0.094c-0.909-0.857-2.068-1.04-2.878-1.04
		c-1.85,0-3.713,0.949-3.713,3.071"/>
	<polygon points="7.55,0.322 0.383,0.322 0.383,10.303 7.933,10.303 7.933,8.469 2.383,8.469 2.383,6.107 7.319,6.107 7.319,4.27 
		2.383,4.27 2.383,2.157 7.687,2.157 7.687,0.322 	"/>
	<path d="M49.93,0.322h-0.137v9.981h2V7.118l1.201-0.012l2.097,3.197h2.428l-2.488-3.468c1.391-0.493,2.028-1.941,2.028-3.128
		c0-2.027-1.941-3.385-3.755-3.385H49.93z M53.152,2.075c0.682,0,1.825,0.21,1.825,1.619c0,1.143-0.627,1.671-1.975,1.671h-1.207
		v-3.29H53.152z"/>
	<text transform="matrix(1 0 0 1 1.4971 17.9312)" font-family="'HelveticaNeue-Light'" font-size="7.001">member</text>
	<polyline fill="none" stroke="#000000" stroke-width="0.5" stroke-miterlimit="10" points="0.339,12.521 0.339,20 27.431,20 	"/>
</g>
<g>
	<path d="M15.279,182.966l-0.053,0.185c-0.038,0.109-0.379,1.058-0.42,1.164c-0.735,1.912-2.014,3.545-3.699,4.724
		c-1.724,1.208-3.751,1.845-5.862,1.845v-0.555c3.982,0,7.617-2.497,9.044-6.213c0.02-0.05,0.122-0.326,0.22-0.595H-4.98v-0.555
		h19.639H15.279z"/>
	<path fill="#D83F31" d="M-4.41,179.839c0.068-0.829,0.241-1.643,0.518-2.426c1.365-3.863,5.036-6.458,9.135-6.458v-0.554
		c-2.161,0-4.226,0.664-5.974,1.922c-0.842,0.605-1.584,1.332-2.209,2.16c-0.631,0.837-1.127,1.761-1.475,2.745
		c-0.297,0.843-0.481,1.718-0.552,2.61h0l-0.003,0.07c-0.016,0.222-0.025,0.442-0.026,0.664l-0.004,0.1v0.827h20.483v-1.662
		L-4.41,179.839L-4.41,179.839z"/>
	<path d="M22.328,178.163c-0.134-0.173-0.322-0.318-0.565-0.435c-0.244-0.116-0.489-0.175-0.735-0.175
		c-0.146,0-0.293,0.019-0.44,0.055s-0.28,0.093-0.4,0.17s-0.218,0.177-0.295,0.3c-0.077,0.124-0.115,0.272-0.115,0.445
		c0,0.16,0.033,0.297,0.1,0.41c0.066,0.113,0.158,0.21,0.275,0.29s0.258,0.15,0.425,0.21c0.167,0.06,0.35,0.12,0.55,0.18
		c0.227,0.073,0.461,0.157,0.705,0.25c0.243,0.093,0.466,0.217,0.67,0.37c0.203,0.153,0.37,0.347,0.5,0.58
		c0.13,0.233,0.195,0.523,0.195,0.87c0,0.38-0.07,0.712-0.21,0.995c-0.14,0.283-0.327,0.519-0.56,0.705
		c-0.234,0.187-0.507,0.327-0.82,0.42s-0.644,0.14-0.99,0.14c-0.46,0-0.91-0.085-1.35-0.255c-0.44-0.17-0.8-0.421-1.08-0.755
		l0.9-0.84c0.173,0.24,0.405,0.43,0.695,0.57c0.29,0.14,0.575,0.21,0.855,0.21c0.146,0,0.296-0.018,0.45-0.055
		s0.292-0.099,0.415-0.185c0.124-0.087,0.223-0.195,0.3-0.325c0.076-0.13,0.115-0.292,0.115-0.485c0-0.187-0.043-0.342-0.13-0.465
		c-0.087-0.124-0.204-0.23-0.35-0.32c-0.146-0.09-0.32-0.168-0.52-0.235c-0.2-0.066-0.41-0.137-0.63-0.21
		c-0.213-0.066-0.427-0.146-0.64-0.24c-0.213-0.093-0.405-0.216-0.575-0.37c-0.17-0.153-0.308-0.342-0.415-0.565
		c-0.107-0.223-0.16-0.501-0.16-0.835c0-0.36,0.075-0.67,0.225-0.93c0.15-0.26,0.346-0.475,0.59-0.645
		c0.243-0.17,0.52-0.297,0.83-0.38c0.31-0.083,0.625-0.125,0.945-0.125c0.36,0,0.725,0.063,1.095,0.19
		c0.37,0.126,0.691,0.316,0.965,0.57L22.328,178.163z"/>
	<path d="M23.947,176.203h1.2v4.78h0.03l1.82-2.02h1.54l-2.08,2.17l2.21,2.63h-1.59l-1.9-2.46h-0.03v2.46h-1.2V176.203z"/>
	<path d="M28.408,181.343c0-0.38,0.068-0.725,0.205-1.035s0.322-0.575,0.555-0.795c0.233-0.22,0.51-0.39,0.83-0.51
		c0.32-0.12,0.66-0.18,1.02-0.18c0.36,0,0.7,0.06,1.02,0.18c0.32,0.12,0.597,0.29,0.83,0.51s0.418,0.485,0.555,0.795
		s0.205,0.655,0.205,1.035s-0.068,0.727-0.205,1.04s-0.322,0.582-0.555,0.805c-0.233,0.224-0.51,0.398-0.83,0.525
		c-0.32,0.126-0.66,0.19-1.02,0.19c-0.36,0-0.7-0.063-1.02-0.19c-0.32-0.127-0.597-0.302-0.83-0.525
		c-0.233-0.223-0.418-0.491-0.555-0.805S28.408,181.723,28.408,181.343z M29.628,181.343c0,0.187,0.028,0.374,0.085,0.56
		s0.142,0.354,0.255,0.5s0.256,0.267,0.43,0.36c0.173,0.093,0.38,0.14,0.62,0.14c0.24,0,0.447-0.047,0.62-0.14
		s0.316-0.213,0.43-0.36c0.113-0.146,0.198-0.313,0.255-0.5s0.085-0.374,0.085-0.56s-0.028-0.372-0.085-0.555
		c-0.057-0.183-0.142-0.348-0.255-0.495c-0.114-0.146-0.257-0.265-0.43-0.355c-0.173-0.09-0.38-0.135-0.62-0.135
		c-0.24,0-0.446,0.045-0.62,0.135c-0.174,0.09-0.317,0.208-0.43,0.355c-0.113,0.147-0.198,0.312-0.255,0.495
		C29.656,180.972,29.628,181.157,29.628,181.343z M31.288,176.683h1.36l-1.41,1.44h-0.94L31.288,176.683z"/>
	<path d="M34.337,176.203h1.2v7.56h-1.2V176.203z"/>
	<path d="M39.507,183.153h-0.03c-0.12,0.213-0.313,0.388-0.58,0.525s-0.57,0.205-0.91,0.205c-0.194,0-0.395-0.025-0.605-0.075
		c-0.21-0.05-0.404-0.133-0.58-0.25c-0.177-0.117-0.324-0.27-0.44-0.46c-0.117-0.19-0.175-0.425-0.175-0.705
		c0-0.36,0.102-0.646,0.305-0.86c0.203-0.213,0.465-0.376,0.785-0.49c0.32-0.113,0.675-0.188,1.065-0.225
		c0.39-0.037,0.771-0.055,1.145-0.055v-0.12c0-0.3-0.108-0.521-0.325-0.665c-0.217-0.143-0.475-0.215-0.775-0.215
		c-0.253,0-0.497,0.053-0.73,0.16c-0.233,0.106-0.427,0.236-0.58,0.39l-0.62-0.73c0.273-0.253,0.588-0.443,0.945-0.57
		c0.356-0.126,0.718-0.19,1.085-0.19c0.426,0,0.778,0.06,1.055,0.18c0.277,0.12,0.495,0.276,0.655,0.47
		c0.16,0.193,0.271,0.41,0.335,0.65c0.063,0.24,0.095,0.48,0.095,0.72v2.92h-1.12V183.153z M39.487,181.573h-0.27
		c-0.193,0-0.397,0.008-0.61,0.025s-0.41,0.054-0.59,0.11c-0.18,0.057-0.33,0.137-0.45,0.24c-0.12,0.104-0.18,0.245-0.18,0.425
		c0,0.114,0.025,0.208,0.075,0.285c0.05,0.077,0.115,0.138,0.195,0.185s0.17,0.08,0.27,0.1s0.2,0.03,0.3,0.03
		c0.414,0,0.727-0.11,0.94-0.33c0.213-0.22,0.32-0.52,0.32-0.9V181.573z"/>
	<g>
		<path fill="#D83F31" d="M42.707,178.963v0.67h0.03c0.06-0.093,0.138-0.188,0.235-0.285s0.215-0.183,0.355-0.26
			c0.14-0.077,0.298-0.14,0.475-0.19c0.177-0.05,0.375-0.075,0.595-0.075c0.34,0,0.653,0.065,0.94,0.195s0.533,0.309,0.74,0.535
			c0.207,0.227,0.366,0.493,0.48,0.8c0.113,0.307,0.17,0.637,0.17,0.99s-0.055,0.685-0.165,0.995c-0.11,0.31-0.267,0.58-0.47,0.81
			c-0.203,0.23-0.45,0.414-0.74,0.55s-0.619,0.205-0.985,0.205c-0.34,0-0.651-0.07-0.935-0.21c-0.284-0.14-0.502-0.33-0.655-0.57
			h-0.02v3.04h-1.2v-7.2H42.707z M45.507,181.343c0-0.187-0.028-0.372-0.085-0.555c-0.057-0.183-0.142-0.348-0.255-0.495
			c-0.113-0.146-0.257-0.265-0.43-0.355c-0.173-0.09-0.376-0.135-0.61-0.135c-0.22,0-0.417,0.047-0.59,0.14
			c-0.174,0.093-0.322,0.213-0.445,0.36s-0.217,0.313-0.28,0.5c-0.063,0.187-0.095,0.374-0.095,0.56s0.032,0.372,0.095,0.555
			c0.063,0.184,0.156,0.349,0.28,0.495c0.124,0.147,0.271,0.265,0.445,0.355c0.173,0.09,0.37,0.135,0.59,0.135
			c0.233,0,0.437-0.047,0.61-0.14s0.317-0.213,0.43-0.36s0.198-0.313,0.255-0.5S45.507,181.53,45.507,181.343z"/>
		<path fill="#D83F31" d="M51.797,183.763h-1.14v-0.77h-0.02c-0.106,0.24-0.292,0.452-0.555,0.635
			c-0.263,0.183-0.575,0.275-0.935,0.275c-0.313,0-0.582-0.055-0.805-0.165c-0.224-0.11-0.407-0.255-0.55-0.435
			c-0.144-0.18-0.249-0.387-0.315-0.62c-0.066-0.233-0.1-0.473-0.1-0.72v-3h1.2v2.66c0,0.14,0.01,0.287,0.03,0.44
			c0.02,0.154,0.063,0.292,0.13,0.415c0.066,0.124,0.158,0.225,0.275,0.305s0.271,0.12,0.465,0.12c0.187,0,0.352-0.039,0.495-0.115
			s0.26-0.175,0.35-0.295s0.158-0.258,0.205-0.415c0.046-0.157,0.07-0.315,0.07-0.475v-2.64h1.2V183.763z M49.938,176.683h1.36
			l-1.41,1.44h-0.94L49.938,176.683z"/>
		<path fill="#D83F31" d="M52.787,176.203h1.2v7.56h-1.2V176.203z"/>
		<path fill="#D83F31" d="M57.607,180.243c-0.107-0.14-0.253-0.262-0.44-0.365c-0.187-0.104-0.39-0.155-0.61-0.155
			c-0.193,0-0.37,0.04-0.53,0.12s-0.24,0.213-0.24,0.4s0.088,0.318,0.265,0.395s0.435,0.155,0.775,0.235
			c0.18,0.04,0.362,0.094,0.545,0.16c0.183,0.067,0.35,0.155,0.5,0.265c0.15,0.11,0.271,0.247,0.365,0.41
			c0.093,0.164,0.14,0.362,0.14,0.595c0,0.293-0.055,0.542-0.165,0.745c-0.11,0.203-0.257,0.368-0.44,0.495
			c-0.184,0.127-0.397,0.219-0.64,0.275c-0.244,0.056-0.495,0.085-0.755,0.085c-0.374,0-0.737-0.068-1.09-0.205
			c-0.353-0.137-0.646-0.332-0.88-0.585l0.79-0.74c0.133,0.173,0.307,0.317,0.52,0.43s0.45,0.17,0.71,0.17
			c0.086,0,0.175-0.01,0.265-0.03s0.173-0.052,0.25-0.095s0.138-0.102,0.185-0.175c0.046-0.073,0.07-0.164,0.07-0.27
			c0-0.2-0.092-0.343-0.275-0.43c-0.184-0.086-0.458-0.173-0.825-0.26c-0.18-0.04-0.355-0.092-0.525-0.155
			c-0.17-0.063-0.322-0.146-0.455-0.25c-0.133-0.103-0.24-0.231-0.32-0.385s-0.12-0.343-0.12-0.57c0-0.267,0.055-0.497,0.165-0.69
			s0.255-0.352,0.435-0.475c0.18-0.123,0.383-0.215,0.61-0.275s0.46-0.09,0.7-0.09c0.347,0,0.685,0.06,1.015,0.18
			c0.33,0.12,0.591,0.303,0.785,0.55L57.607,180.243z"/>
		<path fill="#D83F31" d="M58.796,177.333c0-0.193,0.072-0.361,0.215-0.505c0.143-0.143,0.325-0.215,0.545-0.215
			c0.22,0,0.405,0.068,0.555,0.205c0.15,0.137,0.225,0.308,0.225,0.515c0,0.207-0.075,0.378-0.225,0.515
			c-0.15,0.137-0.335,0.205-0.555,0.205c-0.22,0-0.402-0.072-0.545-0.215C58.868,177.695,58.796,177.527,58.796,177.333z
			 M58.967,178.963h1.2v4.8h-1.2V178.963z"/>
		<path fill="#D83F31" d="M61.156,178.963h1.14v0.77h0.02c0.106-0.24,0.292-0.452,0.555-0.635c0.263-0.183,0.575-0.275,0.935-0.275
			c0.313,0,0.582,0.055,0.805,0.165c0.224,0.11,0.407,0.255,0.55,0.435c0.143,0.18,0.248,0.387,0.315,0.62
			c0.066,0.234,0.1,0.474,0.1,0.72v3h-1.2v-2.66c0-0.14-0.01-0.287-0.03-0.44s-0.063-0.292-0.13-0.415
			c-0.066-0.123-0.158-0.225-0.275-0.305c-0.117-0.08-0.271-0.12-0.465-0.12s-0.36,0.039-0.5,0.115
			c-0.14,0.077-0.255,0.175-0.345,0.295c-0.09,0.12-0.158,0.258-0.205,0.415c-0.047,0.157-0.07,0.315-0.07,0.475v2.64h-1.2V178.963z
			"/>
		<path fill="#D83F31" d="M66.506,178.963h1.14v0.77h0.02c0.106-0.24,0.292-0.452,0.555-0.635c0.263-0.183,0.575-0.275,0.935-0.275
			c0.313,0,0.582,0.055,0.805,0.165c0.224,0.11,0.407,0.255,0.55,0.435c0.143,0.18,0.248,0.387,0.315,0.62
			c0.066,0.234,0.1,0.474,0.1,0.72v3h-1.2v-2.66c0-0.14-0.01-0.287-0.03-0.44s-0.063-0.292-0.13-0.415
			c-0.066-0.123-0.158-0.225-0.275-0.305c-0.117-0.08-0.271-0.12-0.465-0.12s-0.36,0.039-0.5,0.115
			c-0.14,0.077-0.255,0.175-0.345,0.295c-0.09,0.12-0.158,0.258-0.205,0.415c-0.047,0.157-0.07,0.315-0.07,0.475v2.64h-1.2V178.963z
			"/>
	</g>
</g>
<g>
	<path fill="#83BB41" d="M-4.316,150.952c0.067-0.827,0.24-1.637,0.517-2.417c1.36-3.85,5.019-6.436,9.104-6.436v-0.552
		c-2.152,0-4.211,0.662-5.954,1.916c-0.839,0.603-1.579,1.327-2.201,2.152c-0.628,0.834-1.123,1.754-1.469,2.735
		c-0.297,0.84-0.48,1.711-0.549,2.602h0l-0.004,0.08c-0.015,0.211-0.024,0.424-0.026,0.638l-0.004,0.115v0.823h20.413v-1.655H-4.316
		z"/>
	<path d="M15.324,154.069H-4.885v0.552h19.421c-0.097,0.267-0.199,0.542-0.218,0.593c-1.424,3.703-5.046,6.191-9.014,6.191v0.552
		c2.104,0,4.125-0.635,5.843-1.836c1.678-1.176,2.953-2.803,3.686-4.708c0.037-0.097,0.328-0.89,0.404-1.105
		c0.007-0.019,0.08-0.222,0.083-0.23h-0.004L15.324,154.069z"/>
	<path d="M22.328,149.27c-0.134-0.173-0.322-0.318-0.565-0.435c-0.244-0.116-0.489-0.175-0.735-0.175
		c-0.146,0-0.293,0.019-0.44,0.055s-0.28,0.093-0.4,0.17s-0.218,0.177-0.295,0.3c-0.077,0.124-0.115,0.272-0.115,0.445
		c0,0.16,0.033,0.297,0.1,0.41c0.066,0.113,0.158,0.21,0.275,0.29s0.258,0.15,0.425,0.21c0.167,0.06,0.35,0.12,0.55,0.18
		c0.227,0.073,0.461,0.157,0.705,0.25c0.243,0.093,0.466,0.217,0.67,0.37c0.203,0.153,0.37,0.347,0.5,0.58
		c0.13,0.233,0.195,0.523,0.195,0.87c0,0.38-0.07,0.712-0.21,0.995c-0.14,0.283-0.327,0.519-0.56,0.705
		c-0.234,0.187-0.507,0.327-0.82,0.42s-0.644,0.14-0.99,0.14c-0.46,0-0.91-0.085-1.35-0.255c-0.44-0.17-0.8-0.421-1.08-0.755
		l0.9-0.84c0.173,0.24,0.405,0.43,0.695,0.57c0.29,0.14,0.575,0.21,0.855,0.21c0.146,0,0.296-0.018,0.45-0.055
		s0.292-0.099,0.415-0.185c0.124-0.087,0.223-0.195,0.3-0.325c0.076-0.13,0.115-0.292,0.115-0.485c0-0.187-0.043-0.342-0.13-0.465
		c-0.087-0.124-0.204-0.23-0.35-0.32c-0.146-0.09-0.32-0.168-0.52-0.235c-0.2-0.066-0.41-0.137-0.63-0.21
		c-0.213-0.066-0.427-0.146-0.64-0.24c-0.213-0.093-0.405-0.216-0.575-0.37c-0.17-0.153-0.308-0.342-0.415-0.565
		c-0.107-0.223-0.16-0.501-0.16-0.835c0-0.36,0.075-0.67,0.225-0.93c0.15-0.26,0.346-0.475,0.59-0.645
		c0.243-0.17,0.52-0.297,0.83-0.38c0.31-0.083,0.625-0.125,0.945-0.125c0.36,0,0.725,0.063,1.095,0.19
		c0.37,0.126,0.691,0.316,0.965,0.57L22.328,149.27z"/>
	<path d="M23.177,151.03v-0.96h0.84v-1.39h1.18v1.39h1.2v0.96h-1.2v2.23c0,0.213,0.039,0.39,0.115,0.53S25.56,154,25.827,154
		c0.08,0,0.167-0.008,0.26-0.025s0.177-0.042,0.25-0.075l0.04,0.94c-0.107,0.04-0.233,0.071-0.38,0.095
		c-0.147,0.023-0.287,0.035-0.42,0.035c-0.32,0-0.58-0.045-0.78-0.135c-0.2-0.09-0.358-0.213-0.475-0.37s-0.196-0.337-0.24-0.54
		c-0.043-0.204-0.065-0.422-0.065-0.655v-2.24H23.177z"/>
	<path d="M29.777,154.26h-0.03c-0.12,0.213-0.313,0.388-0.58,0.525s-0.57,0.205-0.91,0.205c-0.194,0-0.395-0.025-0.605-0.075
		c-0.21-0.05-0.404-0.133-0.58-0.25c-0.177-0.117-0.324-0.27-0.44-0.46c-0.117-0.19-0.175-0.425-0.175-0.705
		c0-0.36,0.102-0.646,0.305-0.86c0.203-0.213,0.465-0.376,0.785-0.49c0.32-0.113,0.675-0.188,1.065-0.225
		c0.39-0.037,0.771-0.055,1.145-0.055v-0.12c0-0.3-0.108-0.521-0.325-0.665c-0.217-0.143-0.475-0.215-0.775-0.215
		c-0.253,0-0.497,0.053-0.73,0.16c-0.233,0.106-0.427,0.236-0.58,0.39l-0.62-0.73c0.273-0.253,0.588-0.443,0.945-0.57
		c0.356-0.126,0.718-0.19,1.085-0.19c0.426,0,0.778,0.06,1.055,0.18c0.277,0.12,0.495,0.276,0.655,0.47
		c0.16,0.193,0.271,0.41,0.335,0.65c0.063,0.24,0.095,0.48,0.095,0.72v2.92h-1.12V154.26z M29.757,152.68h-0.27
		c-0.193,0-0.397,0.008-0.61,0.025s-0.41,0.054-0.59,0.11c-0.18,0.057-0.33,0.137-0.45,0.24c-0.12,0.104-0.18,0.245-0.18,0.425
		c0,0.114,0.025,0.208,0.075,0.285c0.05,0.077,0.115,0.138,0.195,0.185s0.17,0.08,0.27,0.1s0.2,0.03,0.3,0.03
		c0.414,0,0.727-0.11,0.94-0.33c0.213-0.22,0.32-0.52,0.32-0.9V152.68z"/>
	<path d="M31.827,150.07h1.15v0.8h0.02c0.133-0.28,0.32-0.506,0.56-0.68c0.24-0.173,0.52-0.26,0.84-0.26
		c0.046,0,0.097,0.001,0.15,0.005s0.1,0.012,0.14,0.025v1.1c-0.08-0.02-0.148-0.033-0.205-0.04c-0.057-0.006-0.112-0.01-0.165-0.01
		c-0.273,0-0.493,0.05-0.66,0.15c-0.167,0.1-0.296,0.22-0.39,0.36c-0.094,0.14-0.157,0.284-0.19,0.43
		c-0.034,0.146-0.05,0.263-0.05,0.35v2.57h-1.2V150.07z"/>
	<path d="M35.188,151.03h-0.91v-0.96h0.91v-0.71c0-0.287,0.031-0.562,0.095-0.825s0.17-0.495,0.32-0.695
		c0.15-0.2,0.348-0.358,0.595-0.475s0.557-0.175,0.93-0.175c0.133,0,0.245,0.005,0.335,0.015c0.09,0.01,0.182,0.028,0.275,0.055
		l-0.08,1.02c-0.066-0.02-0.138-0.037-0.215-0.05c-0.077-0.013-0.159-0.02-0.245-0.02c-0.173,0-0.313,0.034-0.42,0.1
		c-0.107,0.067-0.188,0.153-0.245,0.26c-0.057,0.106-0.095,0.223-0.115,0.35c-0.02,0.127-0.03,0.25-0.03,0.37v0.78h1.11v0.96h-1.11
		v3.84h-1.2V151.03z"/>
	<path d="M40.397,151.35c-0.107-0.14-0.253-0.262-0.44-0.365c-0.187-0.104-0.39-0.155-0.61-0.155c-0.193,0-0.37,0.04-0.53,0.12
		s-0.24,0.213-0.24,0.4s0.088,0.318,0.265,0.395s0.435,0.155,0.775,0.235c0.18,0.04,0.362,0.094,0.545,0.16
		c0.183,0.067,0.35,0.155,0.5,0.265c0.15,0.11,0.271,0.247,0.365,0.41c0.093,0.164,0.14,0.362,0.14,0.595
		c0,0.293-0.055,0.542-0.165,0.745c-0.11,0.203-0.257,0.368-0.44,0.495c-0.184,0.127-0.397,0.219-0.64,0.275
		c-0.244,0.056-0.495,0.085-0.755,0.085c-0.374,0-0.737-0.068-1.09-0.205c-0.353-0.137-0.646-0.332-0.88-0.585l0.79-0.74
		c0.133,0.173,0.307,0.317,0.52,0.43s0.45,0.17,0.71,0.17c0.086,0,0.175-0.01,0.265-0.03s0.173-0.052,0.25-0.095
		s0.138-0.102,0.185-0.175c0.046-0.073,0.07-0.164,0.07-0.27c0-0.2-0.092-0.343-0.275-0.43c-0.184-0.086-0.458-0.173-0.825-0.26
		c-0.18-0.04-0.355-0.092-0.525-0.155c-0.17-0.063-0.322-0.146-0.455-0.25c-0.133-0.103-0.24-0.231-0.32-0.385
		s-0.12-0.343-0.12-0.57c0-0.267,0.055-0.497,0.165-0.69s0.255-0.352,0.435-0.475c0.18-0.123,0.383-0.215,0.61-0.275
		s0.46-0.09,0.7-0.09c0.347,0,0.685,0.06,1.015,0.18c0.33,0.12,0.591,0.303,0.785,0.55L40.397,151.35z"/>
	<path d="M47.467,149.93c0.313,0,0.582,0.055,0.805,0.165c0.224,0.11,0.407,0.255,0.55,0.435c0.143,0.18,0.248,0.387,0.315,0.62
		c0.066,0.234,0.1,0.474,0.1,0.72v3h-1.2v-2.66c0-0.14-0.01-0.287-0.03-0.44c-0.02-0.153-0.063-0.292-0.13-0.415
		c-0.066-0.123-0.158-0.225-0.275-0.305c-0.117-0.08-0.271-0.12-0.465-0.12c-0.187,0-0.347,0.04-0.48,0.12
		c-0.134,0.08-0.244,0.183-0.33,0.31c-0.087,0.126-0.15,0.268-0.19,0.425s-0.06,0.312-0.06,0.465v2.62h-1.2v-2.9
		c0-0.3-0.072-0.548-0.215-0.745c-0.144-0.197-0.369-0.295-0.675-0.295c-0.18,0-0.337,0.039-0.47,0.115
		c-0.133,0.077-0.242,0.175-0.325,0.295c-0.083,0.12-0.146,0.258-0.19,0.415c-0.043,0.157-0.065,0.315-0.065,0.475v2.64h-1.2v-4.8
		h1.14v0.77h0.02c0.053-0.12,0.125-0.233,0.215-0.34c0.09-0.106,0.196-0.203,0.32-0.29c0.123-0.086,0.265-0.155,0.425-0.205
		c0.16-0.05,0.337-0.075,0.53-0.075c0.373,0,0.683,0.083,0.93,0.25s0.437,0.387,0.57,0.66c0.16-0.293,0.373-0.519,0.64-0.675
		C46.793,150.009,47.107,149.93,47.467,149.93z"/>
	<path d="M53.147,154.26h-0.03c-0.12,0.213-0.313,0.388-0.58,0.525s-0.57,0.205-0.91,0.205c-0.194,0-0.395-0.025-0.605-0.075
		c-0.21-0.05-0.404-0.133-0.58-0.25c-0.177-0.117-0.324-0.27-0.44-0.46c-0.117-0.19-0.175-0.425-0.175-0.705
		c0-0.36,0.102-0.646,0.305-0.86c0.203-0.213,0.465-0.376,0.785-0.49c0.32-0.113,0.675-0.188,1.065-0.225
		c0.39-0.037,0.771-0.055,1.145-0.055v-0.12c0-0.3-0.108-0.521-0.325-0.665c-0.217-0.143-0.475-0.215-0.775-0.215
		c-0.253,0-0.497,0.053-0.73,0.16c-0.233,0.106-0.427,0.236-0.58,0.39l-0.62-0.73c0.273-0.253,0.588-0.443,0.945-0.57
		c0.356-0.126,0.718-0.19,1.085-0.19c0.426,0,0.778,0.06,1.055,0.18c0.277,0.12,0.495,0.276,0.655,0.47
		c0.16,0.193,0.271,0.41,0.335,0.65c0.063,0.24,0.095,0.48,0.095,0.72v2.92h-1.12V154.26z M53.127,152.68h-0.27
		c-0.193,0-0.397,0.008-0.61,0.025s-0.41,0.054-0.59,0.11c-0.18,0.057-0.33,0.137-0.45,0.24c-0.12,0.104-0.18,0.245-0.18,0.425
		c0,0.114,0.025,0.208,0.075,0.285c0.05,0.077,0.115,0.138,0.195,0.185s0.17,0.08,0.27,0.1s0.2,0.03,0.3,0.03
		c0.414,0,0.727-0.11,0.94-0.33c0.213-0.22,0.32-0.52,0.32-0.9V152.68z"/>
	<path d="M55.197,150.07h1.14v0.77h0.02c0.106-0.24,0.292-0.452,0.555-0.635c0.263-0.183,0.575-0.275,0.935-0.275
		c0.313,0,0.582,0.055,0.805,0.165c0.224,0.11,0.407,0.255,0.55,0.435c0.143,0.18,0.248,0.387,0.315,0.62
		c0.066,0.234,0.1,0.474,0.1,0.72v3h-1.2v-2.66c0-0.14-0.01-0.287-0.03-0.44s-0.063-0.292-0.13-0.415
		c-0.066-0.123-0.158-0.225-0.275-0.305c-0.117-0.08-0.271-0.12-0.465-0.12s-0.36,0.039-0.5,0.115
		c-0.14,0.077-0.255,0.175-0.345,0.295c-0.09,0.12-0.158,0.258-0.205,0.415c-0.047,0.157-0.07,0.315-0.07,0.475v2.64h-1.2V150.07z"
		/>
	<path d="M60.547,150.07h1.14v0.77h0.02c0.106-0.24,0.292-0.452,0.555-0.635c0.263-0.183,0.575-0.275,0.935-0.275
		c0.313,0,0.582,0.055,0.805,0.165c0.224,0.11,0.407,0.255,0.55,0.435c0.143,0.18,0.248,0.387,0.315,0.62
		c0.066,0.234,0.1,0.474,0.1,0.72v3h-1.2v-2.66c0-0.14-0.01-0.287-0.03-0.44s-0.063-0.292-0.13-0.415
		c-0.066-0.123-0.158-0.225-0.275-0.305c-0.117-0.08-0.271-0.12-0.465-0.12s-0.36,0.039-0.5,0.115
		c-0.14,0.077-0.255,0.175-0.345,0.295c-0.09,0.12-0.158,0.258-0.205,0.415c-0.047,0.157-0.07,0.315-0.07,0.475v2.64h-1.2V150.07z"
		/>
	<path d="M68.876,154.26h-0.03c-0.12,0.213-0.313,0.388-0.58,0.525s-0.57,0.205-0.91,0.205c-0.194,0-0.395-0.025-0.605-0.075
		c-0.21-0.05-0.404-0.133-0.58-0.25c-0.177-0.117-0.324-0.27-0.44-0.46c-0.117-0.19-0.175-0.425-0.175-0.705
		c0-0.36,0.102-0.646,0.305-0.86c0.203-0.213,0.465-0.376,0.785-0.49c0.32-0.113,0.675-0.188,1.065-0.225
		c0.39-0.037,0.771-0.055,1.145-0.055v-0.12c0-0.3-0.108-0.521-0.325-0.665c-0.217-0.143-0.475-0.215-0.775-0.215
		c-0.253,0-0.497,0.053-0.73,0.16c-0.233,0.106-0.427,0.236-0.58,0.39l-0.62-0.73c0.273-0.253,0.588-0.443,0.945-0.57
		c0.356-0.126,0.718-0.19,1.085-0.19c0.426,0,0.778,0.06,1.055,0.18c0.277,0.12,0.495,0.276,0.655,0.47
		c0.16,0.193,0.271,0.41,0.335,0.65c0.063,0.24,0.095,0.48,0.095,0.72v2.92h-1.12V154.26z M68.856,152.68h-0.27
		c-0.193,0-0.397,0.008-0.61,0.025s-0.41,0.054-0.59,0.11c-0.18,0.057-0.33,0.137-0.45,0.24c-0.12,0.104-0.18,0.245-0.18,0.425
		c0,0.114,0.025,0.208,0.075,0.285c0.05,0.077,0.115,0.138,0.195,0.185s0.17,0.08,0.27,0.1s0.2,0.03,0.3,0.03
		c0.414,0,0.727-0.11,0.94-0.33c0.213-0.22,0.32-0.52,0.32-0.9V152.68z"/>
	<g>
		<g>
			<path fill="#83BB41" d="M72.077,150.07v0.67h0.03c0.06-0.093,0.138-0.188,0.235-0.285s0.215-0.183,0.355-0.26
				c0.14-0.077,0.298-0.14,0.475-0.19c0.177-0.05,0.375-0.075,0.595-0.075c0.34,0,0.653,0.065,0.94,0.195s0.533,0.309,0.74,0.535
				c0.207,0.227,0.366,0.493,0.48,0.8c0.113,0.307,0.17,0.637,0.17,0.99s-0.055,0.685-0.165,0.995c-0.11,0.31-0.267,0.58-0.47,0.81
				c-0.203,0.23-0.45,0.414-0.74,0.55s-0.619,0.205-0.985,0.205c-0.34,0-0.651-0.07-0.935-0.21c-0.284-0.14-0.502-0.33-0.655-0.57
				h-0.02v3.04h-1.2v-7.2H72.077z M74.876,152.45c0-0.187-0.028-0.372-0.085-0.555c-0.057-0.183-0.142-0.348-0.255-0.495
				c-0.113-0.146-0.257-0.265-0.43-0.355c-0.173-0.09-0.376-0.135-0.61-0.135c-0.22,0-0.417,0.047-0.59,0.14
				c-0.174,0.093-0.322,0.213-0.445,0.36s-0.217,0.313-0.28,0.5c-0.063,0.187-0.095,0.374-0.095,0.56s0.032,0.372,0.095,0.555
				c0.063,0.184,0.156,0.349,0.28,0.495c0.124,0.147,0.271,0.265,0.445,0.355c0.173,0.09,0.37,0.135,0.59,0.135
				c0.233,0,0.437-0.047,0.61-0.14s0.317-0.213,0.43-0.36s0.198-0.313,0.255-0.5S74.876,152.637,74.876,152.45z"/>
			<path fill="#83BB41" d="M81.167,154.87h-1.14v-0.77h-0.02c-0.106,0.24-0.292,0.452-0.555,0.635
				c-0.263,0.183-0.575,0.275-0.935,0.275c-0.313,0-0.582-0.055-0.805-0.165c-0.224-0.11-0.407-0.255-0.55-0.435
				c-0.144-0.18-0.249-0.387-0.315-0.62c-0.066-0.233-0.1-0.473-0.1-0.72v-3h1.2v2.66c0,0.14,0.01,0.287,0.03,0.44
				c0.02,0.154,0.063,0.292,0.13,0.415c0.066,0.124,0.158,0.225,0.275,0.305s0.271,0.12,0.465,0.12c0.187,0,0.352-0.039,0.495-0.115
				s0.26-0.175,0.35-0.295s0.158-0.258,0.205-0.415c0.046-0.157,0.07-0.315,0.07-0.475v-2.64h1.2V154.87z M79.307,147.79h1.36
				l-1.41,1.44h-0.94L79.307,147.79z"/>
			<path fill="#83BB41" d="M82.157,147.31h1.2v7.56h-1.2V147.31z"/>
			<path fill="#83BB41" d="M86.976,151.35c-0.107-0.14-0.253-0.262-0.44-0.365c-0.187-0.104-0.39-0.155-0.61-0.155
				c-0.193,0-0.37,0.04-0.53,0.12s-0.24,0.213-0.24,0.4s0.088,0.318,0.265,0.395s0.435,0.155,0.775,0.235
				c0.18,0.04,0.362,0.094,0.545,0.16c0.183,0.067,0.35,0.155,0.5,0.265c0.15,0.11,0.271,0.247,0.365,0.41
				c0.093,0.164,0.14,0.362,0.14,0.595c0,0.293-0.055,0.542-0.165,0.745c-0.11,0.203-0.257,0.368-0.44,0.495
				c-0.184,0.127-0.397,0.219-0.64,0.275c-0.244,0.056-0.495,0.085-0.755,0.085c-0.374,0-0.737-0.068-1.09-0.205
				c-0.353-0.137-0.646-0.332-0.88-0.585l0.79-0.74c0.133,0.173,0.307,0.317,0.52,0.43s0.45,0.17,0.71,0.17
				c0.086,0,0.175-0.01,0.265-0.03s0.173-0.052,0.25-0.095s0.138-0.102,0.185-0.175c0.046-0.073,0.07-0.164,0.07-0.27
				c0-0.2-0.092-0.343-0.275-0.43c-0.184-0.086-0.458-0.173-0.825-0.26c-0.18-0.04-0.355-0.092-0.525-0.155
				c-0.17-0.063-0.322-0.146-0.455-0.25c-0.133-0.103-0.24-0.231-0.32-0.385s-0.12-0.343-0.12-0.57c0-0.267,0.055-0.497,0.165-0.69
				s0.255-0.352,0.435-0.475c0.18-0.123,0.383-0.215,0.61-0.275s0.46-0.09,0.7-0.09c0.347,0,0.685,0.06,1.015,0.18
				c0.33,0.12,0.591,0.303,0.785,0.55L86.976,151.35z"/>
			<path fill="#83BB41" d="M88.166,148.44c0-0.193,0.072-0.361,0.215-0.505c0.143-0.143,0.325-0.215,0.545-0.215
				c0.22,0,0.405,0.068,0.555,0.205c0.15,0.137,0.225,0.308,0.225,0.515c0,0.207-0.075,0.378-0.225,0.515
				c-0.15,0.137-0.335,0.205-0.555,0.205c-0.22,0-0.402-0.072-0.545-0.215C88.238,148.802,88.166,148.634,88.166,148.44z
				 M88.336,150.07h1.2v4.8h-1.2V150.07z"/>
			<path fill="#83BB41" d="M90.526,150.07h1.14v0.77h0.02c0.106-0.24,0.292-0.452,0.555-0.635c0.263-0.183,0.575-0.275,0.935-0.275
				c0.313,0,0.582,0.055,0.805,0.165c0.224,0.11,0.407,0.255,0.55,0.435c0.143,0.18,0.248,0.387,0.315,0.62
				c0.066,0.234,0.1,0.474,0.1,0.72v3h-1.2v-2.66c0-0.14-0.01-0.287-0.03-0.44s-0.063-0.292-0.13-0.415
				c-0.066-0.123-0.158-0.225-0.275-0.305c-0.117-0.08-0.271-0.12-0.465-0.12s-0.36,0.039-0.5,0.115
				c-0.14,0.077-0.255,0.175-0.345,0.295c-0.09,0.12-0.158,0.258-0.205,0.415c-0.047,0.157-0.07,0.315-0.07,0.475v2.64h-1.2V150.07z
				"/>
			<path fill="#83BB41" d="M95.875,150.07h1.14v0.77h0.02c0.106-0.24,0.292-0.452,0.555-0.635c0.263-0.183,0.575-0.275,0.935-0.275
				c0.313,0,0.582,0.055,0.805,0.165c0.224,0.11,0.407,0.255,0.55,0.435c0.143,0.18,0.248,0.387,0.315,0.62
				c0.066,0.234,0.1,0.474,0.1,0.72v3h-1.2v-2.66c0-0.14-0.01-0.287-0.03-0.44s-0.063-0.292-0.13-0.415
				c-0.066-0.123-0.158-0.225-0.275-0.305c-0.117-0.08-0.271-0.12-0.465-0.12s-0.36,0.039-0.5,0.115
				c-0.14,0.077-0.255,0.175-0.345,0.295c-0.09,0.12-0.158,0.258-0.205,0.415c-0.047,0.157-0.07,0.315-0.07,0.475v2.64h-1.2V150.07z
				"/>
		</g>
	</g>
</g>
</svg>
