<?xml version="1.0" encoding="utf-8"?>
<!-- Generator: Adobe Illustrator 15.0.2, SVG Export Plug-In . SVG Version: 6.00 Build 0)  -->
<!DOCTYPE svg PUBLIC "-//W3C//DTD SVG 1.1//EN" "http://www.w3.org/Graphics/SVG/1.1/DTD/svg11.dtd">
<svg version="1.1" id="Layer_1" xmlns="http://www.w3.org/2000/svg" xmlns:xlink="http://www.w3.org/1999/xlink" x="0px" y="0px"
	 width="105.295px" height="20.41px" viewBox="0 0 105.295 20.41" enable-background="new 0 0 105.295 20.41" xml:space="preserve">
<g>
	<path d="M20.184,12.519l-0.053,0.183c-0.037,0.109-0.377,1.053-0.418,1.16c-0.732,1.901-2.005,3.527-3.682,4.7
		c-1.715,1.202-3.734,1.835-5.834,1.835v-0.552c3.963,0,7.581-2.485,9.001-6.183c0.021-0.05,0.121-0.326,0.219-0.592H0.02v-0.553
		h19.546L20.184,12.519L20.184,12.519z"/>
	<path fill="#465BA3" d="M0.587,9.405c0.068-0.825,0.241-1.633,0.517-2.414c1.358-3.844,5.011-6.428,9.091-6.428v-0.55
		c-2.149,0-4.206,0.662-5.945,1.914C3.411,2.528,2.672,3.252,2.051,4.076C1.422,4.908,0.93,5.828,0.583,6.808
		c-0.296,0.838-0.48,1.709-0.549,2.597h0L0.031,9.475c-0.016,0.222-0.026,0.441-0.027,0.663L0,10.237v0.822h20.387V9.405H0.587
		L0.587,9.405z"/>
	<path d="M27.328,7.721c-0.134-0.173-0.322-0.318-0.565-0.435c-0.244-0.116-0.489-0.175-0.735-0.175
		c-0.146,0-0.293,0.019-0.44,0.055s-0.28,0.093-0.4,0.17s-0.218,0.177-0.295,0.3c-0.077,0.124-0.115,0.272-0.115,0.445
		c0,0.16,0.033,0.297,0.1,0.41c0.066,0.113,0.158,0.21,0.275,0.29s0.258,0.15,0.425,0.21c0.167,0.06,0.35,0.12,0.55,0.18
		c0.227,0.073,0.461,0.157,0.705,0.25c0.243,0.093,0.466,0.217,0.67,0.37c0.203,0.153,0.37,0.347,0.5,0.58
		c0.13,0.233,0.195,0.523,0.195,0.87c0,0.38-0.07,0.712-0.21,0.995c-0.14,0.283-0.327,0.519-0.56,0.705
		c-0.234,0.187-0.507,0.327-0.82,0.42s-0.644,0.14-0.99,0.14c-0.46,0-0.91-0.085-1.35-0.255c-0.44-0.17-0.8-0.421-1.08-0.755
		l0.9-0.84c0.173,0.24,0.405,0.43,0.695,0.57c0.29,0.14,0.575,0.21,0.855,0.21c0.146,0,0.296-0.018,0.45-0.055
		s0.292-0.099,0.415-0.185c0.124-0.087,0.223-0.195,0.3-0.325c0.076-0.13,0.115-0.292,0.115-0.485c0-0.187-0.043-0.342-0.13-0.465
		c-0.087-0.124-0.204-0.23-0.35-0.32c-0.146-0.09-0.32-0.168-0.52-0.235c-0.2-0.066-0.41-0.137-0.63-0.21
		c-0.213-0.066-0.427-0.146-0.64-0.24c-0.213-0.093-0.405-0.216-0.575-0.37c-0.17-0.153-0.308-0.342-0.415-0.565
		c-0.107-0.223-0.16-0.501-0.16-0.835c0-0.36,0.075-0.67,0.225-0.93c0.15-0.26,0.346-0.475,0.59-0.645
		c0.243-0.17,0.52-0.297,0.83-0.38c0.31-0.083,0.625-0.125,0.945-0.125c0.36,0,0.725,0.063,1.095,0.19
		c0.37,0.126,0.691,0.316,0.965,0.57L27.328,7.721z"/>
	<path d="M28.947,5.761h1.2v4.78h0.03l1.82-2.02h1.54l-2.08,2.17l2.21,2.63h-1.59l-1.9-2.46h-0.03v2.46h-1.2V5.761z"/>
	<path d="M33.408,10.901c0-0.38,0.068-0.725,0.205-1.035s0.322-0.575,0.555-0.795c0.233-0.22,0.51-0.39,0.83-0.51
		c0.32-0.12,0.66-0.18,1.02-0.18c0.36,0,0.7,0.06,1.02,0.18c0.32,0.12,0.597,0.29,0.83,0.51s0.418,0.485,0.555,0.795
		s0.205,0.655,0.205,1.035s-0.068,0.727-0.205,1.04s-0.322,0.582-0.555,0.805c-0.233,0.224-0.51,0.398-0.83,0.525
		c-0.32,0.126-0.66,0.19-1.02,0.19c-0.36,0-0.7-0.063-1.02-0.19c-0.32-0.127-0.597-0.302-0.83-0.525
		c-0.233-0.223-0.418-0.491-0.555-0.805S33.408,11.281,33.408,10.901z M34.628,10.901c0,0.187,0.028,0.374,0.085,0.56
		s0.142,0.354,0.255,0.5s0.256,0.267,0.43,0.36c0.173,0.093,0.38,0.14,0.62,0.14c0.24,0,0.447-0.047,0.62-0.14
		s0.316-0.213,0.43-0.36c0.113-0.146,0.198-0.313,0.255-0.5s0.085-0.374,0.085-0.56s-0.028-0.372-0.085-0.555
		c-0.057-0.183-0.142-0.348-0.255-0.495c-0.114-0.146-0.257-0.265-0.43-0.355c-0.173-0.09-0.38-0.135-0.62-0.135
		c-0.24,0-0.446,0.045-0.62,0.135c-0.174,0.09-0.317,0.208-0.43,0.355c-0.113,0.147-0.198,0.312-0.255,0.495
		C34.656,10.53,34.628,10.715,34.628,10.901z M36.288,6.241h1.36l-1.41,1.44h-0.94L36.288,6.241z"/>
	<path d="M39.337,5.761h1.2v7.56h-1.2V5.761z"/>
	<path d="M44.507,12.711h-0.03c-0.12,0.213-0.313,0.388-0.58,0.525s-0.57,0.205-0.91,0.205c-0.194,0-0.395-0.025-0.605-0.075
		c-0.21-0.05-0.404-0.133-0.58-0.25c-0.177-0.117-0.324-0.27-0.44-0.46c-0.117-0.19-0.175-0.425-0.175-0.705
		c0-0.36,0.102-0.646,0.305-0.86c0.203-0.213,0.465-0.376,0.785-0.49c0.32-0.113,0.675-0.188,1.065-0.225
		c0.39-0.037,0.771-0.055,1.145-0.055v-0.12c0-0.3-0.108-0.521-0.325-0.665c-0.217-0.143-0.475-0.215-0.775-0.215
		c-0.253,0-0.497,0.053-0.73,0.16c-0.233,0.106-0.427,0.236-0.58,0.39l-0.62-0.73c0.273-0.253,0.588-0.443,0.945-0.57
		c0.356-0.126,0.718-0.19,1.085-0.19c0.426,0,0.778,0.06,1.055,0.18c0.277,0.12,0.495,0.276,0.655,0.47
		c0.16,0.193,0.271,0.41,0.335,0.65c0.063,0.24,0.095,0.48,0.095,0.72v2.92h-1.12V12.711z M44.487,11.131h-0.27
		c-0.193,0-0.397,0.008-0.61,0.025s-0.41,0.054-0.59,0.11c-0.18,0.057-0.33,0.137-0.45,0.24c-0.12,0.104-0.18,0.245-0.18,0.425
		c0,0.114,0.025,0.208,0.075,0.285c0.05,0.077,0.115,0.138,0.195,0.185s0.17,0.08,0.27,0.1s0.2,0.03,0.3,0.03
		c0.414,0,0.727-0.11,0.94-0.33c0.213-0.22,0.32-0.52,0.32-0.9V11.131z"/>
	<g>
		<path fill="#465BA3" d="M45.837,8.521h1.31l1.26,3.5h0.02l1.27-3.5h1.27l-1.91,4.8h-1.28L45.837,8.521z"/>
		<path fill="#465BA3" d="M50.937,10.901c0-0.38,0.068-0.725,0.205-1.035s0.322-0.575,0.555-0.795c0.233-0.22,0.51-0.39,0.83-0.51
			c0.32-0.12,0.66-0.18,1.02-0.18c0.36,0,0.7,0.06,1.02,0.18c0.32,0.12,0.597,0.29,0.83,0.51s0.418,0.485,0.555,0.795
			s0.205,0.655,0.205,1.035s-0.068,0.727-0.205,1.04s-0.322,0.582-0.555,0.805c-0.233,0.224-0.51,0.398-0.83,0.525
			c-0.32,0.126-0.66,0.19-1.02,0.19c-0.36,0-0.7-0.063-1.02-0.19c-0.32-0.127-0.597-0.302-0.83-0.525
			c-0.233-0.223-0.418-0.491-0.555-0.805S50.937,11.281,50.937,10.901z M52.157,10.901c0,0.187,0.028,0.374,0.085,0.56
			s0.142,0.354,0.255,0.5s0.256,0.267,0.43,0.36c0.173,0.093,0.38,0.14,0.62,0.14c0.24,0,0.447-0.047,0.62-0.14
			s0.316-0.213,0.43-0.36c0.113-0.146,0.198-0.313,0.255-0.5s0.085-0.374,0.085-0.56s-0.028-0.372-0.085-0.555
			c-0.057-0.183-0.142-0.348-0.255-0.495c-0.114-0.146-0.257-0.265-0.43-0.355c-0.173-0.09-0.38-0.135-0.62-0.135
			c-0.24,0-0.446,0.045-0.62,0.135c-0.174,0.09-0.317,0.208-0.43,0.355c-0.113,0.147-0.198,0.312-0.255,0.495
			C52.186,10.53,52.157,10.715,52.157,10.901z"/>
		<path fill="#465BA3" d="M61.727,8.521v4.37c0,0.434-0.054,0.825-0.16,1.175s-0.271,0.646-0.495,0.89
			c-0.223,0.244-0.505,0.432-0.845,0.565c-0.34,0.133-0.744,0.2-1.21,0.2c-0.193,0-0.398-0.017-0.615-0.05
			c-0.217-0.034-0.43-0.083-0.64-0.15c-0.21-0.067-0.412-0.15-0.605-0.25c-0.193-0.1-0.367-0.214-0.52-0.34l0.69-0.93
			c0.233,0.22,0.497,0.388,0.79,0.505c0.293,0.117,0.59,0.175,0.89,0.175c0.287,0,0.528-0.042,0.725-0.125
			c0.197-0.083,0.354-0.199,0.47-0.346c0.116-0.147,0.2-0.321,0.25-0.522c0.05-0.201,0.075-0.421,0.075-0.662v-0.352h-0.02
			c-0.173,0.236-0.395,0.416-0.665,0.541s-0.572,0.187-0.905,0.187c-0.36,0-0.687-0.067-0.98-0.2
			c-0.293-0.133-0.542-0.313-0.745-0.54c-0.204-0.227-0.362-0.491-0.475-0.795c-0.113-0.303-0.17-0.625-0.17-0.965
			c0-0.347,0.055-0.673,0.165-0.98s0.267-0.573,0.47-0.8c0.203-0.227,0.45-0.406,0.74-0.54c0.29-0.133,0.615-0.2,0.975-0.2
			c0.34,0,0.657,0.07,0.95,0.21c0.293,0.14,0.526,0.357,0.7,0.65h0.02v-0.72H61.727z M59.167,9.361c-0.22,0-0.415,0.04-0.585,0.12
			s-0.313,0.188-0.43,0.324s-0.207,0.297-0.27,0.483c-0.063,0.187-0.095,0.386-0.095,0.598c0,0.193,0.031,0.379,0.095,0.558
			c0.063,0.18,0.153,0.341,0.27,0.483c0.117,0.143,0.26,0.258,0.43,0.344s0.361,0.129,0.575,0.129c0.22,0,0.418-0.042,0.595-0.125
			s0.327-0.194,0.45-0.334c0.123-0.14,0.218-0.301,0.285-0.483c0.067-0.183,0.1-0.374,0.1-0.573c0-0.206-0.033-0.402-0.1-0.588
			c-0.066-0.186-0.162-0.349-0.285-0.488c-0.124-0.14-0.272-0.25-0.445-0.329S59.386,9.361,59.167,9.361z"/>
		<path fill="#465BA3" d="M62.546,6.891c0-0.193,0.072-0.361,0.215-0.505c0.143-0.143,0.325-0.215,0.545-0.215
			c0.22,0,0.405,0.068,0.555,0.205c0.15,0.137,0.225,0.308,0.225,0.515c0,0.207-0.075,0.378-0.225,0.515
			c-0.15,0.137-0.335,0.205-0.555,0.205c-0.22,0-0.402-0.072-0.545-0.215C62.618,7.253,62.546,7.085,62.546,6.891z M62.717,8.521
			h1.2v4.8h-1.2V8.521z"/>
		<path fill="#465BA3" d="M64.906,8.521h1.14v0.77h0.02c0.106-0.24,0.292-0.452,0.555-0.635c0.263-0.183,0.575-0.275,0.935-0.275
			c0.313,0,0.582,0.055,0.805,0.165c0.224,0.11,0.407,0.255,0.55,0.435c0.143,0.18,0.248,0.387,0.315,0.62
			c0.066,0.234,0.1,0.474,0.1,0.72v3h-1.2v-2.66c0-0.14-0.01-0.287-0.03-0.44s-0.063-0.292-0.13-0.415
			c-0.066-0.123-0.158-0.225-0.275-0.305c-0.117-0.08-0.271-0.12-0.465-0.12s-0.36,0.039-0.5,0.115
			c-0.14,0.077-0.255,0.175-0.345,0.295c-0.09,0.12-0.158,0.258-0.205,0.415c-0.047,0.157-0.07,0.315-0.07,0.475v2.64h-1.2V8.521z"
			/>
	</g>
</g>
</svg>
