<?xml version="1.0" encoding="utf-8"?>
<!-- Generator: Adobe Illustrator 15.0.2, SVG Export Plug-In . SVG Version: 6.00 Build 0)  -->
<!DOCTYPE svg PUBLIC "-//W3C//DTD SVG 1.1//EN" "http://www.w3.org/Graphics/SVG/1.1/DTD/svg11.dtd">
<svg version="1.1" id="Layer_1" xmlns="http://www.w3.org/2000/svg" xmlns:xlink="http://www.w3.org/1999/xlink" x="0px" y="0px"
	 width="105.295px" height="20.41px" viewBox="0 0 105.295 20.41" enable-background="new 0 0 105.295 20.41" xml:space="preserve">
<g>
	<path d="M20.279,12.529l-0.053,0.185c-0.038,0.109-0.379,1.058-0.42,1.164c-0.735,1.912-2.014,3.545-3.699,4.724
		c-1.724,1.208-3.751,1.845-5.862,1.845v-0.555c3.982,0,7.617-2.497,9.044-6.213c0.02-0.05,0.122-0.326,0.22-0.595H0.02v-0.555
		h19.639H20.279z"/>
	<path fill="#D83F31" d="M0.59,9.402c0.068-0.829,0.241-1.643,0.518-2.426c1.365-3.863,5.036-6.458,9.135-6.458v-0.554
		c-2.161,0-4.226,0.664-5.974,1.922C3.427,2.492,2.685,3.218,2.06,4.046C1.429,4.883,0.933,5.807,0.585,6.792
		c-0.297,0.843-0.481,1.718-0.552,2.61h0L0.03,9.472c-0.016,0.222-0.025,0.442-0.026,0.664L0,10.236v0.827h20.483V9.401L0.59,9.402
		L0.59,9.402z"/>
	<path d="M27.328,7.726c-0.134-0.173-0.322-0.318-0.565-0.435c-0.244-0.116-0.489-0.175-0.735-0.175
		c-0.146,0-0.293,0.019-0.44,0.055s-0.28,0.093-0.4,0.17s-0.218,0.177-0.295,0.3c-0.077,0.124-0.115,0.272-0.115,0.445
		c0,0.16,0.033,0.297,0.1,0.41c0.066,0.113,0.158,0.21,0.275,0.29s0.258,0.15,0.425,0.21c0.167,0.06,0.35,0.12,0.55,0.18
		c0.227,0.073,0.461,0.157,0.705,0.25c0.243,0.093,0.466,0.217,0.67,0.37c0.203,0.153,0.37,0.347,0.5,0.58
		c0.13,0.233,0.195,0.523,0.195,0.87c0,0.38-0.07,0.712-0.21,0.995c-0.14,0.283-0.327,0.519-0.56,0.705
		c-0.234,0.187-0.507,0.327-0.82,0.42s-0.644,0.14-0.99,0.14c-0.46,0-0.91-0.085-1.35-0.255c-0.44-0.17-0.8-0.421-1.08-0.755
		l0.9-0.84c0.173,0.24,0.405,0.43,0.695,0.57c0.29,0.14,0.575,0.21,0.855,0.21c0.146,0,0.296-0.018,0.45-0.055
		s0.292-0.099,0.415-0.185c0.124-0.087,0.223-0.195,0.3-0.325c0.076-0.13,0.115-0.292,0.115-0.485c0-0.187-0.043-0.342-0.13-0.465
		c-0.087-0.124-0.204-0.23-0.35-0.32c-0.146-0.09-0.32-0.168-0.52-0.235c-0.2-0.066-0.41-0.137-0.63-0.21
		c-0.213-0.066-0.427-0.146-0.64-0.24c-0.213-0.093-0.405-0.216-0.575-0.37c-0.17-0.153-0.308-0.342-0.415-0.565
		c-0.107-0.223-0.16-0.501-0.16-0.835c0-0.36,0.075-0.67,0.225-0.93c0.15-0.26,0.346-0.475,0.59-0.645
		c0.243-0.17,0.52-0.297,0.83-0.38c0.31-0.083,0.625-0.125,0.945-0.125c0.36,0,0.725,0.063,1.095,0.19
		c0.37,0.126,0.691,0.316,0.965,0.57L27.328,7.726z"/>
	<path d="M28.947,5.766h1.2v4.78h0.03l1.82-2.02h1.54l-2.08,2.17l2.21,2.63h-1.59l-1.9-2.46h-0.03v2.46h-1.2V5.766z"/>
	<path d="M33.408,10.906c0-0.38,0.068-0.725,0.205-1.035s0.322-0.575,0.555-0.795c0.233-0.22,0.51-0.39,0.83-0.51
		c0.32-0.12,0.66-0.18,1.02-0.18c0.36,0,0.7,0.06,1.02,0.18c0.32,0.12,0.597,0.29,0.83,0.51s0.418,0.485,0.555,0.795
		s0.205,0.655,0.205,1.035s-0.068,0.727-0.205,1.04s-0.322,0.582-0.555,0.805c-0.233,0.224-0.51,0.398-0.83,0.525
		c-0.32,0.126-0.66,0.19-1.02,0.19c-0.36,0-0.7-0.063-1.02-0.19c-0.32-0.127-0.597-0.302-0.83-0.525
		c-0.233-0.223-0.418-0.491-0.555-0.805S33.408,11.286,33.408,10.906z M34.628,10.906c0,0.187,0.028,0.374,0.085,0.56
		s0.142,0.354,0.255,0.5s0.256,0.267,0.43,0.36c0.173,0.093,0.38,0.14,0.62,0.14c0.24,0,0.447-0.047,0.62-0.14
		s0.316-0.213,0.43-0.36c0.113-0.146,0.198-0.313,0.255-0.5s0.085-0.374,0.085-0.56s-0.028-0.372-0.085-0.555
		c-0.057-0.183-0.142-0.348-0.255-0.495c-0.114-0.146-0.257-0.265-0.43-0.355c-0.173-0.09-0.38-0.135-0.62-0.135
		c-0.24,0-0.446,0.045-0.62,0.135c-0.174,0.09-0.317,0.208-0.43,0.355c-0.113,0.147-0.198,0.312-0.255,0.495
		C34.656,10.535,34.628,10.72,34.628,10.906z M36.288,6.246h1.36l-1.41,1.44h-0.94L36.288,6.246z"/>
	<path d="M39.337,5.766h1.2v7.56h-1.2V5.766z"/>
	<path d="M44.507,12.716h-0.03c-0.12,0.213-0.313,0.388-0.58,0.525s-0.57,0.205-0.91,0.205c-0.194,0-0.395-0.025-0.605-0.075
		c-0.21-0.05-0.404-0.133-0.58-0.25c-0.177-0.117-0.324-0.27-0.44-0.46c-0.117-0.19-0.175-0.425-0.175-0.705
		c0-0.36,0.102-0.646,0.305-0.86c0.203-0.213,0.465-0.376,0.785-0.49c0.32-0.113,0.675-0.188,1.065-0.225
		c0.39-0.037,0.771-0.055,1.145-0.055v-0.12c0-0.3-0.108-0.521-0.325-0.665c-0.217-0.143-0.475-0.215-0.775-0.215
		c-0.253,0-0.497,0.053-0.73,0.16c-0.233,0.106-0.427,0.236-0.58,0.39l-0.62-0.73c0.273-0.253,0.588-0.443,0.945-0.57
		c0.356-0.126,0.718-0.19,1.085-0.19c0.426,0,0.778,0.06,1.055,0.18c0.277,0.12,0.495,0.276,0.655,0.47
		c0.16,0.193,0.271,0.41,0.335,0.65c0.063,0.24,0.095,0.48,0.095,0.72v2.92h-1.12V12.716z M44.487,11.136h-0.27
		c-0.193,0-0.397,0.008-0.61,0.025s-0.41,0.054-0.59,0.11c-0.18,0.057-0.33,0.137-0.45,0.24c-0.12,0.104-0.18,0.245-0.18,0.425
		c0,0.114,0.025,0.208,0.075,0.285c0.05,0.077,0.115,0.138,0.195,0.185s0.17,0.08,0.27,0.1s0.2,0.03,0.3,0.03
		c0.414,0,0.727-0.11,0.94-0.33c0.213-0.22,0.32-0.52,0.32-0.9V11.136z"/>
	<g>
		<path fill="#D83F31" d="M47.707,8.526v0.67h0.03c0.06-0.093,0.138-0.188,0.235-0.285s0.215-0.183,0.355-0.26
			c0.14-0.077,0.298-0.14,0.475-0.19c0.177-0.05,0.375-0.075,0.595-0.075c0.34,0,0.653,0.065,0.94,0.195s0.533,0.309,0.74,0.535
			c0.207,0.227,0.366,0.493,0.48,0.8c0.113,0.307,0.17,0.637,0.17,0.99s-0.055,0.685-0.165,0.995c-0.11,0.31-0.267,0.58-0.47,0.81
			c-0.203,0.23-0.45,0.414-0.74,0.55s-0.619,0.205-0.985,0.205c-0.34,0-0.651-0.07-0.935-0.21c-0.284-0.14-0.502-0.33-0.655-0.57
			h-0.02v3.04h-1.2v-7.2H47.707z M50.507,10.906c0-0.187-0.028-0.372-0.085-0.555c-0.057-0.183-0.142-0.348-0.255-0.495
			c-0.113-0.146-0.257-0.265-0.43-0.355c-0.173-0.09-0.376-0.135-0.61-0.135c-0.22,0-0.417,0.047-0.59,0.14
			c-0.174,0.093-0.322,0.213-0.445,0.36s-0.217,0.313-0.28,0.5c-0.063,0.187-0.095,0.374-0.095,0.56s0.032,0.372,0.095,0.555
			c0.063,0.184,0.156,0.349,0.28,0.495c0.124,0.147,0.271,0.265,0.445,0.355c0.173,0.09,0.37,0.135,0.59,0.135
			c0.233,0,0.437-0.047,0.61-0.14s0.317-0.213,0.43-0.36s0.198-0.313,0.255-0.5S50.507,11.093,50.507,10.906z"/>
		<path fill="#D83F31" d="M56.797,13.326h-1.14v-0.77h-0.02c-0.106,0.24-0.292,0.452-0.555,0.635
			c-0.263,0.183-0.575,0.275-0.935,0.275c-0.313,0-0.582-0.055-0.805-0.165c-0.224-0.11-0.407-0.255-0.55-0.435
			c-0.144-0.18-0.249-0.387-0.315-0.62c-0.066-0.233-0.1-0.473-0.1-0.72v-3h1.2v2.66c0,0.14,0.01,0.287,0.03,0.44
			c0.02,0.154,0.063,0.292,0.13,0.415c0.066,0.124,0.158,0.225,0.275,0.305s0.271,0.12,0.465,0.12c0.187,0,0.352-0.039,0.495-0.115
			s0.26-0.175,0.35-0.295s0.158-0.258,0.205-0.415c0.046-0.157,0.07-0.315,0.07-0.475v-2.64h1.2V13.326z M54.938,6.246h1.36
			l-1.41,1.44h-0.94L54.938,6.246z"/>
		<path fill="#D83F31" d="M57.787,5.766h1.2v7.56h-1.2V5.766z"/>
		<path fill="#D83F31" d="M62.607,9.806c-0.107-0.14-0.253-0.262-0.44-0.365c-0.187-0.104-0.39-0.155-0.61-0.155
			c-0.193,0-0.37,0.04-0.53,0.12s-0.24,0.213-0.24,0.4s0.088,0.318,0.265,0.395s0.435,0.155,0.775,0.235
			c0.18,0.04,0.362,0.094,0.545,0.16c0.183,0.067,0.35,0.155,0.5,0.265c0.15,0.11,0.271,0.247,0.365,0.41
			c0.093,0.164,0.14,0.362,0.14,0.595c0,0.293-0.055,0.542-0.165,0.745c-0.11,0.203-0.257,0.368-0.44,0.495
			c-0.184,0.127-0.397,0.219-0.64,0.275c-0.244,0.056-0.495,0.085-0.755,0.085c-0.374,0-0.737-0.068-1.09-0.205
			c-0.353-0.137-0.646-0.332-0.88-0.585l0.79-0.74c0.133,0.173,0.307,0.317,0.52,0.43s0.45,0.17,0.71,0.17
			c0.086,0,0.175-0.01,0.265-0.03s0.173-0.052,0.25-0.095s0.138-0.102,0.185-0.175c0.046-0.073,0.07-0.164,0.07-0.27
			c0-0.2-0.092-0.343-0.275-0.43c-0.184-0.086-0.458-0.173-0.825-0.26c-0.18-0.04-0.355-0.092-0.525-0.155
			c-0.17-0.063-0.322-0.146-0.455-0.25c-0.133-0.103-0.24-0.231-0.32-0.385s-0.12-0.343-0.12-0.57c0-0.267,0.055-0.497,0.165-0.69
			s0.255-0.352,0.435-0.475c0.18-0.123,0.383-0.215,0.61-0.275s0.46-0.09,0.7-0.09c0.347,0,0.685,0.06,1.015,0.18
			c0.33,0.12,0.591,0.303,0.785,0.55L62.607,9.806z"/>
		<path fill="#D83F31" d="M63.796,6.896c0-0.193,0.072-0.361,0.215-0.505c0.143-0.143,0.325-0.215,0.545-0.215
			c0.22,0,0.405,0.068,0.555,0.205c0.15,0.137,0.225,0.308,0.225,0.515c0,0.207-0.075,0.378-0.225,0.515
			c-0.15,0.137-0.335,0.205-0.555,0.205c-0.22,0-0.402-0.072-0.545-0.215C63.868,7.258,63.796,7.09,63.796,6.896z M63.967,8.526h1.2
			v4.8h-1.2V8.526z"/>
		<path fill="#D83F31" d="M66.156,8.526h1.14v0.77h0.02c0.106-0.24,0.292-0.452,0.555-0.635c0.263-0.183,0.575-0.275,0.935-0.275
			c0.313,0,0.582,0.055,0.805,0.165c0.224,0.11,0.407,0.255,0.55,0.435c0.143,0.18,0.248,0.387,0.315,0.62
			c0.066,0.234,0.1,0.474,0.1,0.72v3h-1.2v-2.66c0-0.14-0.01-0.287-0.03-0.44s-0.063-0.292-0.13-0.415
			c-0.066-0.123-0.158-0.225-0.275-0.305c-0.117-0.08-0.271-0.12-0.465-0.12s-0.36,0.039-0.5,0.115
			c-0.14,0.077-0.255,0.175-0.345,0.295c-0.09,0.12-0.158,0.258-0.205,0.415c-0.047,0.157-0.07,0.315-0.07,0.475v2.64h-1.2V8.526z"
			/>
		<path fill="#D83F31" d="M71.506,8.526h1.14v0.77h0.02c0.106-0.24,0.292-0.452,0.555-0.635c0.263-0.183,0.575-0.275,0.935-0.275
			c0.313,0,0.582,0.055,0.805,0.165c0.224,0.11,0.407,0.255,0.55,0.435c0.143,0.18,0.248,0.387,0.315,0.62
			c0.066,0.234,0.1,0.474,0.1,0.72v3h-1.2v-2.66c0-0.14-0.01-0.287-0.03-0.44s-0.063-0.292-0.13-0.415
			c-0.066-0.123-0.158-0.225-0.275-0.305c-0.117-0.08-0.271-0.12-0.465-0.12s-0.36,0.039-0.5,0.115
			c-0.14,0.077-0.255,0.175-0.345,0.295c-0.09,0.12-0.158,0.258-0.205,0.415c-0.047,0.157-0.07,0.315-0.07,0.475v2.64h-1.2V8.526z"
			/>
	</g>
</g>
</svg>
