<?xml version="1.0" encoding="UTF-8" standalone="no"?>
<!DOCTYPE svg PUBLIC "-//W3C//DTD SVG 1.1//EN" "http://www.w3.org/Graphics/SVG/1.1/DTD/svg11.dtd">
<svg width="100%" height="100%" viewBox="0 0 70 57" version="1.1" xmlns="http://www.w3.org/2000/svg" xmlns:xlink="http://www.w3.org/1999/xlink" xml:space="preserve" xmlns:serif="http://www.serif.com/" style="fill-rule:evenodd;clip-rule:evenodd;stroke-linejoin:round;stroke-miterlimit:2;">
    <g transform="matrix(0.561963,0,0,0.561963,4.61,50.037)">
        <path id="Semibold-S" d="M86.377,-65.918L52.002,-65.918C49.17,-65.918 47.412,-66.602 45.068,-68.408L43.018,-70.019C40.137,-72.266 38.037,-73.047 33.74,-73.047L22.51,-73.047C14.648,-73.047 9.766,-68.262 9.766,-59.522L9.766,-48.291L99.951,-48.291L99.951,-52.441C99.951,-61.182 95.166,-65.918 86.377,-65.918ZM23.34,1.416L87.158,1.416C95.166,1.416 99.951,-3.32 99.951,-12.06L99.951,-41.943L9.766,-41.943L9.766,-12.06C9.766,-3.32 14.551,1.416 23.34,1.416Z" style="fill:rgb(68,87,158);fill-rule:nonzero;"/>
    </g>
</svg>
