<?xml version="1.0" encoding="UTF-8" standalone="no"?>
<!DOCTYPE svg PUBLIC "-//W3C//DTD SVG 1.1//EN" "http://www.w3.org/Graphics/SVG/1.1/DTD/svg11.dtd">
<svg width="100%" height="100%" viewBox="0 0 62 57" version="1.1" xmlns="http://www.w3.org/2000/svg" xmlns:xlink="http://www.w3.org/1999/xlink" xml:space="preserve" xmlns:serif="http://www.serif.com/" style="fill-rule:evenodd;clip-rule:evenodd;stroke-linejoin:round;stroke-miterlimit:2;">
    <g transform="matrix(0.566164,0,0,0.566164,6.6,47.093)">
        <path id="Semibold-S" d="M23.242,6.836L64.111,6.836C72.852,6.836 77.539,2.1 77.539,-6.738L77.539,-39.844L47.51,-39.844C42.725,-39.844 40.381,-42.188 40.381,-46.973L40.381,-77.246L23.242,-77.246C14.502,-77.246 9.766,-72.51 9.766,-63.672L9.766,-6.738C9.766,2.1 14.502,6.836 23.242,6.836ZM48.975,-46.191L77.197,-46.191C77.002,-48.193 75.488,-50.147 73.144,-52.49L52.978,-72.949C50.781,-75.195 48.779,-76.709 46.728,-76.953L46.728,-48.389C46.728,-46.924 47.51,-46.191 48.975,-46.191ZM43.652,-2.588C42.481,-2.588 41.553,-3.076 40.527,-3.955L30.469,-13.086C29.639,-13.867 29.248,-14.648 29.248,-15.723C29.248,-17.627 30.762,-19.043 32.764,-19.043C33.691,-19.043 34.668,-18.506 35.352,-17.822L38.232,-14.893L40.088,-12.94L39.697,-17.92L39.697,-28.467C39.697,-30.615 41.504,-32.178 43.652,-32.178C45.801,-32.178 47.607,-30.615 47.607,-28.467L47.607,-17.92L47.217,-12.94L49.121,-14.893L51.953,-17.822C52.637,-18.506 53.565,-19.043 54.541,-19.043C56.543,-19.043 58.057,-17.627 58.057,-15.723C58.057,-14.648 57.666,-13.867 56.836,-13.086L46.777,-3.955C45.752,-3.076 44.824,-2.588 43.652,-2.588Z" style="fill:rgb(68,87,158);fill-rule:nonzero;"/>
    </g>
</svg>
