<?xml version="1.0" encoding="UTF-8"?>
<svg width="71px" height="57px" viewBox="0 0 71 57" version="1.1" xmlns="http://www.w3.org/2000/svg" xmlns:xlink="http://www.w3.org/1999/xlink">
    <!-- Generator: Sketch 43.2 (39069) - http://www.bohemiancoding.com/sketch -->
    <title>Artboard</title>
    <desc>Created with Sketch.</desc>
    <defs></defs>
    <g id="Page-1" stroke="none" stroke-width="1" fill="none" fill-rule="evenodd">
        <g id="Artboard">
            <g id="Light-S" transform="translate(1.000000, 4.000000)" fill-rule="nonzero" fill="#2C6520">
                <path d="M0.556081895,37.0144478 C0.556081895,38.1688119 1.01713263,38.9034269 2.01015158,39.358209 C5.16650211,40.8973612 6.86876842,42.5764943 8.71295684,46.2145504 C9.24491053,47.1590472 10.0251189,47.6487904 11.0536547,47.6487904 L57.8669589,47.6487904 C58.8954221,47.6487904 59.6756305,47.1590472 60.2075842,46.2145504 C62.0517726,42.5764943 63.7540389,40.8973612 66.9103895,39.358209 C67.9032632,38.9034269 68.3644737,38.1688119 68.3644737,37.0144478 L68.3644737,11.3381731 C68.3644737,10.1837373 67.9032632,9.44919403 66.9103895,8.99441194 C63.7540389,7.45518806 62.0517726,5.7761194 60.2075842,2.13807761 C59.6756305,1.19355224 58.8954221,0.703808955 57.8669589,0.703808955 L11.0536547,0.703808955 C10.0251189,0.703808955 9.24491053,1.19355224 8.71295684,2.13807761 C6.86876842,5.7761194 5.16650211,7.45518806 2.01015158,8.99441194 C1.01713263,9.44919403 0.556081895,10.1837373 0.556081895,11.3381731 L0.556081895,37.0144478 Z M11.5146474,36.4547821 L11.5146474,11.9678328 C11.5146474,10.498603 12.5076663,9.51911642 14.0326389,9.51911642 L54.8879021,9.51911642 C56.3774305,9.51911642 57.3704495,10.498603 57.3704495,11.9678328 L57.3704495,36.4547821 C57.3704495,37.9239403 56.3774305,38.9034269 54.8879021,38.9034269 L14.0326389,38.9034269 C12.5076663,38.9034269 11.5146474,37.9239403 11.5146474,36.4547821 Z M14.6709979,18.2994627 L18.6785179,18.2994627 L18.6785179,12.5625313 L15.3448737,12.5625313 C14.9192526,12.5625313 14.6709979,12.8423642 14.6709979,13.2621134 L14.6709979,18.2994627 Z M21.8348684,35.8251224 L47.0856726,35.8251224 L47.0856726,12.5625313 L21.8348684,12.5625313 L21.8348684,35.8251224 Z M50.2420232,18.2994627 L54.2495432,18.2994627 L54.2495432,13.2621134 C54.2495432,12.8423642 54.0012884,12.5625313 53.5402232,12.5625313 L50.2420232,12.5625313 L50.2420232,18.2994627 Z M14.6709979,27.0447761 L18.6785179,27.0447761 L18.6785179,21.342806 L14.6709979,21.342806 L14.6709979,27.0447761 Z M50.2420232,27.0447761 L54.2495432,27.0447761 L54.2495432,21.342806 L50.2420232,21.342806 L50.2420232,27.0447761 Z M14.6709979,35.1254687 C14.6709979,35.5452179 14.9192526,35.8251224 15.3448737,35.8251224 L18.6785179,35.8251224 L18.6785179,30.1231522 L14.6709979,30.1231522 L14.6709979,35.1254687 Z M50.2420232,35.8251224 L53.5402232,35.8251224 C54.0012884,35.8251224 54.2495432,35.5452179 54.2495432,35.1254687 L54.2495432,30.1231522 L50.2420232,30.1231522 L50.2420232,35.8251224 Z" id="Shape"></path>
            </g>
            <ellipse id="Oval" fill="#FFFFFF" cx="58.5393933" cy="44.5" rx="14.5393933" ry="14.5"></ellipse>
            <path d="M58.3002978,55.5393611 C64.4420921,55.5393611 69.5732043,50.3948342 69.5732043,44.2696806 C69.5732043,38.0904503 64.4689244,33 58.3002978,33 C52.1042799,33 47,38.0904503 47,44.2696806 C47,50.4215937 52.1042799,55.5393611 58.3002978,55.5393611 Z" id="Semibold-S-path" fill="#2C6520"></path>
            <path d="M58.2329732,51.7266823 C57.3050239,51.7266823 56.4586895,51.0186687 56.4586895,50.039157 L56.4586895,46.0921207 L52.7195012,46.0921207 C51.7915519,46.0921207 51,45.2753964 51,44.3767209 C51,43.4512859 51.7915519,42.6345615 52.7195012,42.6345615 L56.4586895,42.6345615 L56.4586895,38.7148423 C56.4586895,37.7074561 57.2776327,37 58.2329732,37 C59.1883137,37 60.0072569,37.7074561 60.0072569,38.7148423 L60.0072569,42.6345615 L63.7470042,42.6345615 C64.6749535,42.6345615 65.4665054,43.4239688 65.4665054,44.3767209 C65.4665054,45.2753964 64.6749535,46.0921207 63.7470042,46.0921207 L60.0072569,46.0921207 L60.0072569,50.039157 C60.0072569,51.0186687 59.1609225,51.7266823 58.2329732,51.7266823 Z" id="Semibold-S-path" fill="#FFFFFF"></path>
        </g>
    </g>
</svg>