<?xml version="1.0" encoding="UTF-8" standalone="no"?>
<svg width="676px" height="168px" viewBox="0 0 676 168" version="1.1" xmlns="http://www.w3.org/2000/svg" xmlns:xlink="http://www.w3.org/1999/xlink" xmlns:sketch="http://www.bohemiancoding.com/sketch/ns">
    <!-- Generator: Sketch 3.4.4 (17249) - http://www.bohemiancoding.com/sketch -->
    <title>logo-reports-white-sp-mexico</title>
    <desc>Created with Sketch.</desc>
    <defs></defs>
    <g id="Page-1" stroke="none" stroke-width="1" fill="none" fill-rule="evenodd" sketch:type="MSPage">
        <g id="logo-reports-white-sp-mexico" sketch:type="MSArtboardGroup" fill="#FFFFFF">
            <path d="M222.544,61.224 C221.311994,59.5226582 219.640011,58.1293388 217.528,57.044 C215.415989,55.9586612 213.040013,55.416 210.4,55.416 C208.991993,55.416 207.569341,55.6066648 206.132,55.988 C204.694659,56.3693352 203.389339,56.9853291 202.216,57.836 C201.042661,58.6866709 200.089337,59.7426604 199.356,61.004 C198.622663,62.2653396 198.256,63.7759912 198.256,65.536 C198.256,67.2373418 198.59333,68.6599943 199.268,69.804 C199.94267,70.9480057 200.851994,71.915996 201.996,72.708 C203.140006,73.500004 204.489326,74.1746639 206.044,74.732 C207.598674,75.2893361 209.255991,75.8613304 211.016,76.448 C213.128011,77.0933366 215.269322,77.8266626 217.44,78.648 C219.610678,79.4693374 221.575991,80.5546599 223.336,81.904 C225.096009,83.2533401 226.533328,84.9399899 227.648,86.964 C228.762672,88.9880101 229.32,91.5546511 229.32,94.664 C229.32,97.8906828 228.718673,100.691988 227.516,103.068 C226.313327,105.444012 224.714677,107.409326 222.72,108.964 C220.725323,110.518674 218.42268,111.67733 215.812,112.44 C213.20132,113.20267 210.517347,113.584 207.76,113.584 C203.829314,113.584 200.030685,112.821341 196.364,111.296 C192.697315,109.770659 189.661345,107.512015 187.256,104.52 L194.032,98.8 C195.498674,100.970678 197.463988,102.73066 199.928,104.08 C202.392012,105.42934 205.061319,106.104 207.936,106.104 C209.402674,106.104 210.869326,105.898669 212.336,105.488 C213.802674,105.077331 215.137327,104.432004 216.34,103.552 C217.542673,102.671996 218.52533,101.572007 219.288,100.252 C220.05067,98.9319934 220.432,97.3333427 220.432,95.456 C220.432,93.5786573 220.036004,92.0093396 219.244,90.748 C218.451996,89.4866604 217.38134,88.4160044 216.032,87.536 C214.68266,86.6559956 213.113342,85.9080031 211.324,85.292 C209.534658,84.6759969 207.642677,84.0453366 205.648,83.4 C203.653323,82.8133304 201.68801,82.0946709 199.752,81.244 C197.81599,80.3933291 196.085341,79.3080066 194.56,77.988 C193.034659,76.6679934 191.802671,75.0400097 190.864,73.104 C189.925329,71.1679903 189.456,68.762681 189.456,65.888 C189.456,62.7786511 190.08666,60.1093445 191.348,57.88 C192.60934,55.6506555 194.25199,53.802674 196.276,52.336 C198.30001,50.869326 200.587987,49.79867 203.14,49.124 C205.692013,48.44933 208.258654,48.112 210.84,48.112 C214.477352,48.112 217.879984,48.7573269 221.048,50.048 C224.216016,51.3386731 226.76799,53.0693225 228.704,55.24 L222.544,61.224 Z M270.416,80.848 C269.535996,79.4986599 268.216009,78.3693379 266.456,77.46 C264.695991,76.5506621 262.818677,76.096 260.824,76.096 C258.653322,76.096 256.732008,76.5066626 255.06,77.328 C253.387992,78.1493374 251.965339,79.2493264 250.792,80.628 C249.618661,82.0066736 248.724003,83.6053242 248.108,85.424 C247.491997,87.2426758 247.184,89.1493234 247.184,91.144 C247.184,93.1386766 247.491997,95.0453242 248.108,96.864 C248.724003,98.6826758 249.618661,100.281326 250.792,101.66 C251.965339,103.038674 253.402658,104.138663 255.104,104.96 C256.805342,105.781337 258.741322,106.192 260.912,106.192 C263.024011,106.192 264.945325,105.781337 266.676,104.96 C268.406675,104.138663 269.829328,103.024007 270.944,101.616 L276.488,106.632 C274.727991,108.685344 272.528013,110.283994 269.888,111.428 C267.247987,112.572006 264.256017,113.144 260.912,113.144 C257.685317,113.144 254.708014,112.616005 251.98,111.56 C249.251986,110.503995 246.890677,109.022676 244.896,107.116 C242.901323,105.209324 241.332006,102.90668 240.188,100.208 C239.043994,97.5093198 238.472,94.4880167 238.472,91.144 C238.472,87.8586502 239.029328,84.8666802 240.144,82.168 C241.258672,79.4693198 242.813323,77.1520097 244.808,75.216 C246.802677,73.2799903 249.163986,71.7840053 251.892,70.728 C254.620014,69.6719947 257.567984,69.144 260.736,69.144 C263.669348,69.144 266.587985,69.7306608 269.492,70.904 C272.396015,72.0773392 274.698658,73.7786555 276.4,76.008 L270.416,80.848 Z M293.296,76.624 C294.293338,74.5706564 295.994655,72.810674 298.4,71.344 C300.805345,69.877326 303.503985,69.144 306.496,69.144 C309.19468,69.144 311.51199,69.5986621 313.448,70.508 C315.38401,71.4173379 316.997327,72.634659 318.288,74.16 C319.578673,75.685341 320.531997,77.4746564 321.148,79.528 C321.764003,81.5813436 322.072,83.7813216 322.072,86.128 L322.072,112 L313.8,112 L313.8,88.944 C313.8,87.2426582 313.668001,85.629341 313.404,84.104 C313.139999,82.578659 312.656004,81.2293392 311.952,80.056 C311.247996,78.8826608 310.294673,77.9440035 309.092,77.24 C307.889327,76.5359965 306.32001,76.184 304.384,76.184 C301.09865,76.184 298.400011,77.4306542 296.288,79.924 C294.175989,82.4173458 293.12,85.7466458 293.12,89.912 L293.12,112 L284.848,112 L284.848,45.472 L293.12,45.472 L293.12,76.624 L293.296,76.624 Z M378.304,91.056 C378.304,94.2826828 377.732006,97.2453198 376.588,99.944 C375.443994,102.64268 373.86001,104.974657 371.836,106.94 C369.81199,108.905343 367.421347,110.430661 364.664,111.516 C361.906653,112.601339 358.944016,113.144 355.776,113.144 C352.607984,113.144 349.645347,112.601339 346.888,111.516 C344.130653,110.430661 341.754677,108.905343 339.76,106.94 C337.765323,104.974657 336.196006,102.64268 335.052,99.944 C333.907994,97.2453198 333.336,94.2826828 333.336,91.056 C333.336,87.8293172 333.907994,84.8813467 335.052,82.212 C336.196006,79.5426533 337.765323,77.2400097 339.76,75.304 C341.754677,73.3679903 344.130653,71.8573388 346.888,70.772 C349.645347,69.6866612 352.607984,69.144 355.776,69.144 C358.944016,69.144 361.906653,69.6866612 364.664,70.772 C367.421347,71.8573388 369.81199,73.3679903 371.836,75.304 C373.86001,77.2400097 375.443994,79.5426533 376.588,82.212 C377.732006,84.8813467 378.304,87.8293172 378.304,91.056 L378.304,91.056 Z M369.68,91.056 C369.68,89.0613234 369.372003,87.1546758 368.756,85.336 C368.139997,83.5173242 367.245339,81.9186736 366.072,80.54 C364.898661,79.1613264 363.446675,78.0613374 361.716,77.24 C359.985325,76.4186626 358.005344,76.008 355.776,76.008 C353.546656,76.008 351.566675,76.4186626 349.836,77.24 C348.105325,78.0613374 346.653339,79.1613264 345.48,80.54 C344.306661,81.9186736 343.412003,83.5173242 342.796,85.336 C342.179997,87.1546758 341.872,89.0613234 341.872,91.056 C341.872,93.0506766 342.179997,94.9573242 342.796,96.776 C343.412003,98.5946758 344.306661,100.207993 345.48,101.616 C346.653339,103.024007 348.105325,104.138663 349.836,104.96 C351.566675,105.781337 353.546656,106.192 355.776,106.192 C358.005344,106.192 359.985325,105.781337 361.716,104.96 C363.446675,104.138663 364.898661,103.024007 366.072,101.616 C367.245339,100.207993 368.139997,98.5946758 368.756,96.776 C369.372003,94.9573242 369.68,93.0506766 369.68,91.056 L369.68,91.056 Z M431.984,91.056 C431.984,94.2826828 431.412006,97.2453198 430.268,99.944 C429.123994,102.64268 427.54001,104.974657 425.516,106.94 C423.49199,108.905343 421.101347,110.430661 418.344,111.516 C415.586653,112.601339 412.624016,113.144 409.456,113.144 C406.287984,113.144 403.325347,112.601339 400.568,111.516 C397.810653,110.430661 395.434677,108.905343 393.44,106.94 C391.445323,104.974657 389.876006,102.64268 388.732,99.944 C387.587994,97.2453198 387.016,94.2826828 387.016,91.056 C387.016,87.8293172 387.587994,84.8813467 388.732,82.212 C389.876006,79.5426533 391.445323,77.2400097 393.44,75.304 C395.434677,73.3679903 397.810653,71.8573388 400.568,70.772 C403.325347,69.6866612 406.287984,69.144 409.456,69.144 C412.624016,69.144 415.586653,69.6866612 418.344,70.772 C421.101347,71.8573388 423.49199,73.3679903 425.516,75.304 C427.54001,77.2400097 429.123994,79.5426533 430.268,82.212 C431.412006,84.8813467 431.984,87.8293172 431.984,91.056 L431.984,91.056 Z M423.36,91.056 C423.36,89.0613234 423.052003,87.1546758 422.436,85.336 C421.819997,83.5173242 420.925339,81.9186736 419.752,80.54 C418.578661,79.1613264 417.126675,78.0613374 415.396,77.24 C413.665325,76.4186626 411.685344,76.008 409.456,76.008 C407.226656,76.008 405.246675,76.4186626 403.516,77.24 C401.785325,78.0613374 400.333339,79.1613264 399.16,80.54 C397.986661,81.9186736 397.092003,83.5173242 396.476,85.336 C395.859997,87.1546758 395.552,89.0613234 395.552,91.056 C395.552,93.0506766 395.859997,94.9573242 396.476,96.776 C397.092003,98.5946758 397.986661,100.207993 399.16,101.616 C400.333339,103.024007 401.785325,104.138663 403.516,104.96 C405.246675,105.781337 407.226656,106.192 409.456,106.192 C411.685344,106.192 413.665325,105.781337 415.396,104.96 C417.126675,104.138663 418.578661,103.024007 419.752,101.616 C420.925339,100.207993 421.819997,98.5946758 422.436,96.776 C423.052003,94.9573242 423.36,93.0506766 423.36,91.056 L423.36,91.056 Z M451.872,112 L443.6,112 L443.6,45.472 L451.872,45.472 L451.872,112 Z M474.576,133.12 L466.304,133.12 L466.304,70.288 L474.4,70.288 L474.4,76.8 L474.664,76.8 C476.01334,74.5706555 477.99332,72.7373405 480.604,71.3 C483.21468,69.8626595 486.250649,69.144 489.712,69.144 C492.821349,69.144 495.651987,69.7013278 498.204,70.816 C500.756013,71.9306722 502.955991,73.4853234 504.804,75.48 C506.652009,77.4746766 508.074662,79.8066533 509.072,82.476 C510.069338,85.1453467 510.568,88.0053181 510.568,91.056 C510.568,94.1066819 510.069338,96.9813198 509.072,99.68 C508.074662,102.37868 506.666676,104.725323 504.848,106.72 C503.029324,108.714677 500.829346,110.283994 498.248,111.428 C495.666654,112.572006 492.762683,113.144 489.536,113.144 C486.543985,113.144 483.728013,112.498673 481.088,111.208 C478.447987,109.917327 476.365341,108.098678 474.84,105.752 L474.576,105.752 L474.576,133.12 Z M502.032,91.056 C502.032,89.1199903 501.73867,87.2426758 501.152,85.424 C500.56533,83.6053242 499.685339,81.992007 498.512,80.584 C497.338661,79.175993 495.886675,78.0613374 494.156,77.24 C492.425325,76.4186626 490.416011,76.008 488.128,76.008 C486.015989,76.008 484.094675,76.4186626 482.364,77.24 C480.633325,78.0613374 479.152006,79.175993 477.92,80.584 C476.687994,81.992007 475.73467,83.6053242 475.06,85.424 C474.38533,87.2426758 474.048,89.1493234 474.048,91.144 C474.048,93.1386766 474.38533,95.0453242 475.06,96.864 C475.73467,98.6826758 476.687994,100.281326 477.92,101.66 C479.152006,103.038674 480.633325,104.138663 482.364,104.96 C484.094675,105.781337 486.015989,106.192 488.128,106.192 C490.416011,106.192 492.425325,105.766671 494.156,104.916 C495.886675,104.065329 497.338661,102.936007 498.512,101.528 C499.685339,100.119993 500.56533,98.5066758 501.152,96.688 C501.73867,94.8693242 502.032,92.9920097 502.032,91.056 L502.032,91.056 Z M551.488,112 C551.370666,110.943995 551.282667,109.756007 551.224,108.436 C551.165333,107.115993 551.136,106.016004 551.136,105.136 L550.96,105.136 C549.903995,107.365344 548.129346,109.257326 545.636,110.812 C543.142654,112.366674 540.370682,113.144 537.32,113.144 C534.62132,113.144 532.289343,112.704004 530.324,111.824 C528.358657,110.943996 526.74534,109.726674 525.484,108.172 C524.22266,106.617326 523.284003,104.813344 522.668,102.76 C522.051997,100.706656 521.744,98.5066784 521.744,96.16 L521.744,70.288 L530.016,70.288 L530.016,93.344 C530.016,95.0453418 530.147999,96.6733256 530.412,98.228 C530.676001,99.7826744 531.159996,101.146661 531.864,102.32 C532.568004,103.493339 533.535994,104.431996 534.768,105.136 C536.000006,105.840004 537.58399,106.192 539.52,106.192 C542.864017,106.192 545.562656,104.945346 547.616,102.452 C549.669344,99.9586542 550.696,96.6293542 550.696,92.464 L550.696,70.288 L558.968,70.288 L558.968,103.024 C558.968,104.138672 558.997333,105.575991 559.056,107.336 C559.114667,109.096009 559.202666,110.65066 559.32,112 L551.488,112 Z M581.76,112 L573.488,112 L573.488,45.472 L581.76,45.472 L581.76,112 Z M618.72,80.848 C617.781329,79.322659 616.461342,78.0760048 614.76,77.108 C613.058658,76.1399952 611.152011,75.656 609.04,75.656 C608.101329,75.656 607.162671,75.7586656 606.224,75.964 C605.285329,76.1693344 604.449337,76.4919978 603.716,76.932 C602.982663,77.3720022 602.396002,77.92933 601.956,78.604 C601.515998,79.27867 601.296,80.1146617 601.296,81.112 C601.296,82.8720088 602.087992,84.1773291 603.672,85.028 C605.256008,85.8786709 607.631984,86.6559965 610.8,87.36 C612.794677,87.8293357 614.642658,88.3866634 616.344,89.032 C618.045342,89.6773366 619.52666,90.4839952 620.788,91.452 C622.04934,92.4200048 623.031996,93.5786599 623.736,94.928 C624.440004,96.2773401 624.792,97.8613242 624.792,99.68 C624.792,102.144012 624.322671,104.226658 623.384,105.928 C622.445329,107.629342 621.198674,109.022661 619.644,110.108 C618.089326,111.193339 616.314677,111.970664 614.32,112.44 C612.325323,112.909336 610.272011,113.144 608.16,113.144 C604.991984,113.144 601.897348,112.528006 598.876,111.296 C595.854652,110.063994 593.346677,108.186679 591.352,105.664 L597.248,100.648 C598.362672,102.290675 599.902657,103.669328 601.868,104.784 C603.833343,105.898672 605.989322,106.456 608.336,106.456 C609.392005,106.456 610.403995,106.353334 611.372,106.148 C612.340005,105.942666 613.219996,105.605336 614.012,105.136 C614.804004,104.666664 615.434664,104.05067 615.904,103.288 C616.373336,102.52533 616.608,101.557339 616.608,100.384 C616.608,98.4479903 615.684009,97.0106714 613.836,96.072 C611.987991,95.1333286 609.274685,94.2533374 605.696,93.432 C604.287993,93.0799982 602.865341,92.6546692 601.428,92.156 C599.990659,91.6573308 598.685339,90.9680044 597.512,90.088 C596.338661,89.2079956 595.385337,88.1080066 594.652,86.788 C593.918663,85.4679934 593.552,83.8400097 593.552,81.904 C593.552,79.6746555 594.006662,77.7533414 594.916,76.14 C595.825338,74.5266586 597.013326,73.2066718 598.48,72.18 C599.946674,71.1533282 601.618657,70.3906692 603.496,69.892 C605.373343,69.3933308 607.309323,69.144 609.304,69.144 C612.296015,69.144 615.185319,69.7306608 617.972,70.904 C620.758681,72.0773392 622.914659,73.7786555 624.44,76.008 L618.72,80.848 Z M665.8,87.448 C665.741333,85.8053251 665.462669,84.2653405 664.964,82.828 C664.465331,81.3906595 663.732005,80.1440053 662.764,79.088 C661.795995,78.0319947 660.593341,77.1960031 659.156,76.58 C657.718659,75.9639969 656.03201,75.656 654.096,75.656 C652.335991,75.656 650.678674,75.9639969 649.124,76.58 C647.569326,77.1960031 646.220006,78.0319947 645.076,79.088 C643.931994,80.1440053 642.993337,81.3906595 642.26,82.828 C641.526663,84.2653405 641.101334,85.8053251 640.984,87.448 L665.8,87.448 Z M674.16,90.792 L674.16,92.2 C674.16,92.6693357 674.130667,93.1386643 674.072,93.608 L640.984,93.608 C641.042667,95.3680088 641.438663,97.0253256 642.172,98.58 C642.905337,100.134674 643.887994,101.483994 645.12,102.628 C646.352006,103.772006 647.774659,104.666663 649.388,105.312 C651.001341,105.957337 652.717324,106.28 654.536,106.28 C657.352014,106.28 659.786656,105.664006 661.84,104.432 C663.893344,103.199994 665.506661,101.704009 666.68,99.944 L672.488,104.608 C670.258656,107.541348 667.633348,109.697326 664.612,111.076 C661.590652,112.454674 658.232018,113.144 654.536,113.144 C651.367984,113.144 648.43468,112.616005 645.736,111.56 C643.03732,110.503995 640.72001,109.022676 638.784,107.116 C636.84799,105.209324 635.322672,102.90668 634.208,100.208 C633.093328,97.5093198 632.536,94.5173498 632.536,91.232 C632.536,88.0053172 633.078661,85.0280136 634.164,82.3 C635.249339,79.5719864 636.75999,77.2400097 638.696,75.304 C640.63201,73.3679903 642.919987,71.8573388 645.56,70.772 C648.200013,69.6866612 651.045318,69.144 654.096,69.144 C657.146682,69.144 659.918654,69.6426617 662.412,70.64 C664.905346,71.6373383 667.017325,73.0746573 668.748,74.952 C670.478675,76.8293427 671.813329,79.1026533 672.752,81.772 C673.690671,84.4413467 674.16,87.4479833 674.16,90.792 L674.16,90.792 Z" id="Schoolpulse" sketch:type="MSShapeGroup"></path>
            <g id="logo-reports-white-sp" sketch:type="MSLayerGroup" transform="translate(4.000000, 0.000000)">
                <g id="Layer_2_1_" sketch:type="MSShapeGroup">
                    <path d="M2.976,77.464 C3.532,70.704 4.944,64.076 7.204,57.684 C18.332,26.192 48.256,5.032 81.68,5.032 L81.68,0.52 C64.068,0.52 47.228,5.94 32.972,16.192 C26.108,21.128 20.056,27.052 14.964,33.804 C9.82,40.624 5.78,48.156 2.944,56.184 C0.516,63.052 -0.984,70.188 -1.556,77.464 L-1.56,77.464 L-1.584,78.04 C-1.712,79.84 -1.792,81.644 -1.8,83.456 L-1.832,84.268 L-1.832,91.004 L165.168,91.004 L165.168,77.46 L2.976,77.464 L2.976,77.464 Z" id="Shape"></path>
                    <path d="M163.5,102.96 L163.068,104.46 C162.76,105.356 159.976,113.088 159.64,113.956 C153.648,129.54 143.224,142.86 129.48,152.468 C115.428,162.312 98.896,167.508 81.684,167.508 L81.684,162.98 C114.152,162.98 143.788,142.628 155.424,112.332 C155.588,111.92 156.416,109.672 157.216,107.48 L-1.672,107.48 L-1.672,102.96 L158.444,102.96 L163.5,102.96 L163.5,102.96 Z" id="Shape"></path>
                </g>
            </g>
        </g>
    </g>
</svg>