<?xml version="1.0" encoding="UTF-8" standalone="no"?>
<svg width="169px" height="42px" viewBox="0 0 169 42" version="1.1" xmlns="http://www.w3.org/2000/svg" xmlns:xlink="http://www.w3.org/1999/xlink" xmlns:sketch="http://www.bohemiancoding.com/sketch/ns">
    <!-- Generator: Sketch 3.4.2 (15857) - http://www.bohemiancoding.com/sketch -->
    <title>logo-reports-white-sp-mexico</title>
    <desc>Created with Sketch.</desc>
    <defs></defs>
    <g id="Page-1" stroke="none" stroke-width="1" fill="none" fill-rule="evenodd" sketch:type="MSPage">
        <g id="logo-reports-white-sp-mexico" sketch:type="MSArtboardGroup" fill="#FFFFFF">
            <text id="Schoolpulse" sketch:type="MSTextLayer" font-family="Avenir Next" font-size="22" font-weight="420">
                <tspan x="46" y="28">Schoolpulse</tspan>
            </text>
            <g id="logo-reports-white-sp" sketch:type="MSLayerGroup" transform="translate(1.000000, 0.000000)">
                <g id="Layer_2_1_" sketch:type="MSShapeGroup">
                    <path d="M0.744,19.366 C0.883,17.676 1.236,16.019 1.801,14.421 C4.583,6.548 12.064,1.258 20.42,1.258 L20.42,0.13 C16.017,0.13 11.807,1.485 8.243,4.048 C6.527,5.282 5.014,6.763 3.741,8.451 C2.455,10.156 1.445,12.039 0.736,14.046 C0.129,15.763 -0.246,17.547 -0.389,19.366 L-0.39,19.366 L-0.396,19.51 C-0.428,19.96 -0.448,20.411 -0.45,20.864 L-0.458,21.067 L-0.458,22.751 L41.292,22.751 L41.292,19.365 L0.744,19.366 L0.744,19.366 Z" id="Shape"></path>
                    <path d="M40.875,25.74 L40.767,26.115 C40.69,26.339 39.994,28.272 39.91,28.489 C38.412,32.385 35.806,35.715 32.37,38.117 C28.857,40.578 24.724,41.877 20.421,41.877 L20.421,40.745 C28.538,40.745 35.947,35.657 38.856,28.083 C38.897,27.98 39.104,27.418 39.304,26.87 L-0.418,26.87 L-0.418,25.74 L39.611,25.74 L40.875,25.74 L40.875,25.74 Z" id="Shape"></path>
                </g>
            </g>
        </g>
    </g>
</svg>