<?xml version="1.0" standalone="no"?>
<!DOCTYPE svg PUBLIC "-//W3C//DTD SVG 20010904//EN"
 "http://www.w3.org/TR/2001/REC-SVG-20010904/DTD/svg10.dtd">
<svg version="1.0" xmlns="http://www.w3.org/2000/svg"
 width="500.000000pt" height="500.000000pt" viewBox="0 0 500.000000 500.000000"
 preserveAspectRatio="xMidYMid meet">
<metadata>
Created by potrace 1.11, written by Peter Selinger 2001-2013
</metadata>
<g transform="translate(0.000000,500.000000) scale(0.100000,-0.100000)"
fill="#000000" stroke="none">
<path d="M2489 4996 c-2 -2 -63 -6 -135 -9 -72 -4 -138 -9 -145 -11 -8 -3 -36
-7 -64 -10 -231 -26 -592 -142 -788 -253 -33 -18 -61 -33 -63 -33 -2 0 -46
-26 -97 -57 -605 -375 -1026 -994 -1147 -1688 -29 -166 -30 -183 -36 -422 l-7
-223 2494 0 2494 0 0 203 0 202 -2420 1 c-1520 0 -2420 4 -2419 10 1 5 4 38 8
74 6 65 12 106 21 146 3 12 7 39 11 60 22 138 124 425 215 599 248 480 680
880 1174 1085 44 18 89 36 100 41 69 29 276 87 370 103 17 3 41 8 55 11 69 14
247 30 371 34 25 1 25 3 24 66 -2 61 -6 80 -16 71z"/>
<path d="M27 1930 c-12 -5 -19 -130 -7 -130 3 0 1070 -1 2372 -1 l2367 0 -29
-77 c-81 -218 -171 -394 -288 -561 -364 -522 -902 -865 -1547 -985 -61 -12
-203 -27 -285 -31 -47 -2 -90 -4 -95 -4 -6 -1 -11 -30 -11 -67 l-1 -67 131 6
c141 7 162 9 306 33 147 25 403 98 505 144 223 101 301 143 450 243 351 236
642 564 831 940 66 131 158 361 209 522 l13 40 -2455 0 c-1349 0 -2459 -2
-2466 -5z"/>
</g>
</svg>
