<svg version="1" xmlns="http://www.w3.org/2000/svg" width="682.667" height="682.667" viewBox="0 0 512.000000 512.000000"><path d="M251.8.5c-.2.2-5.2.5-11.3.9-14.9.8-19 1.4-33 4.2-14.3 3-13.9 2.9-19 4.3-2.2.6-4.4 1.1-5 1.2-2 .4-19.3 6.8-27.1 10-18.5 7.7-45.1 23.5-59.3 35.4-19.7 16.4-35.6 33-47.3 49.6-6.3 8.7-9.8 14.1-9.8 14.9 0 .6-.3 1-.7 1-.5 0-1.3 1-1.9 2.3-.6 1.2-3.3 6.3-6.1 11.4-7.7 13.9-19 41.8-20.8 51.2-.1.9-.8 3.6-1.5 6.1-.7 2.5-1.4 5.4-1.6 6.5-.2 1.1-.9 4.5-1.6 7.5-1.2 6-1.2 5.8-2.3 14.5-.4 3.3-.9 6.9-1.2 8-1.1 4.5-1.5 46.7-.5 47.4.8.5 501.6.7 508.3.2 1.3-.1 1.5-2.6 1.5-20-.1-11-.4-20.2-.7-20.6-.6-.5-47.5-.9-50.4-.4-.5.1-1.4.1-1.9 0-1.2-.3-92.8-.2-94.1 0-.5.1-1.4.1-1.9 0-1.2-.3-92.8-.2-94.1 0-.5.1-1.4.1-1.9 0-.6-.1-57.2-.2-125.8-.2H15.9l.6-6.7c.4-3.7.8-7.8 1.1-9.2.2-1.4.7-4 1-5.9.6-3.5.8-4.5 2.4-12.1.6-2.5 1.3-5.6 1.6-7 2.6-11.9 13.5-39.5 21.1-53.3 2.4-4.2 4.3-8 4.3-8.3 0-.2.5-1 1-1.7.6-.7 3.3-4.6 6-8.7 10.8-16.4 24-31.8 39.5-46.1 11.3-10.3 30.7-24.4 40.5-29.4 1.9-1 3.7-2.1 4-2.4.7-.9 18.1-9.3 25.5-12.4 14.3-5.9 37.7-12.7 48.9-14.2 2.7-.3 5.2-.8 5.5-.9 1.5-.9 17.1-2.3 30.9-2.8 3.4-.1 6.2-.5 6.3-.8 0-.3.2-3.3.3-6.7.1-5.7 0-6.2-2.1-6.6-1.2-.2-2.4-.3-2.5-.2zM3.8 314c-2.1.5-2.3 1.1-2.3 7v6.5l242.2.1c133.3 0 242.5.3 242.8.5.5.6-5.1 16-9 24.9-6.1 13.6-18.7 36-20.7 36.8-.4.2-.8 1-.8 1.8s-.4 1.4-.8 1.4c-.5 0-1.4 1-1.9 2.2-2.1 4.5-16.6 21.5-26.6 31.3-8 8-22.7 20.4-32.2 27.3-4.3 3.1-20.6 12.8-27.5 16.4-13.6 7-35.5 15.8-43.3 17.3-.9.2-2 .6-2.5.8-.9.6-22.5 5.5-27.2 6.2-9.8 1.4-21.6 2.5-32.5 2.9l-5 .2-.1 5.9c-.1 7.8.1 8.3 3.9 7.9 1.8-.1 7.9-.5 13.7-.8 12.5-.7 11.5-.6 37-5.2 2-.4 13.2-3.3 18.5-4.8 10-2.8 31.6-11.2 39.3-15.3 2.6-1.4 7-3.7 9.7-5.1 11.8-6.2 33.1-21 44.7-30.9 7.4-6.4 24.9-24.3 30.9-31.8 11.6-14.3 23.2-32.3 31.1-48.5 6.6-13.5 15-34.7 14.7-37.4 0-.5.3-1.2.8-1.5 1.1-.8 5.8-15 5.1-15.6-.7-.7-499.1-1.1-502-.5z"/></svg>