<?xml version="1.0" encoding="utf-8"?>
<!-- Generator: Adobe Illustrator 16.0.0, SVG Export Plug-In . SVG Version: 6.00 Build 0)  -->
<!DOCTYPE svg PUBLIC "-//W3C//DTD SVG 1.1//EN" "http://www.w3.org/Graphics/SVG/1.1/DTD/svg11.dtd">
<svg version="1.1" id="Layer_1" xmlns="http://www.w3.org/2000/svg" xmlns:xlink="http://www.w3.org/1999/xlink" x="0px" y="0px"
	 width="240px" height="240px" viewBox="0 0 240 240" enable-background="new 0 0 240 240" xml:space="preserve">
<path fill="#FFFFFF" d="M229,56c0-6.075,4.925-11,11-11v-9c-6.075,0-11-4.925-11-11s4.925-11,11-11V0h-14.051
	c-0.506,5.606-5.212,10-10.949,10s-10.443-4.394-10.949-10h-9.102c-0.506,5.606-5.212,10-10.949,10s-10.443-4.394-10.949-10h-10.102
	c-0.506,5.606-5.212,10-10.949,10s-10.443-4.394-10.949-10h-9.102c-0.506,5.606-5.212,10-10.949,10c-5.738,0-10.443-4.394-10.95-10
	h-9.101C100.443,5.606,95.738,10,90,10S79.557,5.606,79.05,0H69.95C69.443,5.606,64.738,10,59,10S48.557,5.606,48.05,0H37.95
	C37.443,5.606,32.738,10,27,10S16.557,5.606,16.05,0H0v14c6.075,0,11,4.925,11,11S6.075,36,0,36v9c6.075,0,11,4.925,11,11
	S6.075,67,0,67v10c6.075,0,11,4.925,11,11S6.075,99,0,99v9c6.075,0,11,4.925,11,11s-4.925,11-11,11v9c6.075,0,11,4.925,11,11
	s-4.925,11-11,11v9c6.075,0,11,4.925,11,11s-4.925,11-11,11v10c6.075,0,11,4.925,11,11s-4.925,11-11,11v16h16
	c0-6.075,4.925-11,11-11s11,4.925,11,11h10c0-6.075,4.925-11,11-11s11,4.925,11,11h9c0-6.075,4.925-11,11-11s11,4.925,11,11h9
	c0-6.075,4.925-11,11-11s11,4.925,11,11h9c0-6.075,4.925-11,11-11s11,4.925,11,11h10c0-6.075,4.925-11,11-11s11,4.925,11,11h9
	c0-6.075,4.925-11,11-11s11,4.925,11,11h14v-16c-6.075,0-11-4.925-11-11s4.925-11,11-11v-10c-6.075,0-11-4.925-11-11s4.925-11,11-11
	v-9c-6.075,0-11-4.925-11-11s4.925-11,11-11v-9c-6.075,0-11-4.925-11-11s4.925-11,11-11v-9c-6.075,0-11-4.925-11-11s4.925-11,11-11
	V67C233.925,67,229,62.075,229,56z"/>
<text transform="matrix(1 0 0 1 23 215)" fill="#EF4323" font-family="'AvenirNextCondensed-Heavy'" font-size="48">Mosfell</text>
</svg>
