<?xml version="1.0" encoding="utf-8"?>
<!-- Generator: Adobe Illustrator 16.2.1, SVG Export Plug-In . SVG Version: 6.00 Build 0)  -->
<!DOCTYPE svg PUBLIC "-//W3C//DTD SVG 1.1//EN" "http://www.w3.org/Graphics/SVG/1.1/DTD/svg11.dtd">
<svg version="1.1" id="Layer_1" xmlns="http://www.w3.org/2000/svg" xmlns:xlink="http://www.w3.org/1999/xlink" x="0px" y="0px"
	 width="855px" height="352px" viewBox="0 -2 855 352" enable-background="new 0 -2 855 352" xml:space="preserve">
<rect x="34.5" y="1.5" fill="#FFFFFF" stroke="#B3B3B3" width="166" height="120"/>
<text transform="matrix(1 0 0 1 55 99)" fill="#ABC78A" font-family="'MyriadPro-Bold'" font-size="36">657.982</text>
<text transform="matrix(1 0 0 1 49.7651 25)" fill="#808080" font-family="'MyriadPro-Regular'" font-size="14">Fjöldi prentaðra síðna frá</text>
<text transform="matrix(1 0 0 1 48.981 43)" fill="#808080" font-family="'MyriadPro-Regular'" font-size="14">upphafi sem hafa sparast</text>
<text transform="matrix(1 0 0 1 43.6611 61)" fill="#808080" font-family="'MyriadPro-Regular'" font-size="14">með því að nota Internetið:</text>
<rect x="343.5" y="49.5" fill="#FFFFFF" stroke="#B3B3B3" width="167" height="118"/>
<text transform="matrix(1 0 0 1 380 149)" fill="#41C2FF" font-family="'MyriadPro-Bold'" font-size="36">77,5%</text>
<text transform="matrix(1 0 0 1 385.1519 75)" fill="#808080" font-family="'MyriadPro-Regular'" font-size="14">Hlutfall af öllum </text>
<text transform="matrix(1 0 0 1 367.7847 93)" fill="#808080" font-family="'MyriadPro-Regular'" font-size="14">nemendum í landinu í </text>
<text transform="matrix(1 0 0 1 399.1167 111)" fill="#808080" font-family="'MyriadPro-Regular'" font-size="14">6.-10. bekk:</text>
<g id="fakegraph_2_">
	<line fill="none" stroke="#CCCCCC" stroke-width="4" x1="2" y1="324" x2="853" y2="324"/>
	<polyline fill="none" stroke="#3D6088" stroke-width="4" points="6,243 86,224 227,217 332,251 454,264 552,254 722,237 838,278 	
		"/>
	<text transform="matrix(1 0 0 1 14 346)" fill="#B3B3B3" font-family="'AvenirNext-DemiBold'" font-size="14">sept                            okt                     nov                     des                     jan                     feb                     mar                     apr                     maí</text>
	<polyline fill="none" stroke="#7BA2A7" stroke-width="4" points="5,255 148,250 258,245 372,232 489,239 549,237 631,258 721,258 
		839,196 	"/>
</g>
<rect x="654.5" y="1.5" fill="#FFFFFF" stroke="#B3B3B3" width="167" height="119"/>
<text transform="matrix(1 0 0 1 689 95)" fill="#3D6088" font-family="'MyriadPro-Bold'" font-size="36">14.467</text>
<text transform="matrix(1 0 0 1 681.293 32)" fill="#808080" font-family="'MyriadPro-Regular'" font-size="14">Nemendur sem hafa </text>
<text transform="matrix(1 0 0 1 677.002 50)" fill="#808080" font-family="'MyriadPro-Regular'" font-size="14">svarað könnuninni í ár:</text>
</svg>
