<?xml version="1.0" encoding="utf-8"?>
<!-- Generator: Adobe Illustrator 16.2.1, SVG Export Plug-In . SVG Version: 6.00 Build 0)  -->
<!DOCTYPE svg PUBLIC "-//W3C//DTD SVG 1.1//EN" "http://www.w3.org/Graphics/SVG/1.1/DTD/svg11.dtd">
<svg version="1.1" id="Layer_1" xmlns="http://www.w3.org/2000/svg" xmlns:xlink="http://www.w3.org/1999/xlink" x="0px" y="0px"
	 width="855px" height="355px" viewBox="0 0 855 355" enable-background="new 0 0 855 355" xml:space="preserve">
<rect x="34.5" y="3.5" fill="#FFFFFF" stroke="#B3B3B3" width="166" height="120"/>
<g>
	<path fill="#ABC78A" d="M71.45,81.49c-0.612-0.036-1.26,0-2.124,0.072c-4.859,0.396-7.02,2.879-7.631,5.615h0.107
		c1.152-1.188,2.772-1.872,4.968-1.872c3.924,0,7.235,2.771,7.235,7.631c0,4.644-3.563,8.458-8.639,8.458
		c-6.228,0-9.287-4.643-9.287-10.222c0-4.392,1.619-8.063,4.14-10.403c2.339-2.124,5.363-3.275,9.034-3.456
		c1.008-0.072,1.656-0.072,2.196-0.036V81.49z M68.462,93.225c0-2.16-1.151-4.032-3.491-4.032c-1.476,0-2.699,0.9-3.239,2.088
		c-0.145,0.288-0.216,0.72-0.216,1.368c0.107,2.484,1.295,4.715,3.779,4.715C67.238,97.364,68.462,95.601,68.462,93.225z"/>
	<path fill="#ABC78A" d="M92.113,82.103h-9.07l-0.505,3.6c0.505-0.072,0.937-0.072,1.513-0.072c2.231,0,4.499,0.504,6.155,1.692
		c1.764,1.188,2.843,3.131,2.843,5.867c0,4.355-3.743,8.207-10.042,8.207c-2.844,0-5.22-0.647-6.516-1.332l0.972-4.104
		c1.044,0.504,3.168,1.152,5.292,1.152c2.268,0,4.679-1.08,4.679-3.563c0-2.412-1.907-3.887-6.587-3.887
		c-1.296,0-2.195,0.072-3.168,0.216l1.548-12.274h12.887V82.103z"/>
	<path fill="#ABC78A" d="M113.245,77.603v3.456L103.598,101h-5.795l9.646-18.826v-0.072H96.723v-4.5H113.245z"/>
	<path fill="#ABC78A" d="M116.738,98.084c0-1.944,1.332-3.348,3.239-3.348c1.908,0,3.204,1.368,3.204,3.348
		c0,1.908-1.296,3.311-3.24,3.311C118.07,101.396,116.738,99.992,116.738,98.084z"/>
	<path fill="#ABC78A" d="M127.537,97.041c0.685,0.072,1.296,0.072,2.376,0c1.656-0.108,3.348-0.576,4.607-1.44
		c1.512-1.044,2.52-2.556,2.952-4.319l-0.108-0.036c-1.044,1.08-2.556,1.692-4.68,1.692c-3.959,0-7.307-2.771-7.307-7.307
		c0-4.571,3.671-8.423,8.818-8.423c6.012,0,8.855,4.607,8.855,10.079c0,4.859-1.548,8.423-4.104,10.763
		c-2.232,2.016-5.292,3.131-8.927,3.276c-0.937,0.071-1.872,0.036-2.484,0V97.041z M130.849,85.306c0,2.016,1.08,3.743,3.312,3.743
		c1.477,0,2.521-0.72,3.024-1.548c0.18-0.324,0.288-0.684,0.288-1.368c0-2.483-0.937-4.931-3.42-4.931
		C132.181,81.203,130.813,82.858,130.849,85.306z"/>
	<path fill="#ABC78A" d="M145.43,94.881c0-2.808,1.619-4.751,4.175-5.867v-0.108c-2.268-1.151-3.384-3.06-3.384-5.111
		c0-3.959,3.563-6.587,8.243-6.587c5.472,0,7.739,3.167,7.739,6.011c0,2.016-1.08,3.996-3.384,5.147v0.108
		c2.268,0.864,4.283,2.808,4.283,5.831c0,4.248-3.563,7.091-8.998,7.091C148.165,101.396,145.43,98.048,145.43,94.881z
		 M157.523,94.701c0-2.052-1.512-3.275-3.671-3.852c-1.8,0.504-2.844,1.8-2.844,3.492c-0.036,1.692,1.26,3.275,3.312,3.275
		C156.264,97.616,157.523,96.356,157.523,94.701z M151.368,83.614c0,1.583,1.44,2.592,3.312,3.167
		c1.26-0.36,2.376-1.512,2.376-2.988c0-1.439-0.828-2.879-2.844-2.879C152.34,80.915,151.368,82.138,151.368,83.614z"/>
	<path fill="#ABC78A" d="M165.769,101v-3.312l3.023-2.736c5.111-4.571,7.596-7.199,7.667-9.935c0-1.908-1.151-3.419-3.852-3.419
		c-2.016,0-3.779,1.008-5.003,1.943l-1.548-3.923c1.764-1.332,4.499-2.412,7.667-2.412c5.291,0,8.207,3.096,8.207,7.343
		c0,3.923-2.844,7.055-6.228,10.079l-2.159,1.8V96.5h8.818v4.5H165.769z"/>
</g>
<g>
	<path fill="#808080" d="M50.83,17.559h5.085v1.022h-3.866v3.138h3.572v1.009h-3.572V27H50.83V17.559z"/>
	<path fill="#808080" d="M55.603,28.961c0.561-0.042,1.051-0.196,1.345-0.519c0.336-0.392,0.462-0.924,0.462-2.549v-5.673h1.232
		v6.149c0,1.316-0.21,2.171-0.812,2.787c-0.546,0.546-1.442,0.771-2.101,0.771L55.603,28.961z M58.782,18.315
		c0.014,0.406-0.28,0.756-0.771,0.756c-0.462,0-0.756-0.35-0.756-0.756c0-0.435,0.322-0.771,0.785-0.771
		C58.488,17.545,58.782,17.881,58.782,18.315z"/>
	<path fill="#808080" d="M66.442,23.554c0,2.508-1.737,3.601-3.375,3.601c-1.835,0-3.25-1.345-3.25-3.488
		c0-2.27,1.485-3.6,3.362-3.6C65.126,20.066,66.442,21.481,66.442,23.554z M61.063,23.624c0,1.485,0.854,2.605,2.059,2.605
		c1.177,0,2.059-1.106,2.059-2.634c0-1.148-0.574-2.604-2.031-2.604C61.694,20.991,61.063,22.336,61.063,23.624z M61.12,18.302
		c0-0.393,0.322-0.715,0.714-0.715s0.687,0.309,0.687,0.715c0,0.378-0.28,0.714-0.687,0.714C61.414,19.016,61.12,18.68,61.12,18.302
		z M63.725,18.302c0-0.393,0.308-0.715,0.7-0.715c0.393,0,0.687,0.309,0.687,0.715c0,0.378-0.28,0.714-0.687,0.714
		C64.005,19.016,63.725,18.68,63.725,18.302z"/>
	<path fill="#808080" d="M67.644,17.055h1.233V27h-1.233V17.055z"/>
	<path fill="#808080" d="M76.453,17.055v8.194c0,0.603,0.014,1.289,0.056,1.751h-1.106l-0.056-1.177h-0.028
		c-0.378,0.757-1.205,1.331-2.312,1.331c-1.639,0-2.899-1.387-2.899-3.446c-0.014-2.255,1.387-3.642,3.04-3.642
		c1.037,0,1.737,0.49,2.045,1.036h0.028v-4.048H76.453z M75.22,22.979c0-0.153-0.014-0.364-0.056-0.518
		c-0.182-0.785-0.854-1.429-1.779-1.429c-1.275,0-2.031,1.12-2.031,2.619c0,1.373,0.672,2.507,2.003,2.507
		c0.826,0,1.583-0.546,1.807-1.471c0.042-0.168,0.056-0.336,0.056-0.532V22.979z"/>
	<path fill="#808080" d="M79.516,18.315c0.014,0.42-0.294,0.756-0.785,0.756c-0.434,0-0.742-0.336-0.742-0.756
		c0-0.435,0.322-0.771,0.77-0.771C79.222,17.545,79.516,17.881,79.516,18.315z M78.143,27v-6.779h1.233V27H78.143z"/>
	<path fill="#808080" d="M83.687,22.434c0-0.868-0.028-1.569-0.056-2.213h1.107l0.056,1.162h0.028
		c0.504-0.826,1.303-1.316,2.409-1.316c1.639,0,2.872,1.387,2.872,3.445c0,2.438-1.485,3.643-3.082,3.643
		c-0.896,0-1.681-0.393-2.087-1.064h-0.028v3.684h-1.219V22.434z M84.905,24.24c0,0.183,0.028,0.351,0.056,0.505
		c0.224,0.854,0.966,1.442,1.849,1.442c1.302,0,2.059-1.064,2.059-2.619c0-1.359-0.714-2.521-2.017-2.521
		c-0.841,0-1.625,0.603-1.863,1.526c-0.042,0.154-0.084,0.337-0.084,0.505V24.24z"/>
	<path fill="#808080" d="M91.303,22.336c0-0.799-0.014-1.485-0.056-2.115h1.079l0.042,1.33h0.056
		c0.308-0.91,1.051-1.484,1.877-1.484c0.14,0,0.238,0.014,0.35,0.042v1.162c-0.126-0.027-0.252-0.042-0.42-0.042
		c-0.869,0-1.485,0.659-1.653,1.583c-0.028,0.168-0.056,0.364-0.056,0.574V27h-1.219V22.336z"/>
	<path fill="#808080" d="M96.217,23.834c0.028,1.667,1.092,2.354,2.325,2.354c0.882,0,1.415-0.154,1.877-0.351l0.21,0.883
		c-0.434,0.196-1.176,0.42-2.255,0.42c-2.087,0-3.334-1.372-3.334-3.417c0-2.046,1.205-3.656,3.18-3.656
		c2.213,0,2.802,1.947,2.802,3.193c0,0.252-0.028,0.448-0.042,0.574H96.217z M99.831,22.952c0.014-0.785-0.322-2.003-1.709-2.003
		c-1.247,0-1.793,1.148-1.891,2.003H99.831z"/>
	<path fill="#808080" d="M102.194,22.056c0-0.701-0.014-1.275-0.056-1.835h1.093l0.07,1.12h0.028
		c0.336-0.645,1.121-1.274,2.241-1.274c0.938,0,2.395,0.561,2.395,2.886V27h-1.232v-3.908c0-1.093-0.406-2.003-1.569-2.003
		c-0.812,0-1.443,0.574-1.653,1.261c-0.056,0.154-0.084,0.364-0.084,0.574V27h-1.233V22.056z"/>
	<path fill="#808080" d="M111.099,18.273v1.947h1.765v0.938h-1.765v3.655c0,0.841,0.238,1.317,0.924,1.317
		c0.322,0,0.561-0.042,0.715-0.084l0.056,0.924c-0.238,0.099-0.616,0.168-1.092,0.168c-0.575,0-1.037-0.182-1.331-0.518
		c-0.35-0.364-0.476-0.967-0.476-1.766v-3.697h-1.051v-0.938h1.051v-1.625L111.099,18.273z"/>
	<path fill="#808080" d="M117.652,27l-0.098-0.854h-0.042c-0.378,0.532-1.107,1.009-2.073,1.009c-1.373,0-2.073-0.967-2.073-1.947
		c0-1.639,1.457-2.535,4.076-2.521v-0.14c0-0.561-0.154-1.569-1.541-1.569c-0.63,0-1.289,0.196-1.765,0.505l-0.28-0.812
		c0.561-0.364,1.373-0.603,2.227-0.603c2.073,0,2.578,1.415,2.578,2.773v2.535c0,0.589,0.028,1.163,0.112,1.625H117.652z
		 M117.47,23.54c-1.345-0.028-2.871,0.21-2.871,1.527c0,0.798,0.532,1.176,1.163,1.176c0.882,0,1.442-0.56,1.639-1.134
		c0.042-0.127,0.07-0.267,0.07-0.393V23.54z"/>
	<path fill="#808080" d="M120.633,19.296l1.625-0.771c-0.42-0.309-0.938-0.588-1.457-0.841l0.532-0.771
		c0.672,0.309,1.373,0.701,1.975,1.135l1.793-0.854l0.294,0.616l-1.484,0.701c0.77,0.63,1.387,1.387,1.793,2.227
		c0.378,0.785,0.588,1.682,0.588,2.718c0.014,2.605-1.653,3.698-3.277,3.698c-1.835,0-3.208-1.345-3.208-3.46
		c0-2.199,1.541-3.474,3.152-3.474c0.518,0,1.022,0.098,1.555,0.602l0.028-0.042c-0.406-0.672-0.939-1.274-1.653-1.807l-1.989,0.925
		L120.633,19.296z M125.031,23.596c0-0.882-0.126-1.442-0.477-1.877c-0.308-0.35-0.771-0.658-1.485-0.658
		c-1.457,0-2.017,1.499-2.017,2.62c0,1.429,0.827,2.549,1.961,2.549C124.247,26.229,125.031,25.137,125.031,23.596z"/>
	<path fill="#808080" d="M127.52,22.336c0-0.799-0.014-1.485-0.056-2.115h1.079l0.042,1.33h0.056
		c0.308-0.91,1.051-1.484,1.877-1.484c0.14,0,0.238,0.014,0.351,0.042v1.162c-0.126-0.027-0.252-0.042-0.42-0.042
		c-0.869,0-1.485,0.659-1.653,1.583c-0.028,0.168-0.056,0.364-0.056,0.574V27h-1.219V22.336z"/>
	<path fill="#808080" d="M135.502,27l-0.098-0.854h-0.042c-0.378,0.532-1.107,1.009-2.073,1.009c-1.373,0-2.073-0.967-2.073-1.947
		c0-1.639,1.457-2.535,4.076-2.521v-0.14c0-0.561-0.154-1.569-1.541-1.569c-0.63,0-1.289,0.196-1.765,0.505l-0.28-0.812
		c0.561-0.364,1.373-0.603,2.227-0.603c2.073,0,2.578,1.415,2.578,2.773v2.535c0,0.589,0.028,1.163,0.112,1.625H135.502z
		 M135.32,23.54c-1.345-0.028-2.872,0.21-2.872,1.527c0,0.798,0.532,1.176,1.163,1.176c0.882,0,1.442-0.56,1.639-1.134
		c0.042-0.127,0.07-0.267,0.07-0.393V23.54z"/>
	<path fill="#808080" d="M140.596,25.739c0.364,0.238,1.008,0.49,1.625,0.49c0.896,0,1.316-0.448,1.316-1.009
		c0-0.588-0.35-0.91-1.261-1.246c-1.218-0.435-1.793-1.106-1.793-1.919c0-1.093,0.883-1.989,2.339-1.989
		c0.687,0,1.289,0.196,1.667,0.42l-0.308,0.896c-0.266-0.168-0.756-0.392-1.387-0.392c-0.729,0-1.135,0.42-1.135,0.924
		c0,0.561,0.406,0.812,1.289,1.148c1.177,0.448,1.779,1.037,1.779,2.046c0,1.19-0.925,2.03-2.536,2.03
		c-0.742,0-1.429-0.182-1.905-0.462L140.596,25.739z"/>
	<path fill="#808080" d="M148.465,17.293l-1.709,2.003h-0.882l1.233-2.003H148.465z M145.958,27v-6.779h1.233V27H145.958z"/>
	<path fill="#808080" d="M149.22,19.296l1.625-0.771c-0.42-0.309-0.938-0.588-1.457-0.841l0.532-0.771
		c0.672,0.309,1.373,0.701,1.975,1.135l1.793-0.854l0.294,0.616l-1.484,0.701c0.77,0.63,1.387,1.387,1.793,2.227
		c0.378,0.785,0.588,1.682,0.588,2.718c0.014,2.605-1.653,3.698-3.277,3.698c-1.835,0-3.208-1.345-3.208-3.46
		c0-2.199,1.541-3.474,3.152-3.474c0.518,0,1.022,0.098,1.555,0.602l0.028-0.042c-0.406-0.672-0.938-1.274-1.653-1.807l-1.989,0.925
		L149.22,19.296z M153.619,23.596c0-0.882-0.126-1.442-0.477-1.877c-0.308-0.35-0.771-0.658-1.485-0.658
		c-1.457,0-2.017,1.499-2.017,2.62c0,1.429,0.827,2.549,1.961,2.549C152.834,26.229,153.619,25.137,153.619,23.596z"/>
	<path fill="#808080" d="M156.107,22.056c0-0.701-0.014-1.275-0.056-1.835h1.093l0.07,1.12h0.028
		c0.336-0.645,1.121-1.274,2.241-1.274c0.938,0,2.395,0.561,2.395,2.886V27h-1.232v-3.908c0-1.093-0.406-2.003-1.569-2.003
		c-0.812,0-1.443,0.574-1.653,1.261c-0.056,0.154-0.084,0.364-0.084,0.574V27h-1.233V22.056z"/>
	<path fill="#808080" d="M167.281,27l-0.098-0.854h-0.042c-0.378,0.532-1.107,1.009-2.073,1.009c-1.373,0-2.073-0.967-2.073-1.947
		c0-1.639,1.457-2.535,4.076-2.521v-0.14c0-0.561-0.154-1.569-1.541-1.569c-0.63,0-1.289,0.196-1.765,0.505l-0.28-0.812
		c0.561-0.364,1.373-0.603,2.227-0.603c2.073,0,2.578,1.415,2.578,2.773v2.535c0,0.589,0.028,1.163,0.112,1.625H167.281z
		 M167.1,23.54c-1.345-0.028-2.872,0.21-2.872,1.527c0,0.798,0.532,1.176,1.163,1.176c0.882,0,1.442-0.56,1.639-1.134
		c0.042-0.127,0.07-0.267,0.07-0.393V23.54z"/>
	<path fill="#808080" d="M172.669,27v-5.841h-0.952v-0.938h0.952v-0.322c0-0.953,0.21-1.821,0.785-2.367
		c0.462-0.448,1.079-0.631,1.653-0.631c0.434,0,0.812,0.099,1.051,0.196l-0.168,0.952c-0.182-0.084-0.434-0.153-0.784-0.153
		c-1.051,0-1.317,0.924-1.317,1.961v0.364h1.639v0.938h-1.639V27H172.669z"/>
	<path fill="#808080" d="M176.281,22.336c0-0.799-0.014-1.485-0.056-2.115h1.079l0.042,1.33h0.056
		c0.308-0.91,1.051-1.484,1.877-1.484c0.14,0,0.238,0.014,0.35,0.042v1.162c-0.126-0.027-0.252-0.042-0.42-0.042
		c-0.869,0-1.485,0.659-1.653,1.583c-0.028,0.168-0.056,0.364-0.056,0.574V27h-1.219V22.336z"/>
	<path fill="#808080" d="M184.263,27l-0.098-0.854h-0.042c-0.378,0.532-1.107,1.009-2.073,1.009c-1.373,0-2.073-0.967-2.073-1.947
		c0-1.639,1.457-2.535,4.076-2.521v-0.14c0-0.561-0.154-1.569-1.541-1.569c-0.63,0-1.289,0.196-1.765,0.505l-0.28-0.812
		c0.561-0.364,1.373-0.603,2.227-0.603c2.073,0,2.578,1.415,2.578,2.773v2.535c0,0.589,0.028,1.163,0.112,1.625H184.263z
		 M184.081,23.54c-1.345-0.028-2.871,0.21-2.871,1.527c0,0.798,0.532,1.176,1.163,1.176c0.882,0,1.442-0.56,1.639-1.134
		c0.042-0.127,0.07-0.267,0.07-0.393V23.54z M184.698,17.293l-1.709,2.003h-0.882l1.232-2.003H184.698z"/>
	<path fill="#808080" d="M55.677,43.151c0,0.7,0.014,1.316,0.056,1.849H54.64l-0.07-1.106h-0.028
		c-0.322,0.546-1.037,1.261-2.241,1.261c-1.064,0-2.339-0.589-2.339-2.97v-3.964h1.233v3.754c0,1.288,0.392,2.157,1.513,2.157
		c0.826,0,1.401-0.574,1.625-1.121c0.07-0.182,0.112-0.406,0.112-0.63v-4.16h1.233V43.151z"/>
	<path fill="#808080" d="M57.367,40.434c0-0.868-0.028-1.569-0.056-2.213h1.107l0.056,1.162h0.028
		c0.504-0.826,1.303-1.316,2.409-1.316c1.639,0,2.872,1.387,2.872,3.445c0,2.438-1.485,3.643-3.082,3.643
		c-0.896,0-1.681-0.393-2.087-1.064h-0.028v3.684h-1.219V40.434z M58.586,42.24c0,0.183,0.028,0.351,0.056,0.505
		c0.224,0.854,0.966,1.442,1.849,1.442c1.302,0,2.059-1.064,2.059-2.619c0-1.359-0.714-2.521-2.017-2.521
		c-0.841,0-1.625,0.603-1.863,1.526c-0.042,0.154-0.084,0.337-0.084,0.505V42.24z"/>
	<path fill="#808080" d="M64.983,40.434c0-0.868-0.028-1.569-0.056-2.213h1.107l0.056,1.162h0.028
		c0.504-0.826,1.303-1.316,2.409-1.316c1.639,0,2.872,1.387,2.872,3.445c0,2.438-1.485,3.643-3.082,3.643
		c-0.896,0-1.681-0.393-2.087-1.064h-0.028v3.684h-1.219V40.434z M66.202,42.24c0,0.183,0.028,0.351,0.056,0.505
		c0.224,0.854,0.966,1.442,1.849,1.442c1.303,0,2.06-1.064,2.06-2.619c0-1.359-0.715-2.521-2.017-2.521
		c-0.841,0-1.625,0.603-1.863,1.526c-0.042,0.154-0.084,0.337-0.084,0.505V42.24z"/>
	<path fill="#808080" d="M72.599,35.055h1.233v4.23h0.028c0.196-0.351,0.504-0.658,0.882-0.869c0.364-0.21,0.799-0.35,1.261-0.35
		c0.911,0,2.367,0.561,2.367,2.899V45h-1.232v-3.895c0-1.092-0.406-2.017-1.569-2.017c-0.798,0-1.429,0.561-1.653,1.232
		c-0.07,0.168-0.084,0.351-0.084,0.589V45h-1.233V35.055z"/>
	<path fill="#808080" d="M83.773,45l-0.098-0.854h-0.042c-0.378,0.532-1.107,1.009-2.073,1.009c-1.373,0-2.073-0.967-2.073-1.947
		c0-1.639,1.457-2.535,4.076-2.521v-0.14c0-0.561-0.154-1.569-1.541-1.569c-0.63,0-1.289,0.196-1.765,0.505l-0.28-0.812
		c0.561-0.364,1.373-0.603,2.227-0.603c2.073,0,2.578,1.415,2.578,2.773v2.535c0,0.589,0.028,1.163,0.112,1.625H83.773z
		 M83.591,41.54c-1.345-0.028-2.871,0.21-2.871,1.527c0,0.798,0.532,1.176,1.163,1.176c0.882,0,1.442-0.56,1.639-1.134
		c0.042-0.127,0.07-0.267,0.07-0.393V41.54z"/>
	<path fill="#808080" d="M86.543,45v-5.841h-0.952v-0.938h0.952v-0.364c0-1.793,1.051-2.956,2.956-2.956
		c0.63,0,1.373,0.196,1.723,0.448l-0.35,0.938c-0.294-0.21-0.827-0.392-1.429-0.392c-1.303,0-1.681,0.91-1.681,1.988v0.337h3.936V45
		h-1.218v-5.841h-2.718V45H86.543z"/>
	<path fill="#808080" d="M95.838,43.739c0.364,0.238,1.008,0.49,1.625,0.49c0.896,0,1.316-0.448,1.316-1.009
		c0-0.588-0.35-0.91-1.261-1.246c-1.218-0.435-1.793-1.106-1.793-1.919c0-1.093,0.883-1.989,2.339-1.989
		c0.687,0,1.289,0.196,1.667,0.42l-0.308,0.896c-0.266-0.168-0.756-0.392-1.387-0.392c-0.729,0-1.135,0.42-1.135,0.924
		c0,0.561,0.406,0.812,1.289,1.148c1.177,0.448,1.779,1.037,1.779,2.046c0,1.19-0.925,2.03-2.536,2.03
		c-0.742,0-1.429-0.182-1.905-0.462L95.838,43.739z"/>
	<path fill="#808080" d="M101.887,41.834c0.028,1.667,1.092,2.354,2.325,2.354c0.882,0,1.415-0.154,1.877-0.351l0.21,0.883
		c-0.434,0.196-1.176,0.42-2.255,0.42c-2.087,0-3.334-1.372-3.334-3.417c0-2.046,1.205-3.656,3.18-3.656
		c2.213,0,2.802,1.947,2.802,3.193c0,0.252-0.028,0.448-0.042,0.574H101.887z M105.501,40.952c0.014-0.785-0.322-2.003-1.709-2.003
		c-1.247,0-1.793,1.148-1.891,2.003H105.501z"/>
	<path fill="#808080" d="M107.864,40.056c0-0.701-0.014-1.275-0.056-1.835h1.079l0.056,1.092h0.042
		c0.378-0.644,1.009-1.246,2.129-1.246c0.924,0,1.625,0.561,1.919,1.358h0.028c0.21-0.378,0.477-0.672,0.756-0.882
		c0.406-0.309,0.854-0.477,1.499-0.477c0.896,0,2.227,0.588,2.227,2.941V45h-1.205v-3.838c0-1.303-0.476-2.087-1.471-2.087
		c-0.7,0-1.247,0.518-1.457,1.12c-0.056,0.168-0.098,0.393-0.098,0.616V45h-1.205v-4.062c0-1.078-0.476-1.862-1.415-1.862
		c-0.771,0-1.331,0.616-1.527,1.232c-0.07,0.182-0.098,0.392-0.098,0.603V45h-1.205V40.056z"/>
	<path fill="#808080" d="M121.808,35.055h1.233v4.23h0.028c0.196-0.351,0.504-0.658,0.882-0.869c0.364-0.21,0.799-0.35,1.261-0.35
		c0.911,0,2.367,0.561,2.367,2.899V45h-1.232v-3.895c0-1.092-0.406-2.017-1.569-2.017c-0.798,0-1.429,0.561-1.653,1.232
		c-0.07,0.168-0.084,0.351-0.084,0.589V45h-1.233V35.055z"/>
	<path fill="#808080" d="M132.981,45l-0.098-0.854h-0.042c-0.378,0.532-1.107,1.009-2.073,1.009c-1.373,0-2.073-0.967-2.073-1.947
		c0-1.639,1.457-2.535,4.076-2.521v-0.14c0-0.561-0.154-1.569-1.541-1.569c-0.63,0-1.289,0.196-1.765,0.505l-0.28-0.812
		c0.561-0.364,1.373-0.603,2.227-0.603c2.073,0,2.578,1.415,2.578,2.773v2.535c0,0.589,0.028,1.163,0.112,1.625H132.981z
		 M132.8,41.54c-1.345-0.028-2.872,0.21-2.872,1.527c0,0.798,0.532,1.176,1.163,1.176c0.882,0,1.442-0.56,1.639-1.134
		c0.042-0.127,0.07-0.267,0.07-0.393V41.54z"/>
	<path fill="#808080" d="M135.752,45v-5.841H134.8v-0.938h0.952v-0.322c0-0.953,0.21-1.821,0.785-2.367
		c0.462-0.448,1.079-0.631,1.653-0.631c0.434,0,0.812,0.099,1.051,0.196l-0.168,0.952c-0.182-0.084-0.434-0.153-0.784-0.153
		c-1.051,0-1.317,0.924-1.317,1.961v0.364h1.639v0.938h-1.639V45H135.752z"/>
	<path fill="#808080" d="M143.118,45l-0.098-0.854h-0.042c-0.378,0.532-1.107,1.009-2.073,1.009c-1.373,0-2.073-0.967-2.073-1.947
		c0-1.639,1.457-2.535,4.076-2.521v-0.14c0-0.561-0.154-1.569-1.541-1.569c-0.63,0-1.289,0.196-1.765,0.505l-0.28-0.812
		c0.561-0.364,1.373-0.603,2.227-0.603c2.073,0,2.578,1.415,2.578,2.773v2.535c0,0.589,0.028,1.163,0.112,1.625H143.118z
		 M142.936,41.54c-1.345-0.028-2.871,0.21-2.871,1.527c0,0.798,0.532,1.176,1.163,1.176c0.882,0,1.442-0.56,1.639-1.134
		c0.042-0.127,0.07-0.267,0.07-0.393V41.54z"/>
	<path fill="#808080" d="M148.211,43.739c0.364,0.238,1.008,0.49,1.625,0.49c0.896,0,1.316-0.448,1.316-1.009
		c0-0.588-0.35-0.91-1.261-1.246c-1.218-0.435-1.793-1.106-1.793-1.919c0-1.093,0.883-1.989,2.339-1.989
		c0.687,0,1.289,0.196,1.667,0.42l-0.308,0.896c-0.266-0.168-0.756-0.392-1.387-0.392c-0.729,0-1.135,0.42-1.135,0.924
		c0,0.561,0.406,0.812,1.289,1.148c1.177,0.448,1.779,1.037,1.779,2.046c0,1.19-0.925,2.03-2.536,2.03
		c-0.742,0-1.429-0.182-1.905-0.462L148.211,43.739z"/>
	<path fill="#808080" d="M153.573,40.434c0-0.868-0.028-1.569-0.056-2.213h1.107l0.056,1.162h0.028
		c0.504-0.826,1.303-1.316,2.409-1.316c1.639,0,2.872,1.387,2.872,3.445c0,2.438-1.485,3.643-3.082,3.643
		c-0.896,0-1.681-0.393-2.087-1.064h-0.028v3.684h-1.219V40.434z M154.792,42.24c0,0.183,0.028,0.351,0.056,0.505
		c0.224,0.854,0.966,1.442,1.849,1.442c1.302,0,2.059-1.064,2.059-2.619c0-1.359-0.714-2.521-2.017-2.521
		c-0.841,0-1.625,0.603-1.863,1.526c-0.042,0.154-0.084,0.337-0.084,0.505V42.24z"/>
	<path fill="#808080" d="M164.943,45l-0.098-0.854h-0.042c-0.378,0.532-1.107,1.009-2.073,1.009c-1.373,0-2.073-0.967-2.073-1.947
		c0-1.639,1.457-2.535,4.076-2.521v-0.14c0-0.561-0.154-1.569-1.541-1.569c-0.63,0-1.289,0.196-1.765,0.505l-0.28-0.812
		c0.561-0.364,1.373-0.603,2.227-0.603c2.073,0,2.578,1.415,2.578,2.773v2.535c0,0.589,0.028,1.163,0.112,1.625H164.943z
		 M164.762,41.54c-1.345-0.028-2.872,0.21-2.872,1.527c0,0.798,0.532,1.176,1.163,1.176c0.882,0,1.442-0.56,1.639-1.134
		c0.042-0.127,0.07-0.267,0.07-0.393V41.54z"/>
	<path fill="#808080" d="M167.587,40.336c0-0.799-0.014-1.485-0.056-2.115h1.079l0.042,1.33h0.056
		c0.308-0.91,1.051-1.484,1.877-1.484c0.14,0,0.238,0.014,0.351,0.042v1.162c-0.126-0.027-0.252-0.042-0.42-0.042
		c-0.869,0-1.485,0.659-1.653,1.583c-0.028,0.168-0.056,0.364-0.056,0.574V45h-1.219V40.336z"/>
	<path fill="#808080" d="M175.569,45l-0.098-0.854h-0.042c-0.378,0.532-1.107,1.009-2.073,1.009c-1.373,0-2.073-0.967-2.073-1.947
		c0-1.639,1.457-2.535,4.076-2.521v-0.14c0-0.561-0.154-1.569-1.541-1.569c-0.63,0-1.289,0.196-1.765,0.505l-0.28-0.812
		c0.561-0.364,1.373-0.603,2.227-0.603c2.073,0,2.578,1.415,2.578,2.773v2.535c0,0.589,0.028,1.163,0.112,1.625H175.569z
		 M175.388,41.54c-1.345-0.028-2.872,0.21-2.872,1.527c0,0.798,0.532,1.176,1.163,1.176c0.882,0,1.442-0.56,1.639-1.134
		c0.042-0.127,0.07-0.267,0.07-0.393V41.54z"/>
	<path fill="#808080" d="M178.045,43.739c0.364,0.238,1.008,0.49,1.625,0.49c0.896,0,1.316-0.448,1.316-1.009
		c0-0.588-0.35-0.91-1.261-1.246c-1.218-0.435-1.793-1.106-1.793-1.919c0-1.093,0.883-1.989,2.339-1.989
		c0.687,0,1.289,0.196,1.667,0.42l-0.308,0.896c-0.266-0.168-0.756-0.392-1.387-0.392c-0.729,0-1.135,0.42-1.135,0.924
		c0,0.561,0.406,0.812,1.289,1.148c1.177,0.448,1.779,1.037,1.779,2.046c0,1.19-0.925,2.03-2.536,2.03
		c-0.742,0-1.429-0.182-1.905-0.462L178.045,43.739z"/>
	<path fill="#808080" d="M184.892,36.273v1.947h1.765v0.938h-1.765v3.655c0,0.841,0.238,1.317,0.924,1.317
		c0.322,0,0.561-0.042,0.715-0.084l0.056,0.924c-0.238,0.099-0.616,0.168-1.092,0.168c-0.575,0-1.037-0.182-1.331-0.518
		c-0.35-0.364-0.476-0.967-0.476-1.766v-3.697h-1.051v-0.938h1.051v-1.625L184.892,36.273z"/>
	<path fill="#808080" d="M44.684,58.056c0-0.701-0.014-1.275-0.056-1.835h1.079l0.056,1.092h0.042
		c0.378-0.644,1.009-1.246,2.129-1.246c0.924,0,1.625,0.561,1.919,1.358h0.028c0.21-0.378,0.477-0.672,0.756-0.882
		c0.406-0.309,0.854-0.477,1.499-0.477c0.896,0,2.227,0.588,2.227,2.941V63h-1.205v-3.838c0-1.303-0.476-2.087-1.471-2.087
		c-0.7,0-1.247,0.518-1.457,1.12c-0.056,0.168-0.098,0.393-0.098,0.616V63h-1.205v-4.062c0-1.078-0.477-1.862-1.415-1.862
		c-0.771,0-1.331,0.616-1.527,1.232c-0.07,0.182-0.098,0.392-0.098,0.603V63h-1.205V58.056z"/>
	<path fill="#808080" d="M56.696,59.834c0.028,1.667,1.093,2.354,2.325,2.354c0.882,0,1.415-0.154,1.877-0.351l0.21,0.883
		c-0.434,0.196-1.176,0.42-2.255,0.42c-2.087,0-3.334-1.372-3.334-3.417c0-2.046,1.205-3.656,3.18-3.656
		c2.213,0,2.802,1.947,2.802,3.193c0,0.252-0.028,0.448-0.042,0.574H56.696z M60.31,58.952c0.014-0.785-0.322-2.003-1.709-2.003
		c-1.247,0-1.793,1.148-1.891,2.003H60.31z"/>
	<path fill="#808080" d="M63.01,55.296l1.625-0.771c-0.42-0.309-0.938-0.588-1.457-0.841l0.532-0.771
		c0.672,0.309,1.373,0.701,1.975,1.135l1.793-0.854l0.294,0.616l-1.484,0.701c0.77,0.63,1.387,1.387,1.793,2.227
		c0.378,0.785,0.588,1.682,0.588,2.718c0.014,2.605-1.653,3.698-3.277,3.698c-1.835,0-3.208-1.345-3.208-3.46
		c0-2.199,1.541-3.474,3.152-3.474c0.518,0,1.022,0.098,1.555,0.602l0.028-0.042c-0.406-0.672-0.939-1.274-1.653-1.807l-1.989,0.925
		L63.01,55.296z M67.408,59.596c0-0.882-0.126-1.442-0.477-1.877c-0.308-0.35-0.771-0.658-1.485-0.658
		c-1.457,0-2.017,1.499-2.017,2.62c0,1.429,0.827,2.549,1.961,2.549C66.624,62.229,67.408,61.137,67.408,59.596z"/>
	<path fill="#808080" d="M73.734,53.055v4.244h0.028c0.462-0.742,1.205-1.232,2.312-1.232c1.597-0.014,2.857,1.358,2.857,3.46
		c0,2.479-1.541,3.628-3.082,3.628c-0.896,0-1.653-0.393-2.087-1.064h-0.028v3.684h-1.219V53.055H73.734z M73.734,60.324
		c0,0.196,0.056,0.435,0.14,0.616c0.266,0.771,0.98,1.247,1.793,1.247c1.219,0,2.031-1.022,2.031-2.647
		c0-1.345-0.743-2.493-2.003-2.493c-0.784,0-1.527,0.519-1.821,1.345c-0.07,0.196-0.14,0.462-0.14,0.687V60.324z"/>
	<path fill="#808080" d="M80.607,56.221l1.331,3.81c0.224,0.616,0.406,1.177,0.546,1.737h0.042c0.154-0.561,0.35-1.121,0.574-1.737
		l1.317-3.81h1.289L83.044,63h-1.177l-2.577-6.779H80.607z"/>
	<path fill="#808080" d="M89.022,53.293l-1.709,2.003h-0.882l1.233-2.003H89.022z M86.515,63v-6.779h1.233V63H86.515z"/>
	<path fill="#808080" d="M95.812,63l-0.098-0.854h-0.042c-0.378,0.532-1.107,1.009-2.073,1.009c-1.373,0-2.073-0.967-2.073-1.947
		c0-1.639,1.457-2.535,4.076-2.521v-0.14c0-0.561-0.154-1.569-1.541-1.569c-0.63,0-1.289,0.196-1.765,0.505l-0.28-0.812
		c0.561-0.364,1.373-0.603,2.227-0.603c2.073,0,2.578,1.415,2.578,2.773v2.535c0,0.589,0.028,1.163,0.112,1.625H95.812z
		 M95.631,59.54c-1.345-0.028-2.872,0.21-2.872,1.527c0,0.798,0.532,1.176,1.163,1.176c0.882,0,1.442-0.56,1.639-1.134
		c0.042-0.127,0.07-0.267,0.07-0.393V59.54z"/>
	<path fill="#808080" d="M98.793,55.296l1.625-0.771c-0.42-0.309-0.938-0.588-1.457-0.841l0.532-0.771
		c0.672,0.309,1.373,0.701,1.975,1.135l1.793-0.854l0.294,0.616l-1.484,0.701c0.77,0.63,1.387,1.387,1.793,2.227
		c0.378,0.785,0.588,1.682,0.588,2.718c0.014,2.605-1.653,3.698-3.277,3.698c-1.835,0-3.208-1.345-3.208-3.46
		c0-2.199,1.541-3.474,3.152-3.474c0.518,0,1.022,0.098,1.555,0.602l0.028-0.042c-0.406-0.672-0.939-1.274-1.653-1.807l-1.989,0.925
		L98.793,55.296z M103.191,59.596c0-0.882-0.126-1.442-0.477-1.877c-0.308-0.35-0.771-0.658-1.485-0.658
		c-1.457,0-2.017,1.499-2.017,2.62c0,1.429,0.827,2.549,1.961,2.549C102.407,62.229,103.191,61.137,103.191,59.596z"/>
	<path fill="#808080" d="M108.298,58.056c0-0.701-0.014-1.275-0.056-1.835h1.093l0.07,1.12h0.028
		c0.336-0.645,1.121-1.274,2.241-1.274c0.938,0,2.395,0.561,2.395,2.886V63h-1.232v-3.908c0-1.093-0.406-2.003-1.569-2.003
		c-0.812,0-1.443,0.574-1.653,1.261c-0.056,0.154-0.084,0.364-0.084,0.574V63h-1.233V58.056z"/>
	<path fill="#808080" d="M121.853,59.554c0,2.508-1.737,3.601-3.375,3.601c-1.835,0-3.25-1.345-3.25-3.488
		c0-2.27,1.485-3.6,3.362-3.6C120.537,56.066,121.853,57.481,121.853,59.554z M116.474,59.624c0,1.485,0.854,2.605,2.059,2.605
		c1.177,0,2.059-1.106,2.059-2.634c0-1.148-0.574-2.604-2.031-2.604C117.104,56.991,116.474,58.336,116.474,59.624z"/>
	<path fill="#808080" d="M124.539,54.273v1.947h1.765v0.938h-1.765v3.655c0,0.841,0.238,1.317,0.924,1.317
		c0.322,0,0.561-0.042,0.714-0.084l0.056,0.924c-0.238,0.099-0.616,0.168-1.092,0.168c-0.575,0-1.037-0.182-1.331-0.518
		c-0.35-0.364-0.476-0.967-0.476-1.766v-3.697h-1.051v-0.938h1.051v-1.625L124.539,54.273z"/>
	<path fill="#808080" d="M131.092,63l-0.098-0.854h-0.042c-0.378,0.532-1.107,1.009-2.073,1.009c-1.373,0-2.073-0.967-2.073-1.947
		c0-1.639,1.457-2.535,4.076-2.521v-0.14c0-0.561-0.154-1.569-1.541-1.569c-0.63,0-1.289,0.196-1.765,0.505l-0.28-0.812
		c0.561-0.364,1.373-0.603,2.227-0.603c2.073,0,2.578,1.415,2.578,2.773v2.535c0,0.589,0.028,1.163,0.112,1.625H131.092z
		 M130.91,59.54c-1.345-0.028-2.872,0.21-2.872,1.527c0,0.798,0.532,1.176,1.163,1.176c0.882,0,1.442-0.56,1.639-1.134
		c0.042-0.127,0.07-0.267,0.07-0.393V59.54z"/>
	<path fill="#808080" d="M137.614,53.559V63h-1.219v-9.441H137.614z"/>
	<path fill="#808080" d="M139.35,58.056c0-0.701-0.014-1.275-0.056-1.835h1.093l0.07,1.12h0.028
		c0.336-0.645,1.121-1.274,2.241-1.274c0.938,0,2.395,0.561,2.395,2.886V63h-1.232v-3.908c0-1.093-0.406-2.003-1.569-2.003
		c-0.812,0-1.443,0.574-1.653,1.261c-0.056,0.154-0.084,0.364-0.084,0.574V63h-1.233V58.056z"/>
	<path fill="#808080" d="M148.255,54.273v1.947h1.765v0.938h-1.765v3.655c0,0.841,0.238,1.317,0.924,1.317
		c0.322,0,0.561-0.042,0.714-0.084l0.056,0.924c-0.238,0.099-0.616,0.168-1.092,0.168c-0.575,0-1.037-0.182-1.331-0.518
		c-0.35-0.364-0.476-0.967-0.476-1.766v-3.697H146v-0.938h1.051v-1.625L148.255,54.273z"/>
	<path fill="#808080" d="M151.74,59.834c0.028,1.667,1.093,2.354,2.325,2.354c0.882,0,1.415-0.154,1.877-0.351l0.21,0.883
		c-0.434,0.196-1.176,0.42-2.255,0.42c-2.087,0-3.334-1.372-3.334-3.417c0-2.046,1.205-3.656,3.18-3.656
		c2.213,0,2.802,1.947,2.802,3.193c0,0.252-0.028,0.448-0.042,0.574H151.74z M155.354,58.952c0.014-0.785-0.322-2.003-1.709-2.003
		c-1.247,0-1.793,1.148-1.891,2.003H155.354z"/>
	<path fill="#808080" d="M157.717,58.336c0-0.799-0.014-1.485-0.056-2.115h1.079l0.042,1.33h0.056
		c0.308-0.91,1.051-1.484,1.877-1.484c0.14,0,0.238,0.014,0.351,0.042v1.162c-0.126-0.027-0.252-0.042-0.42-0.042
		c-0.869,0-1.485,0.659-1.653,1.583c-0.028,0.168-0.056,0.364-0.056,0.574V63h-1.219V58.336z"/>
	<path fill="#808080" d="M161.945,58.056c0-0.701-0.014-1.275-0.056-1.835h1.093l0.07,1.12h0.028
		c0.336-0.645,1.121-1.274,2.241-1.274c0.938,0,2.395,0.561,2.395,2.886V63h-1.232v-3.908c0-1.093-0.406-2.003-1.569-2.003
		c-0.812,0-1.443,0.574-1.653,1.261c-0.056,0.154-0.084,0.364-0.084,0.574V63h-1.233V58.056z"/>
	<path fill="#808080" d="M170.052,59.834c0.028,1.667,1.093,2.354,2.325,2.354c0.882,0,1.415-0.154,1.877-0.351l0.21,0.883
		c-0.434,0.196-1.176,0.42-2.255,0.42c-2.087,0-3.334-1.372-3.334-3.417c0-2.046,1.205-3.656,3.18-3.656
		c2.213,0,2.802,1.947,2.802,3.193c0,0.252-0.028,0.448-0.042,0.574H170.052z M173.666,58.952c0.014-0.785-0.322-2.003-1.709-2.003
		c-1.247,0-1.793,1.148-1.891,2.003H173.666z"/>
	<path fill="#808080" d="M177.514,54.273v1.947h1.765v0.938h-1.765v3.655c0,0.841,0.238,1.317,0.924,1.317
		c0.322,0,0.561-0.042,0.715-0.084l0.056,0.924c-0.238,0.099-0.616,0.168-1.092,0.168c-0.575,0-1.037-0.182-1.331-0.518
		c-0.35-0.364-0.476-0.967-0.476-1.766v-3.697h-1.051v-0.938h1.051v-1.625L177.514,54.273z"/>
	<path fill="#808080" d="M181.686,54.315c0.014,0.42-0.294,0.756-0.785,0.756c-0.434,0-0.742-0.336-0.742-0.756
		c0-0.435,0.322-0.771,0.77-0.771C181.392,53.545,181.686,53.881,181.686,54.315z M180.313,63v-6.779h1.233V63H180.313z"/>
	<path fill="#808080" d="M183.575,55.296l1.625-0.771c-0.42-0.309-0.938-0.588-1.457-0.841l0.532-0.771
		c0.672,0.309,1.373,0.701,1.975,1.135l1.793-0.854l0.294,0.616l-1.484,0.701c0.77,0.63,1.387,1.387,1.793,2.227
		c0.378,0.785,0.588,1.682,0.588,2.718c0.014,2.605-1.653,3.698-3.277,3.698c-1.835,0-3.208-1.345-3.208-3.46
		c0-2.199,1.541-3.474,3.152-3.474c0.518,0,1.022,0.098,1.555,0.602l0.028-0.042c-0.406-0.672-0.939-1.274-1.653-1.807l-1.989,0.925
		L183.575,55.296z M187.974,59.596c0-0.882-0.126-1.442-0.477-1.877c-0.308-0.35-0.771-0.658-1.485-0.658
		c-1.457,0-2.017,1.499-2.017,2.62c0,1.429,0.827,2.549,1.961,2.549C187.189,62.229,187.974,61.137,187.974,59.596z"/>
	<path fill="#808080" d="M190.168,57.341c0-0.519,0.35-0.883,0.84-0.883s0.812,0.364,0.827,0.883c0,0.49-0.322,0.868-0.841,0.868
		C190.504,58.209,190.168,57.831,190.168,57.341z M190.168,62.285c0-0.518,0.35-0.882,0.84-0.882s0.812,0.364,0.827,0.882
		c0,0.49-0.322,0.869-0.841,0.869C190.504,63.154,190.168,62.775,190.168,62.285z"/>
</g>
<rect x="343.5" y="51.5" fill="#FFFFFF" stroke="#B3B3B3" width="167" height="118"/>
<g>
	<path fill="#41C2FF" d="M398.286,127.603v3.456L388.639,151h-5.795l9.646-18.826v-0.072h-10.727v-4.5H398.286z"/>
	<path fill="#41C2FF" d="M418.266,127.603v3.456L408.618,151h-5.795l9.646-18.826v-0.072h-10.727v-4.5H418.266z"/>
	<path fill="#41C2FF" d="M420.031,155.283c1.115-3.203,2.088-6.947,2.592-10.223l5.579-0.36c-1.188,3.672-2.808,7.452-4.535,10.259
		L420.031,155.283z"/>
	<path fill="#41C2FF" d="M446.452,132.103h-9.071l-0.504,3.6c0.504-0.072,0.937-0.072,1.513-0.072c2.231,0,4.499,0.504,6.155,1.692
		c1.764,1.188,2.843,3.131,2.843,5.867c0,4.355-3.743,8.207-10.042,8.207c-2.844,0-5.22-0.647-6.516-1.332l0.972-4.104
		c1.044,0.504,3.168,1.152,5.292,1.152c2.268,0,4.679-1.08,4.679-3.563c0-2.412-1.907-3.887-6.587-3.887
		c-1.296,0-2.195,0.072-3.168,0.216l1.548-12.274h12.887V132.103z"/>
	<path fill="#41C2FF" d="M463.12,134.154c0,4.895-3.096,7.451-6.479,7.451c-3.563,0-6.371-2.664-6.371-7.055
		c0-4.176,2.556-7.343,6.552-7.343C460.853,127.207,463.12,130.159,463.12,134.154z M454.337,134.406
		c0,2.448,0.828,4.211,2.412,4.211c1.548,0,2.304-1.584,2.304-4.211c0-2.376-0.648-4.211-2.34-4.211
		C455.093,130.195,454.337,132.066,454.337,134.406z M456.929,151.396l13.427-24.188h2.951l-13.462,24.188H456.929z
		 M479.966,143.873c0,4.895-3.096,7.451-6.479,7.451c-3.527,0-6.335-2.664-6.371-7.055c0-4.176,2.556-7.343,6.552-7.343
		C477.698,136.926,479.966,139.877,479.966,143.873z M471.219,144.125c-0.035,2.448,0.792,4.211,2.376,4.211
		c1.548,0,2.304-1.584,2.304-4.211c0-2.376-0.612-4.211-2.304-4.211C471.939,139.914,471.219,141.785,471.219,144.125z"/>
</g>
<g>
	<path fill="#808080" d="M387.435,67.559v3.95h4.566v-3.95h1.233V77h-1.233v-4.427h-4.566V77h-1.219v-9.441H387.435z"/>
	<path fill="#808080" d="M394.952,67.055h1.233V77h-1.233V67.055z"/>
	<path fill="#808080" d="M403.579,75.151c0,0.7,0.014,1.316,0.056,1.849h-1.092l-0.07-1.106h-0.028
		c-0.322,0.546-1.037,1.261-2.241,1.261c-1.064,0-2.339-0.589-2.339-2.97v-3.964h1.233v3.754c0,1.288,0.392,2.157,1.513,2.157
		c0.826,0,1.401-0.574,1.625-1.121c0.07-0.182,0.112-0.406,0.112-0.63v-4.16h1.233V75.151z"/>
	<path fill="#808080" d="M406.755,68.273v1.947h1.765v0.938h-1.765v3.655c0,0.841,0.238,1.317,0.924,1.317
		c0.322,0,0.561-0.042,0.714-0.084l0.056,0.924c-0.238,0.099-0.616,0.168-1.092,0.168c-0.575,0-1.037-0.182-1.331-0.518
		c-0.35-0.364-0.476-0.967-0.476-1.766v-3.697H404.5v-0.938h1.051v-1.625L406.755,68.273z"/>
	<path fill="#808080" d="M409.68,77v-5.841h-0.952v-0.938h0.952v-0.322c0-0.953,0.21-1.821,0.785-2.367
		c0.462-0.448,1.079-0.631,1.653-0.631c0.434,0,0.812,0.099,1.051,0.196L413,68.049c-0.182-0.084-0.434-0.153-0.784-0.153
		c-1.051,0-1.317,0.924-1.317,1.961v0.364h1.639v0.938h-1.639V77H409.68z"/>
	<path fill="#808080" d="M417.045,77l-0.098-0.854h-0.042c-0.378,0.532-1.107,1.009-2.073,1.009c-1.373,0-2.073-0.967-2.073-1.947
		c0-1.639,1.457-2.535,4.076-2.521v-0.14c0-0.561-0.154-1.569-1.541-1.569c-0.63,0-1.289,0.196-1.765,0.505l-0.28-0.812
		c0.561-0.364,1.373-0.603,2.227-0.603c2.073,0,2.578,1.415,2.578,2.773v2.535c0,0.589,0.028,1.163,0.112,1.625H417.045z
		 M416.863,73.54c-1.345-0.028-2.871,0.21-2.871,1.527c0,0.798,0.532,1.176,1.163,1.176c0.882,0,1.442-0.56,1.639-1.134
		c0.042-0.127,0.07-0.267,0.07-0.393V73.54z"/>
	<path fill="#808080" d="M419.689,67.055h1.233V77h-1.233V67.055z"/>
	<path fill="#808080" d="M422.643,67.055h1.233V77h-1.233V67.055z"/>
	<path fill="#808080" d="M431.969,77l-0.098-0.854h-0.042c-0.378,0.532-1.106,1.009-2.073,1.009c-1.373,0-2.073-0.967-2.073-1.947
		c0-1.639,1.457-2.535,4.076-2.521v-0.14c0-0.561-0.153-1.569-1.541-1.569c-0.63,0-1.288,0.196-1.765,0.505l-0.28-0.812
		c0.561-0.364,1.373-0.603,2.228-0.603c2.072,0,2.577,1.415,2.577,2.773v2.535c0,0.589,0.028,1.163,0.112,1.625H431.969z
		 M431.787,73.54c-1.345-0.028-2.871,0.21-2.871,1.527c0,0.798,0.531,1.176,1.162,1.176c0.883,0,1.442-0.56,1.639-1.134
		c0.042-0.127,0.07-0.267,0.07-0.393V73.54z"/>
	<path fill="#808080" d="M434.738,77v-5.841h-0.951v-0.938h0.951v-0.322c0-0.953,0.211-1.821,0.785-2.367
		c0.463-0.448,1.078-0.631,1.652-0.631c0.435,0,0.812,0.099,1.051,0.196l-0.168,0.952c-0.182-0.084-0.434-0.153-0.784-0.153
		c-1.051,0-1.317,0.924-1.317,1.961v0.364h1.64v0.938h-1.64V77H434.738z"/>
	<path fill="#808080" d="M447.104,73.554c0,2.508-1.736,3.601-3.375,3.601c-1.836,0-3.25-1.345-3.25-3.488
		c0-2.27,1.484-3.6,3.361-3.6C445.787,70.066,447.104,71.481,447.104,73.554z M441.725,73.624c0,1.485,0.854,2.605,2.059,2.605
		c1.178,0,2.06-1.106,2.06-2.634c0-1.148-0.574-2.604-2.03-2.604C442.355,70.991,441.725,72.336,441.725,73.624z M441.781,68.302
		c0-0.393,0.322-0.715,0.714-0.715s0.687,0.309,0.687,0.715c0,0.378-0.28,0.714-0.687,0.714
		C442.075,69.016,441.781,68.68,441.781,68.302z M444.387,68.302c0-0.393,0.308-0.715,0.699-0.715c0.393,0,0.688,0.309,0.688,0.715
		c0,0.378-0.281,0.714-0.688,0.714C444.666,69.016,444.387,68.68,444.387,68.302z"/>
	<path fill="#808080" d="M448.305,67.055h1.232V77h-1.232V67.055z"/>
	<path fill="#808080" d="M451.258,67.055h1.233V77h-1.233V67.055z"/>
	<path fill="#808080" d="M459.885,75.151c0,0.7,0.014,1.316,0.057,1.849h-1.093l-0.07-1.106h-0.028
		c-0.322,0.546-1.036,1.261-2.24,1.261c-1.064,0-2.34-0.589-2.34-2.97v-3.964h1.232v3.754c0,1.288,0.393,2.157,1.514,2.157
		c0.826,0,1.4-0.574,1.625-1.121c0.069-0.182,0.111-0.406,0.111-0.63v-4.16h1.232V75.151z"/>
	<path fill="#808080" d="M461.576,72.056c0-0.701-0.015-1.275-0.057-1.835h1.078l0.057,1.092h0.042
		c0.378-0.644,1.009-1.246,2.13-1.246c0.924,0,1.624,0.561,1.918,1.358h0.028c0.21-0.378,0.477-0.672,0.757-0.882
		c0.406-0.309,0.854-0.477,1.498-0.477c0.896,0,2.228,0.588,2.228,2.941V77h-1.204v-3.838c0-1.303-0.477-2.087-1.471-2.087
		c-0.701,0-1.247,0.518-1.457,1.12c-0.057,0.168-0.098,0.393-0.098,0.616V77h-1.205v-4.062c0-1.078-0.477-1.862-1.415-1.862
		c-0.771,0-1.331,0.616-1.526,1.232c-0.07,0.182-0.099,0.392-0.099,0.603V77h-1.204V72.056z"/>
	<path fill="#808080" d="M368.808,90.056c0-0.701-0.014-1.275-0.056-1.835h1.093l0.07,1.12h0.028
		c0.336-0.645,1.121-1.274,2.241-1.274c0.938,0,2.395,0.561,2.395,2.886V95h-1.232v-3.908c0-1.093-0.406-2.003-1.569-2.003
		c-0.812,0-1.443,0.574-1.653,1.261c-0.056,0.154-0.084,0.364-0.084,0.574V95h-1.233V90.056z"/>
	<path fill="#808080" d="M376.914,91.834c0.028,1.667,1.093,2.354,2.325,2.354c0.882,0,1.415-0.154,1.877-0.351l0.21,0.883
		c-0.434,0.196-1.176,0.42-2.255,0.42c-2.087,0-3.334-1.372-3.334-3.417c0-2.046,1.205-3.656,3.18-3.656
		c2.213,0,2.802,1.947,2.802,3.193c0,0.252-0.028,0.448-0.042,0.574H376.914z M380.528,90.952c0.014-0.785-0.322-2.003-1.709-2.003
		c-1.247,0-1.793,1.148-1.891,2.003H380.528z"/>
	<path fill="#808080" d="M382.891,90.056c0-0.701-0.014-1.275-0.056-1.835h1.079l0.056,1.092h0.042
		c0.378-0.644,1.009-1.246,2.129-1.246c0.924,0,1.625,0.561,1.919,1.358h0.028c0.21-0.378,0.477-0.672,0.756-0.882
		c0.406-0.309,0.854-0.477,1.499-0.477c0.896,0,2.227,0.588,2.227,2.941V95h-1.205v-3.838c0-1.303-0.476-2.087-1.471-2.087
		c-0.7,0-1.247,0.518-1.457,1.12c-0.056,0.168-0.098,0.393-0.098,0.616V95h-1.205v-4.062c0-1.078-0.477-1.862-1.415-1.862
		c-0.771,0-1.331,0.616-1.527,1.232c-0.07,0.182-0.098,0.392-0.098,0.603V95h-1.205V90.056z"/>
	<path fill="#808080" d="M394.904,91.834c0.028,1.667,1.092,2.354,2.325,2.354c0.882,0,1.415-0.154,1.877-0.351l0.21,0.883
		c-0.434,0.196-1.176,0.42-2.255,0.42c-2.087,0-3.334-1.372-3.334-3.417c0-2.046,1.205-3.656,3.18-3.656
		c2.213,0,2.802,1.947,2.802,3.193c0,0.252-0.028,0.448-0.042,0.574H394.904z M398.518,90.952c0.014-0.785-0.322-2.003-1.709-2.003
		c-1.247,0-1.793,1.148-1.891,2.003H398.518z"/>
	<path fill="#808080" d="M400.881,90.056c0-0.701-0.014-1.275-0.056-1.835h1.093l0.07,1.12h0.028
		c0.336-0.645,1.121-1.274,2.241-1.274c0.938,0,2.395,0.561,2.395,2.886V95h-1.232v-3.908c0-1.093-0.406-2.003-1.569-2.003
		c-0.812,0-1.443,0.574-1.653,1.261c-0.056,0.154-0.084,0.364-0.084,0.574V95h-1.233V90.056z"/>
	<path fill="#808080" d="M414.156,85.055v8.194c0,0.603,0.014,1.289,0.056,1.751h-1.106l-0.056-1.177h-0.028
		c-0.378,0.757-1.205,1.331-2.312,1.331c-1.639,0-2.899-1.387-2.899-3.446c-0.014-2.255,1.387-3.642,3.04-3.642
		c1.037,0,1.737,0.49,2.045,1.036h0.028v-4.048H414.156z M412.923,90.979c0-0.153-0.014-0.364-0.056-0.518
		c-0.182-0.785-0.854-1.429-1.779-1.429c-1.275,0-2.031,1.12-2.031,2.619c0,1.373,0.672,2.507,2.003,2.507
		c0.826,0,1.583-0.546,1.807-1.471c0.042-0.168,0.056-0.336,0.056-0.532V90.979z"/>
	<path fill="#808080" d="M421.52,93.151c0,0.7,0.014,1.316,0.056,1.849h-1.092l-0.07-1.106h-0.028
		c-0.322,0.546-1.037,1.261-2.241,1.261c-1.064,0-2.339-0.589-2.339-2.97v-3.964h1.233v3.754c0,1.288,0.392,2.157,1.513,2.157
		c0.826,0,1.401-0.574,1.625-1.121c0.07-0.182,0.112-0.406,0.112-0.63v-4.16h1.233V93.151z"/>
	<path fill="#808080" d="M423.21,90.056c0-0.701-0.014-1.275-0.056-1.835h1.079l0.056,1.092h0.042
		c0.378-0.644,1.009-1.246,2.129-1.246c0.924,0,1.625,0.561,1.918,1.358h0.028c0.21-0.378,0.477-0.672,0.757-0.882
		c0.406-0.309,0.854-0.477,1.498-0.477c0.896,0,2.228,0.588,2.228,2.941V95h-1.204v-3.838c0-1.303-0.477-2.087-1.471-2.087
		c-0.701,0-1.247,0.518-1.457,1.12c-0.057,0.168-0.098,0.393-0.098,0.616V95h-1.205v-4.062c0-1.078-0.477-1.862-1.415-1.862
		c-0.771,0-1.331,0.616-1.527,1.232c-0.07,0.182-0.098,0.392-0.098,0.603V95h-1.205V90.056z"/>
	<path fill="#808080" d="M439.662,85.293l-1.709,2.003h-0.883l1.232-2.003H439.662z M437.154,95v-6.779h1.232V95H437.154z"/>
	<path fill="#808080" d="M442.697,85.055h1.233V95h-1.233V85.055z"/>
	<path fill="#808080" d="M449.405,95l-0.098-0.854h-0.042c-0.379,0.532-1.107,1.009-2.073,1.009c-1.373,0-2.073-0.967-2.073-1.947
		c0-1.639,1.457-2.535,4.076-2.521v-0.14c0-0.561-0.154-1.569-1.541-1.569c-0.63,0-1.289,0.196-1.765,0.505l-0.28-0.812
		c0.561-0.364,1.373-0.603,2.227-0.603c2.074,0,2.578,1.415,2.578,2.773v2.535c0,0.589,0.027,1.163,0.111,1.625H449.405z
		 M449.224,91.54c-1.345-0.028-2.872,0.21-2.872,1.527c0,0.798,0.533,1.176,1.163,1.176c0.882,0,1.442-0.56,1.639-1.134
		c0.042-0.127,0.07-0.267,0.07-0.393V91.54z"/>
	<path fill="#808080" d="M452.05,90.056c0-0.701-0.014-1.275-0.056-1.835h1.092l0.07,1.12h0.028c0.336-0.645,1.12-1.274,2.241-1.274
		c0.938,0,2.395,0.561,2.395,2.886V95h-1.232v-3.908c0-1.093-0.406-2.003-1.568-2.003c-0.812,0-1.443,0.574-1.652,1.261
		c-0.057,0.154-0.084,0.364-0.084,0.574V95h-1.233V90.056z"/>
	<path fill="#808080" d="M465.325,85.055v8.194c0,0.603,0.014,1.289,0.056,1.751h-1.106l-0.056-1.177h-0.028
		c-0.378,0.757-1.204,1.331-2.312,1.331c-1.639,0-2.899-1.387-2.899-3.446c-0.015-2.255,1.387-3.642,3.04-3.642
		c1.036,0,1.736,0.49,2.045,1.036h0.027v-4.048H465.325z M464.092,90.979c0-0.153-0.014-0.364-0.056-0.518
		c-0.183-0.785-0.854-1.429-1.778-1.429c-1.275,0-2.031,1.12-2.031,2.619c0,1.373,0.672,2.507,2.003,2.507
		c0.826,0,1.583-0.546,1.807-1.471c0.042-0.168,0.056-0.336,0.056-0.532V90.979z"/>
	<path fill="#808080" d="M468.389,86.315c0.014,0.42-0.295,0.756-0.785,0.756c-0.434,0-0.742-0.336-0.742-0.756
		c0-0.435,0.322-0.771,0.771-0.771C468.094,85.545,468.389,85.881,468.389,86.315z M467.016,95v-6.779h1.232V95H467.016z"/>
	<path fill="#808080" d="M469.941,90.056c0-0.701-0.014-1.275-0.057-1.835h1.094l0.069,1.12h0.028
		c0.336-0.645,1.121-1.274,2.241-1.274c0.938,0,2.396,0.561,2.396,2.886V95h-1.232v-3.908c0-1.093-0.406-2.003-1.569-2.003
		c-0.812,0-1.442,0.574-1.653,1.261c-0.056,0.154-0.084,0.364-0.084,0.574V95h-1.232V90.056z"/>
	<path fill="#808080" d="M483.035,93.151c0,0.7,0.014,1.316,0.055,1.849h-1.092l-0.07-1.106H481.9
		c-0.322,0.546-1.037,1.261-2.242,1.261c-1.064,0-2.339-0.589-2.339-2.97v-3.964h1.233v3.754c0,1.288,0.392,2.157,1.512,2.157
		c0.826,0,1.401-0.574,1.625-1.121c0.07-0.182,0.112-0.406,0.112-0.63v-4.16h1.233V93.151z"/>
	<path fill="#808080" d="M489.851,85.293l-1.709,2.003h-0.882l1.232-2.003H489.851z M487.344,95v-6.779h1.232V95H487.344z"/>
	<path fill="#808080" d="M404.944,104.764c-0.252-0.014-0.574,0-0.924,0.056c-1.933,0.322-2.956,1.737-3.166,3.236h0.042
		c0.435-0.574,1.191-1.051,2.199-1.051c1.611,0,2.746,1.162,2.746,2.941c0,1.667-1.135,3.208-3.025,3.208
		c-1.947,0-3.222-1.513-3.222-3.88c0-1.793,0.645-3.208,1.541-4.104c0.756-0.742,1.765-1.205,2.914-1.345
		c0.364-0.057,0.672-0.07,0.896-0.07V104.764z M404.594,110.017c0-1.303-0.743-2.087-1.877-2.087c-0.743,0-1.429,0.462-1.765,1.12
		c-0.084,0.14-0.14,0.322-0.14,0.546c0.028,1.499,0.714,2.605,2.003,2.605C403.88,112.201,404.594,111.319,404.594,110.017z"/>
	<path fill="#808080" d="M406.677,112.271c0-0.519,0.35-0.883,0.84-0.883s0.827,0.364,0.827,0.883c0,0.504-0.322,0.883-0.841,0.883
		C407.013,113.154,406.677,112.775,406.677,112.271z"/>
	<path fill="#808080" d="M412.376,108.756v0.91h-3.459v-0.91H412.376z"/>
	<path fill="#808080" d="M415.75,105.044h-0.028l-1.583,0.854l-0.238-0.938l1.989-1.064h1.051V113h-1.191V105.044z"/>
	<path fill="#808080" d="M425.958,108.35c0,3.096-1.148,4.805-3.166,4.805c-1.779,0-2.984-1.667-3.012-4.679
		c0-3.054,1.316-4.734,3.166-4.734C424.865,103.741,425.958,105.45,425.958,108.35z M421.013,108.489
		c0,2.367,0.729,3.712,1.849,3.712c1.261,0,1.863-1.471,1.863-3.796c0-2.241-0.574-3.712-1.849-3.712
		C421.798,104.693,421.013,106.01,421.013,108.489z"/>
	<path fill="#808080" d="M426.836,112.271c0-0.519,0.35-0.883,0.84-0.883s0.827,0.364,0.827,0.883c0,0.504-0.322,0.883-0.841,0.883
		C427.172,113.154,426.836,112.775,426.836,112.271z"/>
	<path fill="#808080" d="M432.24,113c0.027-0.462,0.056-1.148,0.056-1.751v-8.194h1.219v4.258h0.028
		c0.434-0.756,1.219-1.246,2.311-1.246c1.682,0,2.872,1.4,2.857,3.46c0,2.423-1.526,3.628-3.039,3.628
		c-0.98,0-1.766-0.379-2.27-1.275h-0.042L433.305,113H432.24z M433.515,110.282c0,0.154,0.028,0.309,0.056,0.448
		c0.238,0.854,0.953,1.443,1.85,1.443c1.289,0,2.059-1.051,2.059-2.605c0-1.359-0.7-2.521-2.017-2.521
		c-0.841,0-1.625,0.574-1.878,1.513c-0.027,0.14-0.069,0.309-0.069,0.504V110.282z"/>
	<path fill="#808080" d="M440.599,109.834c0.028,1.667,1.093,2.354,2.325,2.354c0.883,0,1.414-0.154,1.877-0.351l0.21,0.883
		c-0.435,0.196-1.177,0.42-2.255,0.42c-2.088,0-3.334-1.372-3.334-3.417c0-2.046,1.205-3.656,3.18-3.656
		c2.213,0,2.802,1.947,2.802,3.193c0,0.252-0.028,0.448-0.042,0.574H440.599z M444.213,108.952c0.014-0.785-0.322-2.003-1.709-2.003
		c-1.247,0-1.793,1.148-1.891,2.003H444.213z"/>
	<path fill="#808080" d="M447.795,109.33h0.027c0.168-0.238,0.406-0.532,0.603-0.771l1.989-2.339h1.484l-2.619,2.787l2.983,3.992
		h-1.499l-2.339-3.25l-0.63,0.7V113h-1.219v-9.945h1.219V109.33z"/>
	<path fill="#808080" d="M454.01,109.33h0.028c0.169-0.238,0.406-0.532,0.603-0.771l1.989-2.339h1.484l-2.619,2.787l2.983,3.992
		h-1.498l-2.34-3.25l-0.631,0.7V113h-1.219v-9.945h1.219V109.33z"/>
	<path fill="#808080" d="M458.713,107.341c0-0.519,0.351-0.883,0.841-0.883s0.812,0.364,0.827,0.883c0,0.49-0.322,0.868-0.842,0.868
		C459.049,108.209,458.713,107.831,458.713,107.341z M458.713,112.285c0-0.518,0.351-0.882,0.841-0.882s0.812,0.364,0.827,0.882
		c0,0.49-0.322,0.869-0.842,0.869C459.049,113.154,458.713,112.775,458.713,112.285z"/>
</g>
<rect x="654.5" y="3.5" fill="#FFFFFF" stroke="#B3B3B3" width="167" height="119"/>
<g>
	<path fill="#3D6088" d="M697.495,78.462h-0.072l-4.463,2.124l-0.9-4.104l6.191-2.879h4.535V97h-5.291V78.462z"/>
	<path fill="#3D6088" d="M720.174,97v-5.579h-10.366v-3.564l8.854-14.254h6.695v13.714h2.808v4.104h-2.808V97H720.174z
		 M720.174,87.317v-5.184c0-1.404,0.072-2.844,0.181-4.355h-0.145c-0.756,1.512-1.368,2.88-2.159,4.355l-3.132,5.111v0.072H720.174z
		"/>
	<path fill="#3D6088" d="M730.759,94.084c0-1.944,1.332-3.348,3.239-3.348c1.908,0,3.204,1.368,3.204,3.348
		c0,1.908-1.296,3.311-3.24,3.311C732.091,97.396,730.759,95.992,730.759,94.084z"/>
	<path fill="#3D6088" d="M749.513,97v-5.579h-10.366v-3.564l8.854-14.254h6.695v13.714h2.808v4.104h-2.808V97H749.513z
		 M749.513,87.317v-5.184c0-1.404,0.072-2.844,0.181-4.355h-0.145c-0.756,1.512-1.368,2.88-2.159,4.355l-3.132,5.111v0.072H749.513z
		"/>
	<path fill="#3D6088" d="M774.748,77.49c-0.612-0.036-1.26,0-2.124,0.072c-4.859,0.396-7.02,2.879-7.631,5.615h0.107
		c1.152-1.188,2.772-1.872,4.968-1.872c3.924,0,7.235,2.771,7.235,7.631c0,4.644-3.563,8.458-8.64,8.458
		c-6.227,0-9.286-4.643-9.286-10.222c0-4.392,1.619-8.063,4.14-10.403c2.339-2.124,5.363-3.275,9.034-3.456
		c1.008-0.072,1.656-0.072,2.196-0.036V77.49z M771.76,89.225c0-2.16-1.151-4.032-3.491-4.032c-1.476,0-2.699,0.9-3.239,2.088
		c-0.145,0.288-0.216,0.72-0.216,1.368c0.107,2.484,1.295,4.715,3.779,4.715C770.536,93.364,771.76,91.601,771.76,89.225z"/>
	<path fill="#3D6088" d="M796.563,73.603v3.456L786.916,97h-5.795l9.646-18.826v-0.072h-10.727v-4.5H796.563z"/>
</g>
<g>
	<path fill="#808080" d="M682.357,34v-9.441h1.331l3.025,4.777c0.7,1.106,1.247,2.101,1.694,3.067l0.029-0.015
		c-0.113-1.26-0.141-2.409-0.141-3.88v-3.95h1.148V34h-1.232l-2.998-4.791c-0.658-1.05-1.289-2.129-1.765-3.151l-0.042,0.014
		c0.07,1.191,0.098,2.325,0.098,3.895V34H682.357z"/>
	<path fill="#808080" d="M691.863,30.834c0.028,1.667,1.093,2.354,2.326,2.354c0.882,0,1.414-0.154,1.877-0.351l0.209,0.883
		c-0.434,0.196-1.176,0.42-2.254,0.42c-2.088,0-3.334-1.372-3.334-3.417c0-2.046,1.204-3.656,3.18-3.656
		c2.213,0,2.801,1.947,2.801,3.193c0,0.252-0.027,0.448-0.041,0.574H691.863z M695.478,29.952c0.015-0.785-0.322-2.003-1.709-2.003
		c-1.247,0-1.793,1.148-1.891,2.003H695.478z"/>
	<path fill="#808080" d="M697.841,29.056c0-0.701-0.014-1.275-0.056-1.835h1.078l0.057,1.092h0.041
		c0.379-0.644,1.01-1.246,2.13-1.246c0.925,0,1.624,0.561,1.919,1.358h0.027c0.211-0.378,0.477-0.672,0.757-0.882
		c0.406-0.309,0.854-0.477,1.499-0.477c0.896,0,2.227,0.588,2.227,2.941V34h-1.204v-3.838c0-1.303-0.476-2.087-1.471-2.087
		c-0.7,0-1.247,0.518-1.457,1.12c-0.056,0.168-0.098,0.393-0.098,0.616V34h-1.205v-4.062c0-1.078-0.476-1.862-1.415-1.862
		c-0.77,0-1.33,0.616-1.526,1.232c-0.069,0.182-0.099,0.392-0.099,0.603V34h-1.204V29.056z"/>
	<path fill="#808080" d="M709.854,30.834c0.027,1.667,1.093,2.354,2.325,2.354c0.882,0,1.415-0.154,1.877-0.351l0.21,0.883
		c-0.434,0.196-1.176,0.42-2.255,0.42c-2.087,0-3.334-1.372-3.334-3.417c0-2.046,1.204-3.656,3.18-3.656
		c2.214,0,2.802,1.947,2.802,3.193c0,0.252-0.028,0.448-0.042,0.574H709.854z M713.467,29.952c0.015-0.785-0.322-2.003-1.709-2.003
		c-1.246,0-1.793,1.148-1.891,2.003H713.467z"/>
	<path fill="#808080" d="M715.83,29.056c0-0.701-0.014-1.275-0.056-1.835h1.093l0.07,1.12h0.027
		c0.336-0.645,1.121-1.274,2.242-1.274c0.938,0,2.395,0.561,2.395,2.886V34h-1.232v-3.908c0-1.093-0.406-2.003-1.568-2.003
		c-0.812,0-1.443,0.574-1.653,1.261c-0.056,0.154-0.084,0.364-0.084,0.574V34h-1.233V29.056z"/>
	<path fill="#808080" d="M729.105,24.055v8.194c0,0.603,0.014,1.289,0.057,1.751h-1.107l-0.056-1.177h-0.028
		c-0.378,0.757-1.204,1.331-2.311,1.331c-1.639,0-2.9-1.387-2.9-3.446c-0.014-2.255,1.387-3.642,3.04-3.642
		c1.036,0,1.737,0.49,2.046,1.036h0.027v-4.048H729.105z M727.873,29.979c0-0.153-0.014-0.364-0.057-0.518
		c-0.182-0.785-0.854-1.429-1.778-1.429c-1.274,0-2.031,1.12-2.031,2.619c0,1.373,0.673,2.507,2.003,2.507
		c0.826,0,1.583-0.546,1.807-1.471c0.043-0.168,0.057-0.336,0.057-0.532V29.979z"/>
	<path fill="#808080" d="M736.47,32.151c0,0.7,0.014,1.316,0.056,1.849h-1.092l-0.07-1.106h-0.028
		c-0.322,0.546-1.036,1.261-2.241,1.261c-1.064,0-2.34-0.589-2.34-2.97v-3.964h1.233v3.754c0,1.288,0.392,2.157,1.513,2.157
		c0.826,0,1.4-0.574,1.625-1.121c0.07-0.182,0.111-0.406,0.111-0.63v-4.16h1.233V32.151z"/>
	<path fill="#808080" d="M738.16,29.336c0-0.799-0.014-1.485-0.057-2.115h1.079l0.042,1.33h0.057
		c0.308-0.91,1.051-1.484,1.877-1.484c0.14,0,0.238,0.014,0.35,0.042v1.162c-0.126-0.027-0.252-0.042-0.42-0.042
		c-0.869,0-1.484,0.659-1.652,1.583c-0.029,0.168-0.057,0.364-0.057,0.574V34h-1.219V29.336z"/>
	<path fill="#808080" d="M744.838,32.739c0.365,0.238,1.009,0.49,1.625,0.49c0.896,0,1.316-0.448,1.316-1.009
		c0-0.588-0.35-0.91-1.26-1.246c-1.219-0.435-1.793-1.106-1.793-1.919c0-1.093,0.883-1.989,2.339-1.989
		c0.687,0,1.289,0.196,1.667,0.42l-0.309,0.896c-0.266-0.168-0.756-0.392-1.387-0.392c-0.729,0-1.135,0.42-1.135,0.924
		c0,0.561,0.406,0.812,1.289,1.148c1.177,0.448,1.779,1.037,1.779,2.046c0,1.19-0.925,2.03-2.535,2.03
		c-0.742,0-1.43-0.182-1.905-0.462L744.838,32.739z"/>
	<path fill="#808080" d="M750.887,30.834c0.027,1.667,1.093,2.354,2.325,2.354c0.882,0,1.415-0.154,1.877-0.351l0.21,0.883
		c-0.434,0.196-1.176,0.42-2.255,0.42c-2.087,0-3.334-1.372-3.334-3.417c0-2.046,1.204-3.656,3.18-3.656
		c2.214,0,2.802,1.947,2.802,3.193c0,0.252-0.028,0.448-0.042,0.574H750.887z M754.5,29.952c0.015-0.785-0.322-2.003-1.709-2.003
		c-1.246,0-1.793,1.148-1.891,2.003H754.5z"/>
	<path fill="#808080" d="M756.863,29.056c0-0.701-0.014-1.275-0.056-1.835h1.079l0.056,1.092h0.042
		c0.379-0.644,1.009-1.246,2.129-1.246c0.925,0,1.625,0.561,1.92,1.358h0.027c0.211-0.378,0.477-0.672,0.756-0.882
		c0.406-0.309,0.855-0.477,1.5-0.477c0.896,0,2.227,0.588,2.227,2.941V34h-1.205v-3.838c0-1.303-0.476-2.087-1.471-2.087
		c-0.699,0-1.246,0.518-1.457,1.12c-0.055,0.168-0.098,0.393-0.098,0.616V34h-1.204v-4.062c0-1.078-0.477-1.862-1.415-1.862
		c-0.771,0-1.33,0.616-1.527,1.232c-0.069,0.182-0.098,0.392-0.098,0.603V34h-1.205V29.056z"/>
	<path fill="#808080" d="M770.808,24.055h1.233v4.23h0.027c0.196-0.351,0.504-0.658,0.883-0.869c0.363-0.21,0.799-0.35,1.26-0.35
		c0.911,0,2.367,0.561,2.367,2.899V34h-1.232v-3.895c0-1.092-0.406-2.017-1.568-2.017c-0.799,0-1.429,0.561-1.652,1.232
		c-0.07,0.168-0.084,0.351-0.084,0.589V34h-1.233V24.055z"/>
	<path fill="#808080" d="M781.981,34l-0.098-0.854h-0.042c-0.379,0.532-1.107,1.009-2.073,1.009c-1.373,0-2.073-0.967-2.073-1.947
		c0-1.639,1.457-2.535,4.076-2.521v-0.14c0-0.561-0.154-1.569-1.541-1.569c-0.63,0-1.289,0.196-1.765,0.505l-0.28-0.812
		c0.561-0.364,1.373-0.603,2.227-0.603c2.074,0,2.578,1.415,2.578,2.773v2.535c0,0.589,0.027,1.163,0.111,1.625H781.981z
		 M781.8,30.54c-1.345-0.028-2.872,0.21-2.872,1.527c0,0.798,0.533,1.176,1.163,1.176c0.882,0,1.442-0.56,1.639-1.134
		c0.042-0.127,0.07-0.267,0.07-0.393V30.54z"/>
	<path fill="#808080" d="M784.752,34v-5.841h-0.953v-0.938h0.953v-0.322c0-0.953,0.21-1.821,0.784-2.367
		c0.462-0.448,1.079-0.631,1.653-0.631c0.434,0,0.812,0.099,1.051,0.196l-0.169,0.952c-0.183-0.084-0.435-0.153-0.784-0.153
		c-1.051,0-1.316,0.924-1.316,1.961v0.364h1.639v0.938h-1.639V34H784.752z"/>
	<path fill="#808080" d="M792.117,34l-0.098-0.854h-0.042c-0.378,0.532-1.106,1.009-2.073,1.009c-1.373,0-2.073-0.967-2.073-1.947
		c0-1.639,1.457-2.535,4.076-2.521v-0.14c0-0.561-0.153-1.569-1.541-1.569c-0.63,0-1.288,0.196-1.765,0.505l-0.28-0.812
		c0.561-0.364,1.373-0.603,2.228-0.603c2.072,0,2.577,1.415,2.577,2.773v2.535c0,0.589,0.028,1.163,0.112,1.625H792.117z
		 M791.936,30.54c-1.345-0.028-2.871,0.21-2.871,1.527c0,0.798,0.531,1.176,1.162,1.176c0.883,0,1.442-0.56,1.639-1.134
		c0.042-0.127,0.07-0.267,0.07-0.393V30.54z"/>
	<path fill="#808080" d="M677.856,50.739c0.364,0.238,1.009,0.49,1.625,0.49c0.896,0,1.316-0.448,1.316-1.009
		c0-0.588-0.351-0.91-1.261-1.246c-1.219-0.435-1.793-1.106-1.793-1.919c0-1.093,0.883-1.989,2.34-1.989
		c0.686,0,1.288,0.196,1.666,0.42l-0.308,0.896c-0.267-0.168-0.757-0.392-1.387-0.392c-0.729,0-1.135,0.42-1.135,0.924
		c0,0.561,0.406,0.812,1.288,1.148c1.178,0.448,1.779,1.037,1.779,2.046c0,1.19-0.924,2.03-2.535,2.03
		c-0.742,0-1.429-0.182-1.904-0.462L677.856,50.739z"/>
	<path fill="#808080" d="M683.695,45.221l1.33,3.81c0.225,0.616,0.406,1.177,0.547,1.737h0.041c0.154-0.561,0.351-1.121,0.574-1.737
		l1.317-3.81h1.288L686.132,52h-1.177l-2.577-6.779H683.695z"/>
	<path fill="#808080" d="M693.355,52l-0.098-0.854h-0.041c-0.379,0.532-1.107,1.009-2.074,1.009c-1.373,0-2.072-0.967-2.072-1.947
		c0-1.639,1.457-2.535,4.076-2.521v-0.14c0-0.561-0.154-1.569-1.541-1.569c-0.631,0-1.289,0.196-1.766,0.505l-0.279-0.812
		c0.561-0.364,1.372-0.603,2.227-0.603c2.073,0,2.578,1.415,2.578,2.773v2.535c0,0.589,0.027,1.163,0.111,1.625H693.355z
		 M693.174,48.54c-1.345-0.028-2.871,0.21-2.871,1.527c0,0.798,0.532,1.176,1.162,1.176c0.883,0,1.443-0.56,1.639-1.134
		c0.043-0.127,0.07-0.267,0.07-0.393V48.54z"/>
	<path fill="#808080" d="M696,47.336c0-0.799-0.014-1.485-0.056-2.115h1.079l0.041,1.33h0.057c0.309-0.91,1.051-1.484,1.877-1.484
		c0.141,0,0.238,0.014,0.351,0.042v1.162c-0.126-0.027-0.253-0.042-0.421-0.042c-0.868,0-1.484,0.659-1.652,1.583
		c-0.028,0.168-0.057,0.364-0.057,0.574V52H696V47.336z"/>
	<path fill="#808080" d="M703.982,52l-0.098-0.854h-0.042c-0.378,0.532-1.106,1.009-2.073,1.009c-1.373,0-2.073-0.967-2.073-1.947
		c0-1.639,1.457-2.535,4.076-2.521v-0.14c0-0.561-0.153-1.569-1.541-1.569c-0.63,0-1.288,0.196-1.765,0.505l-0.28-0.812
		c0.561-0.364,1.373-0.603,2.228-0.603c2.072,0,2.577,1.415,2.577,2.773v2.535c0,0.589,0.028,1.163,0.112,1.625H703.982z
		 M703.801,48.54c-1.345-0.028-2.871,0.21-2.871,1.527c0,0.798,0.531,1.176,1.162,1.176c0.883,0,1.442-0.56,1.639-1.134
		c0.042-0.127,0.07-0.267,0.07-0.393V48.54z"/>
	<path fill="#808080" d="M706.963,44.296l1.625-0.771c-0.42-0.309-0.939-0.588-1.457-0.841l0.532-0.771
		c0.673,0.309,1.372,0.701,1.976,1.135l1.793-0.854l0.293,0.616l-1.484,0.701c0.771,0.63,1.387,1.387,1.793,2.227
		c0.379,0.785,0.588,1.682,0.588,2.718c0.015,2.605-1.652,3.698-3.277,3.698c-1.835,0-3.207-1.345-3.207-3.46
		c0-2.199,1.541-3.474,3.151-3.474c0.519,0,1.022,0.098,1.555,0.602l0.028-0.042c-0.406-0.672-0.939-1.274-1.653-1.807l-1.989,0.925
		L706.963,44.296z M711.361,48.596c0-0.882-0.127-1.442-0.477-1.877c-0.309-0.35-0.771-0.658-1.484-0.658
		c-1.457,0-2.018,1.499-2.018,2.62c0,1.429,0.826,2.549,1.961,2.549C710.576,51.229,711.361,50.137,711.361,48.596z"/>
	<path fill="#808080" d="M717.687,48.33h0.028c0.168-0.238,0.406-0.532,0.602-0.771l1.99-2.339h1.484l-2.619,2.787L722.154,52
		h-1.498l-2.34-3.25l-0.63,0.7V52h-1.219v-9.945h1.219V48.33z"/>
	<path fill="#808080" d="M728.819,48.554c0,2.508-1.737,3.601-3.376,3.601c-1.834,0-3.25-1.345-3.25-3.488
		c0-2.27,1.485-3.6,3.362-3.6C727.503,45.066,728.819,46.481,728.819,48.554z M723.44,48.624c0,1.485,0.854,2.605,2.06,2.605
		c1.176,0,2.059-1.106,2.059-2.634c0-1.148-0.574-2.604-2.031-2.604S723.44,47.336,723.44,48.624z M723.496,43.302
		c0-0.393,0.322-0.715,0.715-0.715s0.687,0.309,0.687,0.715c0,0.378-0.28,0.714-0.687,0.714
		C723.791,44.016,723.496,43.68,723.496,43.302z M726.102,43.302c0-0.393,0.309-0.715,0.701-0.715s0.686,0.309,0.686,0.715
		c0,0.378-0.279,0.714-0.686,0.714C726.383,44.016,726.102,43.68,726.102,43.302z"/>
	<path fill="#808080" d="M730.02,47.056c0-0.701-0.014-1.275-0.056-1.835h1.093l0.07,1.12h0.027
		c0.336-0.645,1.121-1.274,2.242-1.274c0.938,0,2.395,0.561,2.395,2.886V52h-1.232v-3.908c0-1.093-0.406-2.003-1.568-2.003
		c-0.812,0-1.443,0.574-1.653,1.261c-0.056,0.154-0.084,0.364-0.084,0.574V52h-1.233V47.056z"/>
	<path fill="#808080" d="M737.439,47.056c0-0.701-0.014-1.275-0.056-1.835h1.093l0.07,1.12h0.027
		c0.336-0.645,1.121-1.274,2.242-1.274c0.938,0,2.395,0.561,2.395,2.886V52h-1.232v-3.908c0-1.093-0.406-2.003-1.568-2.003
		c-0.812,0-1.443,0.574-1.653,1.261c-0.056,0.154-0.084,0.364-0.084,0.574V52h-1.233V47.056z"/>
	<path fill="#808080" d="M750.533,50.151c0,0.7,0.014,1.316,0.056,1.849h-1.093l-0.07-1.106h-0.027
		c-0.322,0.546-1.037,1.261-2.241,1.261c-1.064,0-2.339-0.589-2.339-2.97v-3.964h1.232v3.754c0,1.288,0.393,2.157,1.513,2.157
		c0.826,0,1.401-0.574,1.625-1.121c0.069-0.182,0.112-0.406,0.112-0.63v-4.16h1.232V50.151z"/>
	<path fill="#808080" d="M752.224,47.056c0-0.701-0.014-1.275-0.056-1.835h1.092l0.07,1.12h0.028
		c0.336-0.645,1.12-1.274,2.241-1.274c0.938,0,2.395,0.561,2.395,2.886V52h-1.232v-3.908c0-1.093-0.406-2.003-1.568-2.003
		c-0.812,0-1.443,0.574-1.652,1.261c-0.057,0.154-0.084,0.364-0.084,0.574V52h-1.233V47.056z"/>
	<path fill="#808080" d="M761.018,43.315c0.014,0.42-0.295,0.756-0.785,0.756c-0.434,0-0.742-0.336-0.742-0.756
		c0-0.435,0.322-0.771,0.77-0.771C760.723,42.545,761.018,42.881,761.018,43.315z M759.645,52v-6.779h1.232V52H759.645z"/>
	<path fill="#808080" d="M762.57,47.056c0-0.701-0.015-1.275-0.057-1.835h1.093l0.07,1.12h0.028c0.336-0.645,1.12-1.274,2.24-1.274
		c0.939,0,2.396,0.561,2.396,2.886V52h-1.232v-3.908c0-1.093-0.406-2.003-1.569-2.003c-0.812,0-1.442,0.574-1.652,1.261
		c-0.057,0.154-0.084,0.364-0.084,0.574V52h-1.232V47.056z"/>
	<path fill="#808080" d="M769.99,47.056c0-0.701-0.015-1.275-0.057-1.835h1.093l0.07,1.12h0.028c0.336-0.645,1.12-1.274,2.24-1.274
		c0.939,0,2.396,0.561,2.396,2.886V52h-1.232v-3.908c0-1.093-0.406-2.003-1.569-2.003c-0.812,0-1.442,0.574-1.652,1.261
		c-0.057,0.154-0.084,0.364-0.084,0.574V52h-1.232V47.056z"/>
	<path fill="#808080" d="M778.783,43.315c0.014,0.42-0.295,0.756-0.785,0.756c-0.434,0-0.742-0.336-0.742-0.756
		c0-0.435,0.322-0.771,0.77-0.771C778.488,42.545,778.783,42.881,778.783,43.315z M777.41,52v-6.779h1.232V52H777.41z"/>
	<path fill="#808080" d="M785.461,42.293l-1.709,2.003h-0.883l1.233-2.003H785.461z M782.953,52v-6.779h1.233V52H782.953z"/>
	<path fill="#808080" d="M792.251,52l-0.098-0.854h-0.042c-0.379,0.532-1.107,1.009-2.073,1.009c-1.373,0-2.073-0.967-2.073-1.947
		c0-1.639,1.457-2.535,4.076-2.521v-0.14c0-0.561-0.154-1.569-1.541-1.569c-0.63,0-1.289,0.196-1.765,0.505l-0.28-0.812
		c0.561-0.364,1.373-0.603,2.227-0.603c2.074,0,2.578,1.415,2.578,2.773v2.535c0,0.589,0.027,1.163,0.111,1.625H792.251z
		 M792.069,48.54c-1.345-0.028-2.872,0.21-2.872,1.527c0,0.798,0.533,1.176,1.163,1.176c0.882,0,1.442-0.56,1.639-1.134
		c0.042-0.127,0.07-0.267,0.07-0.393V48.54z M792.686,42.293l-1.709,2.003h-0.883l1.232-2.003H792.686z"/>
	<path fill="#808080" d="M794.895,47.336c0-0.799-0.014-1.485-0.056-2.115h1.079l0.041,1.33h0.057
		c0.309-0.91,1.051-1.484,1.877-1.484c0.141,0,0.238,0.014,0.351,0.042v1.162c-0.126-0.027-0.253-0.042-0.421-0.042
		c-0.868,0-1.484,0.659-1.652,1.583c-0.028,0.168-0.057,0.364-0.057,0.574V52h-1.219V47.336z"/>
	<path fill="#808080" d="M798.829,46.341c0-0.519,0.351-0.883,0.841-0.883s0.812,0.364,0.826,0.883c0,0.49-0.322,0.868-0.841,0.868
		C799.165,47.209,798.829,46.831,798.829,46.341z M798.829,51.285c0-0.518,0.351-0.882,0.841-0.882s0.812,0.364,0.826,0.882
		c0,0.49-0.322,0.869-0.841,0.869C799.165,52.154,798.829,51.775,798.829,51.285z"/>
</g>
<line fill="none" stroke="#CCCCCC" stroke-width="4" x1="2" y1="326" x2="853" y2="326"/>
<polyline fill="none" stroke="#3D6088" stroke-width="4" points="6,245 86,226 227,219 332,253 454,266 552,256 722,239 838,280 "/>
<g>
	<path fill="#B3B3B3" d="M18.69,343.072c-0.149-0.196-0.355-0.366-0.616-0.512c-0.262-0.145-0.546-0.217-0.854-0.217
		c-0.271,0-0.518,0.057-0.742,0.168c-0.224,0.112-0.336,0.299-0.336,0.561c0,0.261,0.124,0.445,0.371,0.553
		c0.247,0.107,0.609,0.217,1.085,0.329c0.252,0.056,0.506,0.131,0.763,0.224c0.257,0.094,0.49,0.217,0.7,0.371
		s0.38,0.346,0.511,0.574c0.131,0.229,0.196,0.507,0.196,0.833c0,0.411-0.077,0.759-0.231,1.043
		c-0.154,0.285-0.359,0.516-0.616,0.693c-0.257,0.177-0.555,0.306-0.896,0.385s-0.693,0.119-1.057,0.119
		c-0.522,0-1.031-0.096-1.526-0.287s-0.905-0.465-1.232-0.819l1.106-1.036c0.187,0.243,0.429,0.443,0.728,0.603
		c0.299,0.158,0.63,0.237,0.994,0.237c0.121,0,0.245-0.014,0.371-0.042c0.126-0.027,0.242-0.071,0.35-0.133
		c0.107-0.061,0.194-0.142,0.259-0.245c0.065-0.103,0.098-0.229,0.098-0.378c0-0.279-0.128-0.48-0.385-0.602
		s-0.642-0.243-1.155-0.364c-0.252-0.056-0.497-0.128-0.735-0.217c-0.238-0.089-0.45-0.205-0.637-0.35
		c-0.187-0.146-0.336-0.324-0.448-0.539c-0.112-0.215-0.168-0.481-0.168-0.799c0-0.373,0.077-0.694,0.231-0.966
		c0.154-0.271,0.357-0.492,0.609-0.665c0.252-0.172,0.536-0.301,0.854-0.385c0.317-0.084,0.644-0.126,0.98-0.126
		c0.485,0,0.959,0.084,1.421,0.252s0.828,0.425,1.099,0.771L18.69,343.072z"/>
	<path fill="#B3B3B3" d="M27.636,344.724c0,0.075,0,0.149,0,0.225c0,0.074-0.005,0.149-0.014,0.224h-5.11
		c0.019,0.243,0.082,0.465,0.189,0.665c0.107,0.201,0.25,0.373,0.427,0.519c0.177,0.145,0.378,0.259,0.602,0.343
		c0.224,0.084,0.457,0.126,0.7,0.126c0.42,0,0.775-0.077,1.064-0.231c0.29-0.153,0.527-0.366,0.714-0.637l1.12,0.896
		c-0.663,0.896-1.624,1.345-2.884,1.345c-0.523,0-1.003-0.082-1.442-0.245c-0.439-0.163-0.819-0.395-1.141-0.693
		s-0.574-0.665-0.756-1.099c-0.182-0.435-0.273-0.927-0.273-1.478c0-0.541,0.091-1.033,0.273-1.477
		c0.182-0.443,0.432-0.821,0.749-1.134c0.317-0.312,0.693-0.556,1.127-0.729s0.903-0.259,1.407-0.259
		c0.467,0,0.898,0.077,1.295,0.231c0.397,0.153,0.74,0.383,1.029,0.686c0.289,0.304,0.516,0.682,0.679,1.134
		C27.554,343.588,27.636,344.117,27.636,344.724z M25.956,343.968c0-0.215-0.031-0.42-0.091-0.616
		c-0.061-0.195-0.156-0.368-0.287-0.518s-0.296-0.269-0.497-0.357c-0.201-0.088-0.437-0.133-0.707-0.133
		c-0.504,0-0.931,0.152-1.281,0.455c-0.35,0.304-0.544,0.693-0.581,1.169H25.956z"/>
	<path fill="#B3B3B3" d="M30.87,341.28v0.938h0.042c0.084-0.13,0.193-0.264,0.329-0.398c0.135-0.136,0.301-0.257,0.497-0.364
		c0.196-0.107,0.418-0.196,0.665-0.266c0.247-0.07,0.525-0.105,0.833-0.105c0.476,0,0.915,0.091,1.316,0.273
		c0.401,0.182,0.747,0.432,1.036,0.749c0.289,0.317,0.513,0.69,0.672,1.119c0.159,0.43,0.238,0.892,0.238,1.387
		c0,0.494-0.077,0.959-0.231,1.393c-0.154,0.435-0.374,0.812-0.658,1.134c-0.285,0.322-0.63,0.579-1.036,0.771
		c-0.406,0.191-0.866,0.287-1.379,0.287c-0.476,0-0.912-0.099-1.309-0.294c-0.396-0.196-0.702-0.462-0.917-0.799h-0.028v4.257h-1.68
		v-10.08H30.87z M34.79,344.612c0-0.262-0.04-0.521-0.119-0.777c-0.08-0.257-0.198-0.487-0.357-0.693
		c-0.159-0.205-0.359-0.37-0.602-0.497c-0.243-0.126-0.527-0.188-0.854-0.188c-0.308,0-0.583,0.065-0.826,0.196
		s-0.45,0.299-0.623,0.504c-0.173,0.205-0.304,0.438-0.392,0.7c-0.089,0.261-0.133,0.522-0.133,0.783
		c0,0.262,0.044,0.521,0.133,0.777c0.088,0.257,0.219,0.488,0.392,0.693c0.172,0.205,0.38,0.371,0.623,0.497
		s0.518,0.188,0.826,0.188c0.327,0,0.611-0.065,0.854-0.196c0.243-0.13,0.443-0.298,0.602-0.504
		c0.159-0.205,0.277-0.438,0.357-0.699C34.75,345.135,34.79,344.873,34.79,344.612z"/>
	<path fill="#B3B3B3" d="M37.155,342.624v-1.344h1.176v-1.946h1.652v1.946h1.68v1.344h-1.68v3.122c0,0.299,0.054,0.546,0.161,0.742
		c0.107,0.195,0.348,0.294,0.721,0.294c0.112,0,0.233-0.012,0.364-0.035c0.13-0.023,0.247-0.059,0.35-0.105l0.056,1.316
		c-0.149,0.056-0.327,0.101-0.532,0.133c-0.206,0.033-0.402,0.049-0.588,0.049c-0.448,0-0.812-0.062-1.092-0.188
		c-0.28-0.126-0.502-0.299-0.665-0.519c-0.164-0.219-0.275-0.471-0.336-0.756c-0.061-0.284-0.091-0.59-0.091-0.917v-3.136H37.155z"
		/>
	<path fill="#B3B3B3" d="M140.489,344.612c0-0.532,0.095-1.016,0.287-1.449c0.191-0.435,0.45-0.805,0.777-1.113
		c0.327-0.308,0.714-0.546,1.162-0.714c0.448-0.168,0.924-0.252,1.428-0.252s0.98,0.084,1.428,0.252
		c0.448,0.168,0.835,0.406,1.162,0.714c0.327,0.309,0.586,0.679,0.777,1.113c0.191,0.434,0.287,0.917,0.287,1.449
		c0,0.531-0.096,1.018-0.287,1.456c-0.191,0.438-0.451,0.814-0.777,1.127s-0.714,0.558-1.162,0.734
		c-0.448,0.178-0.924,0.267-1.428,0.267s-0.98-0.089-1.428-0.267c-0.448-0.177-0.835-0.422-1.162-0.734
		c-0.327-0.312-0.586-0.688-0.777-1.127S140.489,345.144,140.489,344.612z M142.197,344.612c0,0.261,0.04,0.522,0.119,0.784
		c0.079,0.261,0.198,0.494,0.357,0.699c0.159,0.206,0.359,0.374,0.602,0.504c0.243,0.131,0.532,0.196,0.868,0.196
		s0.625-0.065,0.868-0.196c0.242-0.13,0.443-0.298,0.602-0.504c0.158-0.205,0.277-0.438,0.357-0.699
		c0.079-0.262,0.119-0.523,0.119-0.784c0-0.262-0.04-0.521-0.119-0.777c-0.08-0.257-0.199-0.487-0.357-0.693
		c-0.159-0.205-0.36-0.37-0.602-0.497c-0.243-0.126-0.532-0.188-0.868-0.188s-0.625,0.062-0.868,0.188
		c-0.243,0.127-0.443,0.292-0.602,0.497c-0.159,0.206-0.278,0.437-0.357,0.693S142.197,344.351,142.197,344.612z"/>
	<path fill="#B3B3B3" d="M149.449,337.416h1.68v6.692h0.042l2.548-2.828h2.156l-2.912,3.038l3.094,3.682h-2.226l-2.66-3.444h-0.042
		V348h-1.68V337.416z"/>
	<path fill="#B3B3B3" d="M156.057,342.624v-1.344h1.176v-1.946h1.652v1.946h1.68v1.344h-1.68v3.122c0,0.299,0.054,0.546,0.161,0.742
		c0.107,0.195,0.348,0.294,0.721,0.294c0.112,0,0.233-0.012,0.364-0.035c0.13-0.023,0.247-0.059,0.35-0.105l0.056,1.316
		c-0.149,0.056-0.327,0.101-0.532,0.133c-0.206,0.033-0.402,0.049-0.588,0.049c-0.448,0-0.812-0.062-1.092-0.188
		c-0.28-0.126-0.502-0.299-0.665-0.519c-0.164-0.219-0.275-0.471-0.336-0.756c-0.061-0.284-0.091-0.59-0.091-0.917v-3.136H156.057z"
		/>
	<path fill="#B3B3B3" d="M235.283,341.28h1.596v1.078h0.028c0.149-0.336,0.408-0.633,0.777-0.89
		c0.369-0.256,0.805-0.385,1.309-0.385c0.439,0,0.814,0.077,1.127,0.231c0.312,0.153,0.569,0.356,0.77,0.608
		c0.2,0.252,0.347,0.542,0.441,0.868c0.093,0.327,0.14,0.663,0.14,1.008v4.2h-1.68v-3.724c0-0.196-0.014-0.401-0.042-0.616
		c-0.028-0.215-0.089-0.408-0.182-0.581s-0.222-0.315-0.385-0.427c-0.164-0.112-0.381-0.168-0.651-0.168s-0.504,0.054-0.7,0.16
		c-0.196,0.107-0.357,0.245-0.483,0.413c-0.126,0.168-0.222,0.362-0.287,0.581c-0.065,0.22-0.098,0.441-0.098,0.665V348h-1.68
		V341.28z"/>
	<path fill="#B3B3B3" d="M243.039,344.612c0-0.532,0.095-1.016,0.287-1.449c0.191-0.435,0.45-0.805,0.777-1.113
		c0.327-0.308,0.714-0.546,1.162-0.714c0.448-0.168,0.924-0.252,1.428-0.252s0.98,0.084,1.428,0.252
		c0.448,0.168,0.835,0.406,1.162,0.714c0.327,0.309,0.586,0.679,0.777,1.113c0.191,0.434,0.287,0.917,0.287,1.449
		c0,0.531-0.096,1.018-0.287,1.456c-0.191,0.438-0.451,0.814-0.777,1.127s-0.714,0.558-1.162,0.734
		c-0.448,0.178-0.924,0.267-1.428,0.267s-0.98-0.089-1.428-0.267c-0.448-0.177-0.835-0.422-1.162-0.734
		c-0.327-0.312-0.586-0.688-0.777-1.127S243.039,345.144,243.039,344.612z M244.747,344.612c0,0.261,0.04,0.522,0.119,0.784
		c0.079,0.261,0.198,0.494,0.357,0.699c0.159,0.206,0.359,0.374,0.602,0.504c0.243,0.131,0.532,0.196,0.868,0.196
		s0.625-0.065,0.868-0.196c0.242-0.13,0.443-0.298,0.602-0.504c0.158-0.205,0.277-0.438,0.357-0.699
		c0.079-0.262,0.119-0.523,0.119-0.784c0-0.262-0.04-0.521-0.119-0.777c-0.08-0.257-0.199-0.487-0.357-0.693
		c-0.159-0.205-0.36-0.37-0.602-0.497c-0.243-0.126-0.532-0.188-0.868-0.188s-0.625,0.062-0.868,0.188
		c-0.243,0.127-0.443,0.292-0.602,0.497c-0.159,0.206-0.278,0.437-0.357,0.693S244.747,344.351,244.747,344.612z"/>
	<path fill="#B3B3B3" d="M250.963,341.28h1.834l1.764,4.899h0.028l1.778-4.899h1.778l-2.674,6.72h-1.792L250.963,341.28z"/>
	<path fill="#B3B3B3" d="M339.484,348h-1.596v-1.008h-0.028c-0.233,0.392-0.558,0.69-0.973,0.896
		c-0.416,0.205-0.861,0.309-1.337,0.309c-0.513,0-0.973-0.096-1.379-0.287c-0.406-0.191-0.751-0.448-1.036-0.771
		c-0.285-0.321-0.504-0.699-0.658-1.134c-0.154-0.434-0.231-0.898-0.231-1.393c0-0.495,0.079-0.957,0.238-1.387
		c0.159-0.429,0.383-0.802,0.672-1.119c0.289-0.317,0.634-0.567,1.036-0.749c0.401-0.183,0.84-0.273,1.316-0.273
		c0.308,0,0.583,0.035,0.826,0.105c0.243,0.069,0.455,0.156,0.637,0.259c0.182,0.103,0.338,0.215,0.469,0.336
		s0.238,0.238,0.322,0.35h0.042v-4.718h1.68V348z M333.955,344.612c0,0.261,0.04,0.522,0.119,0.784
		c0.079,0.261,0.198,0.494,0.357,0.699c0.159,0.206,0.359,0.374,0.602,0.504c0.242,0.131,0.527,0.196,0.854,0.196
		c0.308,0,0.583-0.062,0.826-0.188s0.45-0.292,0.623-0.497s0.303-0.437,0.392-0.693c0.088-0.257,0.133-0.516,0.133-0.777
		c0-0.261-0.044-0.522-0.133-0.783c-0.089-0.262-0.219-0.495-0.392-0.7s-0.38-0.373-0.623-0.504s-0.518-0.196-0.826-0.196
		c-0.327,0-0.612,0.062-0.854,0.188c-0.243,0.127-0.443,0.292-0.602,0.497c-0.159,0.206-0.278,0.437-0.357,0.693
		C333.994,344.092,333.955,344.351,333.955,344.612z"/>
	<path fill="#B3B3B3" d="M347.94,344.724c0,0.075,0,0.149,0,0.225c0,0.074-0.005,0.149-0.014,0.224h-5.11
		c0.019,0.243,0.082,0.465,0.189,0.665c0.107,0.201,0.25,0.373,0.427,0.519c0.177,0.145,0.378,0.259,0.602,0.343
		c0.224,0.084,0.457,0.126,0.7,0.126c0.42,0,0.775-0.077,1.064-0.231c0.29-0.153,0.527-0.366,0.714-0.637l1.12,0.896
		c-0.663,0.896-1.624,1.345-2.884,1.345c-0.523,0-1.003-0.082-1.442-0.245c-0.439-0.163-0.819-0.395-1.141-0.693
		s-0.574-0.665-0.756-1.099c-0.182-0.435-0.273-0.927-0.273-1.478c0-0.541,0.091-1.033,0.273-1.477
		c0.182-0.443,0.432-0.821,0.749-1.134c0.317-0.312,0.693-0.556,1.127-0.729s0.903-0.259,1.407-0.259
		c0.467,0,0.898,0.077,1.295,0.231c0.397,0.153,0.74,0.383,1.029,0.686c0.289,0.304,0.516,0.682,0.679,1.134
		C347.859,343.588,347.94,344.117,347.94,344.724z M346.261,343.968c0-0.215-0.031-0.42-0.091-0.616
		c-0.061-0.195-0.156-0.368-0.287-0.518s-0.296-0.269-0.497-0.357c-0.201-0.088-0.437-0.133-0.707-0.133
		c-0.504,0-0.931,0.152-1.281,0.455c-0.35,0.304-0.544,0.693-0.581,1.169H346.261z"/>
	<path fill="#B3B3B3" d="M353.246,343.072c-0.149-0.196-0.355-0.366-0.616-0.512c-0.262-0.145-0.546-0.217-0.854-0.217
		c-0.271,0-0.518,0.057-0.742,0.168c-0.224,0.112-0.336,0.299-0.336,0.561c0,0.261,0.124,0.445,0.371,0.553
		c0.247,0.107,0.609,0.217,1.085,0.329c0.252,0.056,0.506,0.131,0.763,0.224c0.257,0.094,0.49,0.217,0.7,0.371
		s0.38,0.346,0.511,0.574c0.131,0.229,0.196,0.507,0.196,0.833c0,0.411-0.077,0.759-0.231,1.043
		c-0.154,0.285-0.359,0.516-0.616,0.693c-0.257,0.177-0.555,0.306-0.896,0.385s-0.693,0.119-1.057,0.119
		c-0.522,0-1.031-0.096-1.526-0.287s-0.905-0.465-1.232-0.819l1.106-1.036c0.187,0.243,0.429,0.443,0.728,0.603
		c0.299,0.158,0.63,0.237,0.994,0.237c0.121,0,0.245-0.014,0.371-0.042c0.126-0.027,0.242-0.071,0.35-0.133
		c0.107-0.061,0.194-0.142,0.259-0.245c0.065-0.103,0.098-0.229,0.098-0.378c0-0.279-0.128-0.48-0.385-0.602
		s-0.642-0.243-1.155-0.364c-0.252-0.056-0.497-0.128-0.735-0.217c-0.238-0.089-0.45-0.205-0.637-0.35
		c-0.187-0.146-0.336-0.324-0.448-0.539c-0.112-0.215-0.168-0.481-0.168-0.799c0-0.373,0.077-0.694,0.231-0.966
		c0.154-0.271,0.357-0.492,0.609-0.665c0.252-0.172,0.536-0.301,0.854-0.385c0.317-0.084,0.644-0.126,0.98-0.126
		c0.485,0,0.959,0.084,1.421,0.252s0.828,0.425,1.099,0.771L353.246,343.072z"/>
	<path fill="#B3B3B3" d="M430.988,341.28v7.126c0,0.401-0.033,0.781-0.098,1.141c-0.066,0.359-0.189,0.672-0.371,0.938
		c-0.183,0.266-0.43,0.478-0.742,0.637c-0.312,0.158-0.721,0.238-1.226,0.238c-0.14,0-0.28-0.01-0.42-0.028
		s-0.252-0.037-0.336-0.056l0.14-1.429c0.075,0.019,0.154,0.033,0.238,0.042c0.084,0.01,0.158,0.015,0.225,0.015
		c0.195,0,0.354-0.038,0.476-0.112c0.121-0.075,0.214-0.178,0.28-0.308c0.064-0.131,0.107-0.283,0.125-0.455
		c0.02-0.173,0.029-0.357,0.029-0.554v-7.195H430.988z M429.07,338.998c0-0.271,0.1-0.506,0.301-0.707
		c0.201-0.2,0.455-0.301,0.763-0.301s0.567,0.096,0.777,0.287s0.315,0.432,0.315,0.721s-0.105,0.529-0.315,0.721
		s-0.47,0.287-0.777,0.287s-0.562-0.1-0.763-0.301C429.17,339.505,429.07,339.269,429.07,338.998z"/>
	<path fill="#B3B3B3" d="M437.203,347.146h-0.041c-0.168,0.298-0.439,0.543-0.812,0.734s-0.797,0.287-1.273,0.287
		c-0.271,0-0.553-0.035-0.848-0.104c-0.293-0.07-0.564-0.188-0.812-0.351s-0.452-0.378-0.616-0.644
		c-0.163-0.267-0.244-0.596-0.244-0.987c0-0.504,0.142-0.905,0.426-1.204c0.285-0.299,0.651-0.527,1.1-0.686
		c0.447-0.159,0.945-0.264,1.49-0.315c0.547-0.051,1.08-0.077,1.604-0.077v-0.168c0-0.42-0.152-0.73-0.455-0.931
		c-0.303-0.201-0.664-0.301-1.084-0.301c-0.355,0-0.695,0.074-1.023,0.224c-0.326,0.149-0.597,0.331-0.812,0.546l-0.868-1.021
		c0.383-0.355,0.824-0.621,1.324-0.799c0.498-0.177,1.004-0.266,1.518-0.266c0.598,0,1.09,0.084,1.477,0.252
		c0.389,0.168,0.693,0.388,0.918,0.658s0.381,0.574,0.469,0.91s0.133,0.672,0.133,1.008V348h-1.568V347.146z M437.176,344.934
		h-0.377c-0.271,0-0.557,0.013-0.855,0.035c-0.299,0.023-0.574,0.075-0.826,0.154s-0.461,0.191-0.629,0.336
		s-0.252,0.343-0.252,0.595c0,0.159,0.035,0.292,0.105,0.399c0.068,0.107,0.16,0.193,0.271,0.259
		c0.113,0.065,0.238,0.112,0.379,0.14c0.141,0.028,0.279,0.042,0.42,0.042c0.578,0,1.018-0.153,1.316-0.462
		c0.299-0.308,0.447-0.728,0.447-1.26V344.934z"/>
	<path fill="#B3B3B3" d="M440.731,341.28h1.596v1.078h0.028c0.149-0.336,0.408-0.633,0.777-0.89
		c0.368-0.256,0.805-0.385,1.309-0.385c0.438,0,0.814,0.077,1.127,0.231c0.312,0.153,0.569,0.356,0.771,0.608
		c0.2,0.252,0.348,0.542,0.44,0.868c0.094,0.327,0.141,0.663,0.141,1.008v4.2h-1.681v-3.724c0-0.196-0.014-0.401-0.042-0.616
		c-0.027-0.215-0.089-0.408-0.182-0.581c-0.094-0.173-0.222-0.315-0.385-0.427c-0.164-0.112-0.381-0.168-0.651-0.168
		s-0.504,0.054-0.7,0.16c-0.195,0.107-0.356,0.245-0.482,0.413s-0.222,0.362-0.287,0.581c-0.065,0.22-0.098,0.441-0.098,0.665V348
		h-1.681V341.28z"/>
	<path fill="#B3B3B3" d="M522.646,342.624h-1.274v-1.344h1.274v-0.994c0-0.401,0.044-0.786,0.133-1.155
		c0.088-0.368,0.237-0.692,0.448-0.973c0.21-0.28,0.487-0.502,0.833-0.665c0.345-0.163,0.778-0.245,1.302-0.245
		c0.187,0,0.343,0.007,0.469,0.021c0.126,0.015,0.254,0.04,0.385,0.077l-0.111,1.429c-0.094-0.028-0.194-0.052-0.302-0.07
		s-0.222-0.028-0.343-0.028c-0.243,0-0.438,0.047-0.588,0.141c-0.149,0.093-0.264,0.215-0.343,0.363
		c-0.08,0.149-0.133,0.313-0.161,0.49c-0.028,0.178-0.042,0.35-0.042,0.519v1.092h1.554v1.344h-1.554V348h-1.68V342.624z"/>
	<path fill="#B3B3B3" d="M533.327,344.724c0,0.075,0,0.149,0,0.225c0,0.074-0.005,0.149-0.014,0.224h-5.11
		c0.019,0.243,0.082,0.465,0.189,0.665c0.106,0.201,0.249,0.373,0.427,0.519c0.177,0.145,0.378,0.259,0.602,0.343
		c0.225,0.084,0.457,0.126,0.7,0.126c0.42,0,0.774-0.077,1.064-0.231c0.289-0.153,0.527-0.366,0.714-0.637l1.12,0.896
		c-0.663,0.896-1.624,1.345-2.885,1.345c-0.522,0-1.003-0.082-1.441-0.245s-0.819-0.395-1.142-0.693
		c-0.321-0.299-0.573-0.665-0.756-1.099c-0.182-0.435-0.272-0.927-0.272-1.478c0-0.541,0.091-1.033,0.272-1.477
		c0.183-0.443,0.432-0.821,0.749-1.134s0.693-0.556,1.127-0.729c0.435-0.173,0.903-0.259,1.407-0.259
		c0.467,0,0.898,0.077,1.295,0.231c0.396,0.153,0.74,0.383,1.029,0.686c0.289,0.304,0.516,0.682,0.679,1.134
		C533.245,343.588,533.327,344.117,533.327,344.724z M531.647,343.968c0-0.215-0.03-0.42-0.091-0.616
		c-0.062-0.195-0.157-0.368-0.287-0.518c-0.131-0.149-0.297-0.269-0.497-0.357c-0.201-0.088-0.437-0.133-0.707-0.133
		c-0.504,0-0.932,0.152-1.281,0.455c-0.35,0.304-0.544,0.693-0.581,1.169H531.647z"/>
	<path fill="#B3B3B3" d="M536.659,337.416v4.718h0.042c0.084-0.111,0.191-0.229,0.322-0.35s0.287-0.233,0.469-0.336
		c0.183-0.103,0.395-0.189,0.637-0.259c0.243-0.07,0.519-0.105,0.826-0.105c0.477,0,0.915,0.091,1.316,0.273
		c0.401,0.182,0.746,0.432,1.036,0.749c0.289,0.317,0.513,0.69,0.672,1.119c0.158,0.43,0.238,0.892,0.238,1.387
		c0,0.494-0.077,0.959-0.231,1.393c-0.154,0.435-0.373,0.812-0.658,1.134c-0.284,0.322-0.63,0.579-1.036,0.771
		c-0.405,0.191-0.865,0.287-1.379,0.287c-0.476,0-0.922-0.104-1.337-0.309s-0.739-0.504-0.973-0.896h-0.028V348h-1.596v-10.584
		H536.659z M540.51,344.612c0-0.262-0.04-0.521-0.119-0.777c-0.08-0.257-0.198-0.487-0.357-0.693
		c-0.158-0.205-0.359-0.37-0.602-0.497c-0.243-0.126-0.527-0.188-0.854-0.188c-0.308,0-0.583,0.065-0.826,0.196
		c-0.242,0.131-0.45,0.299-0.623,0.504s-0.303,0.438-0.392,0.7c-0.089,0.261-0.133,0.522-0.133,0.783
		c0,0.262,0.044,0.521,0.133,0.777s0.219,0.488,0.392,0.693s0.381,0.371,0.623,0.497c0.243,0.126,0.519,0.188,0.826,0.188
		c0.327,0,0.611-0.065,0.854-0.196c0.242-0.13,0.443-0.298,0.602-0.504c0.159-0.205,0.277-0.438,0.357-0.699
		C540.47,345.135,540.51,344.873,540.51,344.612z"/>
	<path fill="#B3B3B3" d="M625.363,341.084c0.438,0,0.813,0.077,1.127,0.231c0.312,0.153,0.569,0.356,0.77,0.608
		c0.201,0.252,0.348,0.542,0.441,0.868c0.093,0.327,0.14,0.663,0.14,1.008v4.2h-1.68v-3.724c0-0.196-0.014-0.401-0.042-0.616
		s-0.089-0.408-0.183-0.581c-0.093-0.173-0.222-0.315-0.385-0.427c-0.163-0.112-0.38-0.168-0.65-0.168
		c-0.262,0-0.485,0.056-0.672,0.168c-0.188,0.111-0.341,0.257-0.463,0.434c-0.121,0.178-0.21,0.376-0.266,0.595
		c-0.056,0.22-0.084,0.437-0.084,0.651V348h-1.68v-4.06c0-0.421-0.101-0.768-0.302-1.043c-0.2-0.275-0.516-0.413-0.944-0.413
		c-0.252,0-0.472,0.054-0.658,0.16c-0.187,0.107-0.339,0.245-0.455,0.413c-0.117,0.168-0.205,0.362-0.266,0.581
		c-0.062,0.22-0.091,0.441-0.091,0.665V348h-1.681v-6.72h1.596v1.078h0.028c0.075-0.168,0.175-0.327,0.301-0.477
		s0.275-0.284,0.448-0.406c0.173-0.121,0.371-0.217,0.595-0.286c0.225-0.07,0.472-0.105,0.742-0.105c0.522,0,0.957,0.117,1.302,0.35
		c0.346,0.233,0.611,0.542,0.799,0.925c0.224-0.411,0.522-0.726,0.896-0.945S624.859,341.084,625.363,341.084z"/>
	<path fill="#B3B3B3" d="M633.973,347.146h-0.042c-0.168,0.298-0.438,0.543-0.812,0.734c-0.374,0.191-0.798,0.287-1.274,0.287
		c-0.271,0-0.553-0.035-0.847-0.104c-0.294-0.07-0.564-0.188-0.812-0.351c-0.247-0.163-0.452-0.378-0.615-0.644
		c-0.164-0.267-0.245-0.596-0.245-0.987c0-0.504,0.142-0.905,0.427-1.204c0.284-0.299,0.651-0.527,1.099-0.686
		c0.448-0.159,0.945-0.264,1.491-0.315c0.546-0.051,1.08-0.077,1.604-0.077v-0.168c0-0.42-0.152-0.73-0.455-0.931
		c-0.304-0.201-0.665-0.301-1.085-0.301c-0.355,0-0.695,0.074-1.022,0.224c-0.326,0.149-0.598,0.331-0.812,0.546l-0.868-1.021
		c0.383-0.355,0.823-0.621,1.323-0.799c0.499-0.177,1.005-0.266,1.519-0.266c0.598,0,1.09,0.084,1.477,0.252
		c0.388,0.168,0.693,0.388,0.918,0.658c0.224,0.271,0.38,0.574,0.469,0.91c0.088,0.336,0.133,0.672,0.133,1.008V348h-1.568V347.146z
		 M633.945,344.934h-0.378c-0.271,0-0.556,0.013-0.854,0.035c-0.299,0.023-0.574,0.075-0.826,0.154s-0.462,0.191-0.63,0.336
		s-0.252,0.343-0.252,0.595c0,0.159,0.035,0.292,0.105,0.399c0.069,0.107,0.16,0.193,0.272,0.259s0.238,0.112,0.378,0.14
		c0.141,0.028,0.28,0.042,0.42,0.042c0.579,0,1.018-0.153,1.316-0.462c0.299-0.308,0.448-0.728,0.448-1.26V344.934z"/>
	<path fill="#B3B3B3" d="M637.501,341.28h1.61v1.12h0.028c0.187-0.393,0.447-0.71,0.783-0.952c0.336-0.243,0.729-0.364,1.177-0.364
		c0.064,0,0.135,0.002,0.21,0.007c0.074,0.005,0.14,0.017,0.195,0.035v1.54c-0.111-0.028-0.208-0.047-0.287-0.056
		c-0.079-0.01-0.156-0.015-0.23-0.015c-0.383,0-0.691,0.07-0.924,0.21c-0.233,0.141-0.416,0.309-0.546,0.504
		c-0.131,0.196-0.22,0.397-0.267,0.603s-0.069,0.369-0.069,0.49V348h-1.681V341.28z"/>
	<path fill="#B3B3B3" d="M720.269,347.146h-0.042c-0.168,0.298-0.438,0.543-0.812,0.734c-0.374,0.191-0.798,0.287-1.274,0.287
		c-0.271,0-0.553-0.035-0.847-0.104c-0.294-0.07-0.564-0.188-0.812-0.351c-0.247-0.163-0.452-0.378-0.615-0.644
		c-0.164-0.267-0.245-0.596-0.245-0.987c0-0.504,0.142-0.905,0.427-1.204c0.284-0.299,0.651-0.527,1.099-0.686
		c0.448-0.159,0.945-0.264,1.491-0.315c0.546-0.051,1.08-0.077,1.604-0.077v-0.168c0-0.42-0.152-0.73-0.455-0.931
		c-0.304-0.201-0.665-0.301-1.085-0.301c-0.355,0-0.695,0.074-1.022,0.224c-0.326,0.149-0.598,0.331-0.812,0.546l-0.868-1.021
		c0.383-0.355,0.823-0.621,1.323-0.799c0.499-0.177,1.005-0.266,1.519-0.266c0.598,0,1.09,0.084,1.477,0.252
		c0.388,0.168,0.693,0.388,0.918,0.658c0.224,0.271,0.38,0.574,0.469,0.91c0.088,0.336,0.133,0.672,0.133,1.008V348h-1.568V347.146z
		 M720.241,344.934h-0.378c-0.271,0-0.556,0.013-0.854,0.035c-0.299,0.023-0.574,0.075-0.826,0.154s-0.462,0.191-0.63,0.336
		s-0.252,0.343-0.252,0.595c0,0.159,0.035,0.292,0.105,0.399c0.069,0.107,0.16,0.193,0.272,0.259s0.238,0.112,0.378,0.14
		c0.141,0.028,0.28,0.042,0.42,0.042c0.579,0,1.018-0.153,1.316-0.462c0.299-0.308,0.448-0.728,0.448-1.26V344.934z"/>
	<path fill="#B3B3B3" d="M725.407,341.28v0.938h0.042c0.084-0.13,0.193-0.264,0.329-0.398c0.135-0.136,0.301-0.257,0.497-0.364
		c0.195-0.107,0.417-0.196,0.665-0.266c0.247-0.07,0.524-0.105,0.833-0.105c0.476,0,0.914,0.091,1.315,0.273
		c0.401,0.182,0.747,0.432,1.036,0.749s0.514,0.69,0.672,1.119c0.159,0.43,0.238,0.892,0.238,1.387c0,0.494-0.077,0.959-0.231,1.393
		c-0.153,0.435-0.373,0.812-0.657,1.134c-0.285,0.322-0.631,0.579-1.036,0.771c-0.406,0.191-0.866,0.287-1.379,0.287
		c-0.477,0-0.913-0.099-1.31-0.294c-0.396-0.196-0.702-0.462-0.917-0.799h-0.027v4.257h-1.681v-10.08H725.407z M729.327,344.612
		c0-0.262-0.04-0.521-0.119-0.777s-0.198-0.487-0.357-0.693c-0.158-0.205-0.359-0.37-0.602-0.497
		c-0.243-0.126-0.527-0.188-0.854-0.188c-0.309,0-0.584,0.065-0.826,0.196c-0.243,0.131-0.45,0.299-0.623,0.504
		s-0.304,0.438-0.393,0.7c-0.089,0.261-0.133,0.522-0.133,0.783c0,0.262,0.044,0.521,0.133,0.777s0.22,0.488,0.393,0.693
		s0.38,0.371,0.623,0.497c0.242,0.126,0.518,0.188,0.826,0.188c0.326,0,0.61-0.065,0.854-0.196c0.242-0.13,0.443-0.298,0.602-0.504
		c0.159-0.205,0.278-0.438,0.357-0.699C729.287,345.135,729.327,344.873,729.327,344.612z"/>
	<path fill="#B3B3B3" d="M732.659,341.28h1.61v1.12h0.028c0.187-0.393,0.447-0.71,0.783-0.952c0.336-0.243,0.729-0.364,1.177-0.364
		c0.064,0,0.135,0.002,0.21,0.007c0.074,0.005,0.14,0.017,0.195,0.035v1.54c-0.111-0.028-0.208-0.047-0.287-0.056
		c-0.079-0.01-0.156-0.015-0.23-0.015c-0.383,0-0.691,0.07-0.924,0.21c-0.233,0.141-0.416,0.309-0.546,0.504
		c-0.131,0.196-0.22,0.397-0.267,0.603s-0.069,0.369-0.069,0.49V348h-1.681V341.28z"/>
	<path fill="#B3B3B3" d="M819.277,341.084c0.438,0,0.813,0.077,1.127,0.231c0.312,0.153,0.569,0.356,0.77,0.608
		c0.201,0.252,0.348,0.542,0.441,0.868c0.093,0.327,0.14,0.663,0.14,1.008v4.2h-1.68v-3.724c0-0.196-0.014-0.401-0.042-0.616
		s-0.089-0.408-0.183-0.581c-0.093-0.173-0.222-0.315-0.385-0.427c-0.163-0.112-0.38-0.168-0.65-0.168
		c-0.262,0-0.485,0.056-0.672,0.168c-0.188,0.111-0.341,0.257-0.463,0.434c-0.121,0.178-0.21,0.376-0.266,0.595
		c-0.056,0.22-0.084,0.437-0.084,0.651V348h-1.68v-4.06c0-0.421-0.101-0.768-0.302-1.043c-0.2-0.275-0.516-0.413-0.944-0.413
		c-0.252,0-0.472,0.054-0.658,0.16c-0.187,0.107-0.339,0.245-0.455,0.413c-0.117,0.168-0.205,0.362-0.266,0.581
		c-0.062,0.22-0.091,0.441-0.091,0.665V348h-1.681v-6.72h1.596v1.078h0.028c0.075-0.168,0.175-0.327,0.301-0.477
		s0.275-0.284,0.448-0.406c0.173-0.121,0.371-0.217,0.595-0.286c0.225-0.07,0.472-0.105,0.742-0.105c0.522,0,0.957,0.117,1.302,0.35
		c0.346,0.233,0.611,0.542,0.799,0.925c0.224-0.411,0.522-0.726,0.896-0.945S818.773,341.084,819.277,341.084z"/>
	<path fill="#B3B3B3" d="M827.887,347.146h-0.042c-0.168,0.298-0.438,0.543-0.812,0.734c-0.374,0.191-0.798,0.287-1.274,0.287
		c-0.271,0-0.553-0.035-0.847-0.104c-0.294-0.07-0.564-0.188-0.812-0.351c-0.247-0.163-0.452-0.378-0.615-0.644
		c-0.164-0.267-0.245-0.596-0.245-0.987c0-0.504,0.142-0.905,0.427-1.204c0.284-0.299,0.651-0.527,1.099-0.686
		c0.448-0.159,0.945-0.264,1.491-0.315c0.546-0.051,1.08-0.077,1.604-0.077v-0.168c0-0.42-0.152-0.73-0.455-0.931
		c-0.304-0.201-0.665-0.301-1.085-0.301c-0.355,0-0.695,0.074-1.022,0.224c-0.326,0.149-0.598,0.331-0.812,0.546l-0.868-1.021
		c0.383-0.355,0.823-0.621,1.323-0.799c0.499-0.177,1.005-0.266,1.519-0.266c0.598,0,1.09,0.084,1.477,0.252
		c0.388,0.168,0.693,0.388,0.918,0.658c0.224,0.271,0.38,0.574,0.469,0.91c0.088,0.336,0.133,0.672,0.133,1.008V348h-1.568V347.146z
		 M827.859,344.934h-0.378c-0.271,0-0.556,0.013-0.854,0.035c-0.299,0.023-0.574,0.075-0.826,0.154s-0.462,0.191-0.63,0.336
		s-0.252,0.343-0.252,0.595c0,0.159,0.035,0.292,0.105,0.399c0.069,0.107,0.16,0.193,0.272,0.259s0.238,0.112,0.378,0.14
		c0.141,0.028,0.28,0.042,0.42,0.042c0.579,0,1.018-0.153,1.316-0.462c0.299-0.308,0.448-0.728,0.448-1.26V344.934z"/>
	<path fill="#B3B3B3" d="M831.443,341.28h1.68V348h-1.68V341.28z M832.843,338.088h1.904l-1.974,2.016h-1.316L832.843,338.088z"/>
</g>
<polyline fill="none" stroke="#7BA2A7" stroke-width="4" points="5,257 148,252 258,247 372,234 489,241 549,239 631,260 721,260 
	839,198 "/>
</svg>
