<?xml version="1.0" encoding="utf-8"?>
<!-- Generator: Adobe Illustrator 16.2.1, SVG Export Plug-In . SVG Version: 6.00 Build 0)  -->
<!DOCTYPE svg PUBLIC "-//W3C//DTD SVG 1.1//EN" "http://www.w3.org/Graphics/SVG/1.1/DTD/svg11.dtd">
<svg version="1.1" id="Layer_1" xmlns="http://www.w3.org/2000/svg" xmlns:xlink="http://www.w3.org/1999/xlink" x="0px" y="0px"
	 width="305px" height="95px" viewBox="0 0 305 95" enable-background="new 0 0 305 95" xml:space="preserve">
<g>
	
		<text transform="matrix(1 0 0 1 111.4751 64.1426)" fill="#404041" font-family="'AvenirNext-Bold'" font-size="87.5086" letter-spacing="-2">vísar</text>
</g>
<g>
	<text transform="matrix(1 0 0 1 128.8013 87.9395)" fill="#404041" font-family="'AvenirNext-Regular'" font-size="19.2148">við mælum með þér</text>
</g>
<g>
	<polygon fill="#005283" points="1.75,65.704 21.879,79.552 46.114,89.603 58.139,83.691 70.273,74.697 34.441,67.131 18.31,67.703 
			"/>
	<polygon fill="#006DAF" points="73.651,80.883 88.688,74.982 110.388,66.037 85.453,68.707 54.427,67 31.966,67 57.473,73.466 	"/>
	<polygon fill="#41C2FF" points="39.226,9.217 54.427,37.581 73.425,65.847 18.31,67.703 1.75,65.704 22.735,30.443 	"/>
	<polygon fill="#FFFFFF" points="48.994,37.623 37.296,28.349 26.638,36.533 31.966,27.207 39.081,20.493 43.387,28.539 	"/>
	<polygon fill="#99D9FF" points="73.163,25.271 88.707,40.135 110.245,66.037 85.453,68.701 56.139,67.097 32.68,67.179 
		51.572,49.667 	"/>
	<polygon fill="#FFFFFF" points="86.057,47.059 75.255,40.678 59.947,46.622 68.571,39.234 74.102,33.198 80.885,39.198 	"/>
</g>
</svg>
