<?xml version="1.0" encoding="utf-8"?>
<!-- Generator: Adobe Illustrator 15.0.2, SVG Export Plug-In . SVG Version: 6.00 Build 0)  -->
<!DOCTYPE svg PUBLIC "-//W3C//DTD SVG 1.1//EN" "http://www.w3.org/Graphics/SVG/1.1/DTD/svg11.dtd">
<svg version="1.1" id="Layer_2" xmlns="http://www.w3.org/2000/svg" xmlns:xlink="http://www.w3.org/1999/xlink" x="0px" y="0px"
	 width="156px" height="42px" viewBox="0 0 156 42" enable-background="new 0 0 156 42" xml:space="preserve">
<g id="Layer_2_1_">
	<path fill="#FFFFFF" d="M1.744,19.366c0.139-1.69,0.492-3.347,1.057-4.945C5.583,6.548,13.064,1.258,21.42,1.258V0.13
		c-4.403,0-8.613,1.355-12.177,3.918C7.527,5.282,6.014,6.763,4.741,8.451c-1.286,1.705-2.296,3.588-3.005,5.595
		c-0.607,1.717-0.982,3.501-1.125,5.32H0.61L0.604,19.51c-0.032,0.45-0.052,0.901-0.054,1.354l-0.008,0.203v1.684h41.75v-3.386
		L1.744,19.366L1.744,19.366z"/>
	<path fill="#FFFFFF" d="M41.875,25.74l-0.108,0.375c-0.077,0.224-0.773,2.157-0.857,2.374c-1.498,3.896-4.104,7.226-7.54,9.628
		c-3.513,2.461-7.646,3.76-11.949,3.76v-1.132c8.117,0,15.526-5.088,18.435-12.662c0.041-0.103,0.248-0.665,0.448-1.213H0.582v-1.13
		h40.029H41.875z"/>
	<path fill="#FFFFFF" d="M56.08,15.937c-0.291-0.402-0.686-0.73-1.185-0.988c-0.499-0.256-1.061-0.386-1.685-0.386
		c-0.332,0-0.669,0.046-1.009,0.135c-0.34,0.091-0.649,0.237-0.925,0.437c-0.278,0.201-0.502,0.45-0.677,0.749
		c-0.174,0.298-0.26,0.654-0.26,1.071c0,0.402,0.08,0.738,0.239,1.009c0.159,0.27,0.375,0.499,0.645,0.686
		c0.27,0.188,0.589,0.347,0.956,0.478c0.366,0.132,0.759,0.267,1.175,0.405c0.499,0.153,1.005,0.326,1.518,0.52
		c0.512,0.195,0.978,0.452,1.393,0.769c0.416,0.321,0.756,0.717,1.021,1.197c0.263,0.479,0.395,1.085,0.395,1.818
		c0,0.766-0.143,1.426-0.426,1.988c-0.284,0.561-0.663,1.025-1.134,1.394c-0.472,0.366-1.016,0.641-1.632,0.819
		c-0.617,0.182-1.251,0.272-1.904,0.272c-0.929,0-1.827-0.183-2.693-0.542c-0.867-0.36-1.585-0.895-2.153-1.603l1.602-1.35
		c0.347,0.512,0.811,0.929,1.394,1.247c0.582,0.32,1.213,0.478,1.893,0.478c0.347,0,0.693-0.048,1.04-0.146
		c0.346-0.098,0.662-0.25,0.947-0.457c0.285-0.209,0.517-0.47,0.697-0.781c0.181-0.312,0.27-0.689,0.27-1.133
		c0-0.445-0.093-0.815-0.281-1.112c-0.188-0.299-0.44-0.553-0.76-0.759c-0.319-0.208-0.689-0.388-1.112-0.531
		c-0.423-0.146-0.871-0.294-1.342-0.447c-0.472-0.138-0.935-0.308-1.394-0.509c-0.458-0.202-0.867-0.458-1.227-0.77
		c-0.361-0.312-0.652-0.697-0.874-1.154c-0.221-0.458-0.332-1.026-0.332-1.706c0-0.734,0.148-1.366,0.446-1.893
		c0.298-0.526,0.687-0.964,1.166-1.311c0.477-0.346,1.019-0.599,1.622-0.76c0.603-0.16,1.209-0.239,1.819-0.239
		c0.86,0,1.664,0.152,2.413,0.458c0.749,0.305,1.352,0.714,1.811,1.227L56.08,15.937z"/>
	<path fill="#FFFFFF" d="M61.826,22.364h0.062l4.14-4.285h2.62l-4.618,4.474l5.013,5.386H66.34l-4.451-5.117h-0.062v5.117h-1.955
		V12.215h1.955V22.364z"/>
	<path fill="#FFFFFF" d="M79.637,22.988c0,0.764-0.135,1.463-0.405,2.101c-0.271,0.637-0.645,1.188-1.123,1.654
		c-0.479,0.464-1.043,0.824-1.695,1.08c-0.652,0.258-1.352,0.387-2.101,0.387c-0.749,0-1.449-0.129-2.1-0.387
		c-0.652-0.256-1.214-0.616-1.685-1.08c-0.471-0.466-0.842-1.018-1.112-1.654c-0.27-0.638-0.406-1.338-0.406-2.101
		s0.136-1.458,0.406-2.091c0.27-0.63,0.641-1.175,1.112-1.633c0.472-0.458,1.033-0.814,1.685-1.07
		c0.651-0.256,1.352-0.385,2.1-0.385c0.749,0,1.449,0.128,2.101,0.385c0.651,0.256,1.216,0.613,1.695,1.07
		c0.479,0.458,0.853,1.001,1.123,1.633C79.502,21.53,79.637,22.228,79.637,22.988z M77.598,22.999c0-0.47-0.073-0.92-0.22-1.348
		c-0.146-0.429-0.357-0.806-0.637-1.131c-0.278-0.325-0.623-0.583-1.032-0.777c-0.41-0.193-0.881-0.291-1.409-0.291
		c-0.53,0-0.999,0.097-1.409,0.291c-0.411,0.194-0.754,0.453-1.033,0.777c-0.278,0.325-0.49,0.703-0.636,1.131
		c-0.146,0.428-0.219,0.878-0.219,1.348c0,0.471,0.073,0.92,0.219,1.349c0.146,0.429,0.358,0.809,0.636,1.142
		c0.278,0.332,0.623,0.595,1.033,0.786c0.41,0.194,0.879,0.291,1.409,0.291c0.528,0,0.998-0.097,1.409-0.291
		c0.411-0.191,0.754-0.454,1.032-0.786c0.279-0.333,0.49-0.713,0.637-1.142C77.525,23.919,77.598,23.47,77.598,22.999z
		 M74.728,16.207h-1.602l2.079-2.995h2.351L74.728,16.207z"/>
	<path fill="#FFFFFF" d="M83.17,27.939h-1.954V12.215h1.954V27.939z"/>
	<path fill="#FFFFFF" d="M91.537,21.553c0-0.735-0.224-1.279-0.666-1.631c-0.443-0.354-1.033-0.531-1.768-0.531
		c-0.555,0-1.078,0.108-1.57,0.322c-0.493,0.215-0.903,0.489-1.236,0.821l-1.04-1.248c0.485-0.458,1.077-0.817,1.777-1.082
		c0.699-0.263,1.452-0.395,2.259-0.395c0.706,0,1.317,0.101,1.84,0.301c0.518,0.201,0.945,0.476,1.278,0.822
		c0.333,0.347,0.582,0.756,0.75,1.227c0.165,0.473,0.249,0.979,0.249,1.519v4.305c0,0.333,0.01,0.683,0.031,1.051
		c0.02,0.367,0.059,0.67,0.113,0.905h-1.767c-0.11-0.474-0.167-0.942-0.167-1.416h-0.062c-0.36,0.528-0.813,0.937-1.362,1.229
		c-0.549,0.29-1.195,0.437-1.945,0.437c-0.388,0-0.792-0.055-1.217-0.157c-0.422-0.104-0.808-0.273-1.152-0.51
		c-0.349-0.234-0.637-0.548-0.862-0.936c-0.229-0.388-0.345-0.866-0.345-1.435c0-0.748,0.2-1.342,0.602-1.777
		c0.403-0.437,0.931-0.77,1.583-1c0.65-0.229,1.386-0.376,2.203-0.444c0.818-0.07,1.644-0.105,2.475-0.105V21.553L91.537,21.553z
		 M91.059,23.237c-0.485,0-0.989,0.021-1.507,0.062c-0.52,0.041-0.993,0.125-1.415,0.249c-0.423,0.125-0.773,0.312-1.05,0.562
		c-0.278,0.251-0.417,0.583-0.417,0.999c0,0.291,0.059,0.532,0.176,0.728c0.118,0.193,0.274,0.354,0.469,0.478
		c0.193,0.125,0.409,0.212,0.646,0.26c0.233,0.049,0.478,0.072,0.727,0.072c0.915,0,1.619-0.272,2.112-0.82
		c0.492-0.548,0.737-1.237,0.737-2.07v-0.52L91.059,23.237L91.059,23.237z"/>
	<path fill="#FFFFFF" d="M97.452,32.93h-1.957V18.079h1.914v1.539h0.062c0.317-0.526,0.784-0.96,1.399-1.3
		c0.615-0.339,1.332-0.509,2.147-0.509c0.731,0,1.399,0.132,2.001,0.395c0.604,0.264,1.121,0.631,1.558,1.102
		c0.437,0.472,0.769,1.023,1.007,1.655c0.235,0.632,0.353,1.307,0.353,2.027s-0.117,1.401-0.353,2.038
		c-0.236,0.638-0.566,1.193-0.997,1.664c-0.429,0.473-0.948,0.842-1.556,1.111c-0.609,0.271-1.293,0.407-2.054,0.407
		c-0.705,0-1.37-0.154-1.993-0.458c-0.623-0.306-1.114-0.733-1.473-1.29H97.45v6.47H97.452z M103.938,22.988
		c0-0.457-0.068-0.902-0.206-1.33c-0.141-0.432-0.349-0.812-0.625-1.145s-0.621-0.596-1.03-0.791
		c-0.408-0.194-0.884-0.291-1.425-0.291c-0.498,0-0.954,0.098-1.362,0.291c-0.409,0.195-0.76,0.458-1.05,0.791
		s-0.518,0.713-0.676,1.145c-0.159,0.428-0.239,0.881-0.239,1.35c0,0.474,0.08,0.925,0.239,1.354
		c0.158,0.429,0.386,0.808,0.676,1.133c0.29,0.326,0.641,0.586,1.05,0.779c0.408,0.194,0.864,0.291,1.362,0.291
		c0.541,0,1.017-0.101,1.425-0.302c0.409-0.2,0.754-0.467,1.03-0.8s0.484-0.715,0.625-1.145
		C103.87,23.89,103.938,23.446,103.938,22.988z"/>
	<path fill="#FFFFFF" d="M114.473,27.939c-0.029-0.25-0.049-0.53-0.062-0.843c-0.016-0.312-0.02-0.573-0.02-0.78h-0.04
		c-0.251,0.526-0.67,0.975-1.26,1.341c-0.592,0.368-1.244,0.553-1.967,0.553c-0.639,0-1.189-0.104-1.652-0.312
		c-0.466-0.208-0.847-0.496-1.145-0.863s-0.521-0.794-0.666-1.278c-0.146-0.485-0.218-1.006-0.218-1.561v-6.115h1.954v5.449
		c0,0.404,0.031,0.788,0.096,1.154c0.062,0.367,0.175,0.689,0.343,0.968c0.165,0.277,0.395,0.499,0.687,0.666
		c0.29,0.166,0.664,0.249,1.124,0.249c0.788,0,1.427-0.295,1.911-0.885c0.487-0.588,0.729-1.376,0.729-2.36v-5.241h1.956v7.739
		c0,0.264,0.006,0.603,0.02,1.017c0.014,0.417,0.035,0.785,0.062,1.104L114.473,27.939L114.473,27.939z M112.413,16.207h-1.603
		l2.082-2.995h2.35L112.413,16.207z"/>
	<path fill="#FFFFFF" d="M120.51,27.939h-1.954V12.215h1.954V27.939z"/>
	<path fill="#FFFFFF" d="M128.324,20.576c-0.222-0.361-0.533-0.655-0.937-0.884c-0.4-0.229-0.851-0.344-1.351-0.344
		c-0.222,0-0.442,0.024-0.666,0.073c-0.22,0.049-0.42,0.125-0.592,0.229c-0.173,0.104-0.312,0.236-0.417,0.395
		c-0.103,0.16-0.155,0.357-0.155,0.593c0,0.416,0.187,0.724,0.561,0.925c0.374,0.202,0.935,0.387,1.684,0.553
		c0.474,0.111,0.91,0.241,1.311,0.395c0.403,0.152,0.752,0.344,1.052,0.571c0.298,0.228,0.529,0.502,0.696,0.821
		c0.166,0.317,0.25,0.693,0.25,1.123c0,0.583-0.113,1.075-0.333,1.477c-0.223,0.402-0.519,0.73-0.884,0.986
		c-0.368,0.259-0.789,0.441-1.262,0.553c-0.47,0.11-0.956,0.168-1.454,0.168c-0.75,0-1.479-0.146-2.194-0.438
		c-0.715-0.292-1.307-0.734-1.777-1.331l1.392-1.185c0.265,0.387,0.627,0.714,1.095,0.975c0.463,0.266,0.973,0.396,1.525,0.396
		c0.252,0,0.489-0.023,0.719-0.072c0.228-0.048,0.437-0.126,0.625-0.238c0.187-0.11,0.337-0.256,0.445-0.437
		c0.111-0.182,0.168-0.409,0.168-0.687c0-0.458-0.218-0.797-0.654-1.02c-0.438-0.221-1.078-0.429-1.926-0.623
		c-0.332-0.083-0.669-0.184-1.008-0.303c-0.341-0.117-0.648-0.279-0.927-0.487c-0.276-0.208-0.502-0.469-0.676-0.78
		c-0.173-0.312-0.261-0.697-0.261-1.155c0-0.527,0.107-0.981,0.323-1.363c0.214-0.381,0.494-0.693,0.843-0.935
		c0.345-0.242,0.74-0.424,1.184-0.541c0.444-0.118,0.901-0.177,1.375-0.177c0.706,0,1.388,0.139,2.048,0.416
		c0.658,0.278,1.168,0.68,1.528,1.206L128.324,20.576z"/>
	<path fill="#FFFFFF" d="M133.932,14.523c0,0.361-0.129,0.659-0.382,0.895c-0.255,0.235-0.561,0.353-0.917,0.353
		c-0.358,0-0.662-0.122-0.909-0.364s-0.372-0.537-0.372-0.884c0-0.36,0.125-0.662,0.372-0.904s0.551-0.364,0.909-0.364
		c0.356,0,0.662,0.122,0.917,0.364C133.803,13.861,133.932,14.163,133.932,14.523z M133.62,27.939h-1.955v-9.86h1.955V27.939z"/>
	<path fill="#FFFFFF" d="M137.496,18.079c0.027,0.249,0.049,0.53,0.062,0.843c0.014,0.311,0.02,0.571,0.02,0.779h0.062
		c0.127-0.263,0.296-0.509,0.513-0.738c0.214-0.228,0.459-0.43,0.737-0.603c0.276-0.174,0.582-0.308,0.915-0.406
		c0.333-0.097,0.68-0.146,1.04-0.146c0.639,0,1.186,0.107,1.645,0.322c0.454,0.215,0.838,0.502,1.142,0.863
		c0.306,0.361,0.529,0.784,0.675,1.269c0.146,0.486,0.221,1.007,0.221,1.56v6.116h-1.955v-5.47c0-0.403-0.031-0.784-0.096-1.145
		c-0.062-0.36-0.175-0.679-0.343-0.956c-0.167-0.278-0.395-0.5-0.687-0.666c-0.29-0.167-0.666-0.249-1.124-0.249
		c-0.774,0-1.409,0.294-1.901,0.884c-0.491,0.589-0.738,1.376-0.738,2.361v5.242h-1.954v-7.738c0-0.263-0.008-0.603-0.021-1.02
		c-0.016-0.416-0.035-0.783-0.062-1.103L137.496,18.079L137.496,18.079z"/>
	<path fill="#FFFFFF" d="M147.927,18.079c0.029,0.249,0.051,0.53,0.062,0.843c0.014,0.311,0.021,0.571,0.021,0.779h0.062
		c0.124-0.263,0.294-0.509,0.512-0.738c0.214-0.228,0.46-0.43,0.736-0.603c0.278-0.174,0.584-0.308,0.917-0.406
		c0.331-0.097,0.677-0.146,1.037-0.146c0.641,0,1.188,0.107,1.646,0.322c0.455,0.215,0.839,0.502,1.143,0.863
		c0.306,0.361,0.529,0.784,0.678,1.269c0.144,0.486,0.218,1.007,0.218,1.56v6.116h-1.955v-5.47c0-0.403-0.032-0.784-0.095-1.145
		c-0.062-0.36-0.178-0.679-0.343-0.956c-0.168-0.278-0.396-0.5-0.688-0.666c-0.29-0.167-0.666-0.249-1.123-0.249
		c-0.775,0-1.409,0.294-1.902,0.884c-0.492,0.589-0.737,1.376-0.737,2.361v5.242h-1.957v-7.738c0-0.263-0.006-0.603-0.021-1.02
		c-0.014-0.416-0.033-0.783-0.061-1.103L147.927,18.079L147.927,18.079z"/>
</g>
</svg>
