<?xml version="1.0" encoding="utf-8"?>
<!-- Generator: Adobe Illustrator 15.0.2, SVG Export Plug-In . SVG Version: 6.00 Build 0)  -->
<!DOCTYPE svg PUBLIC "-//W3C//DTD SVG 1.1//EN" "http://www.w3.org/Graphics/SVG/1.1/DTD/svg11.dtd">
<svg version="1.1" id="Layer_2" xmlns="http://www.w3.org/2000/svg" xmlns:xlink="http://www.w3.org/1999/xlink" x="0px" y="0px"
	 width="196.5px" height="42px" viewBox="0 0 196.5 42" enable-background="new 0 0 196.5 42" xml:space="preserve">
<g>
	<g>
		<path fill="#FFFFFF" d="M50.421,26.136h6.952v1.937h-9.13V12.496h2.178V26.136z"/>
		<path fill="#FFFFFF" d="M67.725,22.771c0,0.117,0,0.234,0,0.352s-0.007,0.234-0.022,0.352h-8.294
			c0.015,0.438,0.113,0.85,0.297,1.234c0.184,0.387,0.429,0.722,0.737,1.006c0.308,0.283,0.664,0.506,1.067,0.666
			s0.832,0.24,1.287,0.24c0.704,0,1.312-0.154,1.826-0.462c0.514-0.308,0.917-0.683,1.21-1.122l1.452,1.166
			c-0.558,0.739-1.214,1.283-1.969,1.633c-0.756,0.349-1.595,0.523-2.519,0.523c-0.792,0-1.526-0.133-2.2-0.396
			c-0.675-0.264-1.254-0.634-1.738-1.111c-0.484-0.476-0.866-1.052-1.144-1.727c-0.279-0.674-0.418-1.422-0.418-2.244
			c0-0.807,0.136-1.551,0.408-2.232c0.272-0.682,0.65-1.265,1.135-1.749c0.485-0.484,1.059-0.862,1.72-1.133
			c0.662-0.271,1.374-0.407,2.139-0.407c0.764,0,1.458,0.125,2.083,0.374c0.625,0.25,1.153,0.608,1.587,1.078
			c0.434,0.47,0.768,1.038,1.003,1.705C67.608,21.183,67.725,21.935,67.725,22.771z M65.613,21.935
			c-0.015-0.41-0.084-0.796-0.209-1.155c-0.125-0.359-0.308-0.671-0.55-0.935c-0.242-0.264-0.543-0.473-0.902-0.627
			s-0.781-0.231-1.265-0.231c-0.44,0-0.855,0.077-1.243,0.231c-0.389,0.154-0.726,0.363-1.012,0.627
			c-0.286,0.264-0.521,0.576-0.704,0.935c-0.183,0.359-0.29,0.745-0.319,1.155H65.613z"/>
		<path fill="#FFFFFF" d="M72.005,13.882c0,0.381-0.135,0.697-0.404,0.946c-0.269,0.25-0.593,0.374-0.971,0.374
			c-0.378,0-0.698-0.128-0.96-0.385c-0.262-0.256-0.393-0.568-0.393-0.935c0-0.381,0.131-0.7,0.393-0.957
			c0.262-0.256,0.582-0.385,0.96-0.385c0.378,0,0.702,0.129,0.971,0.385C71.871,13.182,72.005,13.501,72.005,13.882z M71.675,28.072
			h-2.068V17.644h2.068V28.072z"/>
		<path fill="#FFFFFF" d="M75.396,22.177h0.065l4.378-4.533h2.772l-4.885,4.73l5.303,5.698h-2.86l-4.708-5.412h-0.065v5.412h-2.068
			V11.44h2.068V22.177z"/>
		<path fill="#FFFFFF" d="M90.378,20.284c-0.234-0.381-0.564-0.693-0.99-0.935c-0.426-0.242-0.901-0.363-1.43-0.363
			c-0.235,0-0.47,0.026-0.704,0.077s-0.443,0.132-0.627,0.242s-0.33,0.25-0.44,0.418c-0.109,0.169-0.165,0.378-0.165,0.627
			c0,0.44,0.198,0.766,0.595,0.979c0.396,0.213,0.989,0.407,1.781,0.583c0.499,0.118,0.961,0.257,1.387,0.418
			c0.425,0.161,0.795,0.363,1.11,0.604c0.315,0.242,0.562,0.533,0.737,0.869c0.176,0.338,0.264,0.734,0.264,1.188
			c0,0.616-0.117,1.137-0.352,1.562c-0.234,0.426-0.547,0.774-0.936,1.045c-0.389,0.271-0.832,0.467-1.33,0.584
			c-0.499,0.117-1.013,0.176-1.54,0.176c-0.792,0-1.566-0.154-2.321-0.462c-0.756-0.308-1.383-0.777-1.881-1.408l1.474-1.254
			c0.278,0.411,0.663,0.755,1.155,1.034c0.491,0.278,1.03,0.418,1.617,0.418c0.264,0,0.517-0.025,0.759-0.077
			s0.462-0.136,0.66-0.253c0.197-0.117,0.355-0.271,0.473-0.463c0.117-0.189,0.176-0.432,0.176-0.725
			c0-0.484-0.23-0.844-0.692-1.078s-1.141-0.455-2.035-0.66c-0.353-0.088-0.708-0.195-1.067-0.319s-0.686-0.297-0.979-0.517
			c-0.294-0.221-0.532-0.496-0.715-0.826c-0.184-0.329-0.275-0.736-0.275-1.22c0-0.557,0.113-1.038,0.341-1.441
			s0.524-0.733,0.891-0.99c0.367-0.256,0.785-0.447,1.255-0.572c0.469-0.125,0.953-0.187,1.451-0.187
			c0.748,0,1.471,0.146,2.167,0.44c0.697,0.293,1.236,0.719,1.617,1.276L90.378,20.284z"/>
		<path fill="#FFFFFF" d="M95.625,22.177h0.066l4.378-4.533h2.772l-4.885,4.73l5.303,5.698h-2.86l-4.708-5.412h-0.066v5.412h-2.067
			V11.44h2.067V22.177z"/>
		<path fill="#FFFFFF" d="M114.227,22.837c0,0.807-0.143,1.547-0.429,2.221c-0.286,0.676-0.682,1.258-1.188,1.75
			c-0.506,0.491-1.104,0.873-1.793,1.144c-0.689,0.271-1.43,0.407-2.222,0.407s-1.533-0.136-2.222-0.407
			c-0.689-0.271-1.284-0.652-1.782-1.144c-0.499-0.492-0.891-1.074-1.177-1.75c-0.286-0.674-0.43-1.414-0.43-2.221
			s0.144-1.544,0.43-2.211s0.678-1.243,1.177-1.727c0.498-0.484,1.093-0.862,1.782-1.133c0.688-0.271,1.43-0.407,2.222-0.407
			s1.532,0.136,2.222,0.407c0.689,0.271,1.287,0.649,1.793,1.133c0.507,0.484,0.902,1.06,1.188,1.727S114.227,22.03,114.227,22.837z
			 M112.07,22.847c0-0.496-0.077-0.972-0.231-1.426c-0.154-0.453-0.379-0.851-0.673-1.195s-0.658-0.618-1.093-0.822
			c-0.434-0.205-0.931-0.308-1.489-0.308c-0.56,0-1.057,0.103-1.49,0.308c-0.434,0.205-0.798,0.479-1.092,0.822
			c-0.295,0.344-0.52,0.742-0.674,1.195c-0.154,0.454-0.231,0.93-0.231,1.426c0,0.498,0.077,0.974,0.231,1.426
			c0.154,0.454,0.379,0.856,0.674,1.207c0.294,0.352,0.658,0.629,1.092,0.834s0.931,0.307,1.49,0.307
			c0.559,0,1.056-0.102,1.489-0.307c0.435-0.205,0.799-0.482,1.093-0.834c0.294-0.351,0.519-0.753,0.673-1.207
			C111.993,23.82,112.07,23.345,112.07,22.847z"/>
		<path fill="#FFFFFF" d="M118.198,28.072h-2.067V11.44h2.067V28.072z"/>
		<path fill="#FFFFFF" d="M127.297,21.318c0-0.777-0.235-1.353-0.704-1.727c-0.47-0.374-1.093-0.561-1.87-0.561
			c-0.587,0-1.141,0.114-1.661,0.341c-0.521,0.228-0.957,0.517-1.31,0.869l-1.1-1.32c0.514-0.484,1.141-0.865,1.881-1.144
			c0.74-0.278,1.536-0.418,2.388-0.418c0.747,0,1.396,0.106,1.946,0.319c0.55,0.213,1.001,0.502,1.354,0.869
			c0.352,0.367,0.615,0.799,0.792,1.298c0.176,0.499,0.264,1.034,0.264,1.606v4.555c0,0.352,0.011,0.723,0.033,1.11
			c0.021,0.389,0.062,0.708,0.121,0.957h-1.87c-0.118-0.499-0.176-0.997-0.176-1.496h-0.066c-0.382,0.558-0.861,0.99-1.441,1.298
			c-0.579,0.309-1.265,0.463-2.057,0.463c-0.411,0-0.84-0.056-1.287-0.166c-0.447-0.109-0.854-0.289-1.221-0.539
			c-0.367-0.249-0.671-0.578-0.913-0.99c-0.242-0.41-0.363-0.916-0.363-1.518c0-0.792,0.213-1.419,0.639-1.881
			c0.425-0.462,0.982-0.814,1.672-1.056c0.688-0.242,1.466-0.399,2.332-0.474c0.865-0.072,1.737-0.109,2.618-0.109V21.318z
			 M126.79,23.101c-0.514,0-1.045,0.021-1.595,0.066c-0.55,0.043-1.049,0.131-1.496,0.264c-0.447,0.132-0.817,0.33-1.11,0.594
			c-0.294,0.264-0.44,0.615-0.44,1.056c0,0.308,0.062,0.565,0.187,0.771c0.125,0.205,0.29,0.373,0.495,0.506
			c0.205,0.132,0.433,0.224,0.683,0.275c0.249,0.051,0.506,0.076,0.77,0.076c0.968,0,1.713-0.289,2.233-0.869
			c0.521-0.578,0.781-1.309,0.781-2.188v-0.55H126.79z"/>
		<path fill="#FFFFFF" d="M133.798,33.353h-2.067V17.644h2.023v1.628h0.066c0.336-0.558,0.83-1.016,1.481-1.375
			c0.65-0.359,1.407-0.539,2.271-0.539c0.775,0,1.48,0.14,2.117,0.418c0.637,0.279,1.186,0.667,1.646,1.166
			c0.46,0.499,0.815,1.082,1.064,1.749c0.248,0.667,0.373,1.382,0.373,2.146c0,0.762-0.125,1.48-0.373,2.155
			c-0.249,0.675-0.601,1.262-1.054,1.761c-0.454,0.498-1.002,0.891-1.646,1.176c-0.645,0.287-1.368,0.43-2.173,0.43
			c-0.746,0-1.448-0.162-2.106-0.484c-0.659-0.322-1.179-0.777-1.559-1.363h-0.066V33.353z M140.662,22.837
			c0-0.484-0.073-0.954-0.22-1.408c-0.146-0.455-0.367-0.858-0.66-1.21c-0.294-0.352-0.656-0.63-1.089-0.836
			c-0.433-0.205-0.936-0.308-1.507-0.308c-0.528,0-1.009,0.103-1.441,0.308c-0.433,0.206-0.803,0.484-1.111,0.836
			c-0.308,0.352-0.546,0.755-0.715,1.21c-0.169,0.454-0.253,0.932-0.253,1.43s0.084,0.976,0.253,1.43
			c0.169,0.455,0.407,0.855,0.715,1.199c0.309,0.345,0.679,0.619,1.111,0.825s0.913,0.308,1.441,0.308
			c0.571,0,1.074-0.105,1.507-0.318s0.795-0.496,1.089-0.848c0.293-0.352,0.514-0.755,0.66-1.21
			C140.589,23.79,140.662,23.32,140.662,22.837z"/>
		<path fill="#FFFFFF" d="M152.025,28.072c-0.029-0.265-0.052-0.562-0.065-0.892c-0.016-0.33-0.022-0.604-0.022-0.824h-0.044
			c-0.264,0.558-0.708,1.03-1.331,1.419c-0.624,0.388-1.316,0.583-2.079,0.583c-0.675,0-1.258-0.11-1.749-0.33
			c-0.491-0.221-0.895-0.524-1.21-0.913c-0.315-0.388-0.55-0.839-0.704-1.353c-0.153-0.514-0.23-1.063-0.23-1.65v-6.468h2.067v5.764
			c0,0.426,0.033,0.833,0.1,1.222c0.065,0.389,0.187,0.729,0.362,1.022c0.177,0.294,0.418,0.528,0.727,0.704
			c0.308,0.176,0.704,0.264,1.188,0.264c0.836,0,1.511-0.312,2.024-0.936c0.513-0.623,0.77-1.455,0.77-2.496v-5.544h2.068v8.184
			c0,0.278,0.007,0.638,0.022,1.078c0.014,0.44,0.036,0.829,0.065,1.166H152.025z"/>
		<path fill="#FFFFFF" d="M157.593,28.072h-2.067V11.44h2.067V28.072z"/>
		<path fill="#FFFFFF" d="M165.833,20.284c-0.234-0.381-0.564-0.693-0.99-0.935c-0.426-0.242-0.901-0.363-1.43-0.363
			c-0.235,0-0.47,0.026-0.704,0.077s-0.443,0.132-0.627,0.242s-0.33,0.25-0.44,0.418c-0.109,0.169-0.165,0.378-0.165,0.627
			c0,0.44,0.198,0.766,0.595,0.979c0.396,0.213,0.989,0.407,1.781,0.583c0.499,0.118,0.961,0.257,1.387,0.418
			c0.425,0.161,0.795,0.363,1.11,0.604c0.315,0.242,0.562,0.533,0.737,0.869c0.176,0.338,0.264,0.734,0.264,1.188
			c0,0.616-0.117,1.137-0.352,1.562c-0.234,0.426-0.547,0.774-0.936,1.045c-0.389,0.271-0.832,0.467-1.33,0.584
			c-0.499,0.117-1.013,0.176-1.54,0.176c-0.792,0-1.566-0.154-2.321-0.462c-0.756-0.308-1.383-0.777-1.881-1.408l1.474-1.254
			c0.278,0.411,0.663,0.755,1.155,1.034c0.491,0.278,1.03,0.418,1.617,0.418c0.264,0,0.517-0.025,0.759-0.077
			s0.462-0.136,0.66-0.253c0.197-0.117,0.355-0.271,0.473-0.463c0.117-0.189,0.176-0.432,0.176-0.725
			c0-0.484-0.23-0.844-0.692-1.078s-1.141-0.455-2.035-0.66c-0.353-0.088-0.708-0.195-1.067-0.319s-0.686-0.297-0.979-0.517
			c-0.294-0.221-0.532-0.496-0.715-0.826c-0.184-0.329-0.275-0.736-0.275-1.22c0-0.557,0.113-1.038,0.341-1.441
			s0.524-0.733,0.891-0.99c0.367-0.256,0.785-0.447,1.255-0.572c0.469-0.125,0.953-0.187,1.451-0.187
			c0.748,0,1.471,0.146,2.167,0.44c0.697,0.293,1.236,0.719,1.617,1.276L165.833,20.284z"/>
		<path fill="#FFFFFF" d="M171.389,13.882c0,0.381-0.135,0.697-0.404,0.946c-0.269,0.25-0.593,0.374-0.971,0.374
			s-0.698-0.128-0.96-0.385c-0.263-0.256-0.394-0.568-0.394-0.935c0-0.381,0.131-0.7,0.394-0.957
			c0.262-0.256,0.582-0.385,0.96-0.385s0.702,0.129,0.971,0.385C171.254,13.182,171.389,13.501,171.389,13.882z M171.059,28.072
			h-2.068V17.644h2.068V28.072z"/>
		<path fill="#FFFFFF" d="M174.536,17.644c0.029,0.264,0.051,0.561,0.065,0.891s0.022,0.605,0.022,0.825h0.065
			c0.133-0.278,0.312-0.539,0.539-0.781c0.228-0.242,0.487-0.454,0.781-0.638c0.293-0.184,0.616-0.326,0.968-0.429
			c0.353-0.103,0.719-0.154,1.101-0.154c0.674,0,1.254,0.114,1.737,0.341c0.484,0.228,0.888,0.532,1.21,0.913
			c0.323,0.381,0.562,0.829,0.716,1.342c0.153,0.514,0.23,1.064,0.23,1.65v6.468h-2.068v-5.786c0-0.426-0.032-0.828-0.099-1.21
			c-0.065-0.381-0.187-0.718-0.363-1.012c-0.176-0.293-0.418-0.528-0.726-0.704c-0.308-0.176-0.704-0.264-1.188-0.264
			c-0.821,0-1.492,0.312-2.013,0.935c-0.521,0.624-0.781,1.456-0.781,2.497v5.544h-2.067v-8.184c0-0.278-0.008-0.638-0.022-1.078
			c-0.015-0.44-0.036-0.828-0.065-1.166H174.536z"/>
		<path fill="#FFFFFF" d="M185.34,17.644c0.029,0.264,0.051,0.561,0.065,0.891s0.022,0.605,0.022,0.825h0.065
			c0.133-0.278,0.312-0.539,0.539-0.781c0.228-0.242,0.487-0.454,0.781-0.638c0.293-0.184,0.616-0.326,0.968-0.429
			c0.353-0.103,0.719-0.154,1.101-0.154c0.674,0,1.254,0.114,1.737,0.341c0.484,0.228,0.888,0.532,1.21,0.913
			c0.323,0.381,0.562,0.829,0.716,1.342c0.153,0.514,0.23,1.064,0.23,1.65v6.468h-2.068v-5.786c0-0.426-0.032-0.828-0.099-1.21
			c-0.065-0.381-0.187-0.718-0.363-1.012c-0.176-0.293-0.418-0.528-0.726-0.704c-0.308-0.176-0.704-0.264-1.188-0.264
			c-0.821,0-1.492,0.312-2.013,0.935c-0.521,0.624-0.781,1.456-0.781,2.497v5.544h-2.067v-8.184c0-0.278-0.008-0.638-0.022-1.078
			c-0.015-0.44-0.036-0.828-0.065-1.166H185.34z"/>
	</g>
	<polygon fill="#FFFFFF" points="109.425,15.535 107.822,15.535 109.901,12.54 112.253,12.54 	"/>
	<polygon fill="#FFFFFF" points="150.109,15.535 148.507,15.535 150.589,12.54 152.938,12.54 	"/>
</g>
<path fill="#FFFFFF" d="M1.744,19.366c0.139-1.69,0.492-3.347,1.057-4.945C5.583,6.548,13.064,1.258,21.42,1.258V0.13
	c-4.403,0-8.613,1.355-12.177,3.918C7.527,5.282,6.014,6.763,4.741,8.451c-1.286,1.705-2.296,3.588-3.005,5.595
	c-0.607,1.717-0.982,3.501-1.125,5.32H0.61L0.604,19.51c-0.032,0.45-0.052,0.901-0.054,1.354l-0.008,0.203v1.684h41.75v-3.386
	L1.744,19.366L1.744,19.366z"/>
<path fill="#FFFFFF" d="M41.875,25.74l-0.108,0.375c-0.077,0.224-0.773,2.156-0.857,2.373c-1.498,3.896-4.104,7.227-7.54,9.629
	c-3.513,2.461-7.646,3.76-11.949,3.76v-1.132c8.117,0,15.526-5.089,18.435-12.662c0.041-0.103,0.248-0.665,0.448-1.213H0.582v-1.13
	h40.029H41.875z"/>
</svg>
