<?xml version="1.0" encoding="utf-8"?>
<!-- Generator: Adobe Illustrator 15.0.2, SVG Export Plug-In . SVG Version: 6.00 Build 0)  -->
<!DOCTYPE svg PUBLIC "-//W3C//DTD SVG 1.1//EN" "http://www.w3.org/Graphics/SVG/1.1/DTD/svg11.dtd">
<svg version="1.1" id="Layer_2" xmlns="http://www.w3.org/2000/svg" xmlns:xlink="http://www.w3.org/1999/xlink" x="0px" y="0px"
	 width="227.971px" height="42px" viewBox="0 0 227.971 42" enable-background="new 0 0 227.971 42" xml:space="preserve">
<path fill="#FFFFFF" d="M1.744,19.366c0.139-1.69,0.492-3.347,1.057-4.945C5.583,6.548,13.064,1.258,21.42,1.258V0.13
	c-4.403,0-8.613,1.355-12.177,3.918C7.527,5.282,6.014,6.763,4.741,8.451c-1.286,1.705-2.296,3.588-3.005,5.595
	c-0.607,1.717-0.982,3.501-1.125,5.32H0.61L0.604,19.51c-0.032,0.45-0.052,0.901-0.054,1.354l-0.008,0.203v1.684h41.75v-3.386
	L1.744,19.366L1.744,19.366z"/>
<path fill="#FFFFFF" d="M41.875,25.74l-0.108,0.375c-0.077,0.224-0.773,2.156-0.857,2.374c-1.498,3.896-4.104,7.226-7.54,9.628
	c-3.513,2.461-7.646,3.76-11.949,3.76v-1.132c8.117,0,15.526-5.088,18.435-12.662c0.041-0.103,0.248-0.665,0.448-1.213H0.582v-1.13
	h40.029H41.875z"/>
<g>
	<path fill="#FFFFFF" d="M55.919,16.07c-0.279-0.362-0.673-0.666-1.182-0.91c-0.509-0.244-1.021-0.366-1.537-0.366
		c-0.307,0-0.614,0.039-0.92,0.115c-0.307,0.077-0.586,0.195-0.837,0.355c-0.25,0.161-0.457,0.37-0.617,0.627
		c-0.161,0.258-0.241,0.568-0.241,0.931c0,0.334,0.07,0.621,0.209,0.857c0.139,0.237,0.331,0.439,0.575,0.606
		c0.244,0.167,0.54,0.313,0.889,0.439c0.348,0.125,0.732,0.251,1.15,0.376c0.474,0.154,0.965,0.328,1.475,0.523
		c0.509,0.195,0.976,0.453,1.401,0.773c0.425,0.321,0.774,0.725,1.046,1.213c0.272,0.487,0.408,1.095,0.408,1.819
		c0,0.795-0.146,1.488-0.439,2.081c-0.293,0.593-0.684,1.084-1.171,1.474c-0.488,0.391-1.06,0.684-1.715,0.879
		c-0.655,0.194-1.346,0.292-2.07,0.292c-0.962,0-1.903-0.178-2.823-0.533c-0.92-0.355-1.673-0.881-2.258-1.578l1.882-1.757
		c0.362,0.502,0.847,0.899,1.454,1.191c0.606,0.293,1.203,0.439,1.788,0.439c0.306,0,0.62-0.038,0.941-0.115
		c0.321-0.076,0.61-0.205,0.868-0.387c0.258-0.181,0.467-0.407,0.627-0.68c0.16-0.271,0.241-0.609,0.241-1.014
		c0-0.391-0.091-0.715-0.272-0.973s-0.425-0.48-0.732-0.67c-0.307-0.188-0.669-0.352-1.087-0.49c-0.418-0.14-0.857-0.286-1.317-0.44
		c-0.446-0.139-0.893-0.306-1.338-0.502c-0.446-0.195-0.847-0.453-1.203-0.773s-0.645-0.714-0.868-1.182
		c-0.223-0.467-0.335-1.049-0.335-1.746c0-0.753,0.157-1.401,0.471-1.945c0.313-0.544,0.725-0.994,1.234-1.349
		c0.509-0.355,1.087-0.62,1.736-0.794c0.648-0.174,1.307-0.262,1.976-0.262c0.753,0,1.516,0.133,2.29,0.397
		c0.773,0.265,1.446,0.663,2.018,1.192L55.919,16.07z"/>
	<path fill="#FFFFFF" d="M58.095,19.751v-2.008h1.757v-2.907h2.468v2.907h2.509v2.008H62.32v4.663c0,0.446,0.08,0.815,0.24,1.108
		s0.52,0.439,1.077,0.439c0.167,0,0.348-0.018,0.544-0.053c0.195-0.034,0.369-0.087,0.522-0.156l0.084,1.966
		c-0.223,0.083-0.488,0.149-0.795,0.198s-0.6,0.073-0.878,0.073c-0.669,0-1.213-0.094-1.631-0.282
		c-0.418-0.188-0.75-0.446-0.994-0.773c-0.244-0.328-0.411-0.704-0.502-1.13c-0.091-0.425-0.136-0.881-0.136-1.369v-4.685H58.095z"
		/>
	<path fill="#FFFFFF" d="M72.582,26.506h-0.063c-0.251,0.446-0.655,0.812-1.213,1.098s-1.192,0.429-1.903,0.429
		c-0.405,0-0.826-0.053-1.265-0.157c-0.439-0.104-0.844-0.278-1.213-0.522c-0.369-0.244-0.676-0.564-0.92-0.962
		c-0.244-0.397-0.366-0.889-0.366-1.475c0-0.753,0.212-1.352,0.638-1.798c0.425-0.446,0.972-0.788,1.642-1.024
		c0.669-0.238,1.412-0.395,2.227-0.471c0.815-0.077,1.614-0.115,2.395-0.115v-0.251c0-0.627-0.227-1.09-0.68-1.391
		c-0.453-0.299-0.993-0.449-1.621-0.449c-0.53,0-1.039,0.111-1.527,0.334s-0.892,0.495-1.213,0.815l-1.296-1.526
		c0.571-0.53,1.23-0.927,1.976-1.192c0.746-0.265,1.502-0.397,2.269-0.397c0.892,0,1.627,0.125,2.207,0.376
		c0.578,0.25,1.035,0.579,1.37,0.982c0.334,0.405,0.568,0.857,0.701,1.359c0.132,0.502,0.198,1.004,0.198,1.506v6.106h-2.342V26.506
		z M72.54,23.201h-0.564c-0.405,0-0.83,0.018-1.276,0.053s-0.857,0.111-1.234,0.229c-0.376,0.119-0.69,0.286-0.941,0.502
		c-0.251,0.217-0.376,0.513-0.376,0.889c0,0.237,0.052,0.437,0.157,0.597s0.241,0.289,0.408,0.387
		c0.167,0.098,0.355,0.167,0.565,0.209c0.209,0.042,0.418,0.062,0.627,0.062c0.864,0,1.519-0.229,1.965-0.689
		c0.446-0.461,0.669-1.088,0.669-1.883V23.201z"/>
	<path fill="#FFFFFF" d="M77.299,17.743h2.404v1.673h0.043c0.279-0.586,0.67-1.06,1.172-1.422c0.5-0.362,1.086-0.543,1.756-0.543
		c0.098,0,0.201,0.003,0.314,0.01c0.111,0.007,0.209,0.024,0.291,0.052v2.3c-0.166-0.042-0.311-0.069-0.428-0.083
		c-0.119-0.014-0.234-0.021-0.346-0.021c-0.572,0-1.031,0.104-1.379,0.314c-0.35,0.209-0.621,0.46-0.816,0.752
		c-0.195,0.293-0.328,0.593-0.396,0.899c-0.07,0.307-0.105,0.551-0.105,0.731v5.375h-2.509V17.743z"/>
	<path fill="#FFFFFF" d="M85.583,19.751H83.68v-2.008h1.903v-1.485c0-0.599,0.065-1.174,0.198-1.725s0.355-1.035,0.669-1.454
		c0.314-0.418,0.729-0.749,1.245-0.993c0.516-0.244,1.163-0.366,1.944-0.366c0.279,0,0.513,0.01,0.7,0.031
		c0.188,0.021,0.38,0.06,0.575,0.115L90.748,14c-0.14-0.042-0.289-0.077-0.449-0.104c-0.161-0.028-0.332-0.042-0.513-0.042
		c-0.362,0-0.655,0.07-0.878,0.209c-0.224,0.14-0.395,0.321-0.513,0.544c-0.119,0.223-0.198,0.467-0.24,0.732
		c-0.042,0.265-0.063,0.523-0.063,0.774v1.631h2.321v2.008h-2.321v8.03h-2.509V19.751z"/>
	<path fill="#FFFFFF" d="M97.32,20.42c-0.224-0.292-0.53-0.547-0.92-0.763c-0.391-0.216-0.816-0.324-1.276-0.324
		c-0.404,0-0.773,0.084-1.108,0.251c-0.334,0.167-0.502,0.446-0.502,0.836c0,0.391,0.185,0.666,0.555,0.826
		c0.369,0.161,0.909,0.324,1.62,0.491c0.377,0.084,0.757,0.196,1.141,0.335c0.383,0.14,0.731,0.324,1.045,0.555
		c0.314,0.229,0.568,0.516,0.764,0.856c0.195,0.342,0.293,0.757,0.293,1.245c0,0.613-0.115,1.133-0.346,1.558
		c-0.229,0.426-0.536,0.771-0.92,1.035s-0.829,0.457-1.338,0.575c-0.51,0.118-1.035,0.178-1.579,0.178
		c-0.781,0-1.541-0.144-2.279-0.429c-0.739-0.286-1.353-0.693-1.841-1.224l1.652-1.548c0.278,0.363,0.641,0.663,1.087,0.899
		c0.446,0.237,0.941,0.355,1.485,0.355c0.181,0,0.366-0.021,0.554-0.062c0.188-0.042,0.362-0.107,0.523-0.198
		c0.16-0.091,0.289-0.213,0.387-0.366s0.146-0.342,0.146-0.564c0-0.419-0.192-0.718-0.575-0.899
		c-0.384-0.182-0.959-0.362-1.726-0.544c-0.376-0.084-0.742-0.191-1.098-0.324c-0.355-0.132-0.673-0.307-0.951-0.522
		c-0.279-0.216-0.502-0.484-0.67-0.806c-0.167-0.32-0.251-0.718-0.251-1.192c0-0.557,0.115-1.038,0.346-1.443
		c0.229-0.404,0.533-0.735,0.909-0.993c0.377-0.258,0.802-0.45,1.276-0.575c0.474-0.125,0.962-0.188,1.464-0.188
		c0.725,0,1.432,0.125,2.122,0.376c0.69,0.25,1.237,0.634,1.642,1.15L97.32,20.42z"/>
	<path fill="#FFFFFF" d="M112.683,17.451c0.655,0,1.217,0.115,1.684,0.345s0.851,0.533,1.15,0.91s0.52,0.809,0.658,1.297
		c0.14,0.488,0.21,0.99,0.21,1.506v6.273h-2.51v-5.562c0-0.293-0.021-0.6-0.062-0.92c-0.042-0.32-0.133-0.61-0.272-0.868
		s-0.331-0.471-0.575-0.638c-0.244-0.167-0.568-0.251-0.972-0.251c-0.391,0-0.726,0.084-1.004,0.251
		c-0.279,0.167-0.51,0.384-0.69,0.648c-0.182,0.265-0.313,0.562-0.397,0.889c-0.083,0.329-0.125,0.652-0.125,0.973v5.479h-2.51
		v-6.064c0-0.627-0.15-1.147-0.449-1.558c-0.301-0.411-0.771-0.617-1.412-0.617c-0.376,0-0.704,0.081-0.982,0.241
		c-0.279,0.161-0.506,0.366-0.68,0.617c-0.175,0.251-0.308,0.541-0.397,0.868c-0.091,0.328-0.136,0.659-0.136,0.993v5.521h-2.51
		V17.743h2.384v1.61h0.042c0.111-0.251,0.262-0.488,0.449-0.711c0.188-0.223,0.411-0.425,0.67-0.606
		c0.258-0.181,0.554-0.324,0.889-0.429c0.334-0.104,0.703-0.157,1.108-0.157c0.78,0,1.429,0.174,1.944,0.522
		c0.516,0.349,0.913,0.809,1.192,1.38c0.334-0.613,0.78-1.084,1.338-1.412C111.274,17.615,111.93,17.451,112.683,17.451z"/>
	<path fill="#FFFFFF" d="M124.985,26.506h-0.062c-0.251,0.446-0.655,0.812-1.213,1.098s-1.192,0.429-1.903,0.429
		c-0.404,0-0.826-0.053-1.265-0.157c-0.439-0.104-0.844-0.278-1.213-0.522c-0.37-0.244-0.677-0.564-0.921-0.962
		c-0.243-0.397-0.365-0.889-0.365-1.475c0-0.753,0.212-1.352,0.638-1.798c0.425-0.446,0.973-0.788,1.642-1.024
		c0.669-0.238,1.411-0.395,2.228-0.471c0.815-0.077,1.613-0.115,2.394-0.115v-0.251c0-0.627-0.227-1.09-0.679-1.391
		c-0.454-0.299-0.994-0.449-1.621-0.449c-0.53,0-1.039,0.111-1.526,0.334c-0.488,0.223-0.893,0.495-1.213,0.815l-1.297-1.526
		c0.571-0.53,1.23-0.927,1.977-1.192c0.745-0.265,1.502-0.397,2.269-0.397c0.893,0,1.628,0.125,2.206,0.376
		c0.579,0.25,1.035,0.579,1.37,0.982c0.335,0.405,0.567,0.857,0.7,1.359s0.199,1.004,0.199,1.506v6.106h-2.343V26.506z
		 M124.943,23.201h-0.564c-0.404,0-0.829,0.018-1.275,0.053s-0.857,0.111-1.233,0.229c-0.377,0.119-0.69,0.286-0.941,0.502
		c-0.251,0.217-0.377,0.513-0.377,0.889c0,0.237,0.053,0.437,0.157,0.597s0.24,0.289,0.408,0.387
		c0.167,0.098,0.355,0.167,0.564,0.209s0.418,0.062,0.627,0.062c0.864,0,1.52-0.229,1.966-0.689
		c0.446-0.461,0.669-1.088,0.669-1.883V23.201z"/>
	<path fill="#FFFFFF" d="M129.703,17.743h2.384v1.61h0.042c0.223-0.502,0.609-0.944,1.16-1.328c0.551-0.383,1.203-0.575,1.956-0.575
		c0.655,0,1.216,0.115,1.684,0.345c0.467,0.23,0.85,0.533,1.149,0.91s0.52,0.809,0.659,1.297c0.139,0.488,0.209,0.99,0.209,1.506
		v6.273h-2.51v-5.562c0-0.293-0.021-0.6-0.062-0.92c-0.042-0.32-0.133-0.61-0.271-0.868c-0.14-0.258-0.332-0.471-0.575-0.638
		c-0.244-0.167-0.568-0.251-0.973-0.251s-0.753,0.081-1.046,0.241c-0.293,0.161-0.533,0.366-0.722,0.617
		c-0.188,0.251-0.331,0.541-0.429,0.868s-0.146,0.659-0.146,0.993v5.521h-2.51V17.743z"/>
	<path fill="#FFFFFF" d="M141.321,17.743h2.384v1.61h0.042c0.223-0.502,0.609-0.944,1.16-1.328c0.551-0.383,1.203-0.575,1.956-0.575
		c0.655,0,1.216,0.115,1.684,0.345c0.467,0.23,0.85,0.533,1.149,0.91s0.52,0.809,0.659,1.297c0.139,0.488,0.209,0.99,0.209,1.506
		v6.273h-2.51v-5.562c0-0.293-0.021-0.6-0.062-0.92c-0.042-0.32-0.133-0.61-0.271-0.868c-0.14-0.258-0.332-0.471-0.575-0.638
		c-0.244-0.167-0.568-0.251-0.973-0.251s-0.753,0.081-1.046,0.241c-0.293,0.161-0.533,0.366-0.722,0.617
		c-0.188,0.251-0.331,0.541-0.429,0.868s-0.146,0.659-0.146,0.993v5.521h-2.51V17.743z"/>
	<path fill="#FFFFFF" d="M159.166,26.506h-0.062c-0.251,0.446-0.655,0.812-1.213,1.098s-1.192,0.429-1.903,0.429
		c-0.404,0-0.826-0.053-1.265-0.157c-0.439-0.104-0.844-0.278-1.213-0.522c-0.37-0.244-0.677-0.564-0.921-0.962
		c-0.243-0.397-0.365-0.889-0.365-1.475c0-0.753,0.212-1.352,0.638-1.798c0.425-0.446,0.973-0.788,1.642-1.024
		c0.669-0.238,1.411-0.395,2.228-0.471c0.815-0.077,1.613-0.115,2.394-0.115v-0.251c0-0.627-0.227-1.09-0.679-1.391
		c-0.454-0.299-0.994-0.449-1.621-0.449c-0.53,0-1.039,0.111-1.526,0.334c-0.488,0.223-0.893,0.495-1.213,0.815l-1.297-1.526
		c0.571-0.53,1.23-0.927,1.977-1.192c0.745-0.265,1.502-0.397,2.269-0.397c0.893,0,1.628,0.125,2.206,0.376
		c0.579,0.25,1.035,0.579,1.37,0.982c0.335,0.405,0.567,0.857,0.7,1.359s0.199,1.004,0.199,1.506v6.106h-2.343V26.506z
		 M159.124,23.201h-0.564c-0.404,0-0.829,0.018-1.275,0.053s-0.857,0.111-1.233,0.229c-0.377,0.119-0.69,0.286-0.941,0.502
		c-0.251,0.217-0.377,0.513-0.377,0.889c0,0.237,0.053,0.437,0.157,0.597s0.24,0.289,0.408,0.387
		c0.167,0.098,0.355,0.167,0.564,0.209s0.418,0.062,0.627,0.062c0.864,0,1.52-0.229,1.966-0.689
		c0.446-0.461,0.669-1.088,0.669-1.883V23.201z"/>
	<path fill="#FFFFFF" d="M166.288,17.743v1.401h0.063c0.125-0.195,0.289-0.394,0.491-0.596c0.202-0.202,0.449-0.383,0.742-0.543
		s0.624-0.293,0.993-0.397s0.784-0.157,1.245-0.157c0.711,0,1.365,0.136,1.965,0.408s1.115,0.645,1.548,1.119
		c0.432,0.474,0.767,1.032,1.004,1.673c0.237,0.642,0.355,1.332,0.355,2.071s-0.115,1.433-0.345,2.08
		c-0.23,0.648-0.558,1.213-0.983,1.694c-0.425,0.481-0.94,0.864-1.547,1.15c-0.606,0.285-1.294,0.429-2.061,0.429
		c-0.711,0-1.362-0.146-1.955-0.439s-1.049-0.69-1.37-1.192h-0.041V32.8h-2.51V17.743H166.288z M172.145,22.721
		c0-0.391-0.06-0.777-0.179-1.161c-0.118-0.383-0.296-0.728-0.533-1.035c-0.236-0.306-0.536-0.554-0.898-0.742
		c-0.363-0.188-0.788-0.282-1.276-0.282c-0.46,0-0.871,0.098-1.233,0.292c-0.363,0.196-0.673,0.447-0.931,0.753
		c-0.258,0.307-0.453,0.656-0.586,1.046c-0.133,0.39-0.198,0.78-0.198,1.17c0,0.391,0.065,0.778,0.198,1.161
		c0.133,0.384,0.328,0.729,0.586,1.035s0.567,0.555,0.931,0.742c0.362,0.188,0.773,0.282,1.233,0.282
		c0.488,0,0.913-0.097,1.276-0.292c0.362-0.195,0.662-0.446,0.898-0.753c0.237-0.307,0.415-0.655,0.533-1.046
		C172.085,23.501,172.145,23.111,172.145,22.721z"/>
	<path fill="#FFFFFF" d="M185.707,27.781h-2.384v-1.61h-0.042c-0.223,0.502-0.609,0.944-1.16,1.328
		c-0.551,0.383-1.203,0.575-1.955,0.575c-0.656,0-1.217-0.115-1.684-0.346c-0.468-0.229-0.851-0.533-1.15-0.909
		c-0.3-0.377-0.52-0.809-0.659-1.297c-0.14-0.487-0.209-0.989-0.209-1.506v-6.273h2.51v5.562c0,0.293,0.021,0.6,0.062,0.921
		c0.042,0.32,0.133,0.609,0.272,0.867c0.139,0.259,0.33,0.471,0.574,0.638c0.244,0.168,0.568,0.251,0.973,0.251
		c0.391,0,0.735-0.08,1.035-0.24s0.544-0.366,0.732-0.617c0.188-0.251,0.331-0.54,0.429-0.867c0.097-0.328,0.146-0.659,0.146-0.994
		v-5.521h2.509V27.781z M181.817,12.975h2.845l-2.949,3.012h-1.966L181.817,12.975z"/>
	<path fill="#FFFFFF" d="M188.165,11.971h2.509v15.81h-2.509V11.971z"/>
	<path fill="#FFFFFF" d="M198.797,20.42c-0.224-0.292-0.53-0.547-0.92-0.763c-0.391-0.216-0.816-0.324-1.276-0.324
		c-0.404,0-0.773,0.084-1.108,0.251c-0.334,0.167-0.502,0.446-0.502,0.836c0,0.391,0.185,0.666,0.555,0.826
		c0.369,0.161,0.909,0.324,1.62,0.491c0.377,0.084,0.757,0.196,1.141,0.335c0.383,0.14,0.731,0.324,1.045,0.555
		c0.314,0.229,0.568,0.516,0.764,0.856c0.195,0.342,0.293,0.757,0.293,1.245c0,0.613-0.115,1.133-0.346,1.558
		c-0.229,0.426-0.536,0.771-0.92,1.035s-0.829,0.457-1.338,0.575c-0.51,0.118-1.035,0.178-1.579,0.178
		c-0.781,0-1.541-0.144-2.279-0.429c-0.739-0.286-1.353-0.693-1.841-1.224l1.652-1.548c0.278,0.363,0.641,0.663,1.087,0.899
		c0.446,0.237,0.941,0.355,1.485,0.355c0.181,0,0.366-0.021,0.554-0.062c0.188-0.042,0.362-0.107,0.523-0.198
		c0.16-0.091,0.289-0.213,0.387-0.366s0.146-0.342,0.146-0.564c0-0.419-0.192-0.718-0.575-0.899
		c-0.384-0.182-0.959-0.362-1.726-0.544c-0.376-0.084-0.742-0.191-1.098-0.324c-0.355-0.132-0.673-0.307-0.951-0.522
		c-0.279-0.216-0.502-0.484-0.67-0.806c-0.167-0.32-0.251-0.718-0.251-1.192c0-0.557,0.115-1.038,0.346-1.443
		c0.229-0.404,0.533-0.735,0.909-0.993c0.377-0.258,0.802-0.45,1.276-0.575c0.474-0.125,0.962-0.188,1.464-0.188
		c0.725,0,1.432,0.125,2.122,0.376c0.69,0.25,1.237,0.634,1.642,1.15L198.797,20.42z"/>
	<path fill="#FFFFFF" d="M201.78,14.334c0-0.404,0.149-0.756,0.449-1.056c0.3-0.299,0.68-0.45,1.14-0.45s0.847,0.144,1.161,0.429
		c0.313,0.286,0.47,0.645,0.47,1.077s-0.156,0.792-0.47,1.077c-0.314,0.286-0.701,0.429-1.161,0.429s-0.84-0.15-1.14-0.45
		S201.78,14.739,201.78,14.334z M202.136,17.743h2.509v10.038h-2.509V17.743z"/>
	<path fill="#FFFFFF" d="M207.11,17.743h2.384v1.61h0.042c0.223-0.502,0.609-0.944,1.16-1.328c0.551-0.383,1.203-0.575,1.956-0.575
		c0.655,0,1.216,0.115,1.684,0.345c0.467,0.23,0.85,0.533,1.149,0.91s0.52,0.809,0.659,1.297c0.139,0.488,0.209,0.99,0.209,1.506
		v6.273h-2.51v-5.562c0-0.293-0.021-0.6-0.062-0.92c-0.042-0.32-0.133-0.61-0.271-0.868c-0.14-0.258-0.332-0.471-0.575-0.638
		c-0.244-0.167-0.568-0.251-0.973-0.251s-0.753,0.081-1.046,0.241c-0.293,0.161-0.533,0.366-0.722,0.617
		c-0.188,0.251-0.331,0.541-0.429,0.868s-0.146,0.659-0.146,0.993v5.521h-2.51V17.743z"/>
	<path fill="#FFFFFF" d="M218.728,17.743h2.384v1.61h0.042c0.223-0.502,0.609-0.944,1.16-1.328c0.551-0.383,1.203-0.575,1.956-0.575
		c0.655,0,1.216,0.115,1.684,0.345c0.467,0.23,0.85,0.533,1.149,0.91s0.52,0.809,0.659,1.297c0.139,0.488,0.209,0.99,0.209,1.506
		v6.273h-2.51v-5.562c0-0.293-0.021-0.6-0.062-0.92c-0.042-0.32-0.133-0.61-0.271-0.868c-0.14-0.258-0.332-0.471-0.575-0.638
		c-0.244-0.167-0.568-0.251-0.973-0.251s-0.753,0.081-1.046,0.241c-0.293,0.161-0.533,0.366-0.722,0.617
		c-0.188,0.251-0.331,0.541-0.429,0.868s-0.146,0.659-0.146,0.993v5.521h-2.51V17.743z"/>
</g>
</svg>
