<?xml version="1.0" encoding="UTF-8" standalone="no"?>
<!DOCTYPE svg PUBLIC "-//W3C//DTD SVG 1.1//EN" "http://www.w3.org/Graphics/SVG/1.1/DTD/svg11.dtd">
<svg width="100%" height="100%" viewBox="0 0 577 162" version="1.1" xmlns="http://www.w3.org/2000/svg" xmlns:xlink="http://www.w3.org/1999/xlink" xml:space="preserve" xmlns:serif="http://www.serif.com/" style="fill-rule:evenodd;clip-rule:evenodd;stroke-linejoin:round;stroke-miterlimit:2;">
    <g>
        <path d="M84.875,65.656L84.875,75.153L94.237,68.821L103.462,75.084L103.462,65.656L94.237,59.531L84.875,65.656Z" style="fill:white;"/>
        <path d="M51.663,45.969L44.556,40.808L35.194,47.139L35.194,56.705L44.556,50.305L51.595,55.604L58.907,50.305L68.269,56.705L68.269,47.139L58.907,40.808L51.663,45.969Z" style="fill:white;"/>
        <path d="M94.237,40.673L84.875,46.798L84.875,56.295L94.237,49.964L103.462,56.295L103.462,46.798L94.237,40.673Z" style="fill:white;"/>
        <path d="M9.157,31.175L18.519,37.438L18.519,23.674L35.194,23.674L35.194,37.575L44.556,31.175L51.594,36.474L58.907,31.175L68.269,37.575L68.269,23.674L84.875,23.674L84.875,37.438L94.237,31.175L103.462,37.438L103.462,0L84.943,0L84.943,15.347L68.337,15.347L68.337,0L35.057,0L35.057,15.347L18.519,15.347L18.519,0L0,0L0,37.438L9.157,31.175Z" style="fill:white;"/>
        <path d="M9.157,68.818L18.519,75.08L18.519,65.583L9.157,59.458L0,65.652L0,75.08L9.157,68.818Z" style="fill:white;"/>
        <path d="M18.519,56.295L18.519,46.798L9.157,40.673L0,46.798L0,56.227L9.157,49.964L18.519,56.295Z" style="fill:white;"/>
        <path d="M94.237,78.315L84.875,84.44L84.875,136.949C94.852,125.662 102.096,112.105 103.394,97.653L103.394,84.371L94.237,78.315Z" style="fill:white;"/>
        <path d="M18.519,84.44L9.157,78.315L0,84.44L0,97.722C1.298,112.174 8.542,125.8 18.519,137.155L18.519,84.44Z" style="fill:white;"/>
        <path d="M68.269,85.404L58.906,79.141L51.731,84.303L44.556,79.141L35.125,85.404L35.057,152.227C40.387,156.081 45.991,159.453 51.526,161.999C57.198,159.384 62.87,156.012 68.269,152.02" style="fill:white;"/>
        <path d="M68.269,66.272L58.907,60.009L51.663,65.171L44.556,60.009L35.125,66.272L35.125,75.907L44.556,69.438L51.594,74.737L58.907,69.438L68.269,75.907" style="fill:white;"/>
    </g>
    <path d="M172.429,74.988L166.691,74.988L166.691,101.191L153.151,101.191L153.151,31.977L175.696,31.977C192.803,31.977 199.916,42.746 199.916,53.429C199.916,61.726 195.661,70.045 185.775,73.398L201.507,101.191L186.291,101.191L172.429,74.988ZM166.691,62.93L174.492,62.93C182.401,62.93 186.248,59.276 186.248,53.429C186.248,47.582 182.401,44.036 174.492,44.036L166.691,44.036L166.691,62.93Z" style="fill:white;fill-rule:nonzero;"/>
    <path d="M255.063,80.921L220.462,80.921C220.956,86.251 224.61,91.905 232.734,91.905C238.472,91.905 241.631,89.239 242.62,85.779L254.375,85.779C252.398,96.053 244.683,102.588 232.519,102.588C216.787,102.588 207.503,91.324 207.503,76.385C207.503,61.661 217.281,50.183 231.831,50.183C244.489,50.183 255.063,58.587 255.063,74.601L255.063,80.921ZM242.899,71.914C242.706,65.681 238.45,60.844 231.638,60.844C224.524,60.844 220.956,65.982 220.462,71.914L242.899,71.914Z" style="fill:white;fill-rule:nonzero;"/>
    <path d="M311.499,51.56L282.636,123.16L270.085,123.16L278.596,100.913L257.728,51.56L271.675,51.56L284.914,84.383L297.465,51.56L311.499,51.56Z" style="fill:white;fill-rule:nonzero;"/>
    <path d="M349.324,101.191L331.83,78.836L331.83,101.191L318.871,101.191L318.871,27.227L331.83,27.227L331.83,68.454L347.347,51.452L363.552,51.452L342.984,73.312L365.335,101.191L349.324,101.191Z" style="fill:white;fill-rule:nonzero;"/>
    <path d="M364.755,111.959L366.345,111.959C370.192,111.959 373.072,110.089 373.072,104.436L373.072,51.558L386.031,51.558L386.031,103.877C386.031,117.613 378.23,123.158 369.526,123.158L364.776,123.158L364.776,111.959L364.755,111.959ZM371.782,35.523C371.782,31.375 375.242,27.806 379.584,27.806C383.839,27.806 387.299,31.375 387.299,35.523C387.299,39.865 383.839,43.326 379.584,43.326C375.242,43.347 371.782,39.887 371.782,35.523Z" style="fill:white;fill-rule:nonzero;"/>
    <path d="M396.046,89.519C396.046,79.438 403.847,74.58 415.517,71.334L426.005,68.368C426.005,62.929 422.351,60.651 417.903,60.651C413.261,60.651 409.306,62.736 409.306,68.368L397.443,68.368C397.443,55.019 407.823,50.183 417.903,50.183C427.595,50.183 438.47,54.933 438.47,68.669L438.47,101.212L426.198,101.212L426.198,95.473C422.631,100.03 416.42,102.588 410.381,102.588C403.353,102.566 396.046,99.106 396.046,89.519ZM425.511,82.296L425.511,78.148L417.494,80.426C410.574,82.404 408.704,85.263 408.704,87.95C408.704,90.529 410.682,92.012 413.54,92.012C418.096,91.991 425.511,88.036 425.511,82.296Z" style="fill:white;fill-rule:nonzero;"/>
    <path d="M494.326,51.56L475.349,101.192L462.089,101.192L443.112,51.56L456.458,51.56L468.708,85.866L480.872,51.56L494.326,51.56Z" style="fill:white;fill-rule:nonzero;"/>
    <path d="M511.282,44.917L500.794,44.917L510.487,29.29L524.628,29.29L511.282,44.917ZM501.59,51.451L514.549,51.451L514.549,101.191L501.59,101.191L501.59,51.451Z" style="fill:white;fill-rule:nonzero;"/>
    <path d="M560.518,101.191L543.025,78.836L543.025,101.191L530.065,101.191L530.065,27.227L543.025,27.227L543.025,68.454L558.541,51.452L574.746,51.452L554.179,73.312L576.53,101.191L560.518,101.191Z" style="fill:white;fill-rule:nonzero;"/>
</svg>
