<?xml version="1.0" encoding="utf-8"?>
<!-- Generator: Adobe Illustrator 15.0.2, SVG Export Plug-In . SVG Version: 6.00 Build 0)  -->
<!DOCTYPE svg PUBLIC "-//W3C//DTD SVG 1.1//EN" "http://www.w3.org/Graphics/SVG/1.1/DTD/svg11.dtd">
<svg version="1.1" id="Layer_1" xmlns="http://www.w3.org/2000/svg" xmlns:xlink="http://www.w3.org/1999/xlink" x="0px" y="0px"
	 width="156px" height="42px" viewBox="0 0 156 42" enable-background="new 0 0 156 42" xml:space="preserve">
<path fill="#5884C3" d="M1.569,19.429c0.133-1.623,0.472-3.212,1.014-4.745C5.251,7.131,12.431,2.056,20.448,2.056V0.973
	c-4.226,0-8.265,1.299-11.683,3.759c-1.646,1.184-3.1,2.604-4.319,4.223c-1.234,1.638-2.204,3.444-2.885,5.369
	c-0.583,1.648-0.941,3.359-1.077,5.105H0.483l-0.009,0.156c-0.029,0.416-0.046,0.833-0.05,1.252l-0.008,0.226v1.615h40.059v-3.249
	H1.569z"/>
<path d="M40.111,25.546H0.453v1.083h38.114c-0.192,0.523-0.391,1.064-0.429,1.167c-2.793,7.267-9.902,12.147-17.689,12.147v1.082
	c4.129,0,8.094-1.244,11.466-3.604c3.295-2.306,5.796-5.501,7.234-9.239c0.072-0.189,0.642-1.746,0.792-2.168
	c0.013-0.037,0.156-0.438,0.162-0.453h-0.01L40.111,25.546z"/>
<path d="M55.375,13.808h2.223v7.917l4.017-4.075h2.73l-3.861,3.704l4.231,6.376h-2.71l-3.081-4.895l-1.326,1.287v3.607h-2.223
	V13.808z"/>
<path d="M70.242,28.074c-0.806,0-1.524-0.135-2.155-0.4s-1.164-0.634-1.599-1.102c-0.435-0.469-0.767-1.026-0.994-1.678
	c-0.228-0.649-0.341-1.364-0.341-2.146c0-0.767,0.113-1.475,0.341-2.125c0.227-0.65,0.559-1.209,0.994-1.677
	c0.436-0.469,0.968-0.836,1.599-1.104c0.63-0.266,1.349-0.399,2.155-0.399c0.806,0,1.524,0.134,2.155,0.399
	c0.63,0.267,1.163,0.634,1.599,1.104c0.435,0.468,0.767,1.026,0.994,1.677c0.227,0.651,0.341,1.358,0.341,2.125
	c0,0.78-0.114,1.495-0.341,2.146c-0.227,0.651-0.559,1.209-0.994,1.678c-0.436,0.468-0.969,0.836-1.599,1.102
	C71.766,27.939,71.048,28.074,70.242,28.074z M70.242,26.318c0.494,0,0.923-0.104,1.287-0.312c0.364-0.208,0.663-0.48,0.897-0.818
	c0.234-0.338,0.406-0.719,0.517-1.142c0.11-0.422,0.166-0.854,0.166-1.297c0-0.429-0.056-0.856-0.166-1.287
	c-0.11-0.429-0.283-0.809-0.517-1.141c-0.234-0.331-0.533-0.601-0.897-0.809c-0.364-0.208-0.793-0.312-1.287-0.312
	c-0.494,0-0.923,0.104-1.287,0.312c-0.364,0.208-0.663,0.478-0.897,0.809c-0.234,0.332-0.406,0.712-0.517,1.141
	c-0.111,0.431-0.166,0.858-0.166,1.287c0,0.442,0.055,0.875,0.166,1.297c0.11,0.423,0.283,0.804,0.517,1.142s0.533,0.61,0.897,0.818
	C69.319,26.214,69.748,26.318,70.242,26.318z M70.886,13.526h2.632l-2.769,2.789h-1.618L70.886,13.526z"/>
<path d="M77.242,13.878h2.223v13.923h-2.223V13.878z"/>
<path d="M90.326,25.559c0,0.272,0.035,0.469,0.107,0.586c0.071,0.116,0.211,0.174,0.42,0.174c0.063,0,0.143,0,0.233,0
	c0.09,0,0.194-0.012,0.312-0.038v1.54c-0.078,0.025-0.178,0.056-0.301,0.089c-0.125,0.032-0.252,0.062-0.382,0.088
	c-0.13,0.024-0.26,0.045-0.391,0.06c-0.13,0.012-0.24,0.02-0.33,0.02c-0.456,0-0.833-0.092-1.132-0.273
	c-0.301-0.182-0.494-0.5-0.586-0.955c-0.44,0.43-0.983,0.74-1.627,0.937c-0.645,0.196-1.266,0.293-1.862,0.293
	c-0.455,0-0.892-0.062-1.308-0.187c-0.416-0.123-0.782-0.306-1.102-0.546c-0.318-0.239-0.572-0.546-0.761-0.917
	c-0.188-0.369-0.282-0.803-0.282-1.297c0-0.624,0.113-1.131,0.341-1.521c0.228-0.39,0.526-0.694,0.897-0.916
	c0.369-0.221,0.785-0.381,1.248-0.479c0.461-0.098,0.926-0.172,1.394-0.224c0.403-0.078,0.786-0.134,1.15-0.166
	s0.686-0.089,0.966-0.166c0.279-0.078,0.5-0.198,0.662-0.36c0.163-0.163,0.244-0.406,0.244-0.731c0-0.286-0.068-0.52-0.205-0.702
	c-0.137-0.182-0.305-0.321-0.506-0.419c-0.202-0.098-0.428-0.163-0.674-0.195s-0.48-0.049-0.701-0.049
	c-0.625,0-1.139,0.13-1.541,0.39c-0.402,0.261-0.631,0.663-0.684,1.209h-2.223c0.039-0.649,0.193-1.189,0.468-1.618
	c0.274-0.429,0.621-0.773,1.043-1.033c0.423-0.26,0.9-0.442,1.435-0.546c0.533-0.104,1.078-0.156,1.639-0.156
	c0.493,0,0.98,0.052,1.462,0.156s0.913,0.272,1.297,0.507c0.384,0.235,0.692,0.536,0.927,0.906c0.233,0.371,0.351,0.823,0.351,1.355
	L90.326,25.559L90.326,25.559z M88.104,22.75c-0.338,0.223-0.754,0.354-1.248,0.4c-0.494,0.045-0.987,0.113-1.48,0.203
	c-0.234,0.039-0.462,0.096-0.684,0.166c-0.221,0.071-0.416,0.17-0.584,0.293c-0.17,0.123-0.303,0.287-0.399,0.487
	c-0.097,0.201-0.146,0.445-0.146,0.731c0,0.246,0.07,0.455,0.215,0.624c0.143,0.169,0.313,0.302,0.516,0.399
	s0.423,0.165,0.664,0.204c0.24,0.038,0.458,0.058,0.652,0.058c0.246,0,0.514-0.031,0.8-0.097c0.286-0.064,0.556-0.176,0.81-0.331
	c0.254-0.156,0.465-0.354,0.635-0.596c0.168-0.24,0.252-0.536,0.252-0.887V22.75H88.104z"/>
<path d="M92.783,17.72h2.105v1.364h0.039c0.312-0.585,0.747-1.004,1.307-1.258c0.56-0.253,1.164-0.38,1.813-0.38
	c0.793,0,1.484,0.14,2.076,0.419c0.592,0.28,1.082,0.663,1.474,1.15c0.391,0.488,0.682,1.057,0.877,1.707
	c0.194,0.649,0.293,1.344,0.293,2.086c0,0.676-0.088,1.332-0.265,1.969c-0.175,0.638-0.44,1.199-0.799,1.688s-0.81,0.878-1.354,1.17
	c-0.547,0.293-1.189,0.439-1.932,0.439c-0.325,0-0.648-0.029-0.975-0.088c-0.326-0.06-0.639-0.153-0.938-0.283
	s-0.574-0.295-0.828-0.497c-0.254-0.201-0.465-0.438-0.634-0.712h-0.039v5.031h-2.224V17.72H92.783z M100.545,22.77
	c0-0.455-0.059-0.896-0.176-1.326c-0.117-0.429-0.293-0.809-0.526-1.141c-0.233-0.331-0.526-0.598-0.878-0.799
	c-0.352-0.202-0.754-0.303-1.209-0.303c-0.936,0-1.641,0.325-2.115,0.976c-0.475,0.649-0.711,1.515-0.711,2.593
	c0,0.508,0.062,0.979,0.184,1.414c0.125,0.437,0.31,0.811,0.558,1.121c0.246,0.312,0.543,0.561,0.888,0.741
	c0.344,0.183,0.743,0.272,1.198,0.272c0.509,0,0.937-0.104,1.287-0.312c0.353-0.208,0.642-0.479,0.868-0.811
	c0.229-0.33,0.39-0.707,0.486-1.131C100.496,23.645,100.545,23.212,100.545,22.77z"/>
<path d="M113.492,27.801h-2.184v-1.404h-0.039c-0.273,0.508-0.681,0.914-1.22,1.22c-0.538,0.306-1.089,0.459-1.647,0.459
	c-1.325,0-2.284-0.328-2.875-0.985c-0.592-0.656-0.889-1.646-0.889-2.974V17.72h2.225V23.9c0,0.885,0.168,1.509,0.506,1.871
	c0.338,0.364,0.812,0.547,1.424,0.547c0.469,0,0.857-0.071,1.17-0.215s0.566-0.334,0.762-0.574c0.194-0.24,0.334-0.53,0.418-0.868
	c0.086-0.338,0.127-0.702,0.127-1.093v-5.85h2.224L113.492,27.801L113.492,27.801z M109.924,13.526h2.633l-2.77,2.789h-1.617
	L109.924,13.526z"/>
<path d="M115.891,13.878h2.225v13.923h-2.225V13.878z"/>
<path d="M122.209,24.562c0.064,0.65,0.312,1.105,0.74,1.365c0.43,0.262,0.943,0.391,1.541,0.391c0.208,0,0.445-0.017,0.712-0.049
	c0.267-0.033,0.517-0.095,0.751-0.186s0.426-0.225,0.574-0.4c0.149-0.175,0.219-0.404,0.205-0.69s-0.117-0.521-0.312-0.702
	c-0.195-0.184-0.445-0.328-0.751-0.439c-0.306-0.108-0.653-0.203-1.043-0.281c-0.392-0.078-0.787-0.162-1.188-0.254
	c-0.416-0.092-0.816-0.201-1.199-0.332c-0.385-0.129-0.729-0.305-1.033-0.525c-0.307-0.221-0.551-0.504-0.732-0.85
	c-0.182-0.343-0.271-0.771-0.271-1.276c0-0.546,0.134-1.004,0.398-1.374c0.268-0.371,0.605-0.67,1.016-0.897
	s0.863-0.387,1.363-0.478c0.502-0.091,0.979-0.137,1.435-0.137c0.521,0,1.019,0.056,1.491,0.166c0.475,0.11,0.904,0.289,1.287,0.536
	c0.384,0.247,0.701,0.568,0.955,0.965c0.254,0.396,0.412,0.875,0.479,1.434h-2.321c-0.104-0.533-0.348-0.891-0.73-1.072
	c-0.383-0.183-0.822-0.273-1.316-0.273c-0.156,0-0.341,0.014-0.555,0.039c-0.215,0.026-0.417,0.075-0.605,0.146
	c-0.188,0.071-0.348,0.176-0.478,0.312c-0.13,0.137-0.194,0.315-0.194,0.536c0,0.273,0.094,0.494,0.283,0.663s0.438,0.31,0.743,0.42
	c0.306,0.11,0.655,0.205,1.046,0.283c0.393,0.078,0.795,0.162,1.213,0.254c0.404,0.09,0.803,0.201,1.193,0.33
	c0.391,0.131,0.738,0.307,1.046,0.526c0.307,0.222,0.554,0.501,0.743,0.839c0.188,0.338,0.283,0.754,0.283,1.248
	c0,0.598-0.138,1.105-0.41,1.521c-0.273,0.416-0.629,0.755-1.064,1.015c-0.438,0.26-0.922,0.448-1.456,0.565
	s-1.062,0.176-1.583,0.176c-0.639,0-1.229-0.072-1.77-0.215c-0.541-0.144-1.01-0.361-1.406-0.653
	c-0.396-0.293-0.71-0.656-0.938-1.092c-0.229-0.437-0.351-0.952-0.361-1.552h2.221V24.562z"/>
<path d="M130.711,13.878h2.223v2.105h-2.223V13.878z M130.711,17.72h2.223v10.081h-2.223V17.72z"/>
<path d="M135.352,17.72h2.105v1.481l0.039,0.039c0.338-0.559,0.781-0.997,1.326-1.316c0.547-0.318,1.15-0.478,1.814-0.478
	c1.104,0,1.975,0.286,2.611,0.858c0.637,0.572,0.956,1.43,0.956,2.573V27.8h-2.224v-6.338c-0.026-0.792-0.194-1.367-0.508-1.726
	c-0.312-0.357-0.799-0.536-1.463-0.536c-0.377,0-0.715,0.068-1.014,0.205c-0.299,0.137-0.553,0.325-0.76,0.564
	c-0.209,0.24-0.371,0.523-0.488,0.848c-0.117,0.325-0.176,0.67-0.176,1.034v5.947h-2.223V17.72H135.352z"/>
<path d="M146.545,17.72h2.105v1.481l0.039,0.039c0.338-0.559,0.779-0.997,1.326-1.316c0.545-0.318,1.149-0.478,1.812-0.478
	c1.104,0,1.977,0.286,2.611,0.858c0.637,0.572,0.957,1.43,0.957,2.573V27.8h-2.225v-6.338c-0.025-0.792-0.193-1.367-0.506-1.726
	c-0.312-0.357-0.8-0.536-1.463-0.536c-0.377,0-0.715,0.068-1.014,0.205c-0.301,0.137-0.553,0.325-0.762,0.564
	c-0.207,0.24-0.369,0.523-0.486,0.848c-0.117,0.325-0.176,0.67-0.176,1.034v5.947h-2.224V17.72H146.545z"/>
<g>
	<path d="M45.137,23.262c0,0.52,0.088,0.963,0.266,1.33c0.177,0.367,0.424,0.668,0.741,0.902c0.317,0.234,0.681,0.405,1.093,0.513
		s0.858,0.161,1.339,0.161c0.52,0,0.962-0.06,1.33-0.18c0.367-0.121,0.665-0.275,0.893-0.467c0.228-0.189,0.393-0.408,0.494-0.654
		c0.101-0.248,0.152-0.498,0.152-0.751c0-0.519-0.117-0.902-0.352-1.149s-0.491-0.421-0.77-0.522
		c-0.481-0.177-1.042-0.345-1.682-0.503c-0.64-0.159-1.428-0.365-2.365-0.618c-0.583-0.152-1.067-0.352-1.454-0.599
		c-0.387-0.247-0.693-0.522-0.921-0.826c-0.228-0.304-0.39-0.627-0.484-0.969c-0.095-0.342-0.143-0.69-0.143-1.045
		c0-0.684,0.143-1.276,0.427-1.776c0.285-0.5,0.662-0.915,1.131-1.245c0.468-0.329,1-0.573,1.596-0.731
		c0.595-0.158,1.197-0.238,1.805-0.238c0.709,0,1.377,0.092,2.004,0.276s1.178,0.459,1.653,0.826
		c0.475,0.368,0.852,0.82,1.131,1.358c0.278,0.539,0.418,1.163,0.418,1.872h-2.375c-0.063-0.874-0.361-1.491-0.893-1.853
		c-0.532-0.361-1.21-0.542-2.033-0.542c-0.279,0-0.563,0.029-0.855,0.085c-0.292,0.057-0.558,0.152-0.798,0.285
		c-0.241,0.133-0.44,0.313-0.599,0.542c-0.159,0.228-0.237,0.513-0.237,0.855c0,0.481,0.148,0.858,0.446,1.13
		c0.297,0.273,0.687,0.479,1.168,0.618c0.051,0.013,0.25,0.066,0.599,0.162c0.348,0.095,0.738,0.199,1.168,0.313
		c0.431,0.114,0.852,0.225,1.264,0.333c0.411,0.108,0.706,0.187,0.883,0.237c0.443,0.14,0.83,0.33,1.159,0.57
		c0.329,0.241,0.604,0.516,0.826,0.827s0.386,0.643,0.494,0.997c0.107,0.354,0.162,0.71,0.162,1.063c0,0.761-0.155,1.41-0.465,1.948
		c-0.311,0.538-0.719,0.979-1.226,1.32c-0.507,0.342-1.083,0.593-1.729,0.751s-1.305,0.237-1.976,0.237
		c-0.773,0-1.501-0.095-2.185-0.285s-1.279-0.481-1.786-0.874s-0.912-0.896-1.216-1.511c-0.304-0.614-0.462-1.339-0.475-2.175
		H45.137z"/>
</g>
</svg>
