<?xml version="1.0" encoding="utf-8"?>
<!-- Generator: Adobe Illustrator 16.2.1, SVG Export Plug-In . SVG Version: 6.00 Build 0)  -->
<!DOCTYPE svg PUBLIC "-//W3C//DTD SVG 1.1//EN" "http://www.w3.org/Graphics/SVG/1.1/DTD/svg11.dtd">
<svg version="1.1" id="Layer_1" xmlns="http://www.w3.org/2000/svg" xmlns:xlink="http://www.w3.org/1999/xlink" x="0px" y="0px"
	 width="305px" height="95px" viewBox="0 0 305 95" enable-background="new 0 0 305 95" xml:space="preserve">
<g>
	
		<image overflow="visible" width="826" height="428" xlink:href="1C0426944880318D.png"  transform="matrix(0.24 0 0 0.24 107.3882 -12.5889)">
	</image>
	<g>
		
			<text transform="matrix(1 0 0 1 109.4751 64.1426)" fill="#404041" font-family="'AvenirNext-Bold'" font-size="87.5086" letter-spacing="-2">vísar</text>
	</g>
</g>
<g>
	
		<image overflow="visible" width="729" height="114" xlink:href="1C0426944880318F.png"  transform="matrix(0.24 0 0 0.24 124.8013 69.5293)">
	</image>
	<g>
		<text transform="matrix(1 0 0 1 126.8013 87.9395)" fill="#404041" font-family="'AvenirNext-Regular'" font-size="19.2148">við mælum með þér</text>
	</g>
</g>
<g>
	<polygon fill="#005283" points="-0.25,65.704 19.879,79.552 44.114,89.603 56.139,83.691 68.273,74.697 32.441,67.131 
		16.31,67.703 	"/>
	<polygon fill="#006DAF" points="71.651,80.883 86.688,74.982 108.388,66.037 83.453,68.707 52.427,67 29.966,67 55.473,73.466 	"/>
	<polygon fill="#41C2FF" points="37.226,9.217 52.427,37.581 71.425,65.847 16.31,67.703 -0.25,65.704 20.735,30.443 	"/>
	<polygon fill="#FFFFFF" points="46.994,37.623 35.296,28.349 24.638,36.533 29.966,27.207 37.081,20.493 41.387,28.539 	"/>
	<polygon fill="#99D9FF" points="71.163,25.271 86.707,40.135 108.245,66.037 83.453,68.701 54.139,67.097 30.68,67.179 
		49.572,49.667 	"/>
	<polygon fill="#FFFFFF" points="84.057,47.059 73.255,40.678 57.947,46.622 66.571,39.234 72.102,33.198 78.885,39.198 	"/>
</g>
</svg>
