<?xml version="1.0" encoding="utf-8"?>
<!-- Generator: Adobe Illustrator 16.2.1, SVG Export Plug-In . SVG Version: 6.00 Build 0)  -->
<!DOCTYPE svg PUBLIC "-//W3C//DTD SVG 1.1//EN" "http://www.w3.org/Graphics/SVG/1.1/DTD/svg11.dtd">
<svg version="1.1" id="Layer_1" xmlns="http://www.w3.org/2000/svg" xmlns:xlink="http://www.w3.org/1999/xlink" x="0px" y="0px" viewBox="0 0 320 100" enable-background="new 0 0 320 100" xml:space="preserve">
<g>
	<polygon fill="#005283" points="2.861,67.512 23.013,81.376 47.274,91.438 59.312,85.52 71.46,76.516 35.588,68.942 19.439,69.515 
			"/>
	<polygon fill="#006DAF" points="74.843,82.709 89.896,76.803 111.619,67.847 86.657,70.513 55.596,68.799 34.637,68.799 
		58.646,75.276 	"/>
	<polygon fill="#41C2FF" points="40.378,11.193 55.596,39.587 74.616,67.885 20.154,69.602 2.875,67.885 23.87,32.442 	"/>
	<polygon fill="#FFFFFF" points="50.157,39.63 38.447,30.346 27.776,38.54 33.111,29.203 40.234,22.481 44.544,30.537 	"/>
	<polygon fill="#99D9FF" points="74.352,27.264 89.916,42.146 111.415,68.457 87.038,70.934 57.311,69.137 33.111,69.028 
		52.738,51.688 	"/>
	<polygon fill="#FFFFFF" points="87.26,49.077 76.447,42.688 61.123,48.639 69.756,41.244 75.292,35.201 82.083,41.207 	"/>
</g>
<g>
	<g>
		<path fill="#404041" d="M150.528,68.143h-15.489l-17.151-43.579h15.839l9.188,28.265h0.263l9.188-28.265h15.314L150.528,68.143z"
			/>
		<path fill="#404041" d="M171.18,68.143V24.563h14.352v43.579H171.18z M182.118,18.088h-10.851l9.1-12.602h14.527L182.118,18.088z"
			/>
		<path fill="#404041" d="M220.358,37.427c-1.168-1.108-2.538-2.042-4.113-2.8c-1.575-0.758-3.237-1.138-4.987-1.138
			c-1.344,0-2.582,0.263-3.72,0.788s-1.706,1.43-1.706,2.713c0,1.225,0.626,2.1,1.881,2.625c1.254,0.525,3.281,1.109,6.082,1.75
			c1.633,0.35,3.281,0.847,4.944,1.488c1.663,0.643,3.164,1.488,4.507,2.538c1.342,1.05,2.42,2.334,3.238,3.851
			c0.816,1.518,1.225,3.325,1.225,5.425c0,2.743-0.555,5.062-1.662,6.957c-1.109,1.896-2.553,3.428-4.332,4.594
			c-1.78,1.168-3.778,2.014-5.994,2.539c-2.219,0.524-4.435,0.787-6.65,0.787c-3.561,0-7.045-0.568-10.458-1.707
			c-3.413-1.137-6.257-2.813-8.532-5.031l8.051-8.488c1.283,1.4,2.857,2.568,4.726,3.5c1.866,0.934,3.851,1.4,5.95,1.4
			c1.167,0,2.319-0.276,3.457-0.832c1.138-0.553,1.707-1.531,1.707-2.932c0-1.341-0.701-2.332-2.101-2.975
			c-1.4-0.641-3.588-1.312-6.563-2.013c-1.518-0.35-3.034-0.816-4.551-1.399c-1.518-0.583-2.873-1.371-4.068-2.363
			c-1.197-0.991-2.174-2.217-2.932-3.675c-0.76-1.458-1.138-3.208-1.138-5.25c0-2.625,0.554-4.857,1.663-6.695
			c1.107-1.837,2.537-3.339,4.287-4.506c1.75-1.167,3.689-2.026,5.819-2.582c2.129-0.554,4.245-0.832,6.345-0.832
			c3.267,0,6.461,0.512,9.582,1.532c3.12,1.021,5.761,2.553,7.92,4.594L220.358,37.427z"/>
		<path fill="#404041" d="M233.221,30.514c2.566-2.45,5.557-4.288,8.97-5.513c3.413-1.225,6.898-1.838,10.458-1.838
			c3.675,0,6.781,0.453,9.318,1.356c2.539,0.905,4.595,2.306,6.17,4.201c1.575,1.896,2.727,4.288,3.457,7.175
			c0.729,2.888,1.094,6.316,1.094,10.282v21.965h-13.127v-4.639h-0.262c-1.109,1.81-2.787,3.21-5.032,4.201
			c-2.247,0.991-4.682,1.488-7.307,1.488c-1.751,0-3.56-0.234-5.426-0.7c-1.868-0.467-3.574-1.226-5.119-2.276
			c-1.546-1.049-2.815-2.449-3.807-4.199c-0.993-1.751-1.487-3.908-1.487-6.476c0-3.15,0.859-5.688,2.581-7.614
			c1.72-1.925,3.938-3.413,6.651-4.463c2.712-1.05,5.73-1.75,9.057-2.101c3.325-0.35,6.562-0.525,9.713-0.525v-0.7
			c0-2.157-0.758-3.748-2.275-4.769c-1.518-1.02-3.384-1.531-5.6-1.531c-2.043,0-4.012,0.438-5.907,1.313
			c-1.896,0.875-3.515,1.925-4.856,3.15L233.221,30.514z M259.561,49.153h-1.838c-1.574,0-3.164,0.074-4.769,0.219
			c-1.605,0.146-3.034,0.424-4.288,0.831c-1.255,0.409-2.29,1.007-3.106,1.794c-0.817,0.788-1.226,1.824-1.226,3.106
			c0,0.818,0.189,1.518,0.569,2.101c0.379,0.584,0.86,1.05,1.444,1.399c0.582,0.351,1.254,0.6,2.012,0.744
			c0.758,0.146,1.488,0.219,2.188,0.219c2.917,0,5.148-0.801,6.695-2.406c1.545-1.604,2.318-3.776,2.318-6.52V49.153z"/>
		<path fill="#404041" d="M309.439,36.377c-0.643-0.175-1.268-0.291-1.881-0.35c-0.613-0.057-1.211-0.087-1.794-0.087
			c-1.925,0-3.544,0.35-4.856,1.047c-1.312,0.699-2.363,1.542-3.15,2.531c-0.787,0.99-1.356,2.066-1.707,3.23
			c-0.35,1.164-0.524,2.181-0.524,3.053v22.342h-14.352V24.615h13.826v6.301h0.175c1.107-2.231,2.684-4.053,4.726-5.462
			s4.404-2.115,7.089-2.115c0.582,0,1.15,0.03,1.706,0.087c0.554,0.059,1.007,0.146,1.356,0.263L309.439,36.377z"/>
	</g>
</g>
<g>
	<path fill="#404041" d="M116.431,86.202c0-0.495-0.149-0.861-0.447-1.099c-0.299-0.238-0.696-0.357-1.19-0.357
		c-0.373,0-0.726,0.072-1.057,0.217c-0.332,0.145-0.609,0.329-0.833,0.553l-0.7-0.84c0.326-0.308,0.726-0.551,1.197-0.728
		c0.471-0.177,0.978-0.267,1.519-0.267c0.476,0,0.889,0.068,1.239,0.203c0.35,0.136,0.637,0.32,0.86,0.553
		c0.225,0.234,0.393,0.51,0.505,0.826c0.111,0.318,0.168,0.658,0.168,1.022v2.897c0,0.225,0.007,0.461,0.021,0.707
		c0.014,0.248,0.04,0.451,0.077,0.609h-1.19c-0.074-0.317-0.111-0.635-0.111-0.952h-0.042c-0.243,0.354-0.549,0.63-0.917,0.826
		c-0.369,0.196-0.806,0.294-1.31,0.294c-0.261,0-0.534-0.035-0.818-0.105c-0.285-0.069-0.544-0.184-0.777-0.342
		c-0.233-0.159-0.427-0.369-0.581-0.631s-0.231-0.583-0.231-0.966c0-0.504,0.136-0.903,0.406-1.197s0.625-0.518,1.064-0.672
		c0.438-0.153,0.933-0.254,1.483-0.301s1.106-0.07,1.666-0.07V86.202z M116.109,87.336c-0.327,0-0.665,0.014-1.016,0.042
		c-0.35,0.028-0.667,0.084-0.952,0.168c-0.284,0.084-0.52,0.21-0.707,0.378c-0.187,0.168-0.279,0.393-0.279,0.672
		c0,0.196,0.039,0.359,0.119,0.49c0.079,0.131,0.184,0.238,0.314,0.322s0.275,0.143,0.435,0.175
		c0.158,0.032,0.321,0.049,0.489,0.049c0.616,0,1.09-0.185,1.421-0.553c0.332-0.368,0.497-0.833,0.497-1.394v-0.35H116.109z
		 M115.423,82.604h-1.078l1.4-2.016h1.582L115.423,82.604z"/>
	<path fill="#404041" d="M119.875,84.605c-0.01-0.279-0.023-0.527-0.042-0.742h1.246c0.019,0.169,0.032,0.362,0.042,0.582
		c0.009,0.219,0.014,0.398,0.014,0.539h0.042c0.187-0.393,0.46-0.707,0.819-0.945s0.763-0.357,1.211-0.357
		c0.205,0,0.378,0.02,0.518,0.057l-0.056,1.218c-0.187-0.047-0.388-0.069-0.603-0.069c-0.317,0-0.593,0.058-0.825,0.174
		c-0.233,0.117-0.428,0.273-0.581,0.469c-0.154,0.197-0.269,0.424-0.344,0.68c-0.074,0.257-0.111,0.525-0.111,0.805V90.5h-1.316
		v-5.208C119.889,85.115,119.884,84.887,119.875,84.605z"/>
	<path fill="#404041" d="M128.904,86.202c0-0.495-0.149-0.861-0.447-1.099c-0.299-0.238-0.696-0.357-1.19-0.357
		c-0.373,0-0.726,0.072-1.057,0.217c-0.332,0.145-0.609,0.329-0.833,0.553l-0.7-0.84c0.326-0.308,0.726-0.551,1.197-0.728
		c0.471-0.177,0.978-0.267,1.519-0.267c0.476,0,0.889,0.068,1.239,0.203c0.35,0.136,0.637,0.32,0.86,0.553
		c0.225,0.234,0.393,0.51,0.505,0.826c0.111,0.318,0.168,0.658,0.168,1.022v2.897c0,0.225,0.007,0.461,0.021,0.707
		c0.014,0.248,0.04,0.451,0.077,0.609h-1.19c-0.074-0.317-0.111-0.635-0.111-0.952h-0.042c-0.243,0.354-0.549,0.63-0.917,0.826
		c-0.369,0.196-0.806,0.294-1.31,0.294c-0.261,0-0.534-0.035-0.818-0.105c-0.285-0.069-0.544-0.184-0.777-0.342
		c-0.233-0.159-0.427-0.369-0.581-0.631s-0.231-0.583-0.231-0.966c0-0.504,0.136-0.903,0.406-1.197s0.625-0.518,1.064-0.672
		c0.438-0.153,0.933-0.254,1.483-0.301s1.106-0.07,1.666-0.07V86.202z M128.583,87.336c-0.327,0-0.665,0.014-1.016,0.042
		c-0.35,0.028-0.667,0.084-0.952,0.168c-0.284,0.084-0.52,0.21-0.707,0.378c-0.187,0.168-0.279,0.393-0.279,0.672
		c0,0.196,0.039,0.359,0.119,0.49c0.079,0.131,0.184,0.238,0.314,0.322s0.275,0.143,0.435,0.175
		c0.158,0.032,0.321,0.049,0.489,0.049c0.616,0,1.09-0.185,1.421-0.553c0.332-0.368,0.497-0.833,0.497-1.394v-0.35H128.583z"/>
	<path fill="#404041" d="M133.553,83.863c0.019,0.169,0.032,0.357,0.042,0.568c0.009,0.209,0.014,0.385,0.014,0.524h0.042
		c0.084-0.177,0.198-0.343,0.343-0.497s0.311-0.289,0.497-0.406c0.187-0.116,0.393-0.207,0.616-0.273
		c0.224-0.064,0.457-0.098,0.7-0.098c0.429,0,0.798,0.072,1.105,0.217c0.309,0.146,0.565,0.339,0.771,0.582
		c0.205,0.242,0.356,0.527,0.455,0.854c0.098,0.326,0.146,0.677,0.146,1.05V90.5h-1.315v-3.682c0-0.271-0.021-0.527-0.063-0.771
		s-0.119-0.457-0.23-0.644c-0.112-0.188-0.267-0.336-0.462-0.448c-0.196-0.112-0.448-0.168-0.757-0.168
		c-0.522,0-0.949,0.198-1.28,0.595c-0.332,0.396-0.497,0.927-0.497,1.59V90.5h-1.316v-5.208c0-0.177-0.005-0.405-0.014-0.687
		c-0.01-0.279-0.023-0.527-0.042-0.742H133.553z"/>
	<path fill="#404041" d="M141.029,91.634c0.289,0.327,0.65,0.588,1.085,0.784c0.434,0.196,0.879,0.294,1.337,0.294
		c0.438,0,0.807-0.062,1.105-0.188s0.539-0.299,0.722-0.519c0.182-0.22,0.312-0.479,0.392-0.776
		c0.079-0.299,0.119-0.621,0.119-0.967v-0.854h-0.028c-0.242,0.373-0.574,0.658-0.994,0.854c-0.42,0.196-0.867,0.295-1.344,0.295
		c-0.504,0-0.964-0.09-1.379-0.267s-0.768-0.42-1.057-0.728c-0.29-0.309-0.514-0.67-0.672-1.086
		c-0.159-0.414-0.238-0.86-0.238-1.336c0-0.477,0.079-0.925,0.238-1.345c0.158-0.42,0.382-0.786,0.672-1.099
		c0.289-0.312,0.639-0.561,1.05-0.742c0.41-0.182,0.868-0.273,1.372-0.273c0.476,0,0.931,0.104,1.365,0.309
		c0.434,0.205,0.776,0.518,1.028,0.938h0.028v-1.064h1.273v6.301c0,0.485-0.061,0.949-0.182,1.393s-0.327,0.836-0.616,1.177
		c-0.289,0.34-0.667,0.613-1.134,0.818s-1.045,0.309-1.736,0.309c-0.578,0-1.159-0.105-1.742-0.315
		c-0.584-0.21-1.085-0.506-1.506-0.889L141.029,91.634z M141.421,87.111c0,0.309,0.049,0.603,0.147,0.883
		c0.099,0.279,0.243,0.527,0.436,0.742c0.191,0.215,0.423,0.387,0.695,0.518c0.271,0.131,0.58,0.196,0.927,0.196
		c0.337,0,0.646-0.061,0.927-0.183c0.281-0.121,0.52-0.287,0.716-0.496c0.197-0.211,0.349-0.457,0.457-0.742
		c0.107-0.285,0.161-0.59,0.161-0.918c0-0.316-0.054-0.615-0.161-0.896c-0.108-0.28-0.263-0.526-0.464-0.741
		s-0.439-0.386-0.716-0.512s-0.583-0.189-0.92-0.189c-0.347,0-0.655,0.063-0.927,0.189c-0.272,0.126-0.504,0.294-0.695,0.504
		c-0.192,0.21-0.337,0.457-0.436,0.742S141.421,86.795,141.421,87.111z"/>
	<path fill="#404041" d="M154.034,90.5c-0.019-0.168-0.032-0.357-0.042-0.566c-0.009-0.211-0.014-0.386-0.014-0.525h-0.028
		c-0.168,0.354-0.45,0.656-0.847,0.902c-0.396,0.248-0.838,0.371-1.323,0.371c-0.429,0-0.8-0.07-1.112-0.209
		c-0.313-0.141-0.569-0.334-0.771-0.582c-0.2-0.246-0.35-0.533-0.448-0.861c-0.098-0.326-0.146-0.676-0.146-1.049v-4.117h1.315
		v3.669c0,0.271,0.021,0.53,0.063,0.776c0.042,0.248,0.119,0.465,0.231,0.651c0.111,0.187,0.266,0.336,0.462,0.448
		c0.195,0.111,0.447,0.168,0.756,0.168c0.532,0,0.961-0.198,1.288-0.596c0.326-0.396,0.489-0.926,0.489-1.588v-3.529h1.316v5.209
		c0,0.178,0.005,0.406,0.014,0.686c0.01,0.28,0.023,0.527,0.042,0.742H154.034z"/>
	<path fill="#404041" d="M157.492,84.605c-0.01-0.279-0.023-0.527-0.042-0.742h1.246c0.019,0.169,0.032,0.362,0.042,0.582
		c0.009,0.219,0.014,0.398,0.014,0.539h0.042c0.187-0.393,0.46-0.707,0.819-0.945s0.763-0.357,1.211-0.357
		c0.205,0,0.378,0.02,0.518,0.057l-0.056,1.218c-0.187-0.047-0.388-0.069-0.603-0.069c-0.317,0-0.593,0.058-0.825,0.174
		c-0.233,0.117-0.428,0.273-0.581,0.469c-0.154,0.197-0.269,0.424-0.344,0.68c-0.074,0.257-0.111,0.525-0.111,0.805V90.5h-1.316
		v-5.208C157.506,85.115,157.501,84.887,157.492,84.605z"/>
	<path fill="#404041" d="M168.167,84.053c0.369-0.247,0.806-0.371,1.31-0.371c0.448,0,0.852,0.104,1.211,0.309
		s0.642,0.546,0.847,1.021c0.225-0.429,0.537-0.758,0.938-0.986s0.84-0.344,1.315-0.344c0.43,0,0.799,0.072,1.106,0.217
		c0.308,0.146,0.564,0.339,0.77,0.582c0.205,0.242,0.357,0.527,0.455,0.854c0.099,0.326,0.147,0.677,0.147,1.05V90.5h-1.316v-3.682
		c0-0.271-0.023-0.527-0.069-0.771c-0.047-0.243-0.126-0.457-0.238-0.644c-0.112-0.188-0.262-0.336-0.448-0.448
		s-0.425-0.168-0.714-0.168c-0.299,0-0.556,0.063-0.771,0.188c-0.214,0.127-0.39,0.29-0.524,0.49
		c-0.136,0.201-0.233,0.428-0.294,0.68s-0.091,0.508-0.091,0.77V90.5h-1.316v-3.948c0-0.261-0.023-0.499-0.07-0.714
		s-0.126-0.398-0.237-0.553c-0.112-0.154-0.257-0.275-0.435-0.364c-0.177-0.089-0.396-0.133-0.658-0.133
		c-0.485,0-0.889,0.198-1.211,0.595c-0.321,0.396-0.482,0.927-0.482,1.59V90.5h-1.316v-5.208c0-0.177-0.005-0.405-0.014-0.687
		c-0.01-0.279-0.023-0.527-0.042-0.742h1.246c0.019,0.169,0.032,0.357,0.042,0.568c0.009,0.209,0.014,0.385,0.014,0.524h0.042
		C167.53,84.602,167.799,84.301,168.167,84.053z"/>
	<path fill="#404041" d="M184.694,87.126c0,0.075,0,0.149,0,0.224c0,0.075-0.005,0.15-0.014,0.225h-5.278
		c0.009,0.277,0.072,0.54,0.189,0.785c0.116,0.246,0.272,0.459,0.469,0.64s0.422,0.322,0.679,0.424
		c0.257,0.103,0.529,0.153,0.819,0.153c0.448,0,0.835-0.098,1.162-0.294c0.326-0.196,0.583-0.435,0.77-0.714l0.924,0.742
		c-0.354,0.47-0.772,0.816-1.253,1.038s-1.015,0.333-1.603,0.333c-0.504,0-0.971-0.084-1.4-0.252s-0.798-0.403-1.105-0.707
		c-0.309-0.303-0.551-0.67-0.729-1.099c-0.177-0.429-0.266-0.905-0.266-1.429c0-0.513,0.086-0.986,0.259-1.42
		c0.174-0.435,0.414-0.805,0.723-1.113s0.674-0.549,1.095-0.721c0.421-0.173,0.874-0.26,1.361-0.26c0.485,0,0.928,0.08,1.325,0.238
		s0.734,0.388,1.011,0.686c0.275,0.299,0.488,0.661,0.638,1.086C184.619,86.115,184.694,86.594,184.694,87.126z M183.351,86.594
		c-0.01-0.261-0.054-0.506-0.133-0.734c-0.08-0.229-0.196-0.428-0.351-0.596c-0.153-0.168-0.345-0.301-0.574-0.398
		c-0.229-0.098-0.496-0.147-0.805-0.147c-0.28,0-0.544,0.05-0.791,0.147s-0.462,0.23-0.644,0.398
		c-0.183,0.168-0.332,0.367-0.448,0.596c-0.117,0.229-0.185,0.474-0.203,0.734H183.351z"/>
	<path fill="#404041" d="M190.564,81.273c0.354,0.365,0.689,0.756,1.007,1.177c0.316,0.42,0.591,0.866,0.824,1.337
		c0.232,0.471,0.417,0.961,0.552,1.47s0.202,1.034,0.202,1.575c0,0.494-0.069,0.976-0.209,1.441
		c-0.14,0.467-0.354,0.878-0.643,1.232c-0.289,0.355-0.659,0.64-1.111,0.854c-0.451,0.215-0.985,0.322-1.6,0.322
		c-0.513,0-0.987-0.086-1.425-0.259c-0.438-0.173-0.815-0.413-1.132-0.721c-0.317-0.308-0.564-0.677-0.741-1.106
		c-0.177-0.429-0.266-0.9-0.266-1.414c0-0.513,0.089-0.984,0.266-1.414c0.177-0.429,0.424-0.797,0.741-1.105
		c0.316-0.309,0.688-0.549,1.117-0.721c0.429-0.173,0.89-0.26,1.384-0.26c0.354,0,0.678,0.054,0.971,0.159
		c0.294,0.106,0.575,0.279,0.846,0.519l0.027-0.027c-0.242-0.465-0.53-0.916-0.865-1.354s-0.703-0.823-1.104-1.158l-1.536,0.739
		l-0.67-0.655l1.534-0.742c-0.187-0.178-0.391-0.35-0.614-0.518s-0.434-0.322-0.629-0.463l1.078-0.658
		c0.242,0.188,0.48,0.379,0.714,0.574c0.232,0.196,0.429,0.369,0.588,0.519l1.512-0.742l0.728,0.644L190.564,81.273z
		 M187.368,87.182c0,0.32,0.049,0.623,0.146,0.908c0.099,0.287,0.24,0.541,0.427,0.762c0.188,0.22,0.421,0.396,0.7,0.527
		c0.28,0.131,0.598,0.197,0.952,0.197s0.67-0.066,0.945-0.197s0.506-0.308,0.692-0.527c0.188-0.221,0.329-0.475,0.428-0.762
		c0.098-0.285,0.146-0.588,0.146-0.908c0-0.318-0.049-0.621-0.146-0.908c-0.099-0.286-0.24-0.539-0.428-0.76
		c-0.187-0.221-0.417-0.396-0.692-0.528s-0.591-0.197-0.945-0.197s-0.672,0.065-0.952,0.197c-0.279,0.132-0.513,0.308-0.7,0.528
		c-0.187,0.221-0.328,0.474-0.427,0.76C187.417,86.561,187.368,86.863,187.368,87.182z"/>
	<path fill="#404041" d="M200.646,84.053c0.369-0.247,0.806-0.371,1.31-0.371c0.448,0,0.852,0.104,1.211,0.309
		s0.642,0.546,0.847,1.021c0.225-0.429,0.537-0.758,0.938-0.986s0.84-0.344,1.315-0.344c0.43,0,0.799,0.072,1.106,0.217
		c0.308,0.146,0.564,0.339,0.77,0.582c0.205,0.242,0.357,0.527,0.455,0.854c0.099,0.326,0.147,0.677,0.147,1.05V90.5h-1.316v-3.682
		c0-0.271-0.023-0.527-0.069-0.771c-0.047-0.243-0.126-0.457-0.238-0.644c-0.112-0.188-0.262-0.336-0.448-0.448
		s-0.425-0.168-0.714-0.168c-0.299,0-0.556,0.063-0.771,0.188c-0.214,0.127-0.39,0.29-0.524,0.49
		c-0.136,0.201-0.233,0.428-0.294,0.68s-0.091,0.508-0.091,0.77V90.5h-1.316v-3.948c0-0.261-0.023-0.499-0.07-0.714
		s-0.126-0.398-0.237-0.553c-0.112-0.154-0.257-0.275-0.435-0.364c-0.177-0.089-0.396-0.133-0.658-0.133
		c-0.485,0-0.889,0.198-1.211,0.595c-0.321,0.396-0.482,0.927-0.482,1.59V90.5h-1.316v-5.208c0-0.177-0.005-0.405-0.014-0.687
		c-0.01-0.279-0.023-0.527-0.042-0.742h1.246c0.019,0.169,0.032,0.357,0.042,0.568c0.009,0.209,0.014,0.385,0.014,0.524h0.042
		C200.01,84.602,200.278,84.301,200.646,84.053z"/>
	<path fill="#404041" d="M215.704,89.311c-0.271,0.504-0.656,0.855-1.155,1.057c-0.499,0.2-1.053,0.301-1.659,0.301
		c-0.261,0-0.534-0.03-0.818-0.091c-0.285-0.062-0.544-0.161-0.777-0.302c-0.233-0.139-0.427-0.328-0.581-0.566
		s-0.231-0.539-0.231-0.902c0-0.486,0.112-0.875,0.337-1.17c0.224-0.294,0.538-0.518,0.944-0.672s0.892-0.254,1.456-0.301
		s1.192-0.07,1.883-0.07v-0.154c0-0.625-0.149-1.063-0.447-1.315c-0.299-0.252-0.696-0.378-1.19-0.378
		c-0.373,0-0.726,0.072-1.057,0.217c-0.332,0.145-0.609,0.329-0.833,0.553l-0.7-0.84c0.326-0.308,0.726-0.551,1.197-0.728
		c0.471-0.177,0.978-0.267,1.519-0.267c0.373,0,0.695,0.04,0.966,0.119c0.271,0.08,0.497,0.18,0.68,0.301
		c0.182,0.122,0.326,0.255,0.434,0.399c0.107,0.146,0.188,0.282,0.245,0.413c0.261-0.364,0.583-0.66,0.966-0.889
		s0.868-0.344,1.456-0.344c0.476,0,0.905,0.08,1.288,0.238s0.707,0.388,0.973,0.686c0.267,0.299,0.472,0.661,0.616,1.086
		c0.145,0.424,0.217,0.902,0.217,1.435c0,0.075,0,0.149,0,0.224c0,0.075-0.005,0.15-0.014,0.225h-5.096
		c0.009,0.279,0.069,0.543,0.182,0.791c0.112,0.247,0.264,0.462,0.455,0.644c0.191,0.183,0.41,0.325,0.658,0.427
		c0.247,0.104,0.511,0.154,0.791,0.154c0.438,0,0.813-0.098,1.127-0.294c0.312-0.196,0.562-0.435,0.749-0.714l0.882,0.742
		c-0.346,0.467-0.749,0.81-1.211,1.029c-0.462,0.219-0.979,0.328-1.547,0.328c-0.588,0-1.12-0.119-1.597-0.356
		C216.334,90.087,215.965,89.749,215.704,89.311z M214.738,87.574c-0.411,0-0.794,0.012-1.148,0.035s-0.663,0.072-0.924,0.146
		c-0.262,0.075-0.467,0.182-0.616,0.322c-0.149,0.14-0.224,0.326-0.224,0.561c0,0.195,0.039,0.356,0.119,0.482
		c0.079,0.126,0.182,0.229,0.308,0.309c0.126,0.078,0.271,0.135,0.434,0.168c0.163,0.032,0.334,0.049,0.512,0.049
		c0.615,0,1.082-0.154,1.399-0.463c0.317-0.308,0.477-0.728,0.477-1.26v-0.35H214.738z M220.114,86.594
		c0-0.261-0.04-0.506-0.119-0.734c-0.08-0.229-0.194-0.428-0.343-0.596c-0.149-0.168-0.337-0.301-0.561-0.398
		s-0.48-0.147-0.77-0.147c-0.271,0-0.525,0.05-0.764,0.147c-0.237,0.098-0.447,0.23-0.63,0.398c-0.182,0.168-0.329,0.367-0.44,0.596
		c-0.112,0.229-0.173,0.474-0.183,0.734H220.114z"/>
	<path fill="#404041" d="M224.594,90.5h-1.315V79.916h1.315V90.5z"/>
	<path fill="#404041" d="M231.02,86.202c0-0.495-0.149-0.861-0.447-1.099c-0.299-0.238-0.696-0.357-1.19-0.357
		c-0.373,0-0.726,0.072-1.057,0.217c-0.332,0.145-0.609,0.329-0.833,0.553l-0.7-0.84c0.326-0.308,0.726-0.551,1.197-0.728
		c0.471-0.177,0.978-0.267,1.519-0.267c0.476,0,0.889,0.068,1.239,0.203c0.35,0.136,0.637,0.32,0.86,0.553
		c0.225,0.234,0.393,0.51,0.505,0.826c0.111,0.318,0.168,0.658,0.168,1.022v2.897c0,0.225,0.007,0.461,0.021,0.707
		c0.014,0.248,0.04,0.451,0.077,0.609h-1.19c-0.074-0.317-0.111-0.635-0.111-0.952h-0.042c-0.243,0.354-0.549,0.63-0.917,0.826
		c-0.369,0.196-0.806,0.294-1.31,0.294c-0.261,0-0.534-0.035-0.818-0.105c-0.285-0.069-0.544-0.184-0.777-0.342
		c-0.233-0.159-0.427-0.369-0.581-0.631s-0.231-0.583-0.231-0.966c0-0.504,0.136-0.903,0.406-1.197s0.625-0.518,1.064-0.672
		c0.438-0.153,0.933-0.254,1.483-0.301s1.106-0.07,1.666-0.07V86.202z M230.698,87.336c-0.327,0-0.665,0.014-1.016,0.042
		c-0.35,0.028-0.667,0.084-0.952,0.168c-0.284,0.084-0.52,0.21-0.707,0.378c-0.187,0.168-0.279,0.393-0.279,0.672
		c0,0.196,0.039,0.359,0.119,0.49c0.079,0.131,0.184,0.238,0.314,0.322s0.275,0.143,0.435,0.175
		c0.158,0.032,0.321,0.049,0.489,0.049c0.616,0,1.09-0.185,1.421-0.553c0.332-0.368,0.497-0.833,0.497-1.394v-0.35H230.698z"/>
	<path fill="#404041" d="M235.668,83.863c0.019,0.169,0.032,0.357,0.042,0.568c0.009,0.209,0.014,0.385,0.014,0.524h0.042
		c0.084-0.177,0.198-0.343,0.343-0.497s0.311-0.289,0.497-0.406c0.187-0.116,0.393-0.207,0.616-0.273
		c0.224-0.064,0.457-0.098,0.7-0.098c0.429,0,0.798,0.072,1.105,0.217c0.309,0.146,0.565,0.339,0.771,0.582
		c0.205,0.242,0.356,0.527,0.455,0.854c0.098,0.326,0.146,0.677,0.146,1.05V90.5h-1.315v-3.682c0-0.271-0.021-0.527-0.063-0.771
		s-0.119-0.457-0.23-0.644c-0.112-0.188-0.267-0.336-0.462-0.448c-0.196-0.112-0.448-0.168-0.757-0.168
		c-0.522,0-0.949,0.198-1.28,0.595c-0.332,0.396-0.497,0.927-0.497,1.59V90.5h-1.316v-5.208c0-0.177-0.005-0.405-0.014-0.687
		c-0.01-0.279-0.023-0.527-0.042-0.742H235.668z"/>
	<path fill="#404041" d="M243.969,90.5h-1.315V79.916h1.315V90.5z"/>
	<path fill="#404041" d="M252.468,87.126c0,0.075,0,0.149,0,0.224c0,0.075-0.005,0.15-0.014,0.225h-5.278
		c0.009,0.277,0.072,0.54,0.189,0.785c0.116,0.246,0.272,0.459,0.469,0.64s0.422,0.322,0.679,0.424
		c0.257,0.103,0.529,0.153,0.819,0.153c0.448,0,0.835-0.098,1.162-0.294c0.326-0.196,0.583-0.435,0.77-0.714l0.924,0.742
		c-0.354,0.47-0.772,0.816-1.253,1.038s-1.015,0.333-1.603,0.333c-0.504,0-0.971-0.084-1.4-0.252s-0.798-0.403-1.105-0.707
		c-0.309-0.303-0.551-0.67-0.729-1.099c-0.177-0.429-0.266-0.905-0.266-1.429c0-0.513,0.086-0.986,0.259-1.42
		c0.174-0.435,0.414-0.805,0.723-1.113s0.674-0.549,1.095-0.721c0.421-0.173,0.874-0.26,1.361-0.26c0.485,0,0.928,0.08,1.325,0.238
		s0.734,0.388,1.011,0.686c0.275,0.299,0.488,0.661,0.638,1.086C252.393,86.115,252.468,86.594,252.468,87.126z M251.124,86.594
		c-0.01-0.261-0.054-0.506-0.133-0.734c-0.08-0.229-0.196-0.428-0.351-0.596c-0.153-0.168-0.345-0.301-0.574-0.398
		c-0.229-0.098-0.496-0.147-0.805-0.147c-0.28,0-0.544,0.05-0.791,0.147s-0.462,0.23-0.644,0.398
		c-0.183,0.168-0.332,0.367-0.448,0.596c-0.117,0.229-0.185,0.474-0.203,0.734H251.124z"/>
	<path fill="#404041" d="M254.806,91.634c0.289,0.327,0.65,0.588,1.085,0.784c0.434,0.196,0.879,0.294,1.337,0.294
		c0.438,0,0.807-0.062,1.105-0.188s0.539-0.299,0.722-0.519c0.182-0.22,0.312-0.479,0.392-0.776
		c0.079-0.299,0.119-0.621,0.119-0.967v-0.854h-0.028c-0.242,0.373-0.574,0.658-0.994,0.854c-0.42,0.196-0.867,0.295-1.344,0.295
		c-0.504,0-0.964-0.09-1.379-0.267s-0.768-0.42-1.057-0.728c-0.29-0.309-0.514-0.67-0.672-1.086
		c-0.159-0.414-0.238-0.86-0.238-1.336c0-0.477,0.079-0.925,0.238-1.345c0.158-0.42,0.382-0.786,0.672-1.099
		c0.289-0.312,0.639-0.561,1.05-0.742c0.41-0.182,0.868-0.273,1.372-0.273c0.476,0,0.931,0.104,1.365,0.309
		c0.434,0.205,0.776,0.518,1.028,0.938h0.028v-1.064h1.273v6.301c0,0.485-0.061,0.949-0.182,1.393s-0.327,0.836-0.616,1.177
		c-0.289,0.34-0.667,0.613-1.134,0.818s-1.045,0.309-1.736,0.309c-0.578,0-1.159-0.105-1.742-0.315
		c-0.584-0.21-1.085-0.506-1.506-0.889L254.806,91.634z M255.197,87.111c0,0.309,0.049,0.603,0.147,0.883
		c0.099,0.279,0.243,0.527,0.436,0.742c0.191,0.215,0.423,0.387,0.695,0.518c0.271,0.131,0.58,0.196,0.927,0.196
		c0.337,0,0.646-0.061,0.927-0.183c0.281-0.121,0.52-0.287,0.716-0.496c0.197-0.211,0.349-0.457,0.457-0.742
		c0.107-0.285,0.161-0.59,0.161-0.918c0-0.316-0.054-0.615-0.161-0.896c-0.108-0.28-0.263-0.526-0.464-0.741
		s-0.439-0.386-0.716-0.512s-0.583-0.189-0.92-0.189c-0.347,0-0.655,0.063-0.927,0.189c-0.272,0.126-0.504,0.294-0.695,0.504
		c-0.192,0.21-0.337,0.457-0.436,0.742S255.197,86.795,255.197,87.111z"/>
	<path fill="#404041" d="M267.811,90.5c-0.019-0.168-0.032-0.357-0.042-0.566c-0.009-0.211-0.014-0.386-0.014-0.525h-0.028
		c-0.168,0.354-0.45,0.656-0.847,0.902c-0.396,0.248-0.838,0.371-1.323,0.371c-0.429,0-0.8-0.07-1.112-0.209
		c-0.313-0.141-0.569-0.334-0.771-0.582c-0.2-0.246-0.35-0.533-0.448-0.861c-0.098-0.326-0.146-0.676-0.146-1.049v-4.117h1.315
		v3.669c0,0.271,0.021,0.53,0.063,0.776c0.042,0.248,0.119,0.465,0.231,0.651c0.111,0.187,0.266,0.336,0.462,0.448
		c0.195,0.111,0.447,0.168,0.756,0.168c0.532,0,0.961-0.198,1.288-0.596c0.326-0.396,0.489-0.926,0.489-1.588v-3.529h1.316v5.209
		c0,0.178,0.005,0.406,0.014,0.686c0.01,0.28,0.023,0.527,0.042,0.742H267.811z"/>
	<path fill="#404041" d="M273.376,84.053c0.369-0.247,0.806-0.371,1.31-0.371c0.448,0,0.852,0.104,1.211,0.309
		s0.642,0.546,0.847,1.021c0.225-0.429,0.537-0.758,0.938-0.986s0.84-0.344,1.315-0.344c0.43,0,0.799,0.072,1.106,0.217
		c0.308,0.146,0.564,0.339,0.77,0.582c0.205,0.242,0.357,0.527,0.455,0.854c0.099,0.326,0.147,0.677,0.147,1.05V90.5h-1.316v-3.682
		c0-0.271-0.023-0.527-0.069-0.771c-0.047-0.243-0.126-0.457-0.238-0.644c-0.112-0.188-0.262-0.336-0.448-0.448
		s-0.425-0.168-0.714-0.168c-0.299,0-0.556,0.063-0.771,0.188c-0.214,0.127-0.39,0.29-0.524,0.49
		c-0.136,0.201-0.233,0.428-0.294,0.68s-0.091,0.508-0.091,0.77V90.5h-1.316v-3.948c0-0.261-0.023-0.499-0.07-0.714
		s-0.126-0.398-0.237-0.553c-0.112-0.154-0.257-0.275-0.435-0.364c-0.177-0.089-0.396-0.133-0.658-0.133
		c-0.485,0-0.889,0.198-1.211,0.595c-0.321,0.396-0.482,0.927-0.482,1.59V90.5h-1.316v-5.208c0-0.177-0.005-0.405-0.014-0.687
		c-0.01-0.279-0.023-0.527-0.042-0.742h1.246c0.019,0.169,0.032,0.357,0.042,0.568c0.009,0.209,0.014,0.385,0.014,0.524h0.042
		C272.739,84.602,273.008,84.301,273.376,84.053z"/>
	<path fill="#404041" d="M288.573,84.872c0.159-0.327,0.43-0.606,0.812-0.84c0.382-0.233,0.812-0.351,1.288-0.351
		c0.429,0,0.798,0.072,1.105,0.217c0.308,0.146,0.564,0.339,0.771,0.582c0.205,0.242,0.356,0.527,0.454,0.854
		c0.099,0.326,0.147,0.677,0.147,1.05V90.5h-1.316v-3.677c0-0.271-0.021-0.528-0.062-0.772c-0.042-0.243-0.119-0.458-0.231-0.645
		c-0.111-0.188-0.264-0.338-0.455-0.449c-0.191-0.113-0.44-0.169-0.749-0.169c-0.522,0-0.951,0.198-1.287,0.597
		c-0.336,0.397-0.505,0.928-0.505,1.593V90.5h-1.315V79.916h1.315v4.956H288.573z"/>
	<path fill="#404041" d="M300.109,89.311c-0.271,0.504-0.656,0.855-1.155,1.057c-0.499,0.2-1.053,0.301-1.659,0.301
		c-0.261,0-0.534-0.03-0.818-0.091c-0.285-0.062-0.544-0.161-0.777-0.302c-0.233-0.139-0.427-0.328-0.581-0.566
		s-0.231-0.539-0.231-0.902c0-0.486,0.112-0.875,0.337-1.17c0.224-0.294,0.538-0.518,0.944-0.672s0.892-0.254,1.456-0.301
		s1.192-0.07,1.883-0.07v-0.154c0-0.625-0.149-1.063-0.447-1.315c-0.299-0.252-0.696-0.378-1.19-0.378
		c-0.373,0-0.726,0.072-1.057,0.217c-0.332,0.145-0.609,0.329-0.833,0.553l-0.7-0.84c0.326-0.308,0.726-0.551,1.197-0.728
		c0.471-0.177,0.978-0.267,1.519-0.267c0.373,0,0.695,0.04,0.966,0.119c0.271,0.08,0.497,0.18,0.68,0.301
		c0.182,0.122,0.326,0.255,0.434,0.399c0.107,0.146,0.188,0.282,0.245,0.413c0.261-0.364,0.583-0.66,0.966-0.889
		s0.868-0.344,1.456-0.344c0.476,0,0.905,0.08,1.288,0.238s0.707,0.388,0.973,0.686c0.267,0.299,0.472,0.661,0.616,1.086
		c0.145,0.424,0.217,0.902,0.217,1.435c0,0.075,0,0.149,0,0.224c0,0.075-0.005,0.15-0.014,0.225h-5.096
		c0.009,0.279,0.069,0.543,0.182,0.791c0.112,0.247,0.264,0.462,0.455,0.644c0.191,0.183,0.41,0.325,0.658,0.427
		c0.247,0.104,0.511,0.154,0.791,0.154c0.438,0,0.813-0.098,1.127-0.294c0.312-0.196,0.562-0.435,0.749-0.714l0.882,0.742
		c-0.346,0.467-0.749,0.81-1.211,1.029c-0.462,0.219-0.979,0.328-1.547,0.328c-0.588,0-1.12-0.119-1.597-0.356
		C300.739,90.087,300.37,89.749,300.109,89.311z M299.144,87.574c-0.411,0-0.794,0.012-1.148,0.035s-0.663,0.072-0.924,0.146
		c-0.262,0.075-0.467,0.182-0.616,0.322c-0.149,0.14-0.224,0.326-0.224,0.561c0,0.195,0.039,0.356,0.119,0.482
		c0.079,0.126,0.182,0.229,0.308,0.309c0.126,0.078,0.271,0.135,0.434,0.168c0.163,0.032,0.334,0.049,0.512,0.049
		c0.615,0,1.082-0.154,1.399-0.463c0.317-0.308,0.477-0.728,0.477-1.26v-0.35H299.144z M304.52,86.594
		c0-0.261-0.04-0.506-0.119-0.734c-0.08-0.229-0.194-0.428-0.343-0.596c-0.149-0.168-0.337-0.301-0.561-0.398
		s-0.48-0.147-0.77-0.147c-0.271,0-0.525,0.05-0.764,0.147c-0.237,0.098-0.447,0.23-0.63,0.398c-0.182,0.168-0.329,0.367-0.44,0.596
		c-0.112,0.229-0.173,0.474-0.183,0.734H304.52z"/>
	<path fill="#404041" d="M310.902,84.941h-1.764v3.448c0,0.399,0.074,0.687,0.224,0.858s0.388,0.258,0.714,0.258
		c0.121,0,0.252-0.013,0.393-0.039c0.14-0.025,0.266-0.063,0.378-0.115l0.042,1.078c-0.159,0.057-0.334,0.101-0.525,0.133
		c-0.191,0.033-0.39,0.049-0.595,0.049c-0.625,0-1.104-0.172-1.435-0.518c-0.332-0.345-0.497-0.863-0.497-1.554v-3.599h-1.274
		v-1.078h1.274V81.96h1.302v1.903h1.764V84.941z"/>
	<path fill="#404041" d="M315.299,84.941h-1.764v3.448c0,0.399,0.074,0.687,0.224,0.858s0.388,0.258,0.714,0.258
		c0.121,0,0.252-0.013,0.393-0.039c0.14-0.025,0.266-0.063,0.378-0.115l0.042,1.078c-0.159,0.057-0.334,0.101-0.525,0.133
		c-0.191,0.033-0.39,0.049-0.595,0.049c-0.625,0-1.104-0.172-1.435-0.518c-0.332-0.345-0.497-0.863-0.497-1.554v-3.599h-1.274
		v-1.078h1.274V81.96h1.302v1.903h1.764V84.941z"/>
	<path fill="#404041" d="M318.196,81.471c0,0.242-0.086,0.443-0.257,0.602s-0.377,0.238-0.618,0.238c-0.24,0-0.444-0.082-0.61-0.246
		c-0.167-0.162-0.25-0.361-0.25-0.594c0-0.243,0.083-0.446,0.25-0.609c0.166-0.164,0.37-0.245,0.61-0.245
		c0.241,0,0.447,0.081,0.618,0.245C318.11,81.024,318.196,81.228,318.196,81.471z M317.986,90.5h-1.315v-6.637h1.315V90.5z"/>
</g>
</svg>
