<?xml version="1.0" encoding="utf-8"?>
<!-- Generator: Adobe Illustrator 15.0.2, SVG Export Plug-In . SVG Version: 6.00 Build 0)  -->
<!DOCTYPE svg PUBLIC "-//W3C//DTD SVG 1.1//EN" "http://www.w3.org/Graphics/SVG/1.1/DTD/svg11.dtd">
<svg version="1.1" xmlns="http://www.w3.org/2000/svg" xmlns:xlink="http://www.w3.org/1999/xlink" x="0px" y="0px" width="156px"
	 height="42px" viewBox="0 0 156 42" enable-background="new 0 0 156 42" xml:space="preserve">
<g id="Layer_1">
</g>
<g id="Layer_2">
	<path fill="#0A783D" d="M1.206,19.358c0.139-1.696,0.493-3.358,1.06-4.961C5.058,6.499,12.563,1.191,20.946,1.191V0.06
		c-4.417,0-8.641,1.36-12.216,3.931C7.008,5.228,5.49,6.714,4.213,8.407c-1.29,1.71-2.304,3.6-3.015,5.613
		c-0.609,1.723-0.985,3.512-1.128,5.338H0.069l-0.007,0.144c-0.032,0.452-0.052,0.904-0.054,1.36L0,21.065v1.689h41.885v-3.397
		H1.206z"/>
	<path d="M41.468,25.753l-0.109,0.376c-0.077,0.224-0.776,2.164-0.86,2.382c-1.503,3.908-4.118,7.249-7.564,9.659
		c-3.525,2.468-7.671,3.771-11.988,3.771v-1.135c8.143,0,15.576-5.104,18.495-12.702c0.041-0.104,0.248-0.669,0.449-1.217H0.04
		v-1.134h40.159H41.468z"/>
	<path d="M55.718,15.918c-0.292-0.404-0.688-0.733-1.189-0.991c-0.5-0.257-1.064-0.387-1.69-0.387c-0.333,0-0.671,0.046-1.012,0.136
		c-0.341,0.091-0.651,0.237-0.928,0.438c-0.279,0.202-0.504,0.452-0.679,0.751c-0.174,0.299-0.261,0.657-0.261,1.075
		c0,0.403,0.08,0.74,0.24,1.012c0.16,0.271,0.376,0.501,0.647,0.688c0.271,0.188,0.591,0.348,0.959,0.479
		c0.368,0.133,0.762,0.268,1.179,0.407c0.501,0.153,1.008,0.327,1.523,0.521c0.514,0.195,0.981,0.453,1.398,0.772
		c0.417,0.321,0.758,0.719,1.023,1.2c0.264,0.48,0.396,1.089,0.396,1.825c0,0.767-0.143,1.43-0.427,1.994
		c-0.285,0.563-0.665,1.029-1.137,1.398c-0.474,0.368-1.02,0.643-1.638,0.823c-0.619,0.181-1.256,0.272-1.91,0.272
		c-0.932,0-1.833-0.182-2.702-0.543c-0.87-0.362-1.59-0.897-2.16-1.608l1.607-1.354c0.348,0.514,0.813,0.932,1.398,1.251
		c0.584,0.321,1.217,0.479,1.899,0.479c0.348,0,0.695-0.048,1.043-0.146c0.347-0.097,0.664-0.251,0.95-0.458
		c0.285-0.21,0.518-0.471,0.699-0.784c0.181-0.312,0.271-0.691,0.271-1.137s-0.094-0.817-0.282-1.115
		c-0.188-0.3-0.442-0.554-0.762-0.762c-0.32-0.209-0.691-0.388-1.116-0.533c-0.424-0.146-0.874-0.295-1.346-0.448
		c-0.473-0.139-0.938-0.309-1.398-0.511c-0.459-0.202-0.87-0.459-1.231-0.772c-0.362-0.313-0.654-0.699-0.876-1.158
		s-0.333-1.029-0.333-1.711c0-0.737,0.149-1.37,0.448-1.899c0.299-0.528,0.689-0.967,1.169-1.315
		c0.479-0.347,1.022-0.601,1.627-0.762c0.605-0.16,1.213-0.24,1.825-0.24c0.863,0,1.669,0.153,2.421,0.459
		c0.751,0.306,1.356,0.717,1.816,1.231L55.718,15.918z"/>
	<path d="M61.483,22.366h0.063l4.153-4.299h2.629l-4.633,4.487l5.029,5.404h-2.713l-4.465-5.134h-0.063v5.134h-1.961V12.184h1.961
		V22.366z"/>
	<path d="M79.351,22.992c0,0.766-0.135,1.468-0.406,2.107s-0.647,1.193-1.127,1.66c-0.48,0.465-1.047,0.827-1.701,1.084
		c-0.654,0.258-1.356,0.387-2.107,0.387c-0.751,0-1.454-0.129-2.107-0.387c-0.654-0.257-1.218-0.619-1.69-1.084
		c-0.473-0.467-0.845-1.021-1.116-1.66s-0.407-1.342-0.407-2.107c0-0.765,0.136-1.463,0.407-2.097
		c0.271-0.633,0.643-1.179,1.116-1.639c0.473-0.459,1.036-0.817,1.69-1.074c0.653-0.257,1.356-0.386,2.107-0.386
		c0.751,0,1.454,0.129,2.107,0.386s1.22,0.615,1.701,1.074c0.48,0.459,0.855,1.005,1.127,1.639
		C79.216,21.529,79.351,22.228,79.351,22.992z M77.306,23.003c0-0.472-0.073-0.923-0.22-1.353c-0.146-0.43-0.359-0.808-0.639-1.134
		c-0.279-0.326-0.625-0.586-1.036-0.78s-0.883-0.292-1.413-0.292c-0.531,0-1.002,0.097-1.413,0.292
		c-0.412,0.194-0.757,0.454-1.036,0.78c-0.279,0.326-0.492,0.704-0.638,1.134c-0.147,0.43-0.22,0.881-0.22,1.353
		c0,0.471,0.073,0.923,0.22,1.352c0.146,0.431,0.359,0.812,0.638,1.146c0.279,0.333,0.625,0.596,1.036,0.789
		c0.411,0.195,0.882,0.292,1.413,0.292c0.53,0,1.001-0.097,1.413-0.292c0.412-0.193,0.757-0.456,1.036-0.789
		c0.28-0.334,0.492-0.715,0.639-1.146C77.233,23.926,77.306,23.474,77.306,23.003z M74.427,16.189H72.82l2.086-3.005h2.358
		L74.427,16.189z"/>
	<path d="M82.896,27.959h-1.961V12.184h1.961V27.959z"/>
	<path d="M91.29,21.552c0-0.737-0.223-1.283-0.667-1.637c-0.446-0.355-1.037-0.532-1.774-0.532c-0.556,0-1.081,0.108-1.575,0.323
		c-0.494,0.216-0.908,0.491-1.242,0.824l-1.042-1.252c0.486-0.459,1.081-0.82,1.783-1.085c0.702-0.264,1.457-0.396,2.265-0.396
		c0.709,0,1.324,0.101,1.846,0.302c0.521,0.202,0.949,0.477,1.283,0.825c0.335,0.348,0.585,0.758,0.752,1.231
		c0.167,0.474,0.25,0.981,0.25,1.523v4.319c0,0.334,0.011,0.685,0.031,1.054c0.021,0.368,0.06,0.672,0.115,0.908h-1.773
		c-0.111-0.474-0.168-0.946-0.168-1.42h-0.062c-0.361,0.529-0.816,0.939-1.367,1.232c-0.55,0.291-1.199,0.438-1.951,0.438
		c-0.389,0-0.795-0.054-1.22-0.158s-0.811-0.273-1.158-0.511c-0.348-0.236-0.637-0.55-0.865-0.939
		c-0.23-0.389-0.345-0.869-0.345-1.439c0-0.751,0.202-1.346,0.604-1.783c0.404-0.438,0.933-0.772,1.587-1.003
		c0.652-0.229,1.391-0.378,2.211-0.447s1.649-0.105,2.483-0.105V21.552z M90.811,23.242c-0.488,0-0.992,0.021-1.513,0.062
		c-0.521,0.041-0.995,0.126-1.42,0.251c-0.424,0.125-0.775,0.313-1.053,0.563c-0.278,0.251-0.418,0.584-0.418,1.002
		c0,0.292,0.06,0.535,0.177,0.73c0.119,0.194,0.275,0.354,0.47,0.479c0.194,0.125,0.41,0.213,0.648,0.261
		c0.235,0.049,0.479,0.072,0.729,0.072c0.919,0,1.625-0.273,2.119-0.823s0.74-1.242,0.74-2.077v-0.521H90.811z"/>
	<path d="M97.224,32.966h-1.963V18.067h1.92v1.544h0.063c0.318-0.528,0.787-0.963,1.404-1.304c0.617-0.34,1.336-0.511,2.154-0.511
		c0.735,0,1.405,0.132,2.009,0.396c0.604,0.265,1.124,0.633,1.561,1.105c0.438,0.473,0.773,1.026,1.01,1.66
		c0.236,0.634,0.354,1.311,0.354,2.034s-0.118,1.405-0.354,2.045s-0.568,1.196-0.999,1.669c-0.431,0.474-0.951,0.845-1.561,1.116
		c-0.611,0.271-1.297,0.408-2.061,0.408c-0.707,0-1.374-0.155-1.999-0.459c-0.625-0.307-1.117-0.737-1.477-1.295h-0.062V32.966z
		 M103.733,22.992c0-0.459-0.07-0.905-0.208-1.335c-0.141-0.432-0.35-0.814-0.627-1.148c-0.278-0.334-0.623-0.598-1.033-0.793
		s-0.887-0.292-1.429-0.292c-0.501,0-0.958,0.098-1.367,0.292c-0.411,0.195-0.762,0.459-1.054,0.793
		c-0.291,0.334-0.519,0.716-0.678,1.148c-0.16,0.43-0.24,0.884-0.24,1.355c0,0.474,0.08,0.927,0.24,1.357
		c0.159,0.431,0.387,0.81,0.678,1.137c0.292,0.327,0.643,0.588,1.054,0.782c0.409,0.195,0.866,0.292,1.367,0.292
		c0.542,0,1.019-0.102,1.429-0.302c0.41-0.202,0.755-0.47,1.033-0.804c0.277-0.334,0.486-0.716,0.627-1.148
		C103.663,23.896,103.733,23.451,103.733,22.992z"/>
	<path d="M114.301,27.959c-0.029-0.251-0.05-0.532-0.062-0.846c-0.016-0.312-0.021-0.574-0.021-0.782h-0.041
		c-0.251,0.529-0.672,0.978-1.263,1.345c-0.593,0.369-1.249,0.555-1.973,0.555c-0.641,0-1.193-0.105-1.658-0.313
		c-0.466-0.209-0.85-0.498-1.148-0.866c-0.299-0.369-0.522-0.796-0.668-1.283c-0.146-0.487-0.219-1.008-0.219-1.565v-6.135h1.961
		v5.467c0,0.405,0.031,0.79,0.095,1.158c0.062,0.369,0.177,0.692,0.344,0.971c0.167,0.279,0.396,0.5,0.689,0.668
		c0.291,0.166,0.667,0.25,1.127,0.25c0.792,0,1.432-0.296,1.919-0.887s0.731-1.381,0.731-2.369v-5.258h1.961v7.764
		c0,0.264,0.006,0.604,0.021,1.021c0.014,0.418,0.035,0.786,0.062,1.106H114.301z M112.234,16.189h-1.607l2.087-3.005h2.358
		L112.234,16.189z"/>
	<path d="M120.357,27.959h-1.961V12.184h1.961V27.959z"/>
	<path d="M128.197,20.572c-0.222-0.362-0.535-0.657-0.939-0.887c-0.403-0.23-0.854-0.345-1.355-0.345
		c-0.224,0-0.445,0.024-0.669,0.073c-0.221,0.049-0.421,0.125-0.594,0.229c-0.174,0.104-0.312,0.237-0.418,0.396
		c-0.104,0.16-0.156,0.358-0.156,0.595c0,0.417,0.187,0.727,0.562,0.928c0.376,0.202,0.939,0.387,1.691,0.554
		c0.473,0.111,0.911,0.243,1.313,0.396c0.405,0.153,0.755,0.344,1.055,0.573s0.532,0.504,0.699,0.824
		c0.167,0.319,0.251,0.695,0.251,1.127c0,0.584-0.113,1.078-0.334,1.481c-0.224,0.404-0.52,0.733-0.887,0.99
		c-0.369,0.259-0.791,0.442-1.265,0.554c-0.472,0.111-0.959,0.168-1.46,0.168c-0.751,0-1.484-0.146-2.201-0.438
		c-0.717-0.293-1.311-0.737-1.784-1.336l1.398-1.189c0.264,0.39,0.629,0.717,1.096,0.979c0.466,0.266,0.977,0.397,1.533,0.397
		c0.251,0,0.49-0.024,0.72-0.072c0.229-0.05,0.438-0.128,0.626-0.24c0.188-0.111,0.338-0.257,0.448-0.438
		c0.112-0.182,0.168-0.411,0.168-0.689c0-0.459-0.219-0.8-0.657-1.022c-0.438-0.222-1.081-0.431-1.931-0.626
		c-0.334-0.084-0.672-0.184-1.012-0.303c-0.341-0.118-0.65-0.281-0.929-0.49c-0.277-0.208-0.504-0.47-0.678-0.782
		c-0.174-0.313-0.262-0.7-0.262-1.159c0-0.528,0.108-0.984,0.324-1.367c0.216-0.382,0.496-0.695,0.846-0.938
		c0.346-0.243,0.743-0.425,1.188-0.543c0.446-0.118,0.904-0.177,1.378-0.177c0.709,0,1.394,0.139,2.055,0.417
		c0.661,0.279,1.172,0.682,1.534,1.21L128.197,20.572z"/>
	<path d="M133.822,14.499c0,0.363-0.128,0.661-0.383,0.898c-0.255,0.236-0.562,0.354-0.92,0.354c-0.359,0-0.664-0.122-0.912-0.365
		c-0.248-0.243-0.372-0.539-0.372-0.887c0-0.361,0.124-0.664,0.372-0.907s0.553-0.365,0.912-0.365c0.357,0,0.665,0.122,0.92,0.365
		S133.822,14.138,133.822,14.499z M133.51,27.959h-1.961v-9.892h1.961V27.959z"/>
	<path d="M137.398,18.067c0.027,0.25,0.049,0.532,0.062,0.846c0.014,0.312,0.021,0.573,0.021,0.782h0.062
		c0.126-0.264,0.296-0.511,0.513-0.741c0.216-0.229,0.462-0.431,0.74-0.605c0.278-0.174,0.584-0.309,0.918-0.407
		c0.334-0.097,0.682-0.146,1.043-0.146c0.641,0,1.19,0.108,1.65,0.323c0.457,0.216,0.841,0.504,1.146,0.866
		c0.307,0.362,0.531,0.786,0.677,1.273c0.147,0.487,0.221,1.009,0.221,1.564v6.136h-1.961v-5.487c0-0.405-0.032-0.787-0.095-1.149
		c-0.063-0.361-0.177-0.682-0.344-0.959c-0.168-0.279-0.396-0.501-0.689-0.668c-0.292-0.167-0.668-0.25-1.127-0.25
		c-0.778,0-1.415,0.295-1.909,0.887c-0.493,0.591-0.74,1.381-0.74,2.369v5.259h-1.962v-7.763c0-0.264-0.007-0.605-0.021-1.023
		c-0.015-0.417-0.035-0.786-0.062-1.106H137.398z"/>
	<path d="M147.864,18.067c0.029,0.25,0.05,0.532,0.062,0.846c0.014,0.312,0.021,0.573,0.021,0.782h0.062
		c0.126-0.264,0.296-0.511,0.514-0.741c0.215-0.229,0.462-0.431,0.739-0.605c0.278-0.174,0.585-0.309,0.919-0.407
		c0.333-0.097,0.681-0.146,1.042-0.146c0.642,0,1.19,0.108,1.65,0.323c0.457,0.216,0.841,0.504,1.146,0.866
		c0.307,0.362,0.532,0.786,0.679,1.273c0.146,0.487,0.219,1.009,0.219,1.564v6.136h-1.961v-5.487c0-0.405-0.032-0.787-0.095-1.149
		c-0.063-0.361-0.177-0.682-0.344-0.959c-0.168-0.279-0.396-0.501-0.689-0.668c-0.292-0.167-0.668-0.25-1.127-0.25
		c-0.778,0-1.415,0.295-1.909,0.887c-0.493,0.591-0.74,1.381-0.74,2.369v5.259h-1.962v-7.763c0-0.264-0.006-0.605-0.021-1.023
		c-0.015-0.417-0.035-0.786-0.062-1.106H147.864z"/>
</g>
</svg>
