<?xml version="1.0" encoding="utf-8"?>
<!-- Generator: Adobe Illustrator 15.0.2, SVG Export Plug-In . SVG Version: 6.00 Build 0)  -->
<!DOCTYPE svg PUBLIC "-//W3C//DTD SVG 1.1//EN" "http://www.w3.org/Graphics/SVG/1.1/DTD/svg11.dtd">
<svg version="1.1" id="Layer_1" xmlns="http://www.w3.org/2000/svg" xmlns:xlink="http://www.w3.org/1999/xlink" x="0px" y="0px"
	 width="156px" height="42px" viewBox="0 0 156 42" enable-background="new 0 0 156 42" xml:space="preserve">
<path d="M2.229,19.429c0.133-1.623,0.472-3.212,1.014-4.745C5.911,7.131,13.091,2.056,21.108,2.056V0.973
	c-4.226,0-8.265,1.299-11.683,3.759c-1.646,1.184-3.1,2.604-4.319,4.223c-1.234,1.638-2.204,3.444-2.885,5.369
	c-0.583,1.648-0.941,3.359-1.077,5.105H1.143l-0.009,0.156c-0.029,0.416-0.046,0.833-0.05,1.252l-0.008,0.226v1.615h40.059v-3.249
	H2.229z"/>
<path fill="#5884C3" d="M40.771,25.546H1.113v1.083h38.114c-0.192,0.523-0.391,1.064-0.429,1.167
	c-2.793,7.267-9.902,12.147-17.689,12.147v1.082c4.129,0,8.094-1.244,11.466-3.604c3.295-2.306,5.796-5.501,7.234-9.24
	c0.072-0.189,0.642-1.746,0.792-2.168c0.013-0.037,0.156-0.437,0.162-0.453h-0.01L40.771,25.546z"/>
<g enable-background="new    ">
	<path d="M46.706,24.563c0.065,0.65,0.312,1.105,0.741,1.365c0.429,0.261,0.942,0.39,1.541,0.39c0.208,0,0.445-0.016,0.712-0.048
		c0.266-0.033,0.517-0.095,0.75-0.186c0.234-0.091,0.426-0.225,0.575-0.4c0.149-0.175,0.218-0.405,0.205-0.691
		c-0.013-0.286-0.117-0.521-0.312-0.702c-0.195-0.183-0.445-0.328-0.751-0.439c-0.306-0.109-0.653-0.204-1.043-0.282
		c-0.39-0.078-0.787-0.162-1.189-0.254c-0.417-0.091-0.816-0.201-1.199-0.331c-0.384-0.13-0.729-0.306-1.034-0.526
		c-0.306-0.221-0.549-0.504-0.731-0.849c-0.182-0.344-0.273-0.771-0.273-1.277c0-0.546,0.133-1.004,0.4-1.374
		c0.266-0.371,0.604-0.67,1.014-0.897c0.409-0.228,0.864-0.387,1.365-0.478s0.978-0.137,1.433-0.137c0.52,0,1.017,0.056,1.492,0.166
		c0.474,0.11,0.903,0.289,1.287,0.536s0.702,0.568,0.956,0.965s0.413,0.875,0.478,1.434h-2.321
		c-0.104-0.533-0.348-0.891-0.731-1.072c-0.384-0.183-0.823-0.273-1.316-0.273c-0.156,0-0.341,0.014-0.556,0.039
		c-0.215,0.026-0.417,0.075-0.604,0.146c-0.189,0.071-0.348,0.176-0.478,0.312c-0.13,0.137-0.195,0.315-0.195,0.536
		c0,0.273,0.094,0.494,0.284,0.663c0.189,0.169,0.437,0.31,0.743,0.42s0.655,0.204,1.046,0.282c0.391,0.078,0.795,0.163,1.212,0.254
		c0.404,0.091,0.802,0.201,1.193,0.331s0.74,0.306,1.046,0.526c0.307,0.222,0.554,0.501,0.744,0.839
		c0.188,0.338,0.283,0.754,0.283,1.248c0,0.598-0.137,1.105-0.41,1.521c-0.273,0.417-0.629,0.755-1.065,1.015
		c-0.436,0.26-0.921,0.448-1.456,0.565c-0.535,0.117-1.062,0.176-1.583,0.176c-0.639,0-1.228-0.072-1.769-0.215
		c-0.541-0.143-1.01-0.361-1.407-0.653c-0.397-0.293-0.71-0.656-0.938-1.092s-0.349-0.952-0.361-1.551H46.706z"/>
	<path d="M55.208,13.878h2.223v7.917l4.017-4.075h2.73l-3.861,3.704l4.231,6.377h-2.71l-3.081-4.895l-1.326,1.287v3.607h-2.223
		V13.878z"/>
	<path d="M70.242,28.074c-0.806,0-1.524-0.134-2.155-0.4c-0.631-0.266-1.164-0.634-1.599-1.102s-0.767-1.026-0.994-1.677
		c-0.228-0.65-0.341-1.365-0.341-2.146c0-0.767,0.113-1.475,0.341-2.125c0.227-0.65,0.559-1.209,0.994-1.677
		c0.436-0.469,0.968-0.836,1.599-1.103c0.63-0.266,1.349-0.399,2.155-0.399c0.806,0,1.524,0.134,2.155,0.399
		c0.63,0.267,1.163,0.634,1.599,1.103c0.435,0.468,0.767,1.026,0.994,1.677s0.341,1.358,0.341,2.125c0,0.78-0.114,1.495-0.341,2.146
		s-0.559,1.209-0.994,1.677c-0.436,0.468-0.969,0.836-1.599,1.102C71.766,27.94,71.048,28.074,70.242,28.074z M70.242,26.318
		c0.494,0,0.923-0.104,1.287-0.312c0.364-0.208,0.663-0.48,0.897-0.819c0.234-0.338,0.406-0.718,0.517-1.141
		c0.11-0.422,0.166-0.854,0.166-1.297c0-0.429-0.056-0.857-0.166-1.287c-0.11-0.429-0.283-0.809-0.517-1.141
		c-0.234-0.331-0.533-0.601-0.897-0.809c-0.364-0.208-0.793-0.312-1.287-0.312c-0.494,0-0.923,0.104-1.287,0.312
		s-0.663,0.478-0.897,0.809c-0.234,0.332-0.406,0.712-0.517,1.141c-0.111,0.43-0.166,0.858-0.166,1.287
		c0,0.442,0.055,0.875,0.166,1.297c0.11,0.423,0.283,0.803,0.517,1.141c0.234,0.339,0.533,0.611,0.897,0.819
		S69.748,26.318,70.242,26.318z M70.886,13.526h2.632l-2.769,2.789h-1.618L70.886,13.526z"/>
	<path d="M77.242,13.878h2.223v13.923h-2.223V13.878z"/>
	<path d="M90.326,25.559c0,0.272,0.036,0.468,0.107,0.585c0.072,0.117,0.212,0.175,0.42,0.175c0.064,0,0.143,0,0.234,0
		c0.09,0,0.194-0.013,0.312-0.039v1.541c-0.078,0.025-0.179,0.055-0.302,0.088c-0.124,0.032-0.251,0.062-0.381,0.088
		c-0.13,0.025-0.26,0.045-0.391,0.059c-0.129,0.013-0.24,0.02-0.33,0.02c-0.456,0-0.833-0.092-1.132-0.273
		c-0.3-0.182-0.494-0.5-0.585-0.955c-0.441,0.429-0.984,0.74-1.628,0.936s-1.265,0.293-1.862,0.293
		c-0.455,0-0.891-0.062-1.307-0.186c-0.416-0.124-0.783-0.306-1.102-0.546s-0.572-0.546-0.761-0.917
		c-0.188-0.37-0.282-0.803-0.282-1.297c0-0.624,0.113-1.131,0.341-1.521s0.526-0.695,0.897-0.917c0.37-0.221,0.785-0.38,1.248-0.478
		c0.461-0.098,0.926-0.172,1.394-0.224c0.403-0.078,0.786-0.134,1.15-0.166s0.686-0.088,0.966-0.166
		c0.279-0.078,0.5-0.198,0.662-0.36c0.163-0.163,0.244-0.406,0.244-0.731c0-0.286-0.068-0.52-0.205-0.702
		c-0.137-0.182-0.305-0.321-0.506-0.419c-0.202-0.098-0.427-0.163-0.674-0.195c-0.246-0.032-0.48-0.049-0.701-0.049
		c-0.625,0-1.139,0.13-1.541,0.39c-0.402,0.261-0.631,0.663-0.683,1.209h-2.223c0.039-0.649,0.194-1.189,0.468-1.618
		s0.621-0.773,1.043-1.033c0.423-0.26,0.9-0.442,1.434-0.546c0.533-0.104,1.079-0.156,1.639-0.156c0.493,0,0.98,0.052,1.462,0.156
		c0.481,0.104,0.913,0.272,1.297,0.507s0.692,0.536,0.927,0.906c0.233,0.371,0.35,0.823,0.35,1.355V25.559z M88.104,22.75
		c-0.338,0.222-0.754,0.354-1.248,0.4c-0.494,0.045-0.988,0.113-1.481,0.204c-0.234,0.039-0.462,0.095-0.683,0.166
		s-0.416,0.169-0.585,0.293c-0.169,0.123-0.302,0.286-0.399,0.487s-0.146,0.445-0.146,0.731c0,0.247,0.071,0.455,0.215,0.624
		c0.143,0.169,0.314,0.302,0.516,0.399c0.202,0.098,0.423,0.166,0.664,0.205c0.24,0.038,0.458,0.058,0.652,0.058
		c0.247,0,0.514-0.032,0.8-0.097c0.286-0.065,0.556-0.176,0.81-0.332s0.465-0.354,0.634-0.595c0.169-0.24,0.253-0.536,0.253-0.887
		V22.75z"/>
	<path d="M92.783,17.72h2.106v1.364h0.039c0.312-0.585,0.747-1.004,1.307-1.258c0.559-0.253,1.163-0.38,1.813-0.38
		c0.793,0,1.484,0.14,2.076,0.419c0.592,0.28,1.082,0.663,1.473,1.15c0.391,0.488,0.683,1.057,0.877,1.707
		c0.195,0.649,0.293,1.345,0.293,2.086c0,0.677-0.088,1.333-0.264,1.97c-0.175,0.637-0.441,1.199-0.799,1.687
		s-0.81,0.878-1.355,1.17c-0.546,0.293-1.189,0.439-1.931,0.439c-0.325,0-0.649-0.029-0.975-0.088s-0.638-0.153-0.937-0.283
		s-0.574-0.295-0.828-0.497c-0.254-0.201-0.465-0.438-0.634-0.712h-0.039v5.031h-2.224V17.72z M100.545,22.77
		c0-0.455-0.059-0.896-0.176-1.326c-0.117-0.429-0.293-0.809-0.526-1.141c-0.233-0.331-0.526-0.598-0.878-0.799
		c-0.351-0.202-0.754-0.303-1.209-0.303c-0.936,0-1.641,0.325-2.115,0.976c-0.475,0.649-0.712,1.514-0.712,2.593
		c0,0.507,0.062,0.979,0.185,1.414c0.124,0.436,0.309,0.81,0.557,1.121c0.246,0.312,0.543,0.56,0.887,0.741
		c0.345,0.182,0.744,0.272,1.199,0.272c0.508,0,0.937-0.104,1.287-0.312c0.352-0.208,0.641-0.478,0.868-0.81
		c0.228-0.331,0.39-0.708,0.487-1.131C100.496,23.645,100.545,23.212,100.545,22.77z"/>
	<path d="M113.492,27.801h-2.184v-1.404h-0.039c-0.273,0.507-0.68,0.914-1.219,1.219c-0.539,0.306-1.089,0.459-1.647,0.459
		c-1.326,0-2.285-0.328-2.876-0.985c-0.592-0.656-0.888-1.647-0.888-2.974V17.72h2.224V23.9c0,0.885,0.168,1.509,0.506,1.872
		c0.338,0.364,0.812,0.546,1.424,0.546c0.469,0,0.858-0.071,1.17-0.214c0.312-0.144,0.566-0.335,0.761-0.575
		c0.195-0.24,0.335-0.53,0.419-0.868c0.085-0.338,0.127-0.702,0.127-1.092v-5.85h2.223V27.801z M109.924,13.526h2.633l-2.77,2.789
		h-1.617L109.924,13.526z"/>
	<path d="M115.891,13.878h2.224v13.923h-2.224V13.878z"/>
	<path d="M122.209,24.563c0.064,0.65,0.312,1.105,0.74,1.365c0.43,0.261,0.943,0.39,1.541,0.39c0.208,0,0.445-0.016,0.712-0.048
		c0.267-0.033,0.517-0.095,0.751-0.186s0.426-0.225,0.574-0.4c0.15-0.175,0.219-0.405,0.205-0.691
		c-0.013-0.286-0.117-0.521-0.312-0.702c-0.195-0.183-0.445-0.328-0.751-0.439c-0.306-0.109-0.653-0.204-1.043-0.282
		c-0.391-0.078-0.787-0.162-1.189-0.254c-0.416-0.091-0.816-0.201-1.199-0.331c-0.384-0.13-0.729-0.306-1.033-0.526
		c-0.307-0.221-0.55-0.504-0.732-0.849c-0.182-0.344-0.272-0.771-0.272-1.277c0-0.546,0.134-1.004,0.399-1.374
		c0.267-0.371,0.605-0.67,1.015-0.897s0.864-0.387,1.364-0.478c0.501-0.091,0.979-0.137,1.434-0.137c0.52,0,1.018,0.056,1.492,0.166
		s0.903,0.289,1.287,0.536c0.383,0.247,0.701,0.568,0.955,0.965s0.412,0.875,0.479,1.434h-2.321
		c-0.104-0.533-0.348-0.891-0.731-1.072c-0.383-0.183-0.822-0.273-1.316-0.273c-0.156,0-0.341,0.014-0.555,0.039
		c-0.215,0.026-0.417,0.075-0.605,0.146s-0.348,0.176-0.478,0.312c-0.13,0.137-0.194,0.315-0.194,0.536
		c0,0.273,0.094,0.494,0.283,0.663s0.437,0.31,0.743,0.42s0.655,0.204,1.046,0.282c0.392,0.078,0.795,0.163,1.213,0.254
		c0.404,0.091,0.802,0.201,1.193,0.331c0.391,0.13,0.739,0.306,1.046,0.526c0.307,0.222,0.554,0.501,0.743,0.839
		s0.283,0.754,0.283,1.248c0,0.598-0.137,1.105-0.41,1.521c-0.273,0.417-0.629,0.755-1.064,1.015
		c-0.437,0.26-0.922,0.448-1.456,0.565s-1.062,0.176-1.583,0.176c-0.639,0-1.229-0.072-1.769-0.215
		c-0.541-0.143-1.01-0.361-1.407-0.653c-0.396-0.293-0.71-0.656-0.938-1.092c-0.229-0.436-0.35-0.952-0.361-1.551H122.209z"/>
	<path d="M130.711,13.878h2.223v2.105h-2.223V13.878z M130.711,17.72h2.223v10.081h-2.223V17.72z"/>
	<path d="M135.352,17.72h2.105v1.481l0.039,0.039c0.338-0.559,0.781-0.997,1.326-1.316c0.547-0.318,1.15-0.478,1.814-0.478
		c1.104,0,1.975,0.286,2.612,0.858c0.637,0.572,0.956,1.43,0.956,2.573v6.923h-2.224v-6.338c-0.026-0.792-0.194-1.367-0.507-1.726
		c-0.312-0.357-0.799-0.536-1.463-0.536c-0.377,0-0.715,0.068-1.014,0.205s-0.553,0.325-0.76,0.565
		c-0.209,0.24-0.371,0.523-0.488,0.848c-0.117,0.325-0.176,0.67-0.176,1.034v5.947h-2.223V17.72z"/>
	<path d="M146.545,17.72h2.105v1.481l0.039,0.039c0.338-0.559,0.78-0.997,1.326-1.316c0.546-0.318,1.15-0.478,1.813-0.478
		c1.104,0,1.976,0.286,2.612,0.858s0.956,1.43,0.956,2.573v6.923h-2.224v-6.338c-0.025-0.792-0.194-1.367-0.506-1.726
		c-0.312-0.357-0.8-0.536-1.463-0.536c-0.377,0-0.715,0.068-1.014,0.205c-0.3,0.137-0.553,0.325-0.761,0.565
		s-0.37,0.523-0.487,0.848c-0.117,0.325-0.176,0.67-0.176,1.034v5.947h-2.223V17.72z"/>
</g>
</svg>
