<?xml version="1.0" encoding="utf-8"?>
<!-- Generator: Adobe Illustrator 15.0.2, SVG Export Plug-In . SVG Version: 6.00 Build 0)  -->
<!DOCTYPE svg PUBLIC "-//W3C//DTD SVG 1.1//EN" "http://www.w3.org/Graphics/SVG/1.1/DTD/svg11.dtd">
<svg version="1.1" id="Layer_1" xmlns="http://www.w3.org/2000/svg" xmlns:xlink="http://www.w3.org/1999/xlink" x="0px" y="0px"
	 width="156px" height="42px" viewBox="0 0 156 42" enable-background="new 0 0 156 42" xml:space="preserve">
<g id="Layer_1_1_">
</g>
<path fill="#4159A8" d="M1.206,19.358c0.139-1.696,0.493-3.358,1.06-4.961C5.058,6.499,12.563,1.191,20.946,1.191V0.06
	c-4.417,0-8.641,1.36-12.216,3.931C7.008,5.228,5.49,6.714,4.213,8.407c-1.29,1.71-2.304,3.601-3.015,5.613
	c-0.609,1.723-0.985,3.512-1.128,5.338H0.069l-0.007,0.144c-0.032,0.452-0.052,0.904-0.054,1.36L0,21.065v1.689h41.885v-3.397
	L1.206,19.358L1.206,19.358z"/>
<path d="M41.468,25.753l-0.109,0.376c-0.077,0.225-0.776,2.164-0.86,2.383c-1.503,3.907-4.118,7.248-7.564,9.658
	c-3.525,2.469-7.671,3.771-11.988,3.771v-1.135c8.143,0,15.576-5.105,18.495-12.703c0.041-0.104,0.248-0.668,0.449-1.217H0.04
	v-1.134h40.159H41.468z"/>
<rect x="46.35" y="12.407" fill="none" width="125.667" height="25.667"/>
<text transform="matrix(1 0 0 1 46.3501 28.2832)" font-family="'AvenirNext-Medium'" font-size="21">Skólavogin</text>
</svg>
