<?xml version="1.0" encoding="utf-8"?>
<!-- Generator: Adobe Illustrator 16.2.1, SVG Export Plug-In . SVG Version: 6.00 Build 0)  -->
<!DOCTYPE svg PUBLIC "-//W3C//DTD SVG 1.1//EN" "http://www.w3.org/Graphics/SVG/1.1/DTD/svg11.dtd">
<svg version="1.1" id="Layer_1" xmlns="http://www.w3.org/2000/svg" xmlns:xlink="http://www.w3.org/1999/xlink" x="0px" y="0px" enable-background="new 0 0 310 100" xml:space="preserve">
<g>
	<polygon fill="#005283" points="1.861,65.512 22.013,79.376 46.274,89.438 58.312,83.52 70.46,74.516 34.588,66.942 18.439,67.515 
			"/>
	<polygon fill="#006DAF" points="73.843,80.709 88.896,74.803 110.619,65.847 85.657,68.513 54.596,66.799 33.637,66.799 
		57.646,73.276 	"/>
	<polygon fill="#41C2FF" points="39.378,9.193 54.596,37.587 73.616,65.885 19.154,67.602 1.875,65.885 22.87,30.442 	"/>
	<polygon fill="#FFFFFF" points="49.157,37.63 37.447,28.346 26.776,36.54 32.111,27.203 39.234,20.481 43.544,28.537 	"/>
	<polygon fill="#99D9FF" points="73.352,25.264 88.916,40.146 110.415,66.457 86.038,68.934 56.311,67.137 32.111,67.028 
		51.738,49.688 	"/>
	<polygon fill="#FFFFFF" points="86.26,47.077 75.447,40.688 60.123,46.639 68.756,39.244 74.292,33.201 81.083,39.207 	"/>
</g>
<g>
	<g>
		<path fill="#404041" d="M149.528,66.143h-15.489l-17.151-43.579h15.839l9.188,28.265h0.263l9.188-28.265h15.314L149.528,66.143z"
			/>
		<path fill="#404041" d="M170.18,66.143V22.563h14.352v43.579H170.18z M181.118,16.088h-10.851l9.1-12.602h14.527L181.118,16.088z"
			/>
		<path fill="#404041" d="M219.358,35.427c-1.168-1.108-2.538-2.042-4.113-2.8c-1.575-0.758-3.237-1.138-4.987-1.138
			c-1.344,0-2.582,0.263-3.72,0.788s-1.706,1.43-1.706,2.713c0,1.225,0.626,2.1,1.881,2.625c1.254,0.525,3.281,1.109,6.082,1.75
			c1.633,0.35,3.281,0.847,4.944,1.488c1.663,0.643,3.164,1.488,4.507,2.538c1.342,1.05,2.42,2.334,3.238,3.851
			c0.816,1.518,1.225,3.325,1.225,5.425c0,2.743-0.555,5.062-1.662,6.957c-1.109,1.896-2.553,3.428-4.332,4.594
			c-1.78,1.168-3.778,2.014-5.994,2.539c-2.219,0.524-4.435,0.787-6.65,0.787c-3.561,0-7.045-0.568-10.458-1.707
			c-3.413-1.137-6.257-2.813-8.532-5.031l8.051-8.488c1.283,1.4,2.857,2.568,4.726,3.5c1.866,0.934,3.851,1.4,5.95,1.4
			c1.167,0,2.319-0.276,3.457-0.832c1.138-0.553,1.707-1.531,1.707-2.932c0-1.341-0.701-2.332-2.101-2.975
			c-1.4-0.641-3.588-1.312-6.563-2.013c-1.518-0.35-3.034-0.816-4.551-1.4c-1.518-0.583-2.873-1.37-4.068-2.363
			c-1.197-0.991-2.174-2.217-2.932-3.675c-0.76-1.458-1.138-3.208-1.138-5.25c0-2.625,0.554-4.857,1.663-6.695
			c1.107-1.837,2.537-3.339,4.287-4.506c1.75-1.167,3.689-2.026,5.819-2.582c2.129-0.554,4.245-0.832,6.345-0.832
			c3.267,0,6.461,0.512,9.582,1.532c3.12,1.021,5.761,2.553,7.92,4.594L219.358,35.427z"/>
		<path fill="#404041" d="M232.221,28.514c2.566-2.45,5.557-4.288,8.97-5.513s6.898-1.838,10.458-1.838
			c3.675,0,6.781,0.453,9.318,1.356c2.539,0.905,4.595,2.305,6.17,4.201c1.575,1.896,2.727,4.288,3.457,7.175
			c0.729,2.888,1.094,6.316,1.094,10.282v21.965h-13.127v-4.639h-0.262c-1.109,1.81-2.787,3.21-5.032,4.201
			c-2.247,0.991-4.682,1.488-7.307,1.488c-1.751,0-3.56-0.234-5.426-0.701c-1.868-0.466-3.574-1.225-5.119-2.275
			c-1.546-1.049-2.815-2.449-3.807-4.199c-0.993-1.751-1.487-3.908-1.487-6.477c0-3.15,0.859-5.688,2.581-7.613
			c1.72-1.925,3.938-3.413,6.651-4.463c2.712-1.05,5.73-1.75,9.057-2.101c3.325-0.35,6.562-0.525,9.713-0.525v-0.7
			c0-2.157-0.758-3.748-2.275-4.769c-1.518-1.02-3.384-1.531-5.6-1.531c-2.043,0-4.012,0.438-5.907,1.312
			c-1.896,0.875-3.515,1.925-4.856,3.15L232.221,28.514z M258.561,47.153h-1.838c-1.574,0-3.164,0.074-4.769,0.219
			c-1.605,0.146-3.034,0.424-4.288,0.831c-1.255,0.409-2.29,1.006-3.106,1.794c-0.817,0.788-1.226,1.824-1.226,3.106
			c0,0.818,0.189,1.518,0.569,2.101c0.379,0.584,0.86,1.05,1.444,1.399c0.582,0.351,1.254,0.6,2.012,0.744
			c0.758,0.146,1.488,0.219,2.188,0.219c2.917,0,5.148-0.801,6.695-2.406c1.545-1.604,2.318-3.776,2.318-6.52V47.153z"/>
		<path fill="#404041" d="M308.439,34.377c-0.643-0.175-1.268-0.291-1.881-0.35c-0.613-0.057-1.211-0.087-1.794-0.087
			c-1.925,0-3.544,0.35-4.856,1.047c-1.312,0.699-2.363,1.542-3.15,2.531c-0.787,0.99-1.356,2.066-1.707,3.23
			c-0.35,1.164-0.524,2.181-0.524,3.053v22.342h-14.352V22.615h13.826v6.301h0.175c1.107-2.231,2.684-4.053,4.726-5.462
			s4.404-2.115,7.089-2.115c0.582,0,1.15,0.03,1.706,0.087c0.554,0.059,1.007,0.146,1.356,0.263L308.439,34.377z"/>
	</g>
</g>
<g>
	<g>
		<path fill="#404041" d="M139.72,89.939h-1.441l-3.67-8.993h1.46l2.921,7.609h0.039l2.939-7.609h1.403L139.72,89.939z"/>
		<path fill="#404041" d="M146.521,77.488c0,0.269-0.096,0.489-0.288,0.662c-0.192,0.174-0.404,0.26-0.634,0.26
			s-0.442-0.086-0.634-0.26c-0.192-0.173-0.288-0.394-0.288-0.662c0-0.27,0.096-0.49,0.288-0.664
			c0.192-0.172,0.404-0.259,0.634-0.259s0.442,0.087,0.634,0.259C146.425,76.998,146.521,77.219,146.521,77.488z M146.252,89.939
			h-1.307v-8.993h1.307V89.939z"/>
		<path fill="#404041" d="M154.284,77.258c0.525,0.486,1.012,1.024,1.46,1.613c0.449,0.59,0.839,1.221,1.171,1.893
			c0.334,0.673,0.596,1.374,0.788,2.104c0.192,0.729,0.288,1.474,0.288,2.229c0,0.577-0.083,1.166-0.25,1.769
			c-0.166,0.602-0.438,1.146-0.816,1.633c-0.377,0.486-0.871,0.887-1.479,1.201c-0.609,0.313-1.355,0.471-2.239,0.471
			c-0.692,0-1.329-0.119-1.912-0.355c-0.583-0.237-1.086-0.567-1.508-0.99c-0.423-0.422-0.753-0.922-0.99-1.498
			c-0.237-0.576-0.355-1.204-0.355-1.883c0-0.68,0.118-1.307,0.355-1.884c0.237-0.576,0.567-1.076,0.99-1.499
			c0.422-0.422,0.925-0.752,1.508-0.989c0.583-0.237,1.22-0.355,1.912-0.355c0.563,0,1.069,0.09,1.518,0.269
			c0.448,0.18,0.903,0.461,1.364,0.846l0.039-0.038c-0.346-0.73-0.778-1.438-1.297-2.124c-0.519-0.685-1.085-1.289-1.7-1.814
			l-2.152,1.095l-0.691-0.692l2.113-1.076c-0.32-0.307-0.65-0.582-0.989-0.826c-0.34-0.242-0.65-0.461-0.932-0.652l1.134-0.711
			c0.333,0.256,0.663,0.516,0.99,0.777c0.327,0.264,0.637,0.529,0.932,0.798l1.96-1.019l0.769,0.673L154.284,77.258z
			 M149.826,85.443c0,0.499,0.08,0.967,0.24,1.402s0.384,0.813,0.672,1.133c0.289,0.32,0.641,0.574,1.057,0.76
			c0.416,0.186,0.887,0.278,1.412,0.278s0.996-0.093,1.413-0.278c0.416-0.186,0.771-0.439,1.066-0.76
			c0.294-0.319,0.522-0.697,0.682-1.133s0.24-0.903,0.24-1.402c0-0.5-0.08-0.968-0.24-1.403s-0.388-0.813-0.682-1.134
			c-0.295-0.32-0.65-0.573-1.066-0.759c-0.417-0.186-0.887-0.278-1.413-0.278s-0.996,0.093-1.412,0.278
			c-0.417,0.186-0.769,0.438-1.057,0.759c-0.288,0.32-0.512,0.698-0.672,1.134S149.826,84.943,149.826,85.443z"/>
		<path fill="#404041" d="M167.303,81.206c0.531-0.327,1.123-0.49,1.777-0.49c0.242,0,0.496,0.026,0.759,0.077
			s0.519,0.15,0.769,0.297c0.25,0.148,0.48,0.344,0.691,0.587s0.395,0.558,0.548,0.941c0.308-0.614,0.728-1.085,1.259-1.412
			s1.162-0.49,1.893-0.49c1.14,0,1.995,0.34,2.564,1.019c0.57,0.68,0.855,1.576,0.855,2.689v5.516h-1.307v-4.977
			c0-0.948-0.176-1.711-0.528-2.287s-0.951-0.865-1.796-0.865c-0.475,0-0.875,0.097-1.201,0.289
			c-0.327,0.191-0.59,0.445-0.788,0.759s-0.343,0.669-0.433,1.066s-0.135,0.808-0.135,1.229v4.785h-1.307v-5.246
			c0-0.436-0.031-0.832-0.096-1.191c-0.064-0.358-0.176-0.663-0.336-0.912c-0.16-0.25-0.381-0.442-0.663-0.577
			c-0.282-0.134-0.641-0.202-1.076-0.202c-0.308,0-0.618,0.071-0.932,0.212c-0.313,0.142-0.596,0.355-0.846,0.644
			c-0.249,0.289-0.451,0.653-0.604,1.096c-0.154,0.441-0.23,0.964-0.23,1.566v4.611h-1.307v-7.014c0-0.243-0.008-0.558-0.02-0.941
			c-0.014-0.385-0.032-0.73-0.059-1.038h1.25c0.025,0.243,0.045,0.513,0.057,0.808c0.014,0.295,0.02,0.537,0.02,0.729h0.039
			C166.377,81.959,166.771,81.533,167.303,81.206z"/>
		<path fill="#404041" d="M195.23,85.174c0,0.115,0,0.225,0,0.326c0,0.104-0.006,0.199-0.019,0.289h-7.109
			c0.013,0.451,0.099,0.879,0.259,1.285s0.381,0.757,0.664,1.053c0.281,0.297,0.611,0.531,0.988,0.705
			c0.379,0.175,0.785,0.262,1.221,0.262c0.653,0,1.214-0.156,1.682-0.471c0.467-0.314,0.822-0.676,1.066-1.086l0.941,0.75
			c-0.513,0.676-1.076,1.158-1.691,1.448c-0.614,0.29-1.281,0.435-1.998,0.435c-0.846,0-1.578-0.186-2.2-0.558
			c-0.621-0.372-1.079-0.884-1.374-1.537c-0.18,0.41-0.4,0.749-0.662,1.019c-0.264,0.269-0.558,0.483-0.885,0.644
			c-0.326,0.16-0.676,0.272-1.047,0.336s-0.756,0.097-1.152,0.097c-0.385,0-0.772-0.049-1.163-0.145s-0.739-0.246-1.047-0.451
			s-0.558-0.475-0.749-0.807c-0.193-0.334-0.289-0.744-0.289-1.23c0-0.641,0.18-1.146,0.539-1.518
			c0.357-0.371,0.828-0.65,1.412-0.836c0.582-0.186,1.248-0.305,1.998-0.355c0.749-0.051,1.508-0.077,2.277-0.077v-0.288
			c0-0.781-0.189-1.419-0.567-1.912c-0.378-0.492-0.958-0.74-1.739-0.74c-0.537,0-1.047,0.097-1.527,0.289
			c-0.48,0.191-0.894,0.448-1.239,0.769l-0.749-0.846c0.384-0.372,0.906-0.683,1.565-0.933c0.659-0.249,1.374-0.374,2.143-0.374
			c0.718,0,1.335,0.163,1.854,0.49c0.519,0.327,0.887,0.791,1.104,1.394c0.358-0.577,0.836-1.035,1.432-1.375
			c0.596-0.339,1.252-0.509,1.97-0.509c0.666,0,1.255,0.118,1.768,0.355c0.512,0.237,0.941,0.558,1.287,0.961
			s0.605,0.874,0.778,1.412S195.23,84.559,195.23,85.174z M186.508,85.789c-0.576,0-1.137,0.016-1.682,0.048
			s-1.025,0.106-1.441,0.223s-0.749,0.29-0.998,0.521c-0.25,0.231-0.375,0.548-0.375,0.946c0,0.31,0.057,0.567,0.172,0.773
			c0.116,0.207,0.273,0.371,0.472,0.493s0.426,0.209,0.683,0.261c0.256,0.052,0.524,0.077,0.807,0.077
			c0.922,0,1.61-0.245,2.065-0.734c0.454-0.489,0.683-1.14,0.683-1.952v-0.656H186.508z M193.905,84.751
			c0-0.858-0.243-1.562-0.729-2.114c-0.488-0.55-1.166-0.826-2.037-0.826c-0.397,0-0.771,0.08-1.125,0.24
			c-0.352,0.16-0.662,0.379-0.932,0.654c-0.269,0.275-0.486,0.589-0.652,0.941c-0.167,0.352-0.257,0.721-0.27,1.104H193.905z"/>
		<path fill="#404041" d="M198.9,89.939h-1.307V75.412h1.307V89.939z"/>
		<path fill="#404041" d="M208.451,89.939c-0.026-0.244-0.045-0.513-0.059-0.808c-0.012-0.294-0.019-0.538-0.019-0.729h-0.038
			c-0.257,0.525-0.673,0.951-1.25,1.277c-0.576,0.326-1.185,0.49-1.824,0.49c-1.141,0-1.996-0.34-2.566-1.019
			c-0.569-0.679-0.854-1.575-0.854-2.69v-5.515h1.307v4.977c0,0.474,0.038,0.903,0.115,1.288c0.077,0.384,0.208,0.714,0.394,0.989
			s0.436,0.489,0.75,0.644c0.313,0.154,0.707,0.23,1.182,0.23c0.346,0,0.682-0.07,1.009-0.211s0.618-0.355,0.874-0.645
			c0.256-0.287,0.461-0.652,0.615-1.095c0.153-0.442,0.23-0.964,0.23-1.565v-4.612h1.307v7.014c0,0.243,0.006,0.558,0.02,0.941
			c0.012,0.384,0.031,0.729,0.057,1.038H208.451z"/>
		<path fill="#404041" d="M215.07,81.206c0.531-0.327,1.124-0.49,1.777-0.49c0.243,0,0.496,0.026,0.76,0.077
			c0.262,0.051,0.518,0.15,0.768,0.297c0.25,0.148,0.48,0.344,0.692,0.587c0.211,0.243,0.394,0.558,0.548,0.941
			c0.307-0.614,0.727-1.085,1.258-1.412s1.162-0.49,1.893-0.49c1.141,0,1.996,0.34,2.565,1.019c0.569,0.68,0.854,1.576,0.854,2.689
			v5.516h-1.307v-4.977c0-0.948-0.176-1.711-0.527-2.287c-0.354-0.576-0.951-0.865-1.797-0.865c-0.475,0-0.875,0.097-1.201,0.289
			c-0.326,0.191-0.59,0.445-0.787,0.759c-0.199,0.313-0.344,0.669-0.433,1.066c-0.09,0.397-0.135,0.808-0.135,1.229v4.785h-1.307
			v-5.246c0-0.436-0.032-0.832-0.097-1.191c-0.063-0.358-0.176-0.663-0.336-0.912c-0.16-0.25-0.381-0.442-0.662-0.577
			c-0.282-0.134-0.641-0.202-1.076-0.202c-0.308,0-0.619,0.071-0.932,0.212c-0.314,0.142-0.596,0.355-0.846,0.644
			c-0.25,0.289-0.451,0.653-0.605,1.096c-0.154,0.441-0.23,0.964-0.23,1.566v4.611h-1.307v-7.014c0-0.243-0.007-0.558-0.02-0.941
			c-0.013-0.385-0.031-0.73-0.058-1.038h1.249c0.025,0.243,0.045,0.513,0.058,0.808s0.02,0.537,0.02,0.729h0.038
			C214.145,81.959,214.539,81.533,215.07,81.206z"/>
		<path fill="#404041" d="M235.88,81.206c0.532-0.327,1.124-0.49,1.777-0.49c0.243,0,0.497,0.026,0.759,0.077
			c0.263,0.051,0.52,0.15,0.77,0.297c0.249,0.148,0.48,0.344,0.691,0.587s0.394,0.558,0.547,0.941
			c0.309-0.614,0.728-1.085,1.26-1.412c0.531-0.327,1.162-0.49,1.893-0.49c1.139,0,1.994,0.34,2.564,1.019
			c0.57,0.68,0.855,1.576,0.855,2.689v5.516h-1.307v-4.977c0-0.948-0.176-1.711-0.529-2.287c-0.352-0.576-0.951-0.865-1.796-0.865
			c-0.474,0-0.874,0.097-1.201,0.289c-0.327,0.191-0.589,0.445-0.788,0.759c-0.198,0.313-0.342,0.669-0.432,1.066
			s-0.135,0.808-0.135,1.229v4.785h-1.307v-5.246c0-0.436-0.032-0.832-0.096-1.191c-0.064-0.358-0.176-0.663-0.336-0.912
			c-0.161-0.25-0.382-0.442-0.664-0.577c-0.281-0.134-0.641-0.202-1.076-0.202c-0.307,0-0.617,0.071-0.932,0.212
			c-0.313,0.142-0.596,0.355-0.846,0.644c-0.249,0.289-0.451,0.653-0.604,1.096c-0.153,0.441-0.23,0.964-0.23,1.566v4.611h-1.307
			v-7.014c0-0.243-0.007-0.558-0.02-0.941c-0.013-0.385-0.032-0.73-0.058-1.038h1.249c0.025,0.243,0.045,0.513,0.058,0.808
			s0.02,0.537,0.02,0.729h0.038C234.955,81.959,235.348,81.533,235.88,81.206z"/>
		<path fill="#404041" d="M258.083,85.174c0,0.09,0,0.186,0,0.288s-0.007,0.212-0.02,0.327h-7.455
			c0.013,0.448,0.103,0.871,0.269,1.268c0.166,0.397,0.396,0.743,0.691,1.037c0.295,0.295,0.641,0.529,1.038,0.702
			s0.826,0.259,1.288,0.259c0.678,0,1.264-0.156,1.758-0.471c0.492-0.313,0.867-0.676,1.124-1.086l0.979,0.77
			c-0.537,0.679-1.131,1.166-1.777,1.46s-1.342,0.442-2.084,0.442c-0.667,0-1.285-0.119-1.855-0.355
			c-0.569-0.237-1.06-0.567-1.469-0.99c-0.41-0.422-0.734-0.922-0.971-1.498c-0.237-0.576-0.355-1.204-0.355-1.883
			c0-0.68,0.115-1.307,0.346-1.884c0.23-0.576,0.551-1.076,0.961-1.499c0.41-0.422,0.891-0.752,1.441-0.989s1.146-0.355,1.787-0.355
			c0.703,0,1.325,0.118,1.863,0.355s0.986,0.558,1.345,0.961s0.631,0.874,0.817,1.412C257.99,83.982,258.083,84.559,258.083,85.174z
			 M256.757,84.751c-0.038-0.845-0.311-1.547-0.816-2.104c-0.507-0.557-1.228-0.836-2.161-0.836c-0.436,0-0.84,0.08-1.211,0.24
			c-0.372,0.16-0.699,0.379-0.98,0.654s-0.506,0.589-0.672,0.941c-0.167,0.352-0.264,0.721-0.289,1.104H256.757z"/>
		<path fill="#404041" d="M265.441,77.258c0.525,0.486,1.012,1.024,1.461,1.613c0.448,0.59,0.839,1.221,1.172,1.893
			c0.333,0.673,0.596,1.374,0.787,2.104c0.193,0.729,0.289,1.474,0.289,2.229c0,0.577-0.084,1.166-0.25,1.769
			c-0.166,0.602-0.439,1.146-0.816,1.633c-0.378,0.486-0.871,0.887-1.479,1.201c-0.608,0.313-1.354,0.471-2.239,0.471
			c-0.691,0-1.328-0.119-1.911-0.355c-0.583-0.237-1.086-0.567-1.509-0.99c-0.422-0.422-0.752-0.922-0.989-1.498
			s-0.355-1.204-0.355-1.883c0-0.68,0.118-1.307,0.355-1.884c0.237-0.576,0.567-1.076,0.989-1.499
			c0.423-0.422,0.926-0.752,1.509-0.989s1.22-0.355,1.911-0.355c0.564,0,1.07,0.09,1.519,0.269c0.448,0.18,0.903,0.461,1.364,0.846
			l0.039-0.038c-0.347-0.73-0.779-1.438-1.298-2.124c-0.519-0.685-1.085-1.289-1.7-1.814l-2.152,1.095l-0.691-0.692l2.113-1.076
			c-0.32-0.307-0.65-0.582-0.989-0.826c-0.34-0.242-0.65-0.461-0.933-0.652l1.135-0.711c0.332,0.256,0.662,0.516,0.989,0.777
			c0.327,0.264,0.637,0.529,0.932,0.798l1.96-1.019l0.769,0.673L265.441,77.258z M260.984,85.443c0,0.499,0.08,0.967,0.24,1.402
			s0.384,0.813,0.672,1.133c0.289,0.32,0.641,0.574,1.057,0.76s0.887,0.278,1.412,0.278s0.996-0.093,1.413-0.278
			c0.416-0.186,0.771-0.439,1.066-0.76c0.294-0.319,0.521-0.697,0.683-1.133c0.159-0.436,0.239-0.903,0.239-1.402
			c0-0.5-0.08-0.968-0.239-1.403c-0.161-0.436-0.389-0.813-0.683-1.134c-0.295-0.32-0.65-0.573-1.066-0.759
			c-0.417-0.186-0.888-0.278-1.413-0.278s-0.996,0.093-1.412,0.278s-0.768,0.438-1.057,0.759c-0.288,0.32-0.512,0.698-0.672,1.134
			S260.984,84.943,260.984,85.443z"/>
		<path fill="#404041" d="M280.68,90.17c-0.666,0-1.297-0.145-1.893-0.433s-1.08-0.728-1.451-1.316h-0.038v6.13h-1.269V75.412h1.269
			v7.091h0.038c0.385-0.589,0.875-1.034,1.471-1.335s1.22-0.452,1.873-0.452c0.666,0,1.283,0.118,1.854,0.355
			s1.063,0.567,1.48,0.989c0.416,0.423,0.742,0.923,0.979,1.499c0.237,0.577,0.355,1.204,0.355,1.884
			c0,0.679-0.118,1.307-0.355,1.883s-0.563,1.076-0.979,1.498c-0.417,0.423-0.91,0.753-1.48,0.99
			C281.963,90.051,281.346,90.17,280.68,90.17z M283.965,85.443c0-0.5-0.08-0.968-0.24-1.403s-0.387-0.813-0.682-1.134
			s-0.65-0.573-1.066-0.759s-0.887-0.278-1.412-0.278s-0.996,0.093-1.412,0.278c-0.417,0.186-0.77,0.438-1.057,0.759
			c-0.289,0.32-0.514,0.698-0.674,1.134s-0.24,0.903-0.24,1.403c0,0.499,0.08,0.967,0.24,1.402s0.385,0.813,0.674,1.133
			c0.287,0.32,0.64,0.574,1.057,0.76c0.416,0.186,0.887,0.278,1.412,0.278s0.996-0.093,1.412-0.278s0.771-0.439,1.066-0.76
			c0.295-0.319,0.521-0.697,0.682-1.133S283.965,85.942,283.965,85.443z"/>
		<path fill="#404041" d="M295.859,85.174c0,0.09,0,0.186,0,0.288s-0.007,0.212-0.02,0.327h-7.455
			c0.013,0.448,0.102,0.871,0.27,1.268c0.166,0.397,0.396,0.743,0.691,1.037c0.294,0.295,0.641,0.529,1.037,0.702
			s0.826,0.259,1.287,0.259c0.68,0,1.266-0.156,1.759-0.471c0.493-0.313,0.868-0.676,1.124-1.086l0.98,0.77
			c-0.539,0.679-1.131,1.166-1.777,1.46c-0.648,0.294-1.343,0.442-2.086,0.442c-0.666,0-1.284-0.119-1.854-0.355
			c-0.57-0.237-1.061-0.567-1.471-0.99c-0.41-0.422-0.732-0.922-0.97-1.498s-0.355-1.204-0.355-1.883
			c0-0.68,0.115-1.307,0.346-1.884c0.23-0.576,0.551-1.076,0.961-1.499c0.409-0.422,0.89-0.752,1.44-0.989s1.146-0.355,1.787-0.355
			c0.705,0,1.326,0.118,1.864,0.355s0.986,0.558,1.345,0.961c0.359,0.403,0.631,0.874,0.816,1.412S295.859,84.559,295.859,85.174z
			 M294.533,84.751c-0.038-0.845-0.311-1.547-0.816-2.104c-0.506-0.557-1.227-0.836-2.162-0.836c-0.436,0-0.839,0.08-1.21,0.24
			c-0.372,0.16-0.698,0.379-0.979,0.654c-0.283,0.275-0.507,0.589-0.674,0.941c-0.166,0.352-0.262,0.721-0.287,1.104H294.533z
			 M291.9,79.102h-1.133l1.921-2.767h1.749L291.9,79.102z"/>
		<path fill="#404041" d="M298.164,81.984c-0.012-0.385-0.031-0.73-0.057-1.038h1.248c0.025,0.243,0.045,0.513,0.059,0.808
			c0.012,0.295,0.02,0.537,0.02,0.729h0.037c0.257-0.524,0.641-0.95,1.153-1.277s1.089-0.49,1.729-0.49
			c0.166,0,0.316,0.007,0.451,0.019c0.135,0.014,0.272,0.039,0.414,0.078l-0.174,1.248c-0.076-0.025-0.205-0.051-0.384-0.076
			c-0.18-0.025-0.358-0.039-0.538-0.039c-0.346,0-0.68,0.064-1,0.192s-0.598,0.329-0.835,0.604s-0.43,0.626-0.577,1.054
			c-0.146,0.429-0.221,0.943-0.221,1.543v4.602h-1.307v-7.014C298.184,82.683,298.178,82.368,298.164,81.984z"/>
	</g>
</g>
</svg>
