<?xml version="1.0" encoding="utf-8"?>
<!-- Generator: Adobe Illustrator 15.0.2, SVG Export Plug-In . SVG Version: 6.00 Build 0)  -->
<!DOCTYPE svg PUBLIC "-//W3C//DTD SVG 1.1//EN" "http://www.w3.org/Graphics/SVG/1.1/DTD/svg11.dtd">
<svg version="1.1" id="Layer_1" xmlns="http://www.w3.org/2000/svg" xmlns:xlink="http://www.w3.org/1999/xlink" x="0px" y="0px"
	 width="219.531px" height="42.994px" viewBox="0 0 219.531 42.994" enable-background="new 0 0 219.531 42.994"
	 xml:space="preserve">
<path fill="#83BB41" d="M1.225,19.705c0.14-1.725,0.499-3.415,1.077-5.046C5.14,6.625,12.776,1.229,21.301,1.229v-1.15
	c-4.492,0-8.789,1.382-12.424,3.999c-1.75,1.256-3.297,2.768-4.595,4.49c-1.311,1.74-2.344,3.661-3.066,5.709
	c-0.62,1.752-1.001,3.572-1.146,5.428l0,0l-0.008,0.167c-0.032,0.44-0.05,0.886-0.054,1.332L0,21.443v1.717h42.598v-3.456H1.225z"/>
<path fill="#231F20" d="M42.21,26.209H0.038v1.153h40.529c-0.204,0.557-0.416,1.131-0.456,1.237
	c-2.971,7.729-10.53,12.918-18.81,12.918v1.153c4.391,0,8.608-1.325,12.193-3.831c3.501-2.453,6.163-5.849,7.692-9.824
	c0.078-0.202,0.685-1.857,0.843-2.305c0.015-0.041,0.167-0.465,0.173-0.481h-0.008L42.21,26.209z"/>
<path fill="#231F20" d="M56.827,16.195c-0.28-0.362-0.673-0.664-1.179-0.908c-0.51-0.243-1.021-0.366-1.535-0.366
	c-0.304,0-0.611,0.04-0.917,0.115c-0.307,0.075-0.584,0.194-0.835,0.354c-0.251,0.161-0.455,0.37-0.615,0.626
	c-0.161,0.259-0.24,0.568-0.24,0.928c0,0.334,0.069,0.62,0.208,0.856c0.138,0.235,0.33,0.438,0.574,0.605
	c0.244,0.166,0.539,0.312,0.887,0.438c0.348,0.125,0.73,0.25,1.147,0.375c0.474,0.153,0.962,0.329,1.472,0.521
	c0.507,0.195,0.972,0.454,1.398,0.773c0.424,0.318,0.772,0.725,1.043,1.211c0.271,0.485,0.407,1.091,0.407,1.815
	c0,0.793-0.146,1.485-0.439,2.077c-0.291,0.591-0.681,1.082-1.167,1.471c-0.488,0.39-1.059,0.682-1.711,0.877
	c-0.653,0.193-1.344,0.291-2.065,0.291c-0.96,0-1.899-0.177-2.817-0.531s-1.67-0.879-2.254-1.575l1.877-1.755
	c0.362,0.501,0.846,0.898,1.451,1.19c0.604,0.293,1.199,0.439,1.784,0.439c0.305,0,0.618-0.039,0.939-0.116
	c0.322-0.077,0.609-0.206,0.866-0.385c0.259-0.184,0.465-0.408,0.626-0.679c0.158-0.271,0.239-0.609,0.239-1.013
	c0-0.392-0.09-0.713-0.271-0.971c-0.182-0.259-0.426-0.479-0.73-0.667c-0.305-0.188-0.667-0.351-1.085-0.491
	c-0.418-0.138-0.856-0.285-1.315-0.438c-0.444-0.137-0.891-0.305-1.335-0.5c-0.445-0.195-0.845-0.452-1.201-0.772
	c-0.354-0.319-0.642-0.713-0.865-1.179c-0.224-0.466-0.334-1.045-0.334-1.742c0-0.751,0.156-1.398,0.47-1.941
	c0.313-0.542,0.722-0.992,1.23-1.347c0.507-0.354,1.086-0.619,1.733-0.792c0.646-0.173,1.304-0.26,1.972-0.26
	c0.751,0,1.513,0.131,2.285,0.396c0.772,0.263,1.442,0.659,2.014,1.189L56.827,16.195z"/>
<path fill="#231F20" d="M58.598,19.868v-2.003h1.753v-2.901h2.462v2.901h2.504v2.003h-2.504v4.653c0,0.444,0.081,0.814,0.24,1.106
	c0.158,0.292,0.517,0.438,1.075,0.438c0.167,0,0.348-0.017,0.542-0.053c0.194-0.035,0.37-0.086,0.522-0.155l0.083,1.96
	c-0.223,0.084-0.486,0.147-0.792,0.2c-0.307,0.047-0.6,0.071-0.876,0.071c-0.668,0-1.211-0.094-1.628-0.281
	c-0.417-0.189-0.747-0.444-0.991-0.771c-0.244-0.326-0.409-0.704-0.501-1.128c-0.089-0.426-0.135-0.88-0.135-1.367v-4.674H58.598z"
	/>
<path fill="#231F20" d="M72.371,26.608h-0.062c-0.251,0.444-0.654,0.812-1.211,1.097s-1.189,0.428-1.899,0.428
	c-0.405,0-0.824-0.053-1.263-0.156c-0.438-0.104-0.842-0.279-1.21-0.522c-0.369-0.244-0.676-0.564-0.918-0.96
	c-0.244-0.396-0.365-0.888-0.365-1.472c0-0.75,0.212-1.349,0.637-1.793c0.422-0.446,0.97-0.786,1.637-1.024
	c0.668-0.236,1.409-0.392,2.222-0.469c0.815-0.078,1.609-0.115,2.39-0.115v-0.25c0-0.627-0.226-1.087-0.678-1.388
	c-0.454-0.299-0.991-0.45-1.617-0.45c-0.528,0-1.037,0.111-1.524,0.334c-0.486,0.221-0.891,0.493-1.209,0.813l-1.294-1.523
	c0.569-0.528,1.227-0.924,1.972-1.19c0.743-0.263,1.499-0.396,2.265-0.396c0.889,0,1.624,0.125,2.202,0.375
	c0.577,0.251,1.032,0.576,1.366,0.981c0.334,0.403,0.565,0.855,0.7,1.356c0.132,0.5,0.198,1.001,0.198,1.502v6.092h-2.337V26.608z
	 M72.33,23.311h-0.564c-0.403,0-0.829,0.017-1.273,0.054c-0.443,0.034-0.855,0.111-1.23,0.228c-0.376,0.12-0.688,0.286-0.939,0.502
	s-0.375,0.512-0.375,0.888c0,0.237,0.052,0.433,0.156,0.596c0.105,0.159,0.24,0.285,0.406,0.384c0.167,0.1,0.356,0.166,0.564,0.21
	c0.209,0.042,0.417,0.062,0.626,0.062c0.864,0,1.517-0.23,1.961-0.688c0.445-0.461,0.668-1.084,0.668-1.879V23.311z"/>
<path fill="#231F20" d="M76.65,17.865h2.399v1.669h0.043c0.275-0.584,0.666-1.056,1.168-1.418c0.5-0.361,1.086-0.543,1.752-0.543
	c0.098,0,0.203,0.002,0.312,0.011c0.111,0.008,0.209,0.024,0.293,0.051v2.296c-0.166-0.042-0.309-0.069-0.428-0.083
	c-0.119-0.013-0.232-0.021-0.344-0.021c-0.57,0-1.027,0.104-1.377,0.313c-0.348,0.208-0.619,0.459-0.814,0.751
	s-0.328,0.593-0.396,0.897c-0.07,0.304-0.105,0.549-0.105,0.73v5.361H76.65V17.865z"/>
<path fill="#231F20" d="M83.664,19.868h-1.9v-2.003h1.9v-1.481c0-0.6,0.064-1.173,0.197-1.722c0.133-0.548,0.355-1.032,0.668-1.45
	c0.312-0.417,0.727-0.747,1.242-0.991c0.514-0.244,1.162-0.365,1.939-0.365c0.279,0,0.512,0.011,0.699,0.032
	c0.189,0.021,0.381,0.058,0.574,0.115l-0.166,2.128c-0.139-0.042-0.289-0.077-0.449-0.104c-0.16-0.028-0.332-0.042-0.512-0.042
	c-0.361,0-0.652,0.07-0.877,0.208c-0.223,0.14-0.393,0.32-0.51,0.542c-0.119,0.221-0.199,0.466-0.24,0.73
	c-0.043,0.265-0.062,0.522-0.062,0.772v1.627h2.316v2.003h-2.316v8.012h-2.504V19.868z"/>
<path fill="#231F20" d="M94.533,20.536c-0.223-0.292-0.527-0.547-0.918-0.762c-0.391-0.216-0.814-0.323-1.273-0.323
	c-0.402,0-0.771,0.083-1.105,0.25c-0.334,0.167-0.5,0.445-0.5,0.835c0,0.389,0.184,0.664,0.551,0.824
	c0.371,0.161,0.91,0.324,1.619,0.491c0.375,0.083,0.756,0.195,1.137,0.334c0.383,0.14,0.73,0.322,1.045,0.551
	c0.311,0.232,0.564,0.518,0.76,0.855c0.195,0.343,0.293,0.757,0.293,1.244c0,0.61-0.115,1.129-0.344,1.552
	c-0.23,0.424-0.537,0.771-0.92,1.036c-0.383,0.265-0.828,0.456-1.334,0.572c-0.51,0.116-1.033,0.178-1.576,0.178
	c-0.781,0-1.537-0.143-2.275-0.428c-0.736-0.286-1.348-0.693-1.836-1.221l1.648-1.544c0.277,0.359,0.641,0.661,1.086,0.897
	s0.939,0.354,1.48,0.354c0.182,0,0.367-0.021,0.553-0.062c0.189-0.044,0.361-0.109,0.523-0.198c0.16-0.09,0.287-0.212,0.385-0.366
	c0.096-0.151,0.146-0.343,0.146-0.563c0-0.416-0.191-0.715-0.574-0.896c-0.385-0.18-0.955-0.362-1.721-0.542
	c-0.377-0.086-0.74-0.191-1.096-0.324s-0.672-0.304-0.949-0.521c-0.277-0.214-0.502-0.482-0.668-0.804
	c-0.168-0.321-0.252-0.715-0.252-1.189c0-0.558,0.115-1.037,0.346-1.44c0.23-0.402,0.533-0.734,0.908-0.991s0.799-0.449,1.271-0.574
	c0.475-0.126,0.961-0.188,1.461-0.188c0.725,0,1.43,0.125,2.119,0.375c0.689,0.251,1.232,0.633,1.637,1.148L94.533,20.536z"/>
<path fill="#231F20" d="M109.287,17.572c0.654,0,1.215,0.115,1.682,0.345c0.467,0.23,0.848,0.533,1.145,0.908
	c0.299,0.375,0.518,0.808,0.66,1.294c0.137,0.488,0.209,0.99,0.209,1.502v6.259h-2.506v-5.55c0-0.292-0.021-0.599-0.062-0.917
	c-0.041-0.32-0.131-0.609-0.271-0.867c-0.137-0.256-0.328-0.469-0.572-0.636s-0.566-0.251-0.971-0.251
	c-0.391,0-0.725,0.083-1.002,0.251c-0.281,0.167-0.51,0.382-0.689,0.647c-0.182,0.263-0.312,0.56-0.396,0.887
	c-0.082,0.328-0.125,0.651-0.125,0.972v5.465h-2.504v-6.05c0-0.626-0.15-1.144-0.449-1.554c-0.301-0.412-0.77-0.617-1.408-0.617
	c-0.375,0-0.703,0.082-0.98,0.241c-0.279,0.161-0.506,0.364-0.68,0.615c-0.172,0.25-0.305,0.539-0.396,0.866
	c-0.09,0.327-0.135,0.657-0.135,0.991v5.508H97.33V17.865h2.379v1.607h0.041c0.111-0.251,0.262-0.486,0.449-0.709
	c0.188-0.222,0.41-0.424,0.668-0.605c0.258-0.18,0.553-0.324,0.887-0.428s0.703-0.157,1.105-0.157c0.779,0,1.426,0.173,1.941,0.522
	c0.516,0.348,0.912,0.808,1.189,1.377c0.334-0.612,0.777-1.083,1.336-1.409C107.881,17.737,108.537,17.572,109.287,17.572z"/>
<path fill="#231F20" d="M121.141,26.608h-0.062c-0.25,0.444-0.654,0.812-1.211,1.097c-0.555,0.285-1.189,0.428-1.898,0.428
	c-0.406,0-0.824-0.053-1.262-0.156c-0.439-0.104-0.844-0.279-1.211-0.522c-0.371-0.244-0.676-0.564-0.918-0.96
	c-0.244-0.396-0.365-0.888-0.365-1.472c0-0.75,0.211-1.349,0.635-1.793c0.426-0.446,0.971-0.786,1.639-1.024
	c0.668-0.236,1.408-0.392,2.223-0.469s1.609-0.115,2.391-0.115v-0.25c0-0.627-0.227-1.087-0.68-1.388
	c-0.451-0.299-0.99-0.45-1.617-0.45c-0.527,0-1.035,0.111-1.523,0.334c-0.486,0.221-0.891,0.493-1.211,0.813l-1.293-1.523
	c0.57-0.528,1.227-0.924,1.973-1.19c0.742-0.263,1.498-0.396,2.264-0.396c0.891,0,1.625,0.125,2.203,0.375
	c0.576,0.251,1.031,0.576,1.365,0.981c0.334,0.403,0.566,0.855,0.699,1.356c0.133,0.5,0.197,1.001,0.197,1.502v6.092h-2.336V26.608z
	 M121.1,23.311h-0.564c-0.402,0-0.828,0.017-1.271,0.054c-0.445,0.034-0.857,0.111-1.232,0.228c-0.375,0.12-0.688,0.286-0.939,0.502
	c-0.25,0.216-0.377,0.512-0.377,0.888c0,0.237,0.055,0.433,0.158,0.596c0.104,0.159,0.24,0.285,0.406,0.384
	c0.168,0.1,0.355,0.166,0.564,0.21c0.209,0.042,0.416,0.062,0.625,0.062c0.863,0,1.52-0.23,1.963-0.688
	c0.445-0.461,0.668-1.084,0.668-1.879V23.311z"/>
<path fill="#231F20" d="M125.416,17.865h2.381v1.607h0.041c0.223-0.501,0.611-0.944,1.16-1.324c0.549-0.382,1.199-0.575,1.949-0.575
	c0.654,0,1.215,0.115,1.682,0.345c0.469,0.23,0.85,0.533,1.148,0.908c0.297,0.375,0.518,0.808,0.656,1.294
	c0.137,0.488,0.209,0.99,0.209,1.502v6.259h-2.504v-5.55c0-0.292-0.02-0.599-0.061-0.917c-0.043-0.32-0.133-0.609-0.273-0.867
	c-0.139-0.256-0.33-0.469-0.576-0.636c-0.24-0.167-0.562-0.251-0.969-0.251c-0.404,0-0.752,0.082-1.043,0.241
	c-0.293,0.161-0.531,0.364-0.721,0.615c-0.188,0.25-0.328,0.539-0.428,0.866c-0.098,0.327-0.145,0.657-0.145,0.991v5.508h-2.508
	V17.865z"/>
<path fill="#231F20" d="M136.582,17.865h2.379v1.607h0.043c0.223-0.501,0.609-0.944,1.16-1.324c0.547-0.382,1.197-0.575,1.947-0.575
	c0.654,0,1.215,0.115,1.682,0.345c0.467,0.23,0.85,0.533,1.148,0.908c0.297,0.375,0.518,0.808,0.658,1.294
	c0.135,0.488,0.207,0.99,0.207,1.502v6.259h-2.506v-5.55c0-0.292-0.02-0.599-0.059-0.917c-0.043-0.32-0.133-0.609-0.273-0.867
	c-0.137-0.256-0.328-0.469-0.574-0.636c-0.244-0.167-0.564-0.251-0.969-0.251c-0.406,0-0.754,0.082-1.045,0.241
	c-0.291,0.161-0.531,0.364-0.719,0.615c-0.188,0.25-0.33,0.539-0.428,0.866c-0.098,0.327-0.146,0.657-0.146,0.991v5.508h-2.506
	V17.865z"/>
<path fill="#231F20" d="M153.965,26.608h-0.061c-0.254,0.444-0.654,0.812-1.211,1.097c-0.559,0.285-1.189,0.428-1.9,0.428
	c-0.404,0-0.824-0.053-1.262-0.156c-0.439-0.104-0.846-0.279-1.211-0.522c-0.369-0.244-0.678-0.564-0.918-0.96
	c-0.244-0.396-0.367-0.888-0.367-1.472c0-0.75,0.215-1.349,0.637-1.793c0.424-0.446,0.971-0.786,1.639-1.024
	c0.668-0.236,1.41-0.392,2.223-0.469s1.607-0.115,2.391-0.115v-0.25c0-0.627-0.227-1.087-0.68-1.388
	c-0.453-0.299-0.99-0.45-1.617-0.45c-0.527,0-1.037,0.111-1.523,0.334c-0.486,0.221-0.891,0.493-1.211,0.813l-1.291-1.523
	c0.572-0.528,1.229-0.924,1.971-1.19c0.742-0.263,1.498-0.396,2.264-0.396c0.889,0,1.623,0.125,2.201,0.375
	c0.578,0.251,1.031,0.576,1.367,0.981c0.332,0.403,0.566,0.855,0.701,1.356c0.129,0.5,0.197,1.001,0.197,1.502v6.092h-2.338V26.608z
	 M153.924,23.311h-0.564c-0.402,0-0.83,0.017-1.275,0.054c-0.441,0.034-0.854,0.111-1.23,0.228c-0.373,0.12-0.688,0.286-0.936,0.502
	c-0.254,0.216-0.377,0.512-0.377,0.888c0,0.237,0.053,0.433,0.156,0.596c0.104,0.159,0.24,0.285,0.406,0.384
	c0.168,0.1,0.355,0.166,0.562,0.21c0.209,0.042,0.418,0.062,0.629,0.062c0.863,0,1.516-0.23,1.959-0.688
	c0.445-0.461,0.67-1.084,0.67-1.879V23.311z"/>
<g>
	<g>
		<path fill="#231F20" d="M160.645,17.865v1.398h0.062c0.125-0.194,0.289-0.393,0.49-0.594c0.201-0.203,0.449-0.382,0.74-0.543
			c0.293-0.161,0.623-0.292,0.992-0.396c0.367-0.104,0.783-0.157,1.24-0.157c0.709,0,1.363,0.136,1.963,0.408
			c0.6,0.271,1.113,0.645,1.543,1.116c0.434,0.473,0.766,1.029,1.004,1.67c0.234,0.641,0.354,1.329,0.354,2.064
			c0,0.737-0.115,1.431-0.344,2.079c-0.23,0.646-0.557,1.21-0.98,1.688c-0.424,0.479-0.939,0.864-1.545,1.148
			c-0.604,0.285-1.293,0.428-2.055,0.428c-0.709,0-1.359-0.146-1.953-0.438c-0.59-0.292-1.047-0.688-1.365-1.188h-0.043v6.343
			h-2.504V17.865H160.645z M166.486,22.83c0-0.39-0.059-0.775-0.178-1.156c-0.117-0.383-0.295-0.727-0.531-1.034
			c-0.236-0.305-0.535-0.553-0.898-0.74c-0.357-0.188-0.781-0.283-1.271-0.283c-0.461,0-0.871,0.099-1.23,0.292
			c-0.361,0.194-0.672,0.444-0.93,0.751c-0.256,0.308-0.451,0.654-0.582,1.043c-0.133,0.391-0.199,0.779-0.199,1.169
			c0,0.389,0.066,0.776,0.199,1.159c0.131,0.384,0.324,0.729,0.582,1.031c0.26,0.308,0.568,0.555,0.93,0.742
			c0.359,0.188,0.77,0.28,1.23,0.28c0.486,0,0.914-0.097,1.271-0.293c0.363-0.191,0.662-0.444,0.898-0.75s0.414-0.652,0.533-1.043
			C166.428,23.608,166.486,23.221,166.486,22.83z"/>
		<path fill="#231F20" d="M179.613,27.88h-2.381v-1.605h-0.041c-0.219,0.501-0.609,0.943-1.156,1.324
			c-0.551,0.383-1.201,0.575-1.953,0.575c-0.652,0-1.213-0.114-1.678-0.345c-0.469-0.23-0.848-0.532-1.148-0.907
			c-0.299-0.375-0.52-0.807-0.656-1.294c-0.141-0.487-0.211-0.988-0.211-1.502v-6.261h2.504v5.552c0,0.289,0.023,0.599,0.066,0.917
			c0.041,0.322,0.131,0.609,0.268,0.866c0.139,0.259,0.33,0.471,0.574,0.638c0.246,0.165,0.568,0.248,0.971,0.248
			c0.391,0,0.736-0.08,1.033-0.24c0.299-0.159,0.545-0.364,0.732-0.615c0.188-0.249,0.33-0.538,0.428-0.864
			c0.094-0.33,0.145-0.66,0.145-0.992v-5.509h2.504V27.88z M175.732,13.107h2.838l-2.941,3.005h-1.961L175.732,13.107z"/>
		<path fill="#231F20" d="M181.682,12.105h2.502V27.88h-2.502V12.105z"/>
		<path fill="#231F20" d="M191.736,20.536c-0.223-0.292-0.527-0.547-0.918-0.762c-0.393-0.216-0.814-0.323-1.273-0.323
			c-0.4,0-0.771,0.083-1.107,0.25c-0.334,0.167-0.502,0.445-0.502,0.835c0,0.389,0.188,0.664,0.557,0.824
			c0.371,0.161,0.908,0.324,1.617,0.491c0.375,0.083,0.754,0.195,1.137,0.334c0.381,0.14,0.729,0.322,1.043,0.551
			c0.314,0.232,0.566,0.518,0.764,0.855c0.193,0.343,0.291,0.757,0.291,1.244c0,0.61-0.117,1.129-0.346,1.552
			c-0.227,0.424-0.535,0.771-0.916,1.036c-0.387,0.265-0.828,0.456-1.336,0.572c-0.512,0.116-1.033,0.178-1.576,0.178
			c-0.781,0-1.539-0.143-2.275-0.428c-0.734-0.286-1.348-0.693-1.836-1.221l1.646-1.544c0.279,0.359,0.643,0.661,1.088,0.897
			c0.443,0.236,0.939,0.354,1.482,0.354c0.178,0,0.365-0.021,0.553-0.062c0.188-0.044,0.357-0.109,0.521-0.198
			c0.158-0.09,0.287-0.212,0.385-0.366c0.096-0.151,0.145-0.343,0.145-0.563c0-0.416-0.191-0.715-0.572-0.896
			c-0.385-0.18-0.955-0.362-1.723-0.542c-0.373-0.086-0.74-0.191-1.096-0.324c-0.354-0.133-0.67-0.304-0.949-0.521
			c-0.277-0.214-0.5-0.482-0.666-0.804c-0.168-0.321-0.25-0.715-0.25-1.189c0-0.558,0.113-1.037,0.342-1.44
			c0.23-0.402,0.533-0.734,0.908-0.991c0.377-0.256,0.799-0.449,1.273-0.574c0.475-0.126,0.959-0.188,1.461-0.188
			c0.727,0,1.432,0.125,2.119,0.375c0.688,0.251,1.23,0.633,1.639,1.148L191.736,20.536z"/>
		<path fill="#231F20" d="M194.219,14.463c0-0.403,0.148-0.754,0.449-1.054c0.299-0.298,0.678-0.449,1.139-0.449
			c0.457,0,0.844,0.143,1.158,0.428c0.312,0.287,0.469,0.643,0.469,1.075s-0.156,0.789-0.469,1.075
			c-0.314,0.285-0.701,0.426-1.158,0.426c-0.461,0-0.84-0.149-1.139-0.448C194.367,15.218,194.219,14.868,194.219,14.463z
			 M194.574,17.865h2.504V27.88h-2.504V17.865z"/>
		<path fill="#231F20" d="M199.146,17.865h2.377v1.607h0.043c0.221-0.501,0.607-0.944,1.158-1.324
			c0.547-0.382,1.197-0.575,1.949-0.575c0.656,0,1.215,0.115,1.682,0.345c0.467,0.23,0.848,0.533,1.145,0.908
			c0.301,0.375,0.52,0.808,0.66,1.294c0.139,0.488,0.209,0.99,0.209,1.502v6.259h-2.504v-5.55c0-0.292-0.023-0.599-0.064-0.917
			c-0.041-0.32-0.131-0.609-0.271-0.867c-0.135-0.256-0.328-0.469-0.57-0.636c-0.246-0.167-0.568-0.251-0.971-0.251
			c-0.408,0-0.754,0.082-1.045,0.241c-0.293,0.161-0.533,0.364-0.723,0.615c-0.188,0.25-0.33,0.539-0.428,0.866
			c-0.098,0.327-0.145,0.657-0.145,0.991v5.508h-2.508V17.865H199.146z"/>
		<path fill="#231F20" d="M210.307,17.865h2.379v1.607h0.043c0.223-0.501,0.609-0.944,1.156-1.324
			c0.549-0.382,1.201-0.575,1.951-0.575c0.654,0,1.215,0.115,1.682,0.345c0.465,0.23,0.85,0.533,1.146,0.908
			c0.299,0.375,0.52,0.808,0.658,1.294c0.137,0.488,0.209,0.99,0.209,1.502v6.259h-2.506v-5.55c0-0.292-0.02-0.599-0.061-0.917
			c-0.043-0.32-0.133-0.609-0.271-0.867c-0.139-0.256-0.33-0.469-0.574-0.636s-0.564-0.251-0.973-0.251
			c-0.404,0-0.75,0.082-1.043,0.241c-0.289,0.161-0.529,0.364-0.717,0.615c-0.188,0.25-0.33,0.539-0.428,0.866
			c-0.098,0.327-0.148,0.657-0.148,0.991v5.508h-2.504V17.865z"/>
	</g>
</g>
</svg>
