<?xml version="1.0" encoding="utf-8"?>
<!DOCTYPE svg PUBLIC "-//W3C//DTD SVG 1.1//EN" "http://www.w3.org/Graphics/SVG/1.1/DTD/svg11.dtd">
<svg version="1.1" id="Layer_1" xmlns="http://www.w3.org/2000/svg" xmlns:xlink="http://www.w3.org/1999/xlink" x="0px" y="0px" viewBox="0 0 155 75" enable-background="new 0 0 155 75" xml:space="preserve">
<g>
	<polygon fill="#92A3BF" points="52.394,0.589 64.64,2.395 76.504,16.828 85.306,37.035 99.464,59.048 102.527,72.038 
		69.232,69.512 21.779,73.481 1.878,71.315 9.149,55.801 22.544,39.922 39.765,13.219 	"/>
	<polygon fill="#FFFFFF" points="75.355,32.344 61.195,25.85 56.604,30.18 51.246,24.045 37.469,32.344 46.27,18.992 54.69,10.693 
		61.96,12.137 68.468,20.436 	"/>
	<polygon fill="#D2D4D5" points="117.223,19.726 128.109,24.819 138.265,39.027 153.924,72 67.973,72 88.129,54.904 102.408,28.134 
			"/>
	<polygon fill="#FFFFFF" points="133.187,42.862 122.717,37.449 118.274,45.389 111.293,38.533 97.012,48.275 106.849,33.119 
		117.322,26.624 125.254,30.594 	"/>
</g>
</svg>
