<?xml version="1.0" encoding="utf-8"?>
<!DOCTYPE svg PUBLIC "-//W3C//DTD SVG 1.1//EN" "http://www.w3.org/Graphics/SVG/1.1/DTD/svg11.dtd">
<svg version="1.1" id="Layer_1" xmlns="http://www.w3.org/2000/svg" xmlns:xlink="http://www.w3.org/1999/xlink" x="0px" y="0px" viewBox="0 0 955 125" enable-background="new 0 0 955 125" xml:space="preserve">
<g>
	<polygon fill="#3E6087" points="105.27,58.734 81.997,59.579 70.424,68.027 55.476,76.476 50.242,97.859 46.257,114.142 
		78.303,117.529 117.381,115.071 149.192,114.924 143.763,99.568 130.231,86.334 122.59,67.746 	"/>
	<polygon fill="#FFFFFF" points="116.293,79.221 109.799,76.475 102.086,74.574 92.073,81.264 86.458,76.053 69.206,84.08 
		58.245,90.627 60.275,81.967 75.294,73.379 84.496,67.746 103.98,65.775 117.241,72.533 121.3,80.7 	"/>
	<polygon fill="#92A2BE" points="30.797,79.731 22.109,83.732 14.008,94.498 1.516,120 22.5,122 70.084,120 54.006,106.967 
		42.614,86.139 	"/>
	<polygon fill="#FFFFFF" points="18.059,97.902 26.413,93.651 29.957,99.887 35.526,94.502 46.918,102.154 39.07,90.251 
		30.716,85.149 24.388,88.268 	"/>
</g>
<polygon fill="#7CA2A7" points="232.234,35.326 243.155,57.11 257.545,84.957 267.241,96.662 268.501,106.334 184.638,108.428 
	156.11,105.494 173.731,78.082 190.772,44.893 220.202,36.186 "/>
<polygon fill="#92A2BE" points="193.751,81.197 197.693,94.518 202.361,102.252 223.21,115.68 180.993,114.715 156.615,116.971 
	138.501,115 139.573,111.441 146.243,107.408 156.11,98.58 161.985,81.092 170.204,79.693 "/>
<polygon fill="#AAC689" points="234.62,86.783 242.815,92.691 250.232,95.322 262.861,117.275 246.965,116.971 217.026,118.691 
	202.485,117.275 209.207,104.938 215.334,87.504 "/>
<polygon fill="#FFFFFF" points="194.892,51.01 187.294,65.078 195.532,57.927 206.162,59.007 211.065,55.254 224.709,58.455 
	227.481,50.396 236.862,56.909 229.746,43.275 221.446,43.061 "/>
<polygon fill="#FFFFFF" points="164.5,85.064 160.751,95.106 163.551,92.48 165.977,90.568 170.525,91.746 174.505,93.955 
	178.911,92.482 184.17,91.158 188.576,92.777 195.396,97.314 192.906,92.265 191.56,85.549 170.515,83.774 "/>
<polygon fill="#FFFFFF" points="219.165,92.478 216.334,99.973 221.762,96.612 228.997,102.477 233.894,98.277 242.608,103.436 
	247.794,98.922 240.118,97.204 233.791,92.047 "/>
<polygon fill="#81706A" points="265.167,106 268.006,94.595 273.737,62.523 279.703,52.546 305.156,47.277 327.503,45.418 
	358.803,52.683 365.903,56.109 367.495,75.945 371.048,93.17 380.521,103.148 319.534,114.55 "/>
<polygon fill="#FFFFFF" points="278.632,65.355 277.395,74.084 287.737,62.834 296.303,65.167 300.343,58.667 308.908,58.167 
	315.049,53.334 305.515,52.667 283.213,57.667 "/>
<polygon fill="#FFFFFF" points="329.432,59 331.537,63.785 332.021,69.785 341.719,64.535 346.324,70.285 353.111,67.285 
	354.481,72.834 363.692,85.167 361.269,74.667 360.137,60.834 354.046,58.367 331.371,54.167 "/>
<polygon fill="#D2D3D4" points="681.723,48.726 692.609,53.819 702.765,68.027 718.424,101 632.473,101 652.629,83.904 
	666.908,57.134 "/>
<polygon fill="#FFFFFF" points="697.687,71.862 687.217,66.449 682.774,74.389 675.793,67.533 661.512,77.275 671.349,62.119 
	681.822,55.624 689.754,59.594 "/>
<polygon fill="#92A2BE" points="616.894,32.589 629.14,34.395 641.004,48.828 649.806,69.035 663.964,91.048 667.027,104.038 
	633.732,101.512 586.279,105.481 566.378,103.315 573.649,87.801 587.044,71.922 604.265,45.219 "/>
<polygon fill="#FFFFFF" points="639.855,64.344 625.695,57.85 621.104,62.18 615.746,56.045 601.969,64.344 610.77,50.992 
	619.19,42.693 626.46,44.137 632.968,52.436 "/>
<polygon fill="#58BDEB" points="440.305,-0.807 468.675,52.129 504.135,104.884 402.6,108.083 370.388,104.884 409.527,38.809 "/>
<polygon fill="#FFFFFF" points="458.535,44.209 436.704,26.9 416.811,42.176 426.756,24.769 440.035,12.237 448.071,27.256 "/>
<polygon fill="#9ED7F5" points="503.643,29.154 532.657,56.898 572.738,105.95 527.292,110.567 471.871,107.217 426.756,107.016 
	463.348,74.688 "/>
<polygon fill="#FFFFFF" points="527.707,66.819 507.548,54.91 478.979,66.004 495.074,52.217 505.395,40.951 518.056,52.148 "/>
<polygon fill="#3E6087" points="710.09,90.671 716.849,71.46 723.1,61.785 732.114,55.504 756.698,48.674 814.043,36.228 
	822.638,29.803 834.956,36.178 870.628,48.33 878.541,53.385 890.714,74.691 924.733,86.666 932.612,91.897 935.478,107.809 
	848.807,106.688 773.598,104.446 704.594,104.603 "/>
<polygon fill="#FFFFFF" points="728.018,66.156 722.28,74.624 736.484,65.61 744.405,67.795 750.21,61.034 756.971,64.518 
	759.702,59.328 771.447,59.328 759.976,53.865 736.758,59.874 "/>
<polygon fill="#FFFFFF" points="873.825,57.447 866.505,53.318 849.501,48 836.117,45.191 822.801,38.842 816.511,42.359 
	797.603,45.807 787.769,54.001 804.772,48.879 808.87,52.771 816.52,48.937 820.957,53.182 824.578,50.439 831.816,53.592 
	837.142,51.953 844.381,53.318 847.501,56.168 851.834,55.5 860.784,58.965 864.206,64.75 870.403,61.393 881.404,68.492 "/>
<polygon fill="#92A2BE" points="919.91,81.008 933.905,84.077 946.954,92.543 954.125,111.495 878.733,112.315 882.521,102.108 
	900.875,86.026 "/>
<polygon fill="#FFFFFF" points="940.43,95.768 926.973,92.507 921.265,97.291 912.292,93.159 893.939,99.03 906.583,89.897 
	920.041,85.982 930.237,88.375 "/>
</svg>
