<?xml version="1.0" encoding="utf-8"?>
<!DOCTYPE svg PUBLIC "-//W3C//DTD SVG 1.1//EN" "http://www.w3.org/Graphics/SVG/1.1/DTD/svg11.dtd">
<svg version="1.1" id="Layer_1" xmlns="http://www.w3.org/2000/svg" xmlns:xlink="http://www.w3.org/1999/xlink" x="0px" y="0px" viewBox="0 0 154 72" enable-background="new 0 0 154 72" xml:space="preserve">
<g id="Mountains">
	<polygon fill="#826F69" points="37.604,61.897 40.441,50.491 46.174,18.42 52.139,8.443 77.592,3.174 99.939,1.315 131.238,8.58 
		138.34,12.006 139.932,31.842 143.484,49.067 152.957,59.046 91.971,70.446 	"/>
	<polygon fill="#FFFFFF" points="51.068,21.252 49.83,29.981 60.174,18.731 68.738,21.064 72.779,14.564 81.344,14.064 
		87.484,9.231 77.951,8.564 55.648,13.564 	"/>
	<polygon fill="#FFFFFF" points="101.867,14.897 103.973,19.682 104.457,25.682 114.154,20.432 118.76,26.182 125.547,23.182 
		126.918,28.731 136.129,41.063 133.705,30.564 132.572,16.731 126.482,14.264 103.807,10.064 	"/>
	<polygon fill="#92A3BF" points="32.136,36.711 40.33,42.618 47.748,45.249 60.377,67.202 44.48,66.897 14.541,68.618 0,67.202 
		6.723,54.864 12.85,37.431 	"/>
	<polygon fill="#FFFFFF" points="16.681,42.405 13.85,49.899 19.277,46.54 26.513,52.403 31.41,48.204 40.124,53.362 45.311,48.849 
		37.634,47.132 31.307,41.974 	"/>
</g>
</svg>
