<?xml version="1.0" encoding="utf-8"?>
<!DOCTYPE svg PUBLIC "-//W3C//DTD SVG 1.1//EN" "http://www.w3.org/Graphics/SVG/1.1/DTD/svg11.dtd">
<svg version="1.1" id="Layer_1" xmlns="http://www.w3.org/2000/svg" xmlns:xlink="http://www.w3.org/1999/xlink" x="0px" y="0px" viewBox="0 0 275 90" enable-background="new 0 0 275 90" xml:space="preserve">
<g>
	<polygon fill="#3D6088" points="107.77,25.734 84.496,26.579 72.924,35.027 57.977,43.476 52.742,64.859 48.758,81.142 
		80.803,84.529 119.881,82.071 151.691,81.924 146.263,66.568 132.73,53.334 125.09,34.746 	"/>
	<polygon fill="#FFFFFF" points="118.793,46.221 112.299,43.475 104.586,41.574 94.573,48.264 88.957,43.053 71.705,51.08 
		60.745,57.627 62.775,48.967 77.795,40.379 86.996,34.746 106.48,32.775 119.741,39.533 123.801,47.7 	"/>
	<polygon fill="#92A3BF" points="33.297,46.731 24.609,50.732 16.508,61.498 4.016,87 25,89 72.584,87 56.506,73.967 45.114,53.139 
			"/>
	<polygon fill="#FFFFFF" points="20.559,64.902 28.912,60.651 32.457,66.887 38.025,61.502 49.418,69.154 41.57,57.251 
		33.216,52.149 26.888,55.268 	"/>
	<polygon fill="#7BA2A7" points="234.734,2.326 245.655,24.11 260.045,51.957 269.74,63.662 271.001,73.334 187.139,75.428 
		158.609,72.494 176.231,45.082 193.272,11.893 222.702,3.186 	"/>
	<polygon fill="#92A3BF" points="196.252,48.197 200.193,61.518 204.861,69.252 225.711,82.68 183.492,81.715 159.115,83.971 
		141.001,82 142.073,78.441 148.743,74.408 158.609,65.58 164.484,48.092 172.704,46.693 	"/>
	<polygon fill="#ABC78A" points="237.12,53.783 245.314,59.691 252.732,62.322 265.361,84.275 249.465,83.971 219.525,85.691 
		204.984,84.275 211.707,71.938 217.834,54.504 	"/>
	<polygon fill="#FFFFFF" points="197.393,18.01 189.795,32.078 198.032,24.927 208.662,26.007 213.565,22.254 227.209,25.455 
		229.981,17.396 239.361,23.909 232.246,10.275 223.945,10.061 	"/>
	<polygon fill="#FFFFFF" points="167,52.064 163.252,62.106 166.051,59.48 168.477,57.568 173.025,58.746 177.005,60.955 
		181.41,59.482 186.67,58.158 191.076,59.777 197.896,64.314 195.406,59.265 194.06,52.549 173.016,50.774 	"/>
	<polygon fill="#FFFFFF" points="221.665,59.478 218.834,66.973 224.262,63.612 231.497,69.477 236.395,65.277 245.108,70.436 
		250.295,65.922 242.618,64.204 236.291,59.047 	"/>
</g>
</svg>
