<?xml version="1.0" encoding="utf-8"?>
<!DOCTYPE svg PUBLIC "-//W3C//DTD SVG 1.1//EN" "http://www.w3.org/Graphics/SVG/1.1/DTD/svg11.dtd">
<svg version="1.1" id="Layer_1" xmlns="http://www.w3.org/2000/svg" xmlns:xlink="http://www.w3.org/1999/xlink" x="0px" y="0px" viewBox="0 0 255 85" enable-background="new 0 0 255 85" xml:space="preserve">
<g>
	<polygon fill="#3D6088" points="5.59,63.671 12.349,44.46 18.6,34.785 27.614,28.504 52.198,21.674 109.543,9.228 118.138,2.803 
		130.456,9.178 166.128,21.33 174.041,26.385 186.214,47.691 220.233,59.666 228.112,64.897 230.978,80.809 144.307,79.688 
		69.098,77.446 0.094,77.603 	"/>
	<polygon fill="#FFFFFF" points="23.518,39.156 17.78,47.624 31.984,38.61 39.905,40.795 45.71,34.034 52.471,37.518 55.202,32.328 
		66.947,32.328 55.476,26.865 32.258,32.874 	"/>
	<polygon fill="#FFFFFF" points="169.325,30.447 162.005,26.318 145.001,21 131.617,18.191 118.301,11.842 112.011,15.359 
		93.103,18.807 83.269,27.001 100.272,21.879 104.37,25.771 112.02,21.937 116.457,26.182 120.078,23.439 127.316,26.592 
		132.642,24.953 139.881,26.318 143.001,29.168 147.334,28.5 156.284,31.965 159.706,37.75 165.903,34.393 176.904,41.492 	"/>
	<polygon fill="#92A3BF" points="221.079,50.172 234.93,53.84 247.603,62.858 253.953,82.101 178.596,79.682 182.818,69.646 
		201.847,54.368 	"/>
	<polygon fill="#FFFFFF" points="240.946,65.8 227.642,61.964 221.733,66.498 212.946,61.984 194.358,67.062 207.383,58.48 
		220.996,55.147 231.08,57.976 	"/>
</g>
</svg>
