<svg width="577" height="162" viewBox="0 0 577 162" fill="none" xmlns="http://www.w3.org/2000/svg">
<g clip-path="url(#clip0_96_0)">
<path fill-rule="evenodd" clip-rule="evenodd" d="M84.8747 65.6556V75.1526L94.2368 68.8212L103.462 75.0838V65.6556L94.2368 59.5307L84.8747 65.6556Z" fill="#0367E1"/>
<path fill-rule="evenodd" clip-rule="evenodd" d="M51.6631 45.9692L44.556 40.8078L35.1939 47.1391V56.705L44.556 50.3048L51.5948 55.6039L58.9068 50.3048L68.269 56.705V47.1391L58.9068 40.8078L51.6631 45.9692Z" fill="#0367E1"/>
<path fill-rule="evenodd" clip-rule="evenodd" d="M94.2368 40.6734L84.8747 46.7983V56.2953L94.2368 49.964L103.462 56.2953V46.7983L94.2368 40.6734Z" fill="#0367E1"/>
<path fill-rule="evenodd" clip-rule="evenodd" d="M9.15716 31.175L18.5193 37.4376V23.6737H35.1935V37.5752L44.5557 31.175L51.5944 36.4741L58.9065 31.175L68.2686 37.5752V23.6737H84.8745V37.4376L94.2367 31.175L103.462 37.4376V0H84.9429V15.3466H68.337V0H51.9361H35.0569V15.3466H18.5193V0H0V37.4376L9.15716 31.175Z" fill="#0367E1"/>
<path fill-rule="evenodd" clip-rule="evenodd" d="M9.15715 68.8175L18.5193 75.08V65.583L9.15715 59.4581L0 65.6518V75.08L9.15715 68.8175Z" fill="#0367E1"/>
<path fill-rule="evenodd" clip-rule="evenodd" d="M18.5193 56.2953V46.7983L9.15715 40.6734L0 46.7983V56.2265L9.15715 49.964L18.5193 56.2953Z" fill="#0367E1"/>
<path fill-rule="evenodd" clip-rule="evenodd" d="M94.2368 78.3148L84.8747 84.4397V136.949C94.8519 125.662 102.096 112.105 103.394 97.653V84.3709L94.2368 78.3148Z" fill="#0367E1"/>
<path fill-rule="evenodd" clip-rule="evenodd" d="M18.5193 84.4397L9.15715 78.3148L0 84.4397V97.7218C1.2984 112.174 8.54212 125.8 18.5193 137.155V84.4397Z" fill="#0367E1"/>
<path fill-rule="evenodd" clip-rule="evenodd" d="M68.2685 85.4036L58.9063 79.1411L51.7309 84.3025L44.5555 79.1411L35.125 85.4036L35.0567 152.227C40.387 156.081 45.9906 159.453 51.5259 161.999C57.1979 159.384 62.8699 156.012 68.2685 152.02" fill="#0367E1"/>
<path fill-rule="evenodd" clip-rule="evenodd" d="M68.2687 66.2719L58.9065 60.0094L51.6628 65.1708L44.5557 60.0094L35.1252 66.2719V75.9066L44.5557 69.4376L51.5945 74.7366L58.9065 69.4376L68.2687 75.9066" fill="#0367E1"/>
</g>
<path d="M172.429 74.9884H166.691V101.191H153.151V31.9768H175.696C192.803 31.9768 199.916 42.7458 199.916 53.4289C199.916 61.7259 195.661 70.0445 185.775 73.3977L201.507 101.191H186.291L172.429 74.9884ZM166.691 62.9297H174.492C182.401 62.9297 186.248 59.2755 186.248 53.4289C186.248 47.5822 182.401 44.0355 174.492 44.0355H166.691V62.9297Z" fill="#3D3F3E"/>
<path d="M255.063 80.9207H220.462C220.956 86.2515 224.61 91.9047 232.734 91.9047C238.472 91.9047 241.631 89.2393 242.62 85.7786H254.375C252.398 96.0532 244.683 102.588 232.519 102.588C216.787 102.588 207.503 91.3243 207.503 76.3852C207.503 61.6611 217.281 50.1828 231.831 50.1828C244.489 50.1828 255.063 58.5873 255.063 74.6011V80.9207ZM242.899 71.9143C242.706 65.6807 238.45 60.8443 231.638 60.8443C224.524 60.8443 220.956 65.9816 220.462 71.9143H242.899Z" fill="#3D3F3E"/>
<path d="M311.499 51.5601L282.636 123.16H270.085L278.596 100.913L257.728 51.5601H271.675L284.914 84.383L297.465 51.5601H311.499Z" fill="#3D3F3E"/>
<path d="M349.324 101.191L331.83 78.8363V101.191H318.871V27.2267H331.83V68.4542L347.347 51.4516H363.552L342.984 73.3121L365.335 101.191H349.324Z" fill="#3D3F3E"/>
<path d="M364.755 111.959H366.345C370.192 111.959 373.072 110.089 373.072 104.436V51.5584H386.031V103.877C386.031 117.613 378.23 123.158 369.526 123.158H364.776V111.959H364.755ZM371.782 35.5231C371.782 31.3745 375.242 27.8063 379.584 27.8063C383.839 27.8063 387.299 31.3745 387.299 35.5231C387.299 39.8651 383.839 43.3258 379.584 43.3258C375.242 43.3473 371.782 39.8866 371.782 35.5231Z" fill="#3D3F3E"/>
<path d="M396.046 89.5187C396.046 79.4375 403.847 74.5797 415.517 71.3339L426.005 68.3676C426.005 62.9293 422.351 60.6509 417.903 60.6509C413.261 60.6509 409.306 62.7359 409.306 68.3676H397.443C397.443 55.0192 407.823 50.1828 417.903 50.1828C427.595 50.1828 438.47 54.9332 438.47 68.6685V101.212H426.198V95.4728C422.631 100.03 416.42 102.588 410.381 102.588C403.353 102.566 396.046 99.1055 396.046 89.5187ZM425.511 82.2964V78.1478L417.494 80.4263C410.574 82.4038 408.704 85.2627 408.704 87.9496C408.704 90.529 410.682 92.0121 413.54 92.0121C418.096 91.9906 425.511 88.0356 425.511 82.2964Z" fill="#3D3F3E"/>
<path d="M494.326 51.5601L475.349 101.192H462.089L443.112 51.5601H456.458L468.708 85.8662L480.872 51.5601H494.326Z" fill="#3D3F3E"/>
<path d="M511.282 44.9169H500.794L510.487 29.29H524.628L511.282 44.9169ZM501.59 51.4514H514.549V101.191H501.59V51.4514Z" fill="#3D3F3E"/>
<path d="M560.518 101.191L543.025 78.8363V101.191H530.065V27.2267H543.025V68.4542L558.541 51.4516H574.746L554.179 73.3121L576.53 101.191H560.518Z" fill="#3D3F3E"/>
<defs>
<clipPath id="clip0_96_0">
<rect width="103.423" height="161.939" fill="white" transform="scale(1.00038)"/>
</clipPath>
</defs>
</svg>
