<?xml version="1.0" encoding="utf-8"?>
<!DOCTYPE svg PUBLIC "-//W3C//DTD SVG 1.1//EN" "http://www.w3.org/Graphics/SVG/1.1/DTD/svg11.dtd">
<svg version="1.1" id="Layer_1" xmlns="http://www.w3.org/2000/svg" xmlns:xlink="http://www.w3.org/1999/xlink" x="0px" y="0px"
	 width="16px" height="16px" viewBox="154.99 1677.195 16 16" enable-background="new 154.99 1677.195 16 16" xml:space="preserve">
<path fill="#FFFFFF" d="M170.222,1686.586c0.297,0,0.573-0.24,0.613-0.534c0,0,0.057-0.414,0.057-0.905
	c0-0.492-0.057-0.905-0.057-0.905c-0.04-0.294-0.316-0.535-0.613-0.535h-1.535c-0.297,0-0.604-0.19-0.685-0.421
	c-0.08-0.23-0.189-0.974,0.021-1.184l1.084-1.084c0.21-0.21,0.228-0.568,0.037-0.797l-1.276-1.276
	c-0.228-0.19-0.587-0.174-0.797,0.036l-1.085,1.085c-0.21,0.209-0.561,0.294-0.777,0.188c-0.218-0.106-0.827-0.556-0.827-0.853
	v-1.534c0-0.298-0.24-0.573-0.534-0.614c0,0-0.414-0.057-0.906-0.057c-0.491,0-0.905,0.057-0.905,0.057
	c-0.294,0.041-0.536,0.316-0.536,0.614v1.534c0,0.296-0.188,0.605-0.42,0.686c-0.231,0.079-0.974,0.189-1.183-0.021l-1.085-1.085
	c-0.209-0.21-0.567-0.226-0.796-0.036l-1.276,1.276c-0.19,0.229-0.174,0.586,0.036,0.796l1.084,1.085
	c0.21,0.21,0.295,0.56,0.188,0.777c-0.106,0.217-0.556,0.828-0.853,0.828h-1.534c-0.297,0-0.574,0.241-0.614,0.535
	c0,0-0.057,0.413-0.057,0.905c0,0.492,0.057,0.906,0.057,0.906c0.04,0.294,0.317,0.534,0.614,0.534h1.534
	c0.297,0,0.605,0.189,0.686,0.421c0.08,0.231,0.189,0.974-0.021,1.184l-1.084,1.085c-0.21,0.209-0.226,0.567-0.036,0.797
	l1.276,1.276c0.229,0.188,0.586,0.173,0.796-0.037l1.085-1.084c0.209-0.21,0.56-0.295,0.777-0.188
	c0.217,0.106,0.826,0.557,0.826,0.854v1.534c0,0.297,0.242,0.573,0.536,0.614c0,0,0.414,0.056,0.905,0.056
	c0.492,0,0.906-0.056,0.906-0.056c0.294-0.041,0.534-0.317,0.534-0.614v-1.534c0-0.297,0.189-0.605,0.421-0.686
	c0.232-0.08,0.974-0.189,1.184,0.021l1.085,1.084c0.209,0.21,0.569,0.226,0.797,0.036l1.276-1.275
	c0.19-0.228,0.173-0.587-0.037-0.797l-1.084-1.084c-0.21-0.211-0.295-0.561-0.188-0.778s0.556-0.827,0.853-0.827H170.222z
	 M162.941,1688.056c-1.607,0-2.91-1.303-2.91-2.911c0-1.607,1.303-2.91,2.91-2.91c1.608,0,2.91,1.303,2.91,2.91
	C165.851,1686.754,164.549,1688.056,162.941,1688.056z"/>
</svg>
