<?xml version="1.0" encoding="UTF-8" standalone="no"?>
<svg width="41px" height="33px" viewBox="0 0 41 33" version="1.1" xmlns="http://www.w3.org/2000/svg" xmlns:xlink="http://www.w3.org/1999/xlink" xmlns:sketch="http://www.bohemiancoding.com/sketch/ns">
    <!-- Generator: Sketch 3.0.4 (8054) - http://www.bohemiancoding.com/sketch -->
    <title>speaker</title>
    <desc>Created with Sketch.</desc>
    <defs>
        <linearGradient x1="50%" y1="0%" x2="50%" y2="100%" id="linearGradient-1">
            <stop stop-color="#A5DD8C" offset="0%"></stop>
            <stop stop-color="#80C860" offset="100%"></stop>
        </linearGradient>
    </defs>
    <g id="Page-1" stroke="none" stroke-width="1" fill="none" fill-rule="evenodd" sketch:type="MSPage">
        <g id="Symbols" sketch:type="MSArtboardGroup" transform="translate(-178.000000, -88.000000)">
            <g id="Speaker" sketch:type="MSLayerGroup" transform="translate(178.000000, 88.000000)">
                <rect id="Rectangle-3" stroke="#439852" fill="url(#linearGradient-1)" sketch:type="MSShapeGroup" x="0" y="0" width="41" height="33" rx="6"></rect>
                <rect id="Rectangle-1" fill="#000000" sketch:type="MSShapeGroup" x="7" y="12" width="8.33333333" height="10"></rect>
                <path d="M20,6 L20,28 L8.24509804,17 L20,6 Z" id="Triangle-1" fill="#000000" sketch:type="MSShapeGroup"></path>
                <path d="M22.6960595,11.7567863 C22.6960595,11.7567863 27.6897296,11.7567863 27.6897296,16.7178273 C27.6897296,21.6788682 22.6960595,21.678868 22.6960595,21.678868" id="Path-2" stroke="#000000" stroke-width="2" sketch:type="MSShapeGroup"></path>
                <path d="M22.6786955,7.27196662 C22.6786955,7.27196662 32.4470246,7.34784894 32.4470246,16.8978817 C32.4470246,26.4479145 22.6786955,26.5246599 22.6786955,26.5246599" id="Path-3" stroke="#000000" stroke-width="2" sketch:type="MSShapeGroup"></path>
                <path d="M22.8625116,15.4908823 C22.8625116,15.4908823 23.7319618,15.4908823 23.7332043,16.6994112 C23.7344468,17.9079401 22.8685353,17.9079401 22.8685353,17.9079401" id="Path" stroke="#000000" stroke-width="1.5" sketch:type="MSShapeGroup"></path>
            </g>
        </g>
    </g>
</svg>