<?xml version="1.0" encoding="utf-8"?>
<!-- Generator: Adobe Illustrator 15.0.2, SVG Export Plug-In . SVG Version: 6.00 Build 0)  -->
<!DOCTYPE svg PUBLIC "-//W3C//DTD SVG 1.1//EN" "http://www.w3.org/Graphics/SVG/1.1/DTD/svg11.dtd">
<svg version="1.1" id="Layer_1" xmlns="http://www.w3.org/2000/svg" xmlns:xlink="http://www.w3.org/1999/xlink" x="0px" y="0px"
	 width="248px" height="99.5px" viewBox="0 0 248 99.5" enable-background="new 0 0 248 99.5" xml:space="preserve">
<path d="M45.957,72.729h0.301l21.299-58h10.701l-27.801,70.8h-9.199l-27.601-70.8h11L45.957,72.729z"/>
<path d="M87.158,29.128h-7.7l10-14.4h11.3L87.158,29.128z M88.857,85.528h-9.399v-47.4h9.399V85.528z"/>
<path d="M127.856,50.128c-1.067-1.733-2.567-3.15-4.5-4.25c-1.935-1.1-4.101-1.65-6.5-1.65c-1.067,0-2.135,0.117-3.2,0.35
	c-1.067,0.234-2.018,0.6-2.85,1.1c-0.835,0.5-1.5,1.134-2,1.9c-0.5,0.768-0.75,1.717-0.75,2.85c0,2,0.899,3.484,2.699,4.45
	c1.801,0.967,4.5,1.85,8.101,2.65c2.266,0.534,4.365,1.167,6.3,1.9c1.933,0.734,3.615,1.65,5.05,2.75
	c1.433,1.1,2.55,2.417,3.351,3.95c0.8,1.534,1.199,3.334,1.199,5.4c0,2.8-0.534,5.167-1.6,7.1c-1.067,1.934-2.484,3.517-4.25,4.75
	c-1.768,1.234-3.784,2.117-6.05,2.65c-2.268,0.533-4.601,0.8-7,0.8c-3.601,0-7.117-0.7-10.55-2.1c-3.435-1.4-6.285-3.533-8.551-6.4
	l6.7-5.7c1.266,1.867,3.016,3.434,5.25,4.7c2.233,1.268,4.683,1.9,7.351,1.9c1.199,0,2.35-0.116,3.449-0.35
	c1.101-0.233,2.101-0.616,3-1.15c0.9-0.533,1.616-1.233,2.15-2.1c0.533-0.866,0.8-1.966,0.8-3.3c0-2.2-1.05-3.833-3.149-4.9
	c-2.101-1.065-5.185-2.065-9.25-3c-1.601-0.4-3.218-0.883-4.851-1.45c-1.634-0.566-3.117-1.35-4.45-2.35
	c-1.334-1-2.417-2.25-3.25-3.75c-0.834-1.5-1.25-3.35-1.25-5.55c0-2.533,0.516-4.715,1.551-6.55c1.032-1.833,2.383-3.333,4.05-4.5
	c1.665-1.166,3.565-2.033,5.7-2.6c2.133-0.565,4.332-0.85,6.6-0.85c3.4,0,6.683,0.667,9.85,2c3.166,1.334,5.616,3.268,7.351,5.8
	L127.856,50.128z"/>
<path d="M175.154,54.828c0-3.533-1.066-6.15-3.199-7.85c-2.135-1.7-4.968-2.55-8.5-2.55c-2.668,0-5.185,0.517-7.551,1.55
	c-2.367,1.034-4.35,2.35-5.949,3.95l-5-6c2.332-2.2,5.183-3.933,8.55-5.2c3.365-1.266,6.982-1.9,10.85-1.9
	c3.4,0,6.351,0.484,8.851,1.45c2.5,0.967,4.55,2.284,6.149,3.95c1.601,1.667,2.8,3.634,3.601,5.9c0.8,2.267,1.199,4.7,1.199,7.3
	v20.7c0,1.6,0.051,3.284,0.15,5.05c0.1,1.767,0.283,3.217,0.55,4.35h-8.5c-0.534-2.266-0.8-4.533-0.8-6.8h-0.3
	c-1.734,2.534-3.917,4.5-6.55,5.9c-2.635,1.4-5.75,2.101-9.351,2.101c-1.867,0-3.817-0.25-5.85-0.75
	c-2.034-0.5-3.885-1.316-5.55-2.45c-1.668-1.133-3.051-2.633-4.15-4.5c-1.1-1.866-1.65-4.166-1.65-6.9c0-3.6,0.966-6.45,2.9-8.55
	c1.933-2.1,4.466-3.7,7.6-4.8c3.133-1.1,6.666-1.815,10.601-2.15c3.933-0.333,7.899-0.5,11.899-0.5V54.828z M172.854,62.928
	c-2.334,0-4.75,0.1-7.25,0.3c-2.5,0.2-4.767,0.6-6.8,1.2c-2.034,0.6-3.717,1.5-5.05,2.7c-1.335,1.2-2,2.8-2,4.8
	c0,1.4,0.282,2.567,0.85,3.5c0.565,0.935,1.315,1.7,2.25,2.3c0.933,0.6,1.966,1.017,3.101,1.25c1.133,0.234,2.3,0.35,3.5,0.35
	c4.399,0,7.782-1.315,10.149-3.95c2.366-2.633,3.55-5.95,3.55-9.95v-2.5H172.854z"/>
<path d="M195.754,43.428c-0.067-2-0.167-3.766-0.3-5.3h8.899c0.133,1.2,0.233,2.584,0.301,4.15c0.065,1.567,0.1,2.85,0.1,3.85h0.3
	c1.333-2.8,3.283-5.05,5.851-6.75c2.565-1.7,5.449-2.55,8.649-2.55c1.466,0,2.7,0.135,3.7,0.4l-0.4,8.7
	c-1.334-0.333-2.767-0.5-4.3-0.5c-2.267,0-4.234,0.417-5.899,1.25c-1.668,0.834-3.051,1.95-4.15,3.35s-1.917,3.017-2.45,4.85
	c-0.534,1.834-0.8,3.75-0.8,5.75v24.9h-9.4v-37.2C195.854,47.062,195.819,45.428,195.754,43.428z"/>
<g>
	<path d="M110.383,19.38c-0.016-0.48-0.041-0.912-0.072-1.296h1.56c0.032,0.304,0.056,0.64,0.072,1.008
		c0.016,0.368,0.024,0.672,0.024,0.912h0.048c0.32-0.656,0.8-1.188,1.44-1.596c0.64-0.408,1.36-0.612,2.16-0.612
		c0.208,0,0.396,0.008,0.564,0.024c0.168,0.016,0.34,0.048,0.516,0.096l-0.216,1.56c-0.096-0.032-0.256-0.064-0.48-0.096
		c-0.224-0.032-0.448-0.048-0.672-0.048c-0.432,0-0.848,0.08-1.248,0.24c-0.4,0.16-0.748,0.411-1.044,0.754
		c-0.296,0.343-0.536,0.782-0.72,1.316c-0.184,0.535-0.276,1.178-0.276,1.928v5.746h-1.632v-8.76
		C110.407,20.252,110.399,19.86,110.383,19.38z"/>
	<path d="M125.839,22.047c0-0.968-0.256-1.691-0.768-2.167c-0.512-0.477-1.256-0.715-2.232-0.715c-0.672,0-1.296,0.12-1.872,0.36
		c-0.576,0.24-1.064,0.56-1.464,0.96l-0.912-1.08c0.464-0.464,1.076-0.848,1.836-1.152c0.76-0.304,1.62-0.456,2.58-0.456
		c0.608,0,1.176,0.084,1.704,0.252c0.528,0.168,0.992,0.42,1.392,0.756c0.4,0.336,0.712,0.76,0.936,1.272
		c0.224,0.513,0.336,1.112,0.336,1.8v4.92c0,0.432,0.016,0.88,0.048,1.344c0.032,0.464,0.08,0.856,0.144,1.176h-1.464
		c-0.048-0.272-0.088-0.568-0.12-0.888c-0.032-0.32-0.048-0.632-0.048-0.936h-0.048c-0.512,0.752-1.092,1.292-1.74,1.62
		s-1.428,0.492-2.34,0.492c-0.432,0-0.876-0.061-1.332-0.181s-0.872-0.317-1.248-0.59s-0.688-0.626-0.936-1.06
		s-0.372-0.963-0.372-1.589c0-0.867,0.22-1.553,0.66-2.059c0.44-0.505,1.028-0.883,1.764-1.132c0.736-0.249,1.58-0.41,2.532-0.482
		c0.952-0.072,1.94-0.108,2.964-0.108V22.047z M125.358,23.7c-0.672,0-1.348,0.028-2.028,0.084c-0.68,0.057-1.296,0.168-1.848,0.336
		c-0.552,0.168-1.004,0.412-1.356,0.732c-0.352,0.32-0.528,0.744-0.528,1.272c0,0.4,0.076,0.736,0.228,1.008
		c0.152,0.272,0.356,0.492,0.612,0.66s0.54,0.288,0.852,0.36c0.312,0.072,0.628,0.108,0.948,0.108c0.576,0,1.088-0.1,1.536-0.3
		c0.448-0.2,0.824-0.472,1.128-0.816c0.304-0.344,0.536-0.74,0.696-1.188c0.16-0.448,0.24-0.92,0.24-1.416V23.7H125.358z"/>
	<path d="M133.039,18.084c0.032,0.304,0.056,0.64,0.072,1.008c0.016,0.368,0.024,0.672,0.024,0.912h0.048
		c0.32-0.656,0.84-1.188,1.56-1.596c0.72-0.408,1.479-0.612,2.28-0.612c1.424,0,2.492,0.424,3.204,1.272
		c0.712,0.848,1.068,1.968,1.068,3.36v6.888h-1.632v-6.216c0-0.592-0.048-1.128-0.144-1.608s-0.26-0.892-0.492-1.236
		c-0.232-0.344-0.544-0.612-0.936-0.804c-0.392-0.192-0.884-0.288-1.476-0.288c-0.432,0-0.852,0.088-1.26,0.264
		c-0.408,0.176-0.772,0.444-1.092,0.804c-0.32,0.36-0.576,0.816-0.768,1.368c-0.192,0.552-0.288,1.204-0.288,1.956v5.76h-1.632
		v-8.76c0-0.304-0.008-0.696-0.024-1.176c-0.016-0.48-0.041-0.912-0.072-1.296H133.039z"/>
	<path d="M146.982,18.084c0.032,0.304,0.056,0.64,0.072,1.008c0.016,0.368,0.024,0.672,0.024,0.912h0.048
		c0.32-0.656,0.84-1.188,1.56-1.596c0.72-0.408,1.479-0.612,2.28-0.612c1.424,0,2.492,0.424,3.204,1.272
		c0.712,0.848,1.068,1.968,1.068,3.36v6.888h-1.632v-6.216c0-0.592-0.048-1.128-0.144-1.608s-0.26-0.892-0.492-1.236
		c-0.232-0.344-0.544-0.612-0.936-0.804c-0.392-0.192-0.884-0.288-1.476-0.288c-0.432,0-0.852,0.088-1.26,0.264
		c-0.408,0.176-0.772,0.444-1.092,0.804c-0.32,0.36-0.576,0.816-0.768,1.368c-0.192,0.552-0.288,1.204-0.288,1.956v5.76h-1.632
		v-8.76c0-0.304-0.008-0.696-0.024-1.176c-0.016-0.48-0.041-0.912-0.072-1.296H146.982z"/>
	<path d="M165.439,20.749c-0.24-0.464-0.604-0.844-1.092-1.14c-0.488-0.296-1.044-0.444-1.668-0.444
		c-0.288,0-0.576,0.032-0.864,0.096c-0.288,0.064-0.544,0.168-0.768,0.312c-0.225,0.144-0.404,0.328-0.54,0.552
		c-0.136,0.224-0.204,0.488-0.204,0.792c0,0.528,0.216,0.932,0.648,1.212c0.432,0.28,1.112,0.516,2.04,0.708
		c1.328,0.272,2.308,0.668,2.94,1.188c0.632,0.52,0.948,1.22,0.948,2.1c0,0.64-0.125,1.18-0.372,1.62
		c-0.249,0.44-0.572,0.8-0.972,1.08c-0.4,0.28-0.852,0.48-1.356,0.6s-1.012,0.18-1.524,0.18c-0.848,0-1.672-0.176-2.472-0.528
		c-0.8-0.352-1.456-0.903-1.968-1.656l1.296-0.96c0.288,0.496,0.712,0.912,1.272,1.248s1.176,0.504,1.848,0.504
		c0.352,0,0.688-0.032,1.008-0.096c0.32-0.063,0.6-0.176,0.84-0.336c0.24-0.16,0.432-0.364,0.576-0.612s0.216-0.556,0.216-0.924
		c0-0.592-0.284-1.036-0.852-1.332c-0.568-0.296-1.389-0.572-2.46-0.828c-0.336-0.08-0.692-0.18-1.068-0.3
		c-0.376-0.12-0.724-0.295-1.044-0.528c-0.32-0.232-0.584-0.524-0.792-0.876c-0.208-0.352-0.312-0.792-0.312-1.32
		c0-0.576,0.112-1.068,0.336-1.476c0.224-0.408,0.524-0.744,0.9-1.008c0.376-0.264,0.804-0.459,1.284-0.588
		c0.48-0.128,0.976-0.192,1.488-0.192c0.784,0,1.543,0.176,2.28,0.528c0.736,0.353,1.288,0.849,1.656,1.488L165.439,20.749z"/>
	<path d="M181.278,23.7c0,0.849-0.148,1.632-0.444,2.352c-0.296,0.72-0.708,1.344-1.236,1.872c-0.528,0.528-1.16,0.94-1.896,1.236
		c-0.736,0.295-1.544,0.444-2.424,0.444c-0.864,0-1.664-0.148-2.4-0.444c-0.736-0.296-1.368-0.708-1.896-1.236
		c-0.528-0.528-0.94-1.152-1.236-1.872c-0.296-0.72-0.444-1.503-0.444-2.352c0-0.848,0.147-1.632,0.444-2.352
		c0.296-0.72,0.708-1.344,1.236-1.872c0.528-0.528,1.16-0.94,1.896-1.236c0.736-0.296,1.536-0.444,2.4-0.444
		c0.88,0,1.688,0.148,2.424,0.444c0.736,0.296,1.368,0.708,1.896,1.236c0.528,0.528,0.939,1.152,1.236,1.872
		C181.13,22.068,181.278,22.853,181.278,23.7z M179.55,23.7c0-0.624-0.1-1.212-0.3-1.764c-0.2-0.552-0.484-1.032-0.852-1.44
		c-0.368-0.408-0.816-0.732-1.344-0.972c-0.528-0.24-1.12-0.36-1.776-0.36s-1.244,0.12-1.764,0.36
		c-0.521,0.24-0.964,0.564-1.332,0.972c-0.368,0.408-0.652,0.888-0.852,1.44c-0.2,0.552-0.3,1.14-0.3,1.764s0.1,1.212,0.3,1.764
		c0.2,0.552,0.484,1.032,0.852,1.44c0.368,0.408,0.812,0.729,1.332,0.96c0.52,0.232,1.107,0.348,1.764,0.348
		s1.248-0.116,1.776-0.348c0.528-0.231,0.976-0.552,1.344-0.96c0.368-0.408,0.652-0.888,0.852-1.44
		C179.45,24.913,179.55,24.324,179.55,23.7z M175.71,15.78h-1.416l2.4-3.456h2.184L175.71,15.78z"/>
	<path d="M186.462,23.148h0.072l5.184-5.064h2.352l-5.664,5.136l6.24,6.096h-2.4l-5.712-5.904h-0.072v5.904h-1.632V11.172h1.632
		V23.148z"/>
	<path d="M198.486,18.084c0.032,0.304,0.056,0.64,0.072,1.008c0.016,0.368,0.024,0.672,0.024,0.912h0.048
		c0.32-0.656,0.84-1.188,1.56-1.596c0.72-0.408,1.479-0.612,2.28-0.612c1.424,0,2.492,0.424,3.204,1.272
		c0.711,0.848,1.068,1.968,1.068,3.36v6.888h-1.633v-6.216c0-0.592-0.047-1.128-0.144-1.608s-0.26-0.892-0.492-1.236
		c-0.232-0.344-0.544-0.612-0.936-0.804c-0.392-0.192-0.884-0.288-1.476-0.288c-0.432,0-0.852,0.088-1.26,0.264
		c-0.408,0.176-0.772,0.444-1.092,0.804c-0.32,0.36-0.576,0.816-0.768,1.368c-0.192,0.552-0.288,1.204-0.288,1.956v5.76h-1.632
		v-8.76c0-0.304-0.008-0.696-0.024-1.176c-0.016-0.48-0.041-0.912-0.072-1.296H198.486z"/>
	<path d="M212.958,13.765c0,0.336-0.12,0.612-0.36,0.828c-0.24,0.216-0.504,0.324-0.792,0.324s-0.552-0.108-0.792-0.324
		c-0.24-0.216-0.36-0.492-0.36-0.828c0-0.336,0.12-0.612,0.36-0.828c0.24-0.216,0.504-0.324,0.792-0.324s0.552,0.108,0.792,0.324
		C212.838,13.152,212.958,13.428,212.958,13.765z M212.622,29.316h-1.633V18.084h1.633V29.316z"/>
	<path d="M216.941,19.38c-0.016-0.48-0.04-0.912-0.071-1.296h1.56c0.032,0.304,0.056,0.64,0.072,1.008
		c0.016,0.368,0.023,0.672,0.023,0.912h0.048c0.32-0.656,0.801-1.188,1.44-1.596c0.64-0.408,1.359-0.612,2.16-0.612
		c0.208,0,0.396,0.008,0.563,0.024c0.168,0.016,0.34,0.048,0.517,0.096l-0.216,1.56c-0.097-0.032-0.257-0.064-0.48-0.096
		c-0.225-0.032-0.448-0.048-0.672-0.048c-0.432,0-0.849,0.08-1.248,0.24c-0.4,0.16-0.748,0.411-1.044,0.754s-0.536,0.782-0.72,1.316
		c-0.185,0.535-0.276,1.178-0.276,1.928v5.746h-1.632v-8.76C216.966,20.252,216.957,19.86,216.941,19.38z"/>
</g>
</svg>
