<?xml version="1.0" encoding="utf-8"?>
<!-- Generator: Adobe Illustrator 15.0.2, SVG Export Plug-In . SVG Version: 6.00 Build 0)  -->
<!DOCTYPE svg PUBLIC "-//W3C//DTD SVG 1.1//EN" "http://www.w3.org/Graphics/SVG/1.1/DTD/svg11.dtd">
<svg version="1.1" id="Layer_1" xmlns:sketch="http://www.bohemiancoding.com/sketch/ns"
	 xmlns="http://www.w3.org/2000/svg" xmlns:xlink="http://www.w3.org/1999/xlink" x="0px" y="0px" width="565.581px" height="168px"
	 viewBox="0 0 565.581 168" enable-background="new 0 0 565.581 168" xml:space="preserve">
<title>logo-reports-white-sp-mexico</title>
<desc>Created with Sketch.</desc>
<g id="logo-reports-white-sp" transform="translate(4.000000, 0.000000)" sketch:type="MSLayerGroup">
	<g id="Layer_2_1_" sketch:type="MSShapeGroup">
		<path id="Shape" fill="#FFFFFF" d="M2.976,77.464c0.557-6.76,1.968-13.388,4.229-19.78C18.332,26.192,48.256,5.032,81.68,5.032
			V0.52c-17.612,0-34.452,5.42-48.708,15.672c-6.864,4.936-12.916,10.86-18.008,17.612C9.82,40.624,5.78,48.156,2.944,56.184
			c-2.428,6.868-3.928,14.004-4.5,21.28H-1.56l-0.023,0.576c-0.128,1.8-0.208,3.604-0.216,5.416l-0.032,0.812v6.736h167V77.46
			L2.976,77.464L2.976,77.464z"/>
		<path id="Shape_1_" fill="#FFFFFF" d="M163.5,102.96l-0.433,1.5c-0.308,0.896-3.092,8.628-3.428,9.496
			c-5.992,15.584-16.416,28.903-30.16,38.512c-14.052,9.845-30.584,15.04-47.796,15.04v-4.527c32.468,0,62.104-20.353,73.74-50.648
			c0.164-0.412,0.992-2.66,1.792-4.852H-1.672v-4.521h160.115H163.5L163.5,102.96z"/>
	</g>
</g>
<g>
	<path fill="#FFFFFF" d="M222.093,64.455c-1.136-1.474-2.74-2.708-4.81-3.703c-2.072-0.991-4.159-1.489-6.257-1.489
		c-1.251,0-2.497,0.159-3.745,0.467c-1.25,0.314-2.384,0.795-3.404,1.448c-1.021,0.653-1.862,1.507-2.51,2.556
		c-0.657,1.05-0.982,2.312-0.982,3.787c0,1.36,0.286,2.525,0.852,3.493c0.566,0.964,1.349,1.787,2.343,2.466
		c0.99,0.681,2.196,1.276,3.616,1.789c1.417,0.511,2.979,1.023,4.682,1.532c1.932,0.624,3.929,1.333,6.001,2.125
		c2.072,0.798,3.974,1.85,5.705,3.154c1.731,1.304,3.149,2.949,4.258,4.939c1.104,1.985,1.657,4.45,1.657,7.402
		c0,3.234-0.595,6.061-1.787,8.473c-1.192,2.411-2.781,4.414-4.765,6.001c-1.989,1.589-4.317,2.78-6.983,3.575
		c-2.668,0.795-5.479,1.189-8.428,1.189c-3.917,0-7.746-0.724-11.492-2.167c-3.748-1.446-6.809-3.59-9.196-6.427l7.662-7.153
		c1.476,2.045,3.45,3.663,5.916,4.854c2.47,1.192,4.896,1.787,7.281,1.787c1.248,0,2.523-0.156,3.829-0.467
		c1.305-0.313,2.483-0.84,3.534-1.577c1.049-0.737,1.902-1.66,2.556-2.768c0.652-1.106,0.977-2.48,0.977-4.129
		c0-1.586-0.371-2.906-1.104-3.96c-0.739-1.049-1.732-1.958-2.979-2.722c-1.25-0.766-2.726-1.435-4.427-1.998
		c-1.704-0.568-3.493-1.166-5.365-1.79c-1.816-0.565-3.63-1.249-5.448-2.041c-1.815-0.8-3.448-1.847-4.895-3.152
		c-1.445-1.305-2.628-2.909-3.535-4.81c-0.908-1.902-1.359-4.27-1.359-7.107c0-3.065,0.64-5.707,1.915-7.919
		c1.276-2.212,2.95-4.041,5.021-5.49c2.072-1.447,4.429-2.525,7.068-3.235c2.64-0.712,5.32-1.063,8.043-1.063
		c3.066,0,6.173,0.54,9.325,1.617c3.147,1.079,5.884,2.694,8.212,4.854L222.093,64.455z"/>
	<path fill="#FFFFFF" d="M233.33,79.44v-8.173h7.149V59.431h10.046v11.836h10.212v8.173h-10.212v18.982
		c0,1.818,0.325,3.321,0.978,4.513c0.652,1.192,2.115,1.788,4.384,1.788c0.681,0,1.419-0.069,2.213-0.216
		c0.797-0.136,1.503-0.352,2.129-0.638l0.341,8.002c-0.909,0.345-1.989,0.609-3.236,0.81c-1.249,0.197-2.439,0.298-3.575,0.298
		c-2.721,0-4.936-0.381-6.641-1.147c-1.699-0.766-3.051-1.814-4.04-3.149c-0.995-1.333-1.678-2.864-2.045-4.596
		c-0.369-1.731-0.554-3.589-0.554-5.579V79.44H233.33z"/>
	<path fill="#FFFFFF" d="M293.517,106.937h-0.258c-1.021,1.813-2.667,3.304-4.937,4.471c-2.271,1.162-4.853,1.743-7.745,1.743
		c-1.649,0-3.363-0.216-5.15-0.638c-1.787-0.426-3.438-1.135-4.941-2.131c-1.502-0.989-2.751-2.295-3.743-3.913
		c-0.994-1.618-1.489-3.621-1.489-6.002c0-3.065,0.86-5.505,2.594-7.32c1.731-1.819,3.958-3.207,6.687-4.175
		c2.721-0.963,5.745-1.601,9.064-1.914c3.317-0.31,6.566-0.471,9.748-0.471v-1.021c0-2.553-0.925-4.441-2.768-5.66
		c-1.843-1.219-4.044-1.828-6.596-1.828c-2.158,0-4.23,0.452-6.215,1.361c-1.988,0.908-3.632,2.017-4.938,3.318l-5.28-6.215
		c2.327-2.152,5.009-3.772,8.048-4.851c3.033-1.079,6.112-1.62,9.232-1.62c3.636,0,6.627,0.513,8.984,1.536
		c2.354,1.022,4.215,2.355,5.577,4c1.36,1.646,2.31,3.492,2.849,5.534c0.542,2.04,0.812,4.086,0.812,6.128v24.858h-9.535V106.937z
		 M293.346,93.485h-2.3c-1.646,0-3.378,0.072-5.192,0.213c-1.816,0.142-3.489,0.455-5.023,0.938
		c-1.531,0.482-2.809,1.165-3.831,2.042c-1.022,0.881-1.532,2.086-1.532,3.617c0,0.968,0.21,1.773,0.638,2.425
		c0.426,0.655,0.981,1.182,1.661,1.576c0.68,0.399,1.447,0.684,2.297,0.854c0.853,0.167,1.703,0.251,2.553,0.251
		c3.519,0,6.187-0.935,8.005-2.81c1.816-1.869,2.724-4.422,2.724-7.657V93.485z"/>
	<path fill="#FFFFFF" d="M316.584,79.44h-7.745v-8.173h7.745v-6.044c0-2.441,0.271-4.78,0.811-7.024
		c0.537-2.242,1.449-4.211,2.723-5.916c1.279-1.702,2.967-3.049,5.069-4.043c2.099-0.994,4.733-1.49,7.914-1.49
		c1.138,0,2.085,0.042,2.851,0.124c0.77,0.088,1.548,0.245,2.341,0.472l-0.677,8.682c-0.568-0.169-1.183-0.308-1.833-0.423
		c-0.651-0.113-1.347-0.174-2.086-0.174c-1.475,0-2.667,0.29-3.575,0.853c-0.907,0.568-1.603,1.306-2.085,2.213
		c-0.484,0.908-0.812,1.903-0.979,2.979c-0.171,1.081-0.253,2.13-0.253,3.152v6.64h9.445v8.173h-9.445v32.689h-10.22V79.44z"/>
	<path fill="#FFFFFF" d="M342.378,79.44h-7.746v-8.173h7.746v-6.044c0-2.441,0.27-4.78,0.812-7.024
		c0.535-2.242,1.447-4.211,2.721-5.916c1.279-1.702,2.965-3.049,5.068-4.043c2.1-0.994,4.736-1.49,7.916-1.49
		c1.135,0,2.086,0.042,2.851,0.124c0.77,0.088,1.548,0.245,2.341,0.472l-0.678,8.682c-0.57-0.169-1.182-0.308-1.832-0.423
		c-0.652-0.113-1.349-0.174-2.086-0.174c-1.477,0-2.668,0.29-3.574,0.853c-0.91,0.568-1.607,1.306-2.086,2.213
		c-0.485,0.908-0.811,1.903-0.98,2.979c-0.17,1.081-0.254,2.13-0.254,3.152v6.64h9.446v8.173h-9.446v32.689h-10.218V79.44z"/>
	<path fill="#FFFFFF" d="M368.854,51.854h19.665c3.459,0,6.581,0.313,9.362,0.941c2.779,0.622,5.164,1.645,7.151,3.062
		c1.986,1.419,3.518,3.234,4.598,5.447c1.077,2.213,1.618,4.88,1.618,8.003c0,3.348-0.627,6.157-1.873,8.427
		c-1.249,2.273-2.939,4.101-5.065,5.491c-2.131,1.391-4.611,2.401-7.452,3.024c-2.836,0.622-5.843,0.933-9.022,0.933h-8.255v24.946
		h-10.727V51.854z M387.072,78.162c1.757,0,3.431-0.13,5.021-0.381c1.59-0.257,3.008-0.71,4.258-1.367
		c1.248-0.651,2.239-1.544,2.979-2.68c0.737-1.132,1.109-2.608,1.109-4.426c0-1.757-0.372-3.192-1.109-4.301
		c-0.739-1.104-1.719-1.969-2.938-2.594c-1.218-0.622-2.61-1.035-4.169-1.236c-1.562-0.198-3.162-0.297-4.812-0.297h-7.828v17.282
		H387.072z"/>
	<path fill="#FFFFFF" d="M453.809,112.129h-9.705v-6.556h-0.171c-0.906,2.044-2.482,3.848-4.725,5.403
		c-2.241,1.564-4.893,2.344-7.96,2.344c-2.666,0-4.953-0.468-6.851-1.402c-1.901-0.941-3.465-2.174-4.684-3.703
		c-1.218-1.535-2.112-3.297-2.682-5.28c-0.568-1.987-0.852-4.027-0.852-6.131V71.267h10.215v22.646c0,1.194,0.088,2.438,0.258,3.742
		c0.168,1.31,0.538,2.484,1.106,3.534c0.565,1.05,1.345,1.917,2.338,2.599c0.993,0.679,2.313,1.02,3.96,1.02
		c1.59,0,2.993-0.326,4.216-0.978c1.22-0.651,2.213-1.491,2.979-2.513s1.349-2.198,1.746-3.531c0.395-1.337,0.595-2.679,0.595-4.043
		V71.267h10.216V112.129z"/>
	<path fill="#FFFFFF" d="M466.24,47.771h10.215v64.357H466.24V47.771z"/>
	<path fill="#FFFFFF" d="M511.274,82.161c-0.906-1.191-2.159-2.227-3.744-3.105c-1.59-0.881-3.323-1.321-5.199-1.321
		c-1.646,0-3.146,0.344-4.508,1.023c-1.361,0.682-2.045,1.818-2.045,3.403c0,1.592,0.753,2.713,2.258,3.365
		c1.501,0.654,3.701,1.32,6.597,2.001c1.53,0.34,3.08,0.795,4.638,1.359c1.563,0.571,2.983,1.322,4.257,2.257
		c1.279,0.935,2.314,2.099,3.109,3.492c0.795,1.389,1.19,3.079,1.19,5.065c0,2.496-0.469,4.608-1.402,6.342
		c-0.939,1.73-2.186,3.133-3.75,4.21c-1.557,1.082-3.376,1.862-5.445,2.345c-2.076,0.48-4.215,0.723-6.427,0.723
		c-3.181,0-6.27-0.583-9.28-1.748c-3.005-1.157-5.504-2.822-7.488-4.978l6.724-6.3c1.136,1.477,2.611,2.696,4.426,3.663
		c1.812,0.96,3.832,1.442,6.044,1.442c0.738,0,1.489-0.084,2.254-0.251c0.766-0.17,1.478-0.442,2.133-0.812
		c0.649-0.368,1.174-0.862,1.571-1.49c0.4-0.622,0.597-1.387,0.597-2.297c0-1.705-0.779-2.925-2.34-3.66
		c-1.562-0.739-3.902-1.476-7.022-2.215c-1.531-0.338-3.021-0.776-4.469-1.319c-1.449-0.538-2.743-1.245-3.872-2.126
		c-1.138-0.881-2.045-1.97-2.729-3.28c-0.681-1.303-1.021-2.923-1.021-4.848c0-2.274,0.47-4.23,1.405-5.876
		c0.939-1.645,2.169-2.992,3.704-4.044c1.53-1.048,3.264-1.831,5.193-2.34c1.929-0.512,3.915-0.77,5.957-0.77
		c2.95,0,5.833,0.513,8.643,1.536c2.809,1.022,5.034,2.583,6.682,4.684L511.274,82.161z"/>
	<path fill="#FFFFFF" d="M565.663,92.207c0,0.458,0,0.908,0,1.359c0,0.46-0.028,0.912-0.082,1.367h-31.074
		c0.112,1.475,0.497,2.821,1.147,4.043c0.652,1.223,1.518,2.268,2.6,3.148c1.075,0.885,2.296,1.575,3.663,2.084
		c1.36,0.514,2.775,0.771,4.253,0.771c2.553,0,4.709-0.473,6.471-1.407c1.759-0.938,3.205-2.228,4.341-3.871l6.812,5.448
		c-4.033,5.445-9.877,8.171-17.54,8.171c-3.177,0-6.099-0.499-8.768-1.489c-2.667-0.99-4.981-2.397-6.937-4.214
		c-1.96-1.818-3.492-4.045-4.597-6.684c-1.11-2.64-1.663-5.633-1.663-8.983c0-3.289,0.553-6.284,1.663-8.977
		c1.104-2.694,2.621-4.996,4.551-6.896c1.932-1.901,4.219-3.378,6.855-4.428c2.642-1.048,5.489-1.577,8.557-1.577
		c2.836,0,5.457,0.472,7.873,1.407c2.412,0.936,4.497,2.329,6.256,4.17c1.76,1.847,3.136,4.144,4.131,6.898
		C565.168,85.301,565.663,88.519,565.663,92.207z M555.448,87.612c0-1.307-0.186-2.555-0.557-3.747
		c-0.363-1.19-0.947-2.239-1.74-3.152c-0.795-0.903-1.804-1.627-3.023-2.169c-1.221-0.54-2.653-0.81-4.3-0.81
		c-3.063,0-5.661,0.923-7.79,2.768c-2.126,1.848-3.304,4.215-3.531,7.109H555.448z"/>
</g>
</svg>
