<?xml version="1.0" encoding="utf-8"?>
<!-- Generator: Adobe Illustrator 15.0.2, SVG Export Plug-In . SVG Version: 6.00 Build 0)  -->
<!DOCTYPE svg PUBLIC "-//W3C//DTD SVG 1.1//EN" "http://www.w3.org/Graphics/SVG/1.1/DTD/svg11.dtd">
<svg version="1.1" id="Layer_2" xmlns="http://www.w3.org/2000/svg" xmlns:xlink="http://www.w3.org/1999/xlink" x="0px" y="0px"
	 width="224.609px" height="42px" viewBox="0 0 224.609 42" enable-background="new 0 0 224.609 42" xml:space="preserve">
<path fill="#FFFFFF" d="M1.744,19.366c0.139-1.69,0.492-3.347,1.057-4.945C5.583,6.548,13.064,1.258,21.42,1.258V0.13
	c-4.403,0-8.613,1.355-12.177,3.918C7.527,5.282,6.014,6.763,4.741,8.451c-1.286,1.705-2.296,3.588-3.005,5.595
	c-0.607,1.717-0.982,3.501-1.125,5.32H0.61L0.604,19.51c-0.032,0.45-0.052,0.901-0.054,1.354l-0.008,0.203v1.684h41.75v-3.386
	L1.744,19.366L1.744,19.366z"/>
<path fill="#FFFFFF" d="M41.875,25.74l-0.108,0.375c-0.077,0.224-0.773,2.156-0.857,2.374c-1.498,3.896-4.104,7.226-7.54,9.628
	c-3.513,2.461-7.646,3.76-11.949,3.76v-1.132c8.117,0,15.526-5.088,18.435-12.662c0.041-0.103,0.248-0.665,0.448-1.213H0.582v-1.13
	h40.029H41.875z"/>
<g>
	<path fill="#FFFFFF" d="M55.642,16.733c-0.278-0.36-0.67-0.662-1.176-0.905c-0.507-0.243-1.017-0.364-1.53-0.364
		c-0.305,0-0.611,0.039-0.916,0.114c-0.306,0.077-0.583,0.195-0.833,0.354c-0.25,0.16-0.455,0.368-0.615,0.625
		c-0.159,0.257-0.239,0.565-0.239,0.926c0,0.333,0.069,0.618,0.208,0.854c0.139,0.236,0.33,0.438,0.573,0.604
		c0.243,0.166,0.538,0.312,0.884,0.437c0.347,0.125,0.729,0.25,1.145,0.374c0.473,0.153,0.961,0.327,1.469,0.521
		c0.506,0.195,0.97,0.451,1.394,0.77c0.424,0.319,0.771,0.723,1.041,1.208c0.271,0.485,0.406,1.089,0.406,1.811
		c0,0.791-0.146,1.48-0.438,2.072c-0.292,0.59-0.68,1.079-1.165,1.467c-0.486,0.389-1.055,0.681-1.707,0.874
		c-0.653,0.193-1.34,0.291-2.062,0.291c-0.958,0-1.895-0.176-2.811-0.531c-0.915-0.353-1.665-0.877-2.248-1.57l1.874-1.749
		c0.361,0.5,0.843,0.896,1.446,1.187c0.604,0.291,1.198,0.437,1.78,0.437c0.305,0,0.617-0.037,0.937-0.113
		c0.319-0.077,0.606-0.204,0.864-0.386c0.256-0.181,0.464-0.406,0.625-0.677c0.159-0.271,0.239-0.606,0.239-1.01
		c0-0.388-0.09-0.711-0.27-0.967c-0.181-0.257-0.423-0.479-0.729-0.667c-0.306-0.188-0.667-0.35-1.083-0.489
		c-0.417-0.138-0.854-0.284-1.312-0.437c-0.444-0.139-0.888-0.306-1.332-0.5c-0.445-0.194-0.844-0.451-1.197-0.77
		c-0.354-0.319-0.643-0.711-0.865-1.176c-0.222-0.465-0.333-1.045-0.333-1.738c0-0.75,0.156-1.396,0.469-1.937
		c0.312-0.542,0.721-0.989,1.228-1.343c0.507-0.354,1.083-0.618,1.729-0.791s1.301-0.26,1.967-0.26c0.75,0,1.509,0.132,2.28,0.396
		c0.77,0.264,1.439,0.66,2.009,1.187L55.642,16.733z"/>
	<path fill="#FFFFFF" d="M57.666,20.398v-1.999h1.749v-2.894h2.457v2.894h2.498v1.999h-2.498v4.642c0,0.444,0.08,0.812,0.239,1.104
		c0.159,0.292,0.517,0.437,1.072,0.437c0.167,0,0.347-0.017,0.542-0.051c0.194-0.035,0.368-0.087,0.521-0.156l0.083,1.957
		c-0.222,0.082-0.486,0.148-0.791,0.197c-0.306,0.049-0.597,0.072-0.875,0.072c-0.667,0-1.208-0.093-1.624-0.281
		c-0.417-0.187-0.746-0.443-0.989-0.77c-0.242-0.327-0.41-0.701-0.5-1.124c-0.09-0.424-0.135-0.878-0.135-1.363v-4.664H57.666z"/>
	<path fill="#FFFFFF" d="M71.957,27.122h-0.062c-0.25,0.444-0.652,0.808-1.208,1.093c-0.555,0.284-1.187,0.427-1.895,0.427
		c-0.402,0-0.822-0.052-1.259-0.155c-0.437-0.105-0.841-0.278-1.207-0.521c-0.369-0.242-0.673-0.562-0.916-0.958
		c-0.244-0.396-0.365-0.884-0.365-1.468c0-0.749,0.211-1.346,0.635-1.79c0.423-0.443,0.968-0.784,1.634-1.021
		c0.667-0.235,1.405-0.392,2.217-0.469c0.812-0.075,1.606-0.113,2.384-0.113v-0.25c0-0.624-0.225-1.085-0.677-1.385
		c-0.451-0.298-0.989-0.448-1.613-0.448c-0.528,0-1.034,0.111-1.52,0.334c-0.486,0.222-0.888,0.493-1.207,0.811l-1.291-1.519
		c0.569-0.527,1.225-0.923,1.967-1.187c0.743-0.263,1.495-0.396,2.259-0.396c0.888,0,1.62,0.125,2.196,0.375
		c0.576,0.25,1.031,0.576,1.363,0.978c0.333,0.404,0.565,0.854,0.698,1.354c0.131,0.5,0.198,0.999,0.198,1.499v6.079h-2.332V27.122z
		 M71.915,23.833h-0.562c-0.402,0-0.826,0.018-1.27,0.052c-0.445,0.035-0.854,0.111-1.229,0.229
		c-0.375,0.118-0.687,0.285-0.937,0.501c-0.25,0.215-0.375,0.51-0.375,0.884c0,0.236,0.053,0.433,0.156,0.593
		c0.104,0.16,0.239,0.288,0.406,0.385c0.167,0.098,0.354,0.167,0.562,0.209c0.208,0.042,0.417,0.063,0.625,0.063
		c0.86,0,1.513-0.23,1.957-0.688c0.444-0.458,0.667-1.083,0.667-1.874V23.833z"/>
	<path fill="#FFFFFF" d="M76.514,18.399h2.395v1.665h0.041c0.277-0.582,0.666-1.054,1.166-1.415s1.082-0.542,1.748-0.542
		c0.098,0,0.201,0.003,0.312,0.01c0.112,0.008,0.208,0.025,0.291,0.052v2.291c-0.166-0.042-0.309-0.07-0.427-0.084
		c-0.118-0.014-0.232-0.02-0.343-0.02c-0.569,0-1.027,0.104-1.375,0.311c-0.346,0.209-0.617,0.458-0.811,0.75
		c-0.195,0.291-0.326,0.59-0.396,0.895c-0.068,0.306-0.104,0.549-0.104,0.729v5.351h-2.498V18.399z"/>
	<path fill="#FFFFFF" d="M84.649,20.398h-1.895v-1.999h1.895v-1.478c0-0.597,0.065-1.17,0.198-1.718
		c0.131-0.548,0.354-1.031,0.665-1.447c0.312-0.417,0.726-0.746,1.239-0.989c0.513-0.242,1.158-0.364,1.937-0.364
		c0.276,0,0.51,0.01,0.696,0.031c0.188,0.021,0.379,0.059,0.573,0.115l-0.167,2.123c-0.139-0.042-0.288-0.076-0.447-0.104
		c-0.16-0.028-0.33-0.042-0.51-0.042c-0.361,0-0.653,0.07-0.875,0.208c-0.222,0.138-0.393,0.319-0.51,0.541
		s-0.197,0.465-0.239,0.729c-0.041,0.264-0.062,0.521-0.062,0.771v1.624h2.312v1.999h-2.312v7.994h-2.498V20.398z"/>
	<path fill="#FFFFFF" d="M96.211,21.064c-0.223-0.291-0.528-0.545-0.916-0.76c-0.389-0.215-0.812-0.323-1.27-0.323
		c-0.402,0-0.771,0.083-1.104,0.25c-0.332,0.167-0.499,0.444-0.499,0.833s0.186,0.663,0.553,0.823
		c0.367,0.159,0.904,0.322,1.613,0.488c0.374,0.084,0.753,0.194,1.134,0.333c0.382,0.14,0.729,0.323,1.041,0.552
		s0.565,0.515,0.76,0.854c0.194,0.341,0.291,0.754,0.291,1.239c0,0.611-0.113,1.127-0.343,1.552
		c-0.229,0.423-0.534,0.767-0.916,1.029c-0.382,0.264-0.825,0.455-1.332,0.573c-0.507,0.117-1.031,0.177-1.572,0.177
		c-0.777,0-1.533-0.143-2.269-0.428c-0.736-0.283-1.347-0.689-1.832-1.217l1.645-1.541c0.277,0.36,0.638,0.659,1.082,0.895
		c0.444,0.237,0.937,0.355,1.478,0.355c0.182,0,0.365-0.021,0.553-0.063s0.36-0.107,0.521-0.197
		c0.159-0.091,0.288-0.212,0.384-0.364c0.098-0.153,0.147-0.341,0.147-0.563c0-0.415-0.191-0.713-0.573-0.895
		c-0.382-0.181-0.955-0.36-1.718-0.541c-0.375-0.084-0.739-0.19-1.093-0.323c-0.354-0.131-0.669-0.305-0.948-0.52
		c-0.276-0.215-0.498-0.482-0.665-0.802s-0.25-0.714-0.25-1.187c0-0.555,0.114-1.034,0.345-1.436
		c0.229-0.402,0.53-0.732,0.904-0.988c0.375-0.257,0.798-0.449,1.27-0.573c0.472-0.125,0.958-0.188,1.458-0.188
		c0.722,0,1.426,0.125,2.112,0.375c0.688,0.25,1.232,0.631,1.635,1.146L96.211,21.064z"/>
	<path fill="#FFFFFF" d="M111.37,18.107c0.652,0,1.21,0.115,1.677,0.344c0.465,0.229,0.846,0.531,1.145,0.905
		c0.298,0.375,0.518,0.805,0.654,1.291c0.14,0.486,0.21,0.985,0.21,1.499v6.245h-2.498v-5.537c0-0.292-0.021-0.598-0.062-0.917
		c-0.042-0.318-0.132-0.606-0.271-0.863s-0.33-0.469-0.573-0.635c-0.243-0.166-0.565-0.25-0.968-0.25
		c-0.389,0-0.723,0.084-0.999,0.25c-0.277,0.167-0.506,0.382-0.688,0.646c-0.181,0.264-0.312,0.559-0.396,0.884
		c-0.084,0.326-0.125,0.649-0.125,0.969v5.454h-2.498v-6.038c0-0.623-0.148-1.141-0.448-1.55c-0.298-0.41-0.767-0.615-1.404-0.615
		c-0.375,0-0.701,0.08-0.979,0.24c-0.278,0.159-0.504,0.364-0.677,0.614c-0.173,0.25-0.307,0.538-0.396,0.863
		c-0.09,0.327-0.135,0.656-0.135,0.99v5.495h-2.498v-9.992h2.372v1.603h0.042c0.112-0.251,0.261-0.486,0.448-0.708
		c0.188-0.222,0.408-0.423,0.665-0.604c0.258-0.18,0.553-0.322,0.885-0.427c0.334-0.104,0.701-0.156,1.104-0.156
		c0.777,0,1.422,0.174,1.936,0.521c0.514,0.348,0.909,0.805,1.188,1.375c0.333-0.611,0.776-1.079,1.332-1.406
		C109.968,18.271,110.622,18.107,111.37,18.107z"/>
	<path fill="#FFFFFF" d="M123.479,27.122h-0.063c-0.249,0.444-0.652,0.808-1.208,1.093c-0.556,0.284-1.187,0.427-1.894,0.427
		c-0.403,0-0.822-0.052-1.261-0.155c-0.437-0.105-0.839-0.278-1.207-0.521c-0.367-0.242-0.674-0.562-0.915-0.958
		c-0.244-0.396-0.365-0.884-0.365-1.468c0-0.749,0.212-1.346,0.636-1.79c0.422-0.443,0.968-0.784,1.633-1.021
		c0.667-0.235,1.406-0.392,2.219-0.469c0.812-0.075,1.605-0.113,2.383-0.113v-0.25c0-0.624-0.226-1.085-0.676-1.385
		c-0.451-0.298-0.989-0.448-1.614-0.448c-0.527,0-1.033,0.111-1.52,0.334c-0.485,0.222-0.889,0.493-1.207,0.811l-1.29-1.519
		c0.568-0.527,1.225-0.923,1.967-1.187c0.741-0.263,1.495-0.396,2.258-0.396c0.889,0,1.621,0.125,2.197,0.375
		c0.575,0.25,1.029,0.576,1.363,0.978c0.332,0.404,0.564,0.854,0.698,1.354c0.131,0.5,0.197,0.999,0.197,1.499v6.079h-2.331V27.122z
		 M123.437,23.833h-0.562c-0.403,0-0.826,0.018-1.27,0.052c-0.445,0.035-0.854,0.111-1.229,0.229
		c-0.375,0.118-0.687,0.285-0.938,0.501c-0.25,0.215-0.374,0.51-0.374,0.884c0,0.236,0.052,0.433,0.156,0.593
		c0.104,0.16,0.238,0.288,0.405,0.385c0.167,0.098,0.354,0.167,0.562,0.209s0.416,0.063,0.624,0.063c0.86,0,1.514-0.23,1.957-0.688
		c0.444-0.458,0.666-1.083,0.666-1.874V23.833z"/>
	<path fill="#FFFFFF" d="M128.036,18.399h2.372v1.603h0.042c0.222-0.5,0.606-0.941,1.155-1.322c0.548-0.382,1.197-0.573,1.946-0.573
		c0.652,0,1.211,0.115,1.677,0.344c0.465,0.229,0.846,0.531,1.145,0.905c0.299,0.375,0.517,0.805,0.654,1.291
		c0.139,0.486,0.209,0.985,0.209,1.499v6.245h-2.498v-5.537c0-0.292-0.021-0.598-0.062-0.917c-0.041-0.318-0.131-0.606-0.27-0.863
		c-0.14-0.257-0.33-0.469-0.573-0.635c-0.244-0.166-0.565-0.25-0.968-0.25c-0.403,0-0.749,0.08-1.041,0.24
		c-0.291,0.159-0.531,0.364-0.719,0.614c-0.188,0.25-0.33,0.538-0.427,0.863c-0.097,0.327-0.146,0.656-0.146,0.99v5.495h-2.497
		V18.399z"/>
	<path fill="#FFFFFF" d="M139.462,18.399h2.372v1.603h0.043c0.222-0.5,0.606-0.941,1.155-1.322c0.547-0.382,1.196-0.573,1.946-0.573
		c0.652,0,1.211,0.115,1.676,0.344s0.847,0.531,1.145,0.905c0.299,0.375,0.517,0.805,0.656,1.291
		c0.139,0.486,0.208,0.985,0.208,1.499v6.245h-2.498v-5.537c0-0.292-0.021-0.598-0.063-0.917c-0.041-0.318-0.131-0.606-0.27-0.863
		s-0.33-0.469-0.573-0.635c-0.242-0.166-0.565-0.25-0.968-0.25c-0.403,0-0.749,0.08-1.04,0.24c-0.292,0.159-0.531,0.364-0.719,0.614
		c-0.188,0.25-0.33,0.538-0.426,0.863c-0.098,0.327-0.146,0.656-0.146,0.99v5.495h-2.498V18.399z"/>
	<path fill="#FFFFFF" d="M157.086,27.122h-0.062c-0.25,0.444-0.652,0.808-1.208,1.093c-0.555,0.284-1.186,0.427-1.894,0.427
		c-0.403,0-0.822-0.052-1.26-0.155c-0.438-0.105-0.84-0.278-1.208-0.521c-0.368-0.242-0.673-0.562-0.916-0.958
		c-0.241-0.396-0.364-0.884-0.364-1.468c0-0.749,0.212-1.346,0.636-1.79c0.423-0.443,0.968-0.784,1.634-1.021
		c0.667-0.235,1.405-0.392,2.217-0.469c0.812-0.075,1.606-0.113,2.384-0.113v-0.25c0-0.624-0.226-1.085-0.677-1.385
		c-0.45-0.298-0.989-0.448-1.613-0.448c-0.527,0-1.033,0.111-1.52,0.334c-0.486,0.222-0.888,0.493-1.207,0.811l-1.29-1.519
		c0.568-0.527,1.224-0.923,1.966-1.187c0.742-0.263,1.496-0.396,2.26-0.396c0.888,0,1.619,0.125,2.195,0.375
		c0.576,0.25,1.031,0.576,1.365,0.978c0.332,0.404,0.563,0.854,0.696,1.354c0.132,0.5,0.198,0.999,0.198,1.499v6.079h-2.332V27.122z
		 M157.044,23.833h-0.562c-0.402,0-0.826,0.018-1.271,0.052c-0.443,0.035-0.854,0.111-1.228,0.229
		c-0.375,0.118-0.688,0.285-0.937,0.501c-0.251,0.215-0.376,0.51-0.376,0.884c0,0.236,0.053,0.433,0.156,0.593
		c0.105,0.16,0.24,0.288,0.406,0.385c0.167,0.098,0.354,0.167,0.562,0.209c0.208,0.042,0.416,0.063,0.624,0.063
		c0.859,0,1.513-0.23,1.957-0.688c0.444-0.458,0.666-1.083,0.666-1.874V23.833z"/>
	<path fill="#FFFFFF" d="M164.036,18.399v1.395h0.063c0.124-0.194,0.287-0.392,0.489-0.594c0.201-0.201,0.447-0.381,0.738-0.541
		c0.291-0.16,0.622-0.291,0.989-0.396c0.367-0.104,0.781-0.156,1.238-0.156c0.707,0,1.36,0.136,1.957,0.406s1.11,0.642,1.54,1.114
		c0.43,0.471,0.764,1.027,1,1.665c0.235,0.639,0.354,1.326,0.354,2.061c0,0.736-0.114,1.426-0.343,2.071
		c-0.229,0.646-0.556,1.207-0.979,1.687c-0.423,0.479-0.936,0.861-1.539,1.145c-0.604,0.285-1.288,0.428-2.051,0.428
		c-0.708,0-1.357-0.146-1.947-0.438s-1.044-0.688-1.363-1.187h-0.042v6.329h-2.498V18.399H164.036z M169.865,23.354
		c0-0.389-0.06-0.773-0.177-1.156c-0.118-0.381-0.295-0.725-0.531-1.03c-0.235-0.305-0.533-0.551-0.896-0.738
		c-0.36-0.188-0.783-0.281-1.269-0.281c-0.458,0-0.868,0.098-1.229,0.291c-0.361,0.195-0.67,0.445-0.928,0.75
		c-0.255,0.305-0.45,0.653-0.582,1.041c-0.132,0.389-0.198,0.777-0.198,1.166c0,0.388,0.066,0.773,0.198,1.155
		c0.132,0.381,0.327,0.726,0.582,1.03c0.258,0.306,0.566,0.553,0.928,0.738c0.36,0.188,0.771,0.282,1.229,0.282
		c0.485,0,0.908-0.097,1.269-0.292c0.362-0.193,0.66-0.443,0.896-0.75c0.236-0.304,0.413-0.65,0.531-1.039
		C169.806,24.131,169.865,23.742,169.865,23.354z"/>
	<path fill="#FFFFFF" d="M183.229,28.392h-2.372v-1.604h-0.043c-0.222,0.501-0.606,0.94-1.155,1.322s-1.197,0.573-1.945,0.573
		c-0.653,0-1.211-0.115-1.677-0.344c-0.465-0.229-0.846-0.531-1.145-0.905c-0.299-0.375-0.519-0.805-0.655-1.291
		c-0.14-0.486-0.209-0.985-0.209-1.499v-6.245h2.498v5.536c0,0.293,0.021,0.599,0.062,0.917c0.042,0.319,0.132,0.606,0.271,0.863
		c0.139,0.258,0.329,0.469,0.572,0.636c0.243,0.166,0.565,0.25,0.968,0.25c0.39,0,0.732-0.079,1.031-0.239
		c0.297-0.16,0.541-0.365,0.729-0.614c0.188-0.25,0.329-0.538,0.427-0.864s0.146-0.655,0.146-0.988v-5.496h2.498V28.392z
		 M179.356,13.652h2.832l-2.935,2.998h-1.958L179.356,13.652z"/>
	<path fill="#FFFFFF" d="M185.532,12.653h2.5v15.738h-2.5V12.653z"/>
	<path fill="#FFFFFF" d="M195.982,21.064c-0.223-0.291-0.527-0.545-0.916-0.76s-0.813-0.323-1.271-0.323
		c-0.402,0-0.771,0.083-1.104,0.25c-0.334,0.167-0.5,0.444-0.5,0.833s0.184,0.663,0.552,0.823c0.368,0.159,0.905,0.322,1.614,0.488
		c0.374,0.084,0.752,0.194,1.134,0.333c0.381,0.14,0.729,0.323,1.041,0.552s0.565,0.515,0.76,0.854
		c0.194,0.341,0.292,0.754,0.292,1.239c0,0.611-0.114,1.127-0.345,1.552c-0.229,0.423-0.533,0.767-0.916,1.029
		c-0.381,0.264-0.825,0.455-1.331,0.573c-0.508,0.117-1.031,0.177-1.572,0.177c-0.777,0-1.534-0.143-2.269-0.428
		c-0.736-0.283-1.347-0.689-1.832-1.217l1.645-1.541c0.277,0.36,0.638,0.659,1.082,0.895c0.443,0.237,0.937,0.355,1.478,0.355
		c0.18,0,0.365-0.021,0.552-0.063c0.188-0.042,0.361-0.107,0.521-0.197c0.159-0.091,0.287-0.212,0.385-0.364
		c0.097-0.153,0.146-0.341,0.146-0.563c0-0.415-0.191-0.713-0.572-0.895c-0.383-0.181-0.954-0.36-1.718-0.541
		c-0.374-0.084-0.739-0.19-1.093-0.323c-0.354-0.131-0.67-0.305-0.946-0.52c-0.279-0.215-0.501-0.482-0.668-0.802
		c-0.166-0.319-0.249-0.714-0.249-1.187c0-0.555,0.114-1.034,0.343-1.436c0.23-0.402,0.531-0.732,0.906-0.988
		c0.375-0.257,0.798-0.449,1.27-0.573c0.472-0.125,0.958-0.188,1.457-0.188c0.723,0,1.427,0.125,2.113,0.375
		c0.688,0.25,1.231,0.631,1.635,1.146L195.982,21.064z"/>
	<path fill="#FFFFFF" d="M198.814,15.006c0-0.403,0.149-0.753,0.448-1.052c0.298-0.298,0.676-0.447,1.134-0.447
		s0.844,0.143,1.156,0.427s0.469,0.642,0.469,1.072s-0.156,0.788-0.469,1.072s-0.698,0.426-1.156,0.426s-0.836-0.149-1.134-0.447
		C198.964,15.759,198.814,15.409,198.814,15.006z M199.169,18.399h2.498v9.992h-2.498V18.399z"/>
	<path fill="#FFFFFF" d="M203.981,18.399h2.373v1.603h0.042c0.221-0.5,0.606-0.941,1.155-1.322c0.548-0.382,1.196-0.573,1.946-0.573
		c0.652,0,1.211,0.115,1.676,0.344c0.466,0.229,0.847,0.531,1.146,0.905c0.298,0.375,0.516,0.805,0.655,1.291
		c0.138,0.486,0.209,0.985,0.209,1.499v6.245h-2.5v-5.537c0-0.292-0.021-0.598-0.062-0.917c-0.041-0.318-0.132-0.606-0.271-0.863
		s-0.33-0.469-0.572-0.635c-0.244-0.166-0.564-0.25-0.969-0.25c-0.402,0-0.748,0.08-1.041,0.24c-0.291,0.159-0.53,0.364-0.718,0.614
		c-0.188,0.25-0.33,0.538-0.427,0.863c-0.097,0.327-0.146,0.656-0.146,0.99v5.495h-2.498V18.399z"/>
	<path fill="#FFFFFF" d="M215.408,18.399h2.372v1.603h0.043c0.222-0.5,0.606-0.941,1.155-1.322c0.547-0.382,1.196-0.573,1.945-0.573
		c0.653,0,1.211,0.115,1.677,0.344c0.465,0.229,0.846,0.531,1.145,0.905c0.299,0.375,0.518,0.805,0.655,1.291
		c0.139,0.486,0.209,0.985,0.209,1.499v6.245h-2.498v-5.537c0-0.292-0.021-0.598-0.063-0.917c-0.041-0.318-0.131-0.606-0.27-0.863
		s-0.33-0.469-0.572-0.635c-0.244-0.166-0.566-0.25-0.969-0.25c-0.403,0-0.749,0.08-1.04,0.24c-0.291,0.159-0.531,0.364-0.719,0.614
		c-0.188,0.25-0.33,0.538-0.427,0.863c-0.098,0.327-0.146,0.656-0.146,0.99v5.495h-2.498V18.399z"/>
</g>
</svg>
