<?xml version="1.0" standalone="no"?>
<!DOCTYPE svg PUBLIC "-//W3C//DTD SVG 20010904//EN"
 "http://www.w3.org/TR/2001/REC-SVG-20010904/DTD/svg10.dtd">
<svg version="1.0" xmlns="http://www.w3.org/2000/svg"
 width="518.000000pt" height="518.000000pt" viewBox="0 0 518.000000 518.000000"
 preserveAspectRatio="xMidYMid meet">
<metadata>
Created by potrace 1.11, written by Peter Selinger 2001-2013
</metadata>
<g transform="translate(0.000000,518.000000) scale(0.100000,-0.100000)"
fill="#000000" stroke="none">
<path d="M2400 5083 c-752 -57 -1466 -480 -1886 -1118 -282 -428 -414 -888
-414 -1441 l0 -144 2500 0 2500 0 0 205 0 205 -2426 0 -2426 0 6 58 c14 121
47 284 81 401 276 961 1139 1644 2144 1698 l121 6 0 69 0 68 -77 -2 c-43 -1
-98 -3 -123 -5z"/>
<path d="M100 1960 l0 -70 2375 0 c1306 0 2375 -2 2375 -5 0 -10 -90 -236
-122 -305 -168 -365 -504 -743 -863 -972 -350 -223 -815 -368 -1182 -368 l-83
0 0 -76 0 -76 103 6 c381 25 679 101 992 255 579 284 1007 752 1240 1356 50
130 115 310 115 319 0 3 -1114 6 -2475 6 l-2475 0 0 -70z"/>
</g>
</svg>
